<?xml version="1.0" encoding="UTF-8" standalone="no"?><svg xmlns="http://www.w3.org/2000/svg" xmlns:xlink="http://www.w3.org/1999/xlink" contentScriptType="application/ecmascript" contentStyleType="text/css" height="812px" preserveAspectRatio="none" style="width:1241px;height:812px;" version="1.1" viewBox="0 0 1241 812" width="1241px" zoomAndPan="magnify"><defs><filter height="300%" id="flm9dg9mf21y3" width="300%" x="-1" y="-1"><feGaussianBlur result="blurOut" stdDeviation="2.0"/><feColorMatrix in="blurOut" result="blurOut2" type="matrix" values="0 0 0 0 0 0 0 0 0 0 0 0 0 0 0 0 0 0 .4 0"/><feOffset dx="4.0" dy="4.0" in="blurOut2" result="blurOut3"/><feBlend in="SourceGraphic" in2="blurOut3" mode="normal"/></filter></defs><g><!--MD5=[d39d75d20503768f828654fc47e3a2bb]
cluster CLI--><polygon fill="#FFFFFF" filter="url(#flm9dg9mf21y3)" points="166,24,196,24,203,46.2969,374,46.2969,374,271,166,271,166,24" style="stroke: #000000; stroke-width: 1.5;"/><line style="stroke: #000000; stroke-width: 1.5;" x1="166" x2="203" y1="46.2969" y2="46.2969"/><text fill="#000000" font-family="sans-serif" font-size="14" font-weight="bold" lengthAdjust="spacingAndGlyphs" textLength="24" x="170" y="38.9951">CLI</text><!--MD5=[d64883541e3d62e3241c4d12decf100d]
cluster Application--><polygon fill="#FFFFFF" filter="url(#flm9dg9mf21y3)" points="35,304,128,304,135,326.2969,365,326.2969,365,644.5,35,644.5,35,304" style="stroke: #000000; stroke-width: 1.5;"/><line style="stroke: #000000; stroke-width: 1.5;" x1="35" x2="135" y1="326.2969" y2="326.2969"/><text fill="#000000" font-family="sans-serif" font-size="14" font-weight="bold" lengthAdjust="spacingAndGlyphs" textLength="87" x="39" y="318.9951">Application</text><!--MD5=[121a8bf1197281ab89ed693fab589f94]
cluster Domain--><polygon fill="#FFFFFF" filter="url(#flm9dg9mf21y3)" points="389,501,453,501,460,523.2969,1219,523.2969,1219,800,389,800,389,501" style="stroke: #000000; stroke-width: 1.5;"/><line style="stroke: #000000; stroke-width: 1.5;" x1="389" x2="460" y1="523.2969" y2="523.2969"/><text fill="#000000" font-family="sans-serif" font-size="14" font-weight="bold" lengthAdjust="spacingAndGlyphs" textLength="58" x="393" y="515.9951">Domain</text><!--MD5=[9ddaf8ee8bcae11a9a9232f969198262]
cluster Infrastructure--><polygon fill="#FFFFFF" filter="url(#flm9dg9mf21y3)" points="22,682,138,682,145,704.2969,341,704.2969,341,781,22,781,22,682" style="stroke: #000000; stroke-width: 1.5;"/><line style="stroke: #000000; stroke-width: 1.5;" x1="22" x2="145" y1="704.2969" y2="704.2969"/><text fill="#000000" font-family="sans-serif" font-size="14" font-weight="bold" lengthAdjust="spacingAndGlyphs" textLength="110" x="26" y="696.9951">Infrastructure</text><!--MD5=[175f95e045c1a44aed0b30df3abe0e5c]
class Program--><rect fill="#FEFECE" filter="url(#flm9dg9mf21y3)" height="60.8047" id="Program" style="stroke: #A80036; stroke-width: 1.5;" width="126" x="207" y="59"/><ellipse cx="240.45" cy="75" fill="#ADD1B2" rx="11" ry="11" style="stroke: #A80036; stroke-width: 1.0;"/><path d="M243.4188,80.6406 Q242.8406,80.9375 242.2,81.0781 Q241.5594,81.2344 240.8563,81.2344 Q238.3563,81.2344 237.0281,79.5938 Q235.7156,77.9375 235.7156,74.8125 Q235.7156,71.6875 237.0281,70.0313 Q238.3563,68.375 240.8563,68.375 Q241.5594,68.375 242.2,68.5313 Q242.8563,68.6875 243.4188,68.9844 L243.4188,71.7031 Q242.7938,71.125 242.2,70.8594 Q241.6063,70.5781 240.9813,70.5781 Q239.6375,70.5781 238.95,71.6563 Q238.2625,72.7188 238.2625,74.8125 Q238.2625,76.9063 238.95,77.9844 Q239.6375,79.0469 240.9813,79.0469 Q241.6063,79.0469 242.2,78.7813 Q242.7938,78.5 243.4188,77.9219 L243.4188,80.6406 Z "/><text fill="#000000" font-family="sans-serif" font-size="12" lengthAdjust="spacingAndGlyphs" textLength="53" x="258.55" y="79.1543">Program</text><line style="stroke: #A80036; stroke-width: 1.5;" x1="208" x2="332" y1="91" y2="91"/><line style="stroke: #A80036; stroke-width: 1.5;" x1="208" x2="332" y1="99" y2="99"/><text fill="#000000" font-family="sans-serif" font-size="11" lengthAdjust="spacingAndGlyphs" textLength="114" x="213" y="113.2104">+Main(string[] args)</text><!--MD5=[cd45b77dafe01d3c8a27bbc3fefc2e35]
class Runner--><rect fill="#FEFECE" filter="url(#flm9dg9mf21y3)" height="73.6094" id="Runner" style="stroke: #A80036; stroke-width: 1.5;" width="175" x="182.5" y="181"/><ellipse cx="243.25" cy="197" fill="#ADD1B2" rx="11" ry="11" style="stroke: #A80036; stroke-width: 1.0;"/><path d="M246.2188,202.6406 Q245.6406,202.9375 245,203.0781 Q244.3594,203.2344 243.6563,203.2344 Q241.1563,203.2344 239.8281,201.5938 Q238.5156,199.9375 238.5156,196.8125 Q238.5156,193.6875 239.8281,192.0313 Q241.1563,190.375 243.6563,190.375 Q244.3594,190.375 245,190.5313 Q245.6563,190.6875 246.2188,190.9844 L246.2188,193.7031 Q245.5938,193.125 245,192.8594 Q244.4063,192.5781 243.7813,192.5781 Q242.4375,192.5781 241.75,193.6563 Q241.0625,194.7188 241.0625,196.8125 Q241.0625,198.9063 241.75,199.9844 Q242.4375,201.0469 243.7813,201.0469 Q244.4063,201.0469 245,200.7813 Q245.5938,200.5 246.2188,199.9219 L246.2188,202.6406 Z "/><text fill="#000000" font-family="sans-serif" font-size="12" lengthAdjust="spacingAndGlyphs" textLength="45" x="263.75" y="201.1543">Runner</text><line style="stroke: #A80036; stroke-width: 1.5;" x1="183.5" x2="356.5" y1="213" y2="213"/><text fill="#000000" font-family="sans-serif" font-size="11" lengthAdjust="spacingAndGlyphs" textLength="163" x="188.5" y="227.2104">-EmployeeManager manager</text><line style="stroke: #A80036; stroke-width: 1.5;" x1="183.5" x2="356.5" y1="233.8047" y2="233.8047"/><text fill="#000000" font-family="sans-serif" font-size="11" lengthAdjust="spacingAndGlyphs" textLength="109" x="188.5" y="248.0151">+Run(string[] args)</text><!--MD5=[67baf51bdc5253afaf5b9f7f6cd0febc]
class Application.EmployeeManager--><rect fill="#FEFECE" filter="url(#flm9dg9mf21y3)" height="99.2188" id="Application.EmployeeManager" style="stroke: #A80036; stroke-width: 1.5;" width="147" x="196.5" y="339"/><ellipse cx="211.5" cy="355" fill="#ADD1B2" rx="11" ry="11" style="stroke: #A80036; stroke-width: 1.0;"/><path d="M214.4688,360.6406 Q213.8906,360.9375 213.25,361.0781 Q212.6094,361.2344 211.9063,361.2344 Q209.4063,361.2344 208.0781,359.5938 Q206.7656,357.9375 206.7656,354.8125 Q206.7656,351.6875 208.0781,350.0313 Q209.4063,348.375 211.9063,348.375 Q212.6094,348.375 213.25,348.5313 Q213.9063,348.6875 214.4688,348.9844 L214.4688,351.7031 Q213.8438,351.125 213.25,350.8594 Q212.6563,350.5781 212.0313,350.5781 Q210.6875,350.5781 210,351.6563 Q209.3125,352.7188 209.3125,354.8125 Q209.3125,356.9063 210,357.9844 Q210.6875,359.0469 212.0313,359.0469 Q212.6563,359.0469 213.25,358.7813 Q213.8438,358.5 214.4688,357.9219 L214.4688,360.6406 Z "/><text fill="#000000" font-family="sans-serif" font-size="12" lengthAdjust="spacingAndGlyphs" textLength="115" x="225.5" y="359.1543">EmployeeManager</text><line style="stroke: #A80036; stroke-width: 1.5;" x1="197.5" x2="342.5" y1="371" y2="371"/><line style="stroke: #A80036; stroke-width: 1.5;" x1="197.5" x2="342.5" y1="379" y2="379"/><text fill="#000000" font-family="sans-serif" font-size="11" lengthAdjust="spacingAndGlyphs" textLength="105" x="202.5" y="393.2104">+AddEmployee(...)</text><text fill="#000000" font-family="sans-serif" font-size="11" lengthAdjust="spacingAndGlyphs" textLength="133" x="202.5" y="406.0151">+DisplayAllEmployees()</text><text fill="#000000" font-family="sans-serif" font-size="11" lengthAdjust="spacingAndGlyphs" textLength="101" x="202.5" y="418.8198">+ProcessPayroll()</text><text fill="#000000" font-family="sans-serif" font-size="11" lengthAdjust="spacingAndGlyphs" textLength="90" x="202.5" y="431.6245">+SaveToFile(...)</text><!--MD5=[180b0fac476a1ec8f7af959d322f9292]
class Application.INotifier--><rect fill="#FEFECE" filter="url(#flm9dg9mf21y3)" height="60.8047" id="Application.INotifier" style="stroke: #A80036; stroke-width: 1.5;" width="94" x="51" y="555"/><ellipse cx="71.85" cy="571" fill="#B4A7E5" rx="11" ry="11" style="stroke: #A80036; stroke-width: 1.0;"/><path d="M67.7719,566.7656 L67.7719,564.6094 L75.1625,564.6094 L75.1625,566.7656 L72.6938,566.7656 L72.6938,574.8438 L75.1625,574.8438 L75.1625,577 L67.7719,577 L67.7719,574.8438 L70.2406,574.8438 L70.2406,566.7656 L67.7719,566.7656 Z "/><text fill="#000000" font-family="sans-serif" font-size="12" font-style="italic" lengthAdjust="spacingAndGlyphs" textLength="49" x="87.15" y="575.1543">INotifier</text><line style="stroke: #A80036; stroke-width: 1.5;" x1="52" x2="144" y1="587" y2="587"/><line style="stroke: #A80036; stroke-width: 1.5;" x1="52" x2="144" y1="595" y2="595"/><text fill="#000000" font-family="sans-serif" font-size="11" lengthAdjust="spacingAndGlyphs" textLength="82" x="57" y="609.2104">+Notify(string)</text><!--MD5=[d82a670bffc6f165cb62593143e47d72]
class Application.IFileService--><rect fill="#FEFECE" filter="url(#flm9dg9mf21y3)" height="86.4141" id="Application.IFileService" style="stroke: #A80036; stroke-width: 1.5;" width="169" x="180.5" y="542.5"/><ellipse cx="225.75" cy="558.5" fill="#B4A7E5" rx="11" ry="11" style="stroke: #A80036; stroke-width: 1.0;"/><path d="M221.6719,554.2656 L221.6719,552.1094 L229.0625,552.1094 L229.0625,554.2656 L226.5938,554.2656 L226.5938,562.3438 L229.0625,562.3438 L229.0625,564.5 L221.6719,564.5 L221.6719,562.3438 L224.1406,562.3438 L224.1406,554.2656 L221.6719,554.2656 Z "/><text fill="#000000" font-family="sans-serif" font-size="12" font-style="italic" lengthAdjust="spacingAndGlyphs" textLength="70" x="246.25" y="562.6543">IFileService</text><line style="stroke: #A80036; stroke-width: 1.5;" x1="181.5" x2="348.5" y1="574.5" y2="574.5"/><line style="stroke: #A80036; stroke-width: 1.5;" x1="181.5" x2="348.5" y1="582.5" y2="582.5"/><text fill="#000000" font-family="sans-serif" font-size="11" lengthAdjust="spacingAndGlyphs" textLength="132" x="186.5" y="596.7104">+Save(file, employees)</text><text fill="#000000" font-family="sans-serif" font-size="11" lengthAdjust="spacingAndGlyphs" textLength="61" x="186.5" y="609.5151">+Load(file)</text><text fill="#000000" font-family="sans-serif" font-size="11" lengthAdjust="spacingAndGlyphs" textLength="157" x="186.5" y="622.3198">+AppendLog(file, message)</text><!--MD5=[9513cf6fb143bdcb396279513aa87f3c]
class Domain.Employee--><rect fill="#FEFECE" filter="url(#flm9dg9mf21y3)" height="99.2188" id="Domain.Employee" style="stroke: #A80036; stroke-width: 1.5;" width="129" x="705.5" y="536"/><ellipse cx="737.15" cy="552" fill="#ADD1B2" rx="11" ry="11" style="stroke: #A80036; stroke-width: 1.0;"/><path d="M740.1188,557.6406 Q739.5406,557.9375 738.9,558.0781 Q738.2594,558.2344 737.5563,558.2344 Q735.0563,558.2344 733.7281,556.5938 Q732.4156,554.9375 732.4156,551.8125 Q732.4156,548.6875 733.7281,547.0313 Q735.0563,545.375 737.5563,545.375 Q738.2594,545.375 738.9,545.5313 Q739.5563,545.6875 740.1188,545.9844 L740.1188,548.7031 Q739.4938,548.125 738.9,547.8594 Q738.3063,547.5781 737.6813,547.5781 Q736.3375,547.5781 735.65,548.6563 Q734.9625,549.7188 734.9625,551.8125 Q734.9625,553.9063 735.65,554.9844 Q736.3375,556.0469 737.6813,556.0469 Q738.3063,556.0469 738.9,555.7813 Q739.4938,555.5 740.1188,554.9219 L740.1188,557.6406 Z "/><text fill="#000000" font-family="sans-serif" font-size="12" lengthAdjust="spacingAndGlyphs" textLength="60" x="754.85" y="556.1543">Employee</text><line style="stroke: #A80036; stroke-width: 1.5;" x1="706.5" x2="833.5" y1="568" y2="568"/><text fill="#000000" font-family="sans-serif" font-size="11" lengthAdjust="spacingAndGlyphs" textLength="74" x="711.5" y="582.2104">-string Name</text><text fill="#000000" font-family="sans-serif" font-size="11" lengthAdjust="spacingAndGlyphs" textLength="117" x="711.5" y="595.0151">-EmployeeType Type</text><text fill="#000000" font-family="sans-serif" font-size="11" lengthAdjust="spacingAndGlyphs" textLength="117" x="711.5" y="607.8198">-decimal BaseSalary</text><text fill="#000000" font-family="sans-serif" font-size="11" lengthAdjust="spacingAndGlyphs" textLength="88" x="711.5" y="620.6245">-decimal Bonus</text><line style="stroke: #A80036; stroke-width: 1.5;" x1="706.5" x2="833.5" y1="627.2188" y2="627.2188"/><!--MD5=[e88339a753761e0d2f116eccb562a4ec]
class Domain.SalaryCalculatorFactory--><rect fill="#FEFECE" filter="url(#flm9dg9mf21y3)" height="60.8047" id="Domain.SalaryCalculatorFactory" style="stroke: #A80036; stroke-width: 1.5;" width="292" x="870" y="555"/><ellipse cx="938.25" cy="571" fill="#ADD1B2" rx="11" ry="11" style="stroke: #A80036; stroke-width: 1.0;"/><path d="M941.2188,576.6406 Q940.6406,576.9375 940,577.0781 Q939.3594,577.2344 938.6563,577.2344 Q936.1563,577.2344 934.8281,575.5938 Q933.5156,573.9375 933.5156,570.8125 Q933.5156,567.6875 934.8281,566.0313 Q936.1563,564.375 938.6563,564.375 Q939.3594,564.375 940,564.5313 Q940.6563,564.6875 941.2188,564.9844 L941.2188,567.7031 Q940.5938,567.125 940,566.8594 Q939.4063,566.5781 938.7813,566.5781 Q937.4375,566.5781 936.75,567.6563 Q936.0625,568.7188 936.0625,570.8125 Q936.0625,572.9063 936.75,573.9844 Q937.4375,575.0469 938.7813,575.0469 Q939.4063,575.0469 940,574.7813 Q940.5938,574.5 941.2188,573.9219 L941.2188,576.6406 Z "/><text fill="#000000" font-family="sans-serif" font-size="12" lengthAdjust="spacingAndGlyphs" textLength="147" x="958.75" y="575.1543">SalaryCalculatorFactory</text><line style="stroke: #A80036; stroke-width: 1.5;" x1="871" x2="1161" y1="587" y2="587"/><line style="stroke: #A80036; stroke-width: 1.5;" x1="871" x2="1161" y1="595" y2="595"/><text fill="#000000" font-family="sans-serif" font-size="11" lengthAdjust="spacingAndGlyphs" textLength="280" x="876" y="609.2104">+GetCalculator(EmployeeType): ISalaryCalculator</text><!--MD5=[f32756a2fcca204868733bfbde954d66]
class Domain.EmployeeType--><rect fill="#FEFECE" filter="url(#flm9dg9mf21y3)" height="86.4141" id="Domain.EmployeeType" style="stroke: #A80036; stroke-width: 1.5;" width="121" x="1081.5" y="698"/><ellipse cx="1096.5" cy="714" fill="#EB937F" rx="11" ry="11" style="stroke: #A80036; stroke-width: 1.0;"/><path d="M1100.6094,720 L1092.8906,720 L1092.8906,707.6094 L1100.6094,707.6094 L1100.6094,709.7656 L1095.3438,709.7656 L1095.3438,712.4375 L1100.1094,712.4375 L1100.1094,714.5938 L1095.3438,714.5938 L1095.3438,717.8438 L1100.6094,717.8438 L1100.6094,720 Z "/><text fill="#000000" font-family="sans-serif" font-size="12" lengthAdjust="spacingAndGlyphs" textLength="89" x="1110.5" y="718.1543">EmployeeType</text><line style="stroke: #A80036; stroke-width: 1.5;" x1="1082.5" x2="1201.5" y1="730" y2="730"/><text fill="#000000" font-family="sans-serif" font-size="11" lengthAdjust="spacingAndGlyphs" textLength="47" x="1087.5" y="744.2104">FullTime</text><text fill="#000000" font-family="sans-serif" font-size="11" lengthAdjust="spacingAndGlyphs" textLength="51" x="1087.5" y="757.0151">PartTime</text><text fill="#000000" font-family="sans-serif" font-size="11" lengthAdjust="spacingAndGlyphs" textLength="60" x="1087.5" y="769.8198">Contractor</text><line style="stroke: #A80036; stroke-width: 1.5;" x1="1082.5" x2="1201.5" y1="776.4141" y2="776.4141"/><!--MD5=[4e2103324c72150807ca015b7c492189]
class Domain.ISalaryCalculator--><rect fill="#FEFECE" filter="url(#flm9dg9mf21y3)" height="60.8047" id="Domain.ISalaryCalculator" style="stroke: #A80036; stroke-width: 1.5;" width="224" x="446" y="555"/><ellipse cx="500.75" cy="571" fill="#B4A7E5" rx="11" ry="11" style="stroke: #A80036; stroke-width: 1.0;"/><path d="M496.6719,566.7656 L496.6719,564.6094 L504.0625,564.6094 L504.0625,566.7656 L501.5938,566.7656 L501.5938,574.8438 L504.0625,574.8438 L504.0625,577 L496.6719,577 L496.6719,574.8438 L499.1406,574.8438 L499.1406,566.7656 L496.6719,566.7656 Z "/><text fill="#000000" font-family="sans-serif" font-size="12" font-style="italic" lengthAdjust="spacingAndGlyphs" textLength="106" x="521.25" y="575.1543">ISalaryCalculator</text><line style="stroke: #A80036; stroke-width: 1.5;" x1="447" x2="669" y1="587" y2="587"/><line style="stroke: #A80036; stroke-width: 1.5;" x1="447" x2="669" y1="595" y2="595"/><text fill="#000000" font-family="sans-serif" font-size="11" lengthAdjust="spacingAndGlyphs" textLength="212" x="452" y="609.2104">+CalculateSalary(Employee): decimal</text><!--MD5=[35de174249e49ca9b2152e1c84d07059]
class Domain.FullTimeSalaryCalculator--><rect fill="#FEFECE" filter="url(#flm9dg9mf21y3)" height="48" id="Domain.FullTimeSalaryCalculator" style="stroke: #A80036; stroke-width: 1.5;" width="183" x="863.5" y="717"/><ellipse cx="878.5" cy="733" fill="#ADD1B2" rx="11" ry="11" style="stroke: #A80036; stroke-width: 1.0;"/><path d="M881.4688,738.6406 Q880.8906,738.9375 880.25,739.0781 Q879.6094,739.2344 878.9063,739.2344 Q876.4063,739.2344 875.0781,737.5938 Q873.7656,735.9375 873.7656,732.8125 Q873.7656,729.6875 875.0781,728.0313 Q876.4063,726.375 878.9063,726.375 Q879.6094,726.375 880.25,726.5313 Q880.9063,726.6875 881.4688,726.9844 L881.4688,729.7031 Q880.8438,729.125 880.25,728.8594 Q879.6563,728.5781 879.0313,728.5781 Q877.6875,728.5781 877,729.6563 Q876.3125,730.7188 876.3125,732.8125 Q876.3125,734.9063 877,735.9844 Q877.6875,737.0469 879.0313,737.0469 Q879.6563,737.0469 880.25,736.7813 Q880.8438,736.5 881.4688,735.9219 L881.4688,738.6406 Z "/><text fill="#000000" font-family="sans-serif" font-size="12" lengthAdjust="spacingAndGlyphs" textLength="151" x="892.5" y="737.1543">FullTimeSalaryCalculator</text><line style="stroke: #A80036; stroke-width: 1.5;" x1="864.5" x2="1045.5" y1="749" y2="749"/><line style="stroke: #A80036; stroke-width: 1.5;" x1="864.5" x2="1045.5" y1="757" y2="757"/><!--MD5=[edee629e4ce91fc30280bae8ad95552f]
class Domain.PartTimeSalaryCalculator--><rect fill="#FEFECE" filter="url(#flm9dg9mf21y3)" height="48" id="Domain.PartTimeSalaryCalculator" style="stroke: #A80036; stroke-width: 1.5;" width="188" x="405" y="717"/><ellipse cx="420" cy="733" fill="#ADD1B2" rx="11" ry="11" style="stroke: #A80036; stroke-width: 1.0;"/><path d="M422.9688,738.6406 Q422.3906,738.9375 421.75,739.0781 Q421.1094,739.2344 420.4063,739.2344 Q417.9063,739.2344 416.5781,737.5938 Q415.2656,735.9375 415.2656,732.8125 Q415.2656,729.6875 416.5781,728.0313 Q417.9063,726.375 420.4063,726.375 Q421.1094,726.375 421.75,726.5313 Q422.4063,726.6875 422.9688,726.9844 L422.9688,729.7031 Q422.3438,729.125 421.75,728.8594 Q421.1563,728.5781 420.5313,728.5781 Q419.1875,728.5781 418.5,729.6563 Q417.8125,730.7188 417.8125,732.8125 Q417.8125,734.9063 418.5,735.9844 Q419.1875,737.0469 420.5313,737.0469 Q421.1563,737.0469 421.75,736.7813 Q422.3438,736.5 422.9688,735.9219 L422.9688,738.6406 Z "/><text fill="#000000" font-family="sans-serif" font-size="12" lengthAdjust="spacingAndGlyphs" textLength="156" x="434" y="737.1543">PartTimeSalaryCalculator</text><line style="stroke: #A80036; stroke-width: 1.5;" x1="406" x2="592" y1="749" y2="749"/><line style="stroke: #A80036; stroke-width: 1.5;" x1="406" x2="592" y1="757" y2="757"/><!--MD5=[0a494d2a36bad18bfd6e7f4577b4d51b]
class Domain.ContractorSalaryCalculator--><rect fill="#FEFECE" filter="url(#flm9dg9mf21y3)" height="48" id="Domain.ContractorSalaryCalculator" style="stroke: #A80036; stroke-width: 1.5;" width="200" x="628" y="717"/><ellipse cx="643" cy="733" fill="#ADD1B2" rx="11" ry="11" style="stroke: #A80036; stroke-width: 1.0;"/><path d="M645.9688,738.6406 Q645.3906,738.9375 644.75,739.0781 Q644.1094,739.2344 643.4063,739.2344 Q640.9063,739.2344 639.5781,737.5938 Q638.2656,735.9375 638.2656,732.8125 Q638.2656,729.6875 639.5781,728.0313 Q640.9063,726.375 643.4063,726.375 Q644.1094,726.375 644.75,726.5313 Q645.4063,726.6875 645.9688,726.9844 L645.9688,729.7031 Q645.3438,729.125 644.75,728.8594 Q644.1563,728.5781 643.5313,728.5781 Q642.1875,728.5781 641.5,729.6563 Q640.8125,730.7188 640.8125,732.8125 Q640.8125,734.9063 641.5,735.9844 Q642.1875,737.0469 643.5313,737.0469 Q644.1563,737.0469 644.75,736.7813 Q645.3438,736.5 645.9688,735.9219 L645.9688,738.6406 Z "/><text fill="#000000" font-family="sans-serif" font-size="12" lengthAdjust="spacingAndGlyphs" textLength="168" x="657" y="737.1543">ContractorSalaryCalculator</text><line style="stroke: #A80036; stroke-width: 1.5;" x1="629" x2="827" y1="749" y2="749"/><line style="stroke: #A80036; stroke-width: 1.5;" x1="629" x2="827" y1="757" y2="757"/><!--MD5=[2211d73e6e6ba377512b9f2170790db9]
class ConsoleNotifier--><rect fill="#FEFECE" filter="url(#flm9dg9mf21y3)" height="48" id="ConsoleNotifier" style="stroke: #A80036; stroke-width: 1.5;" width="127" x="38.5" y="717"/><ellipse cx="53.5" cy="733" fill="#ADD1B2" rx="11" ry="11" style="stroke: #A80036; stroke-width: 1.0;"/><path d="M56.4688,738.6406 Q55.8906,738.9375 55.25,739.0781 Q54.6094,739.2344 53.9063,739.2344 Q51.4063,739.2344 50.0781,737.5938 Q48.7656,735.9375 48.7656,732.8125 Q48.7656,729.6875 50.0781,728.0313 Q51.4063,726.375 53.9063,726.375 Q54.6094,726.375 55.25,726.5313 Q55.9063,726.6875 56.4688,726.9844 L56.4688,729.7031 Q55.8438,729.125 55.25,728.8594 Q54.6563,728.5781 54.0313,728.5781 Q52.6875,728.5781 52,729.6563 Q51.3125,730.7188 51.3125,732.8125 Q51.3125,734.9063 52,735.9844 Q52.6875,737.0469 54.0313,737.0469 Q54.6563,737.0469 55.25,736.7813 Q55.8438,736.5 56.4688,735.9219 L56.4688,738.6406 Z "/><text fill="#000000" font-family="sans-serif" font-size="12" lengthAdjust="spacingAndGlyphs" textLength="95" x="67.5" y="737.1543">ConsoleNotifier</text><line style="stroke: #A80036; stroke-width: 1.5;" x1="39.5" x2="164.5" y1="749" y2="749"/><line style="stroke: #A80036; stroke-width: 1.5;" x1="39.5" x2="164.5" y1="757" y2="757"/><!--MD5=[49f0cface6e649832e0e3fc291e4ab28]
class TextFileService--><rect fill="#FEFECE" filter="url(#flm9dg9mf21y3)" height="48" id="TextFileService" style="stroke: #A80036; stroke-width: 1.5;" width="124" x="201" y="717"/><ellipse cx="216" cy="733" fill="#ADD1B2" rx="11" ry="11" style="stroke: #A80036; stroke-width: 1.0;"/><path d="M218.9688,738.6406 Q218.3906,738.9375 217.75,739.0781 Q217.1094,739.2344 216.4063,739.2344 Q213.9063,739.2344 212.5781,737.5938 Q211.2656,735.9375 211.2656,732.8125 Q211.2656,729.6875 212.5781,728.0313 Q213.9063,726.375 216.4063,726.375 Q217.1094,726.375 217.75,726.5313 Q218.4063,726.6875 218.9688,726.9844 L218.9688,729.7031 Q218.3438,729.125 217.75,728.8594 Q217.1563,728.5781 216.5313,728.5781 Q215.1875,728.5781 214.5,729.6563 Q213.8125,730.7188 213.8125,732.8125 Q213.8125,734.9063 214.5,735.9844 Q215.1875,737.0469 216.5313,737.0469 Q217.1563,737.0469 217.75,736.7813 Q218.3438,736.5 218.9688,735.9219 L218.9688,738.6406 Z "/><text fill="#000000" font-family="sans-serif" font-size="12" lengthAdjust="spacingAndGlyphs" textLength="92" x="230" y="737.1543">TextFileService</text><line style="stroke: #A80036; stroke-width: 1.5;" x1="202" x2="324" y1="749" y2="749"/><line style="stroke: #A80036; stroke-width: 1.5;" x1="202" x2="324" y1="757" y2="757"/><!--MD5=[e7b8102801bc545a7c4d524dfa058758]
link Program to Runner--><path d="M270,120.28 C270,120.28 270,175.6 270,175.6 " fill="none" id="Program-&gt;Runner" style="stroke: #A80036; stroke-width: 1.0;"/><polygon fill="#A80036" points="270,180.6,274,171.6,270,175.6,266,171.6,270,180.6" style="stroke: #A80036; stroke-width: 1.0;"/><!--MD5=[c0ba35e1b2acfa6177e186c22c1e0e1f]
link Runner to Application.EmployeeManager--><path d="M270,255.42 C270,255.42 270,333.87 270,333.87 " fill="none" id="Runner-&gt;Application.EmployeeManager" style="stroke: #A80036; stroke-width: 1.0;"/><polygon fill="#A80036" points="270,338.87,274,329.87,270,333.87,266,329.87,270,338.87" style="stroke: #A80036; stroke-width: 1.0;"/><!--MD5=[ccf25d4a65015a0b647aa34b518bc802]
link Application.EmployeeManager to Domain.Employee--><path d="M343.51,405 C482.49,405 770,405 770,405 C770,405 770,530.7 770,530.7 " fill="none" id="Application.EmployeeManager-&gt;Domain.Employee" style="stroke: #A80036; stroke-width: 1.0;"/><polygon fill="#A80036" points="770,535.7,774,526.7,770,530.7,766,526.7,770,535.7" style="stroke: #A80036; stroke-width: 1.0;"/><!--MD5=[3910c503b3eed25441d9eea44afd823c]
link Application.EmployeeManager to Application.IFileService--><path d="M270,438.21 C270,438.21 270,537.5 270,537.5 " fill="none" id="Application.EmployeeManager-&gt;Application.IFileService" style="stroke: #A80036; stroke-width: 1.0;"/><polygon fill="#A80036" points="270,542.5,274,533.5,270,537.5,266,533.5,270,542.5" style="stroke: #A80036; stroke-width: 1.0;"/><!--MD5=[42c1c2e9e08e9f4cb70be13c80971f48]
link Application.EmployeeManager to Application.INotifier--><path d="M196.06,389 C149.44,389 98,389 98,389 C98,389 98,549.8 98,549.8 " fill="none" id="Application.EmployeeManager-&gt;Application.INotifier" style="stroke: #A80036; stroke-width: 1.0;"/><polygon fill="#A80036" points="98,554.8,102,545.8,98,549.8,94,545.8,98,554.8" style="stroke: #A80036; stroke-width: 1.0;"/><!--MD5=[15939b29dbcb4762e0e81020d8aa9cae]
link Application.EmployeeManager to Domain.SalaryCalculatorFactory--><path d="M343.57,372 C531.78,372 1016,372 1016,372 C1016,372 1016,549.91 1016,549.91 " fill="none" id="Application.EmployeeManager-&gt;Domain.SalaryCalculatorFactory" style="stroke: #A80036; stroke-width: 1.0; stroke-dasharray: 7.0,7.0;"/><polygon fill="#A80036" points="1016,554.91,1020,545.91,1016,549.91,1012,545.91,1016,554.91" style="stroke: #A80036; stroke-width: 1.0;"/><text fill="#000000" font-family="sans-serif" font-size="13" lengthAdjust="spacingAndGlyphs" textLength="30" x="774" y="481.0669">uses</text><!--MD5=[06894918e6ebffc1902b08bbd0f4d82c]
link Domain.Employee to Domain.EmployeeType--><path d="M834.52,626 C936.06,626 1121.75,626 1121.75,626 C1121.75,626 1121.75,692.85 1121.75,692.85 " fill="none" id="Domain.Employee-&gt;Domain.EmployeeType" style="stroke: #A80036; stroke-width: 1.0;"/><polygon fill="#A80036" points="1121.75,697.85,1125.75,688.85,1121.75,692.85,1117.75,688.85,1121.75,697.85" style="stroke: #A80036; stroke-width: 1.0;"/><!--MD5=[febbb54de80d9abcf5c18848624d9e3f]
reverse link Domain.ISalaryCalculator to Domain.FullTimeSalaryCalculator--><path d="M656,636.31 C656,636.31 656,667 656,667 C656,667 958.25,667 958.25,667 C958.25,667 958.25,695.19 958.25,716.77 " fill="none" id="Domain.ISalaryCalculator&lt;-Domain.FullTimeSalaryCalculator" style="stroke: #A80036; stroke-width: 1.0; stroke-dasharray: 7.0,7.0;"/><polygon fill="none" points="649,636.31,656,616.31,663,636.31,649,636.31" style="stroke: #A80036; stroke-width: 1.0;"/><!--MD5=[e52880293b0f368d61347fbafa9ea69c]
reverse link Domain.ISalaryCalculator to Domain.PartTimeSalaryCalculator--><path d="M519.5,636.22 C519.5,636.22 519.5,716.96 519.5,716.96 " fill="none" id="Domain.ISalaryCalculator&lt;-Domain.PartTimeSalaryCalculator" style="stroke: #A80036; stroke-width: 1.0; stroke-dasharray: 7.0,7.0;"/><polygon fill="none" points="512.5,636.22,519.5,616.22,526.5,636.22,512.5,636.22" style="stroke: #A80036; stroke-width: 1.0;"/><!--MD5=[e22acd3c01ae8c231f2a7c30fd9cc00c]
reverse link Domain.ISalaryCalculator to Domain.ContractorSalaryCalculator--><path d="M642,636.22 C642,636.22 642,716.96 642,716.96 " fill="none" id="Domain.ISalaryCalculator&lt;-Domain.ContractorSalaryCalculator" style="stroke: #A80036; stroke-width: 1.0; stroke-dasharray: 7.0,7.0;"/><polygon fill="none" points="635,636.22,642,616.22,649,636.22,635,636.22" style="stroke: #A80036; stroke-width: 1.0;"/><!--MD5=[919dc0b40e91cb105710cdcf38443408]
reverse link Application.INotifier to ConsoleNotifier--><path d="M98,636.22 C98,636.22 98,716.96 98,716.96 " fill="none" id="Application.INotifier&lt;-ConsoleNotifier" style="stroke: #A80036; stroke-width: 1.0; stroke-dasharray: 7.0,7.0;"/><polygon fill="none" points="91,636.22,98,616.22,105,636.22,91,636.22" style="stroke: #A80036; stroke-width: 1.0;"/><!--MD5=[faacd397c7d8232671099de3fc90529b]
reverse link Application.IFileService to TextFileService--><path d="M263,648.82 C263,648.82 263,716.75 263,716.75 " fill="none" id="Application.IFileService&lt;-TextFileService" style="stroke: #A80036; stroke-width: 1.0; stroke-dasharray: 7.0,7.0;"/><polygon fill="none" points="256,648.82,263,628.82,270,648.82,256,648.82" style="stroke: #A80036; stroke-width: 1.0;"/><!--MD5=[b72058758f2744ea58292898c0501793]
@startuml
skinparam classAttributeIconSize 0
skinparam linetype ortho

package CLI {
  class Program {
    + Main(string[] args)
  }

  class Runner {
    - EmployeeManager manager
    + Run(string[] args)
  }

  Program - -> Runner
  Runner - -> Application.EmployeeManager
}

package Application {
  interface INotifier {
    + Notify(string)
  }

  interface IFileService {
    + Save(file, employees)
    + Load(file)
    + AppendLog(file, message)
  }

  class EmployeeManager {
    + AddEmployee(...)
    + DisplayAllEmployees()
    + ProcessPayroll()
    + SaveToFile(...)
  }

  EmployeeManager - -> Domain.Employee
  EmployeeManager - -> IFileService
  EmployeeManager - -> INotifier
  EmployeeManager ..> Domain.SalaryCalculatorFactory : uses
}

package Domain {
  class Employee {
    - string Name
    - EmployeeType Type
    - decimal BaseSalary
    - decimal Bonus
  }

  enum EmployeeType {
    FullTime
    PartTime
    Contractor
  }

  Employee - -> EmployeeType

  interface ISalaryCalculator {
    + CalculateSalary(Employee): decimal
  }

  class FullTimeSalaryCalculator
  class PartTimeSalaryCalculator
  class ContractorSalaryCalculator

  ISalaryCalculator <|.. FullTimeSalaryCalculator
  ISalaryCalculator <|.. PartTimeSalaryCalculator
  ISalaryCalculator <|.. ContractorSalaryCalculator

  class SalaryCalculatorFactory {
    + GetCalculator(EmployeeType): ISalaryCalculator
  }
}

package Infrastructure {
  class ConsoleNotifier
  class TextFileService

  Application.INotifier <|.. ConsoleNotifier
  Application.IFileService <|.. TextFileService
}
@enduml

PlantUML version 1.2020.02(Sun Mar 01 06:22:07 AMT 2020)
(GPL source distribution)
Java Runtime: OpenJDK Runtime Environment
JVM: OpenJDK 64-Bit Server VM
Java Version: 21.0.7+6-LTS
Operating System: Linux
Default Encoding: UTF-8
Language: en
Country: null
--></g></svg>