<?xml version="1.0" encoding="UTF-8" standalone="no"?><svg xmlns="http://www.w3.org/2000/svg" xmlns:xlink="http://www.w3.org/1999/xlink" contentScriptType="application/ecmascript" contentStyleType="text/css" height="226px" preserveAspectRatio="none" style="width:412px;height:226px;" version="1.1" viewBox="0 0 412 226" width="412px" zoomAndPan="magnify"><defs><filter height="300%" id="f1hm697j2gc1cl" width="300%" x="-1" y="-1"><feGaussianBlur result="blurOut" stdDeviation="2.0"/><feColorMatrix in="blurOut" result="blurOut2" type="matrix" values="0 0 0 0 0 0 0 0 0 0 0 0 0 0 0 0 0 0 .4 0"/><feOffset dx="4.0" dy="4.0" in="blurOut2" result="blurOut3"/><feBlend in="SourceGraphic" in2="blurOut3" mode="normal"/></filter></defs><g><!--MD5=[1e036e9b4722bf1c261efb4a2a311509]
class Factorial--><rect fill="#FEFECE" filter="url(#f1hm697j2gc1cl)" height="60.8047" id="Factorial" style="stroke: #A80036; stroke-width: 1.5;" width="191" x="6" y="8"/><ellipse cx="70.25" cy="24" fill="#ADD1B2" rx="11" ry="11" style="stroke: #A80036; stroke-width: 1.0;"/><path d="M73.2188,29.6406 Q72.6406,29.9375 72,30.0781 Q71.3594,30.2344 70.6563,30.2344 Q68.1563,30.2344 66.8281,28.5938 Q65.5156,26.9375 65.5156,23.8125 Q65.5156,20.6875 66.8281,19.0313 Q68.1563,17.375 70.6563,17.375 Q71.3594,17.375 72,17.5313 Q72.6563,17.6875 73.2188,17.9844 L73.2188,20.7031 Q72.5938,20.125 72,19.8594 Q71.4063,19.5781 70.7813,19.5781 Q69.4375,19.5781 68.75,20.6563 Q68.0625,21.7188 68.0625,23.8125 Q68.0625,25.9063 68.75,26.9844 Q69.4375,28.0469 70.7813,28.0469 Q71.4063,28.0469 72,27.7813 Q72.5938,27.5 73.2188,26.9219 L73.2188,29.6406 Z "/><text fill="#000000" font-family="sans-serif" font-size="12" lengthAdjust="spacingAndGlyphs" textLength="54" x="90.75" y="28.1543">Factorial</text><line style="stroke: #A80036; stroke-width: 1.5;" x1="7" x2="196" y1="40" y2="40"/><line style="stroke: #A80036; stroke-width: 1.5;" x1="7" x2="196" y1="48" y2="48"/><ellipse cx="17" cy="59" fill="#84BE84" rx="3" ry="3" style="stroke: #038048; stroke-width: 1.0;"/><text fill="#000000" font-family="sans-serif" font-size="11" lengthAdjust="spacingAndGlyphs" textLength="165" x="26" y="62.2104">static int SolveFactorial(int n)</text><!--MD5=[05f8f5a12c1ae56700166ce571d390cb]
class ArrayMethods--><rect fill="#FEFECE" filter="url(#f1hm697j2gc1cl)" height="60.8047" id="ArrayMethods" style="stroke: #A80036; stroke-width: 1.5;" width="169" x="232" y="8"/><ellipse cx="269.95" cy="24" fill="#ADD1B2" rx="11" ry="11" style="stroke: #A80036; stroke-width: 1.0;"/><path d="M272.9188,29.6406 Q272.3406,29.9375 271.7,30.0781 Q271.0594,30.2344 270.3563,30.2344 Q267.8563,30.2344 266.5281,28.5938 Q265.2156,26.9375 265.2156,23.8125 Q265.2156,20.6875 266.5281,19.0313 Q267.8563,17.375 270.3563,17.375 Q271.0594,17.375 271.7,17.5313 Q272.3563,17.6875 272.9188,17.9844 L272.9188,20.7031 Q272.2938,20.125 271.7,19.8594 Q271.1063,19.5781 270.4813,19.5781 Q269.1375,19.5781 268.45,20.6563 Q267.7625,21.7188 267.7625,23.8125 Q267.7625,25.9063 268.45,26.9844 Q269.1375,28.0469 270.4813,28.0469 Q271.1063,28.0469 271.7,27.7813 Q272.2938,27.5 272.9188,26.9219 L272.9188,29.6406 Z "/><text fill="#000000" font-family="sans-serif" font-size="12" lengthAdjust="spacingAndGlyphs" textLength="86" x="289.05" y="28.1543">ArrayMethods</text><line style="stroke: #A80036; stroke-width: 1.5;" x1="233" x2="400" y1="40" y2="40"/><line style="stroke: #A80036; stroke-width: 1.5;" x1="233" x2="400" y1="48" y2="48"/><ellipse cx="243" cy="59" fill="#84BE84" rx="3" ry="3" style="stroke: #038048; stroke-width: 1.0;"/><text fill="#000000" font-family="sans-serif" font-size="11" lengthAdjust="spacingAndGlyphs" textLength="143" x="252" y="62.2104">static int Sum(int[] array)</text><!--MD5=[9dd067393df614930dedc7a110b3d8fd]
class Fibonacci--><rect fill="#FEFECE" filter="url(#f1hm697j2gc1cl)" height="60.8047" id="Fibonacci" style="stroke: #A80036; stroke-width: 1.5;" width="184" x="9.5" y="141.5"/><ellipse cx="67.75" cy="157.5" fill="#ADD1B2" rx="11" ry="11" style="stroke: #A80036; stroke-width: 1.0;"/><path d="M70.7188,163.1406 Q70.1406,163.4375 69.5,163.5781 Q68.8594,163.7344 68.1563,163.7344 Q65.6563,163.7344 64.3281,162.0938 Q63.0156,160.4375 63.0156,157.3125 Q63.0156,154.1875 64.3281,152.5313 Q65.6563,150.875 68.1563,150.875 Q68.8594,150.875 69.5,151.0313 Q70.1563,151.1875 70.7188,151.4844 L70.7188,154.2031 Q70.0938,153.625 69.5,153.3594 Q68.9063,153.0781 68.2813,153.0781 Q66.9375,153.0781 66.25,154.1563 Q65.5625,155.2188 65.5625,157.3125 Q65.5625,159.4063 66.25,160.4844 Q66.9375,161.5469 68.2813,161.5469 Q68.9063,161.5469 69.5,161.2813 Q70.0938,161 70.7188,160.4219 L70.7188,163.1406 Z "/><text fill="#000000" font-family="sans-serif" font-size="12" lengthAdjust="spacingAndGlyphs" textLength="59" x="88.25" y="161.6543">Fibonacci</text><line style="stroke: #A80036; stroke-width: 1.5;" x1="10.5" x2="192.5" y1="173.5" y2="173.5"/><line style="stroke: #A80036; stroke-width: 1.5;" x1="10.5" x2="192.5" y1="181.5" y2="181.5"/><ellipse cx="20.5" cy="192.5" fill="#84BE84" rx="3" ry="3" style="stroke: #038048; stroke-width: 1.0;"/><text fill="#000000" font-family="sans-serif" font-size="11" lengthAdjust="spacingAndGlyphs" textLength="158" x="29.5" y="195.7104">static int GetFibonacci(int n)</text><!--MD5=[8c9078384c8216faeee668eb33da04e9]
class TreeNode--><rect fill="#FEFECE" filter="url(#f1hm697j2gc1cl)" height="86.4141" id="TreeNode" style="stroke: #A80036; stroke-width: 1.5;" width="138" x="228.5" y="129"/><ellipse cx="258.8" cy="145" fill="#ADD1B2" rx="11" ry="11" style="stroke: #A80036; stroke-width: 1.0;"/><path d="M261.7688,150.6406 Q261.1906,150.9375 260.55,151.0781 Q259.9094,151.2344 259.2063,151.2344 Q256.7063,151.2344 255.3781,149.5938 Q254.0656,147.9375 254.0656,144.8125 Q254.0656,141.6875 255.3781,140.0313 Q256.7063,138.375 259.2063,138.375 Q259.9094,138.375 260.55,138.5313 Q261.2063,138.6875 261.7688,138.9844 L261.7688,141.7031 Q261.1438,141.125 260.55,140.8594 Q259.9563,140.5781 259.3313,140.5781 Q257.9875,140.5781 257.3,141.6563 Q256.6125,142.7188 256.6125,144.8125 Q256.6125,146.9063 257.3,147.9844 Q257.9875,149.0469 259.3313,149.0469 Q259.9563,149.0469 260.55,148.7813 Q261.1438,148.5 261.7688,147.9219 L261.7688,150.6406 Z "/><text fill="#000000" font-family="sans-serif" font-size="12" lengthAdjust="spacingAndGlyphs" textLength="61" x="276.2" y="149.1543">TreeNode</text><rect fill="#FFFFFF" height="15.9688" style="stroke: #000000; stroke-width: 1.0; stroke-dasharray: 2.0,2.0;" width="9" x="360.5" y="126"/><text fill="#000000" font-family="sans-serif" font-size="12" font-style="italic" lengthAdjust="spacingAndGlyphs" textLength="7" x="361.5" y="138.1387">T</text><line style="stroke: #A80036; stroke-width: 1.5;" x1="229.5" x2="365.5" y1="161" y2="161"/><ellipse cx="239.5" cy="172" fill="none" rx="3" ry="3" style="stroke: #038048; stroke-width: 1.0;"/><text fill="#000000" font-family="sans-serif" font-size="11" lengthAdjust="spacingAndGlyphs" textLength="42" x="248.5" y="175.2104">T Value</text><ellipse cx="239.5" cy="184.8047" fill="none" rx="3" ry="3" style="stroke: #038048; stroke-width: 1.0;"/><text fill="#000000" font-family="sans-serif" font-size="11" lengthAdjust="spacingAndGlyphs" textLength="105" x="248.5" y="188.0151">TreeNode&lt;T&gt; Left</text><ellipse cx="239.5" cy="197.6094" fill="none" rx="3" ry="3" style="stroke: #038048; stroke-width: 1.0;"/><text fill="#000000" font-family="sans-serif" font-size="11" lengthAdjust="spacingAndGlyphs" textLength="112" x="248.5" y="200.8198">TreeNode&lt;T&gt; Right</text><line style="stroke: #A80036; stroke-width: 1.5;" x1="229.5" x2="365.5" y1="207.4141" y2="207.4141"/><!--MD5=[ed3964f5425fdb513e6b3ea6cc4e05bb]
link Factorial to ArrayMethods--><!--MD5=[8488826e829bb3b469ef21d79e782669]
link Factorial to Fibonacci--><!--MD5=[91b4657139ccbb5fa46630387dfb1f85]
link Fibonacci to TreeNode--><!--MD5=[8462ba0dfa0a98b4ff7c51d1f2825e24]
@startuml
class Factorial {
  +static int SolveFactorial(int n)
}
class ArrayMethods {
  +static int Sum(int[] array)
}
class Fibonacci {
  +static int GetFibonacci(int n)
}
class TreeNode<T> {
  +T Value
  +TreeNode<T> Left
  +TreeNode<T> Right
}
@enduml

PlantUML version 1.2020.02(Sun Mar 01 06:22:07 BOT 2020)
(GPL source distribution)
Java Runtime: OpenJDK Runtime Environment
JVM: OpenJDK 64-Bit Server VM
Java Version: 21.0.7+6-Ubuntu-0ubuntu124.04
Operating System: Linux
Default Encoding: UTF-8
Language: en
Country: null
--></g></svg>