<?xml version="1.0" encoding="UTF-8" standalone="no"?>
<svg xmlns="http://www.w3.org/2000/svg" contentScriptType="application/ecmascript" contentStyleType="text/css"
     height="334px" preserveAspectRatio="none" style="width:479px;height:334px;" version="1.1" viewBox="0 0 479 334"
     width="479px" zoomAndPan="magnify">
    <defs>
        <filter height="300%" id="f1tu3br4kimpel" width="300%" x="-1" y="-1">
            <feGaussianBlur result="blurOut" stdDeviation="2.0"/>
            <feColorMatrix in="blurOut" result="blurOut2" type="matrix"
                           values="0 0 0 0 0 0 0 0 0 0 0 0 0 0 0 0 0 0 .4 0"/>
            <feOffset dx="4.0" dy="4.0" in="blurOut2" result="blurOut3"/>
            <feBlend in="SourceGraphic" in2="blurOut3" mode="normal"/>
        </filter>
    </defs>
    <g><!--MD5=[cf4d6237fcae255cd2e1656cf84a30e2]
class Order-->
        <rect fill="#FEFECE" filter="url(#f1tu3br4kimpel)" height="99.2188" id="Order"
              style="stroke: #A80036; stroke-width: 1.5;" width="124" x="6" y="8"/>
        <ellipse cx="46.65" cy="24" fill="#ADD1B2" rx="11" ry="11" style="stroke: #A80036; stroke-width: 1.0;"/>
        <path d="M49.6188,29.6406 Q49.0406,29.9375 48.4,30.0781 Q47.7594,30.2344 47.0563,30.2344 Q44.5563,30.2344 43.2281,28.5938 Q41.9156,26.9375 41.9156,23.8125 Q41.9156,20.6875 43.2281,19.0313 Q44.5563,17.375 47.0563,17.375 Q47.7594,17.375 48.4,17.5313 Q49.0563,17.6875 49.6188,17.9844 L49.6188,20.7031 Q48.9938,20.125 48.4,19.8594 Q47.8063,19.5781 47.1813,19.5781 Q45.8375,19.5781 45.15,20.6563 Q44.4625,21.7188 44.4625,23.8125 Q44.4625,25.9063 45.15,26.9844 Q45.8375,28.0469 47.1813,28.0469 Q47.8063,28.0469 48.4,27.7813 Q48.9938,27.5 49.6188,26.9219 L49.6188,29.6406 Z "/>
        <text fill="#000000" font-family="sans-serif" font-size="12" lengthAdjust="spacingAndGlyphs" textLength="35"
              x="66.35" y="28.1543">Order
        </text>
        <line style="stroke: #A80036; stroke-width: 1.5;" x1="7" x2="129" y1="40" y2="40"/>
        <ellipse cx="17" cy="51" fill="none" rx="3" ry="3" style="stroke: #038048; stroke-width: 1.0;"/>
        <text fill="#000000" font-family="sans-serif" font-size="11" lengthAdjust="spacingAndGlyphs" textLength="47"
              x="26" y="54.2104">string Id
        </text>
        <ellipse cx="17" cy="63.8047" fill="none" rx="3" ry="3" style="stroke: #038048; stroke-width: 1.0;"/>
        <text fill="#000000" font-family="sans-serif" font-size="11" lengthAdjust="spacingAndGlyphs" textLength="65"
              x="26" y="67.0151">int Quantity
        </text>
        <ellipse cx="17" cy="76.6094" fill="none" rx="3" ry="3" style="stroke: #038048; stroke-width: 1.0;"/>
        <text fill="#000000" font-family="sans-serif" font-size="11" lengthAdjust="spacingAndGlyphs" textLength="98"
              x="26" y="79.8198">decimal UnitPrice
        </text>
        <ellipse cx="17" cy="89.4141" fill="none" rx="3" ry="3" style="stroke: #038048; stroke-width: 1.0;"/>
        <text fill="#000000" font-family="sans-serif" font-size="11" lengthAdjust="spacingAndGlyphs" textLength="76"
              x="26" y="92.6245">decimal Total
        </text>
        <line style="stroke: #A80036; stroke-width: 1.5;" x1="7" x2="129" y1="99.2188" y2="99.2188"/><!--MD5=[0d95cf8aaf7cefbbc4084a2c9b78103b]
class IOrderValidator-->
        <rect fill="#FEFECE" filter="url(#f1tu3br4kimpel)" height="48" id="IOrderValidator"
              style="stroke: #A80036; stroke-width: 1.5;" width="126" x="26" y="167"/>
        <ellipse cx="41" cy="183" fill="#B4A7E5" rx="11" ry="11" style="stroke: #A80036; stroke-width: 1.0;"/>
        <path d="M36.9219,178.7656 L36.9219,176.6094 L44.3125,176.6094 L44.3125,178.7656 L41.8438,178.7656 L41.8438,186.8438 L44.3125,186.8438 L44.3125,189 L36.9219,189 L36.9219,186.8438 L39.3906,186.8438 L39.3906,178.7656 L36.9219,178.7656 Z "/>
        <text fill="#000000" font-family="sans-serif" font-size="12" font-style="italic" lengthAdjust="spacingAndGlyphs"
              textLength="94" x="55" y="187.1543">IOrderValidator
        </text>
        <line style="stroke: #A80036; stroke-width: 1.5;" x1="27" x2="151" y1="199" y2="199"/>
        <line style="stroke: #A80036; stroke-width: 1.5;" x1="27" x2="151" y1="207" y2="207"/><!--MD5=[da5ae312bb381b4841da9b3f9afb3615]
class IOrderFormatter-->
        <rect fill="#FEFECE" filter="url(#f1tu3br4kimpel)" height="48" id="IOrderFormatter"
              style="stroke: #A80036; stroke-width: 1.5;" width="132" x="187" y="167"/>
        <ellipse cx="202" cy="183" fill="#B4A7E5" rx="11" ry="11" style="stroke: #A80036; stroke-width: 1.0;"/>
        <path d="M197.9219,178.7656 L197.9219,176.6094 L205.3125,176.6094 L205.3125,178.7656 L202.8438,178.7656 L202.8438,186.8438 L205.3125,186.8438 L205.3125,189 L197.9219,189 L197.9219,186.8438 L200.3906,186.8438 L200.3906,178.7656 L197.9219,178.7656 Z "/>
        <text fill="#000000" font-family="sans-serif" font-size="12" font-style="italic" lengthAdjust="spacingAndGlyphs"
              textLength="100" x="216" y="187.1543">IOrderFormatter
        </text>
        <line style="stroke: #A80036; stroke-width: 1.5;" x1="188" x2="318" y1="199" y2="199"/>
        <line style="stroke: #A80036; stroke-width: 1.5;" x1="188" x2="318" y1="207" y2="207"/><!--MD5=[27c4bf4730d31a598270ecaaeca3ea99]
class IOrderLogger-->
        <rect fill="#FEFECE" filter="url(#f1tu3br4kimpel)" height="48" id="IOrderLogger"
              style="stroke: #A80036; stroke-width: 1.5;" width="114" x="354" y="167"/>
        <ellipse cx="369" cy="183" fill="#B4A7E5" rx="11" ry="11" style="stroke: #A80036; stroke-width: 1.0;"/>
        <path d="M364.9219,178.7656 L364.9219,176.6094 L372.3125,176.6094 L372.3125,178.7656 L369.8438,178.7656 L369.8438,186.8438 L372.3125,186.8438 L372.3125,189 L364.9219,189 L364.9219,186.8438 L367.3906,186.8438 L367.3906,178.7656 L364.9219,178.7656 Z "/>
        <text fill="#000000" font-family="sans-serif" font-size="12" font-style="italic" lengthAdjust="spacingAndGlyphs"
              textLength="82" x="383" y="187.1543">IOrderLogger
        </text>
        <line style="stroke: #A80036; stroke-width: 1.5;" x1="355" x2="467" y1="199" y2="199"/>
        <line style="stroke: #A80036; stroke-width: 1.5;" x1="355" x2="467" y1="207" y2="207"/><!--MD5=[411a39345a0b744111b80eb512ee0ae3]
class OrderValidator-->
        <rect fill="#FEFECE" filter="url(#f1tu3br4kimpel)" height="48" id="OrderValidator"
              style="stroke: #A80036; stroke-width: 1.5;" width="123" x="27.5" y="275"/>
        <ellipse cx="42.5" cy="291" fill="#ADD1B2" rx="11" ry="11" style="stroke: #A80036; stroke-width: 1.0;"/>
        <path d="M45.4688,296.6406 Q44.8906,296.9375 44.25,297.0781 Q43.6094,297.2344 42.9063,297.2344 Q40.4063,297.2344 39.0781,295.5938 Q37.7656,293.9375 37.7656,290.8125 Q37.7656,287.6875 39.0781,286.0313 Q40.4063,284.375 42.9063,284.375 Q43.6094,284.375 44.25,284.5313 Q44.9063,284.6875 45.4688,284.9844 L45.4688,287.7031 Q44.8438,287.125 44.25,286.8594 Q43.6563,286.5781 43.0313,286.5781 Q41.6875,286.5781 41,287.6563 Q40.3125,288.7188 40.3125,290.8125 Q40.3125,292.9063 41,293.9844 Q41.6875,295.0469 43.0313,295.0469 Q43.6563,295.0469 44.25,294.7813 Q44.8438,294.5 45.4688,293.9219 L45.4688,296.6406 Z "/>
        <text fill="#000000" font-family="sans-serif" font-size="12" lengthAdjust="spacingAndGlyphs" textLength="91"
              x="56.5" y="295.1543">OrderValidator
        </text>
        <line style="stroke: #A80036; stroke-width: 1.5;" x1="28.5" x2="149.5" y1="307" y2="307"/>
        <line style="stroke: #A80036; stroke-width: 1.5;" x1="28.5" x2="149.5" y1="315" y2="315"/><!--MD5=[24773ffd20d8645d732ce9851c36b941]
class OrderFormatter-->
        <rect fill="#FEFECE" filter="url(#f1tu3br4kimpel)" height="48" id="OrderFormatter"
              style="stroke: #A80036; stroke-width: 1.5;" width="129" x="188.5" y="275"/>
        <ellipse cx="203.5" cy="291" fill="#ADD1B2" rx="11" ry="11" style="stroke: #A80036; stroke-width: 1.0;"/>
        <path d="M206.4688,296.6406 Q205.8906,296.9375 205.25,297.0781 Q204.6094,297.2344 203.9063,297.2344 Q201.4063,297.2344 200.0781,295.5938 Q198.7656,293.9375 198.7656,290.8125 Q198.7656,287.6875 200.0781,286.0313 Q201.4063,284.375 203.9063,284.375 Q204.6094,284.375 205.25,284.5313 Q205.9063,284.6875 206.4688,284.9844 L206.4688,287.7031 Q205.8438,287.125 205.25,286.8594 Q204.6563,286.5781 204.0313,286.5781 Q202.6875,286.5781 202,287.6563 Q201.3125,288.7188 201.3125,290.8125 Q201.3125,292.9063 202,293.9844 Q202.6875,295.0469 204.0313,295.0469 Q204.6563,295.0469 205.25,294.7813 Q205.8438,294.5 206.4688,293.9219 L206.4688,296.6406 Z "/>
        <text fill="#000000" font-family="sans-serif" font-size="12" lengthAdjust="spacingAndGlyphs" textLength="97"
              x="217.5" y="295.1543">OrderFormatter
        </text>
        <line style="stroke: #A80036; stroke-width: 1.5;" x1="189.5" x2="316.5" y1="307" y2="307"/>
        <line style="stroke: #A80036; stroke-width: 1.5;" x1="189.5" x2="316.5" y1="315" y2="315"/><!--MD5=[757d109e5ade50276c1a270cddcee199]
class OrderLogger-->
        <rect fill="#FEFECE" filter="url(#f1tu3br4kimpel)" height="48" id="OrderLogger"
              style="stroke: #A80036; stroke-width: 1.5;" width="110" x="356" y="275"/>
        <ellipse cx="371" cy="291" fill="#ADD1B2" rx="11" ry="11" style="stroke: #A80036; stroke-width: 1.0;"/>
        <path d="M373.9688,296.6406 Q373.3906,296.9375 372.75,297.0781 Q372.1094,297.2344 371.4063,297.2344 Q368.9063,297.2344 367.5781,295.5938 Q366.2656,293.9375 366.2656,290.8125 Q366.2656,287.6875 367.5781,286.0313 Q368.9063,284.375 371.4063,284.375 Q372.1094,284.375 372.75,284.5313 Q373.4063,284.6875 373.9688,284.9844 L373.9688,287.7031 Q373.3438,287.125 372.75,286.8594 Q372.1563,286.5781 371.5313,286.5781 Q370.1875,286.5781 369.5,287.6563 Q368.8125,288.7188 368.8125,290.8125 Q368.8125,292.9063 369.5,293.9844 Q370.1875,295.0469 371.5313,295.0469 Q372.1563,295.0469 372.75,294.7813 Q373.3438,294.5 373.9688,293.9219 L373.9688,296.6406 Z "/>
        <text fill="#000000" font-family="sans-serif" font-size="12" lengthAdjust="spacingAndGlyphs" textLength="78"
              x="385" y="295.1543">OrderLogger
        </text>
        <line style="stroke: #A80036; stroke-width: 1.5;" x1="357" x2="465" y1="307" y2="307"/>
        <line style="stroke: #A80036; stroke-width: 1.5;" x1="357" x2="465" y1="315" y2="315"/><!--MD5=[faa5739a46fca757c94293f4e70ff9ef]
class OrderProcessor-->
        <rect fill="#FEFECE" filter="url(#f1tu3br4kimpel)" height="86.4141" id="OrderProcessor"
              style="stroke: #A80036; stroke-width: 1.5;" width="176" x="165" y="14.5"/>
        <ellipse cx="200.7" cy="30.5" fill="#ADD1B2" rx="11" ry="11" style="stroke: #A80036; stroke-width: 1.0;"/>
        <path d="M203.6688,36.1406 Q203.0906,36.4375 202.45,36.5781 Q201.8094,36.7344 201.1063,36.7344 Q198.6063,36.7344 197.2781,35.0938 Q195.9656,33.4375 195.9656,30.3125 Q195.9656,27.1875 197.2781,25.5313 Q198.6063,23.875 201.1063,23.875 Q201.8094,23.875 202.45,24.0313 Q203.1063,24.1875 203.6688,24.4844 L203.6688,27.2031 Q203.0438,26.625 202.45,26.3594 Q201.8563,26.0781 201.2313,26.0781 Q199.8875,26.0781 199.2,27.1563 Q198.5125,28.2188 198.5125,30.3125 Q198.5125,32.4063 199.2,33.4844 Q199.8875,34.5469 201.2313,34.5469 Q201.8563,34.5469 202.45,34.2813 Q203.0438,34 203.6688,33.4219 L203.6688,36.1406 Z "/>
        <text fill="#000000" font-family="sans-serif" font-size="12" lengthAdjust="spacingAndGlyphs" textLength="98"
              x="219.3" y="34.6543">OrderProcessor
        </text>
        <line style="stroke: #A80036; stroke-width: 1.5;" x1="166" x2="340" y1="46.5" y2="46.5"/>
        <rect fill="none" height="6" style="stroke: #C82930; stroke-width: 1.0;" width="6" x="173" y="54.5"/>
        <text fill="#000000" font-family="sans-serif" font-size="11" lengthAdjust="spacingAndGlyphs" textLength="139"
              x="185" y="60.7104">IOrderValidator validator
        </text>
        <rect fill="none" height="6" style="stroke: #C82930; stroke-width: 1.0;" width="6" x="173" y="67.3047"/>
        <text fill="#000000" font-family="sans-serif" font-size="11" lengthAdjust="spacingAndGlyphs" textLength="150"
              x="185" y="73.5151">IOrderFormatter formatter
        </text>
        <rect fill="none" height="6" style="stroke: #C82930; stroke-width: 1.0;" width="6" x="173" y="80.1094"/>
        <text fill="#000000" font-family="sans-serif" font-size="11" lengthAdjust="spacingAndGlyphs" textLength="115"
              x="185" y="86.3198">IOrderLogger logger
        </text>
        <line style="stroke: #A80036; stroke-width: 1.5;" x1="166" x2="340" y1="92.9141" y2="92.9141"/><!--MD5=[33d44c3699708cb77fd80431d27b548a]
reverse link IOrderValidator to OrderValidator-->
        <path d="M89,235.02 C89,248.58 89,263.04 89,274.68 " fill="none" id="IOrderValidator&lt;-OrderValidator"
              style="stroke: #A80036; stroke-width: 1.0; stroke-dasharray: 7.0,7.0;"/>
        <polygon fill="none" points="82,235,89,215,96,235,82,235" style="stroke: #A80036; stroke-width: 1.0;"/><!--MD5=[91492e6e0edc92ac1d0c81da8dd5885d]
reverse link IOrderFormatter to OrderFormatter-->
        <path d="M253,235.02 C253,248.58 253,263.04 253,274.68 " fill="none" id="IOrderFormatter&lt;-OrderFormatter"
              style="stroke: #A80036; stroke-width: 1.0; stroke-dasharray: 7.0,7.0;"/>
        <polygon fill="none" points="246,235,253,215,260,235,246,235" style="stroke: #A80036; stroke-width: 1.0;"/><!--MD5=[9a23f4072e92f52007d321036bc3b189]
reverse link IOrderLogger to OrderLogger-->
        <path d="M411,235.02 C411,248.58 411,263.04 411,274.68 " fill="none" id="IOrderLogger&lt;-OrderLogger"
              style="stroke: #A80036; stroke-width: 1.0; stroke-dasharray: 7.0,7.0;"/>
        <polygon fill="none" points="404,235,411,215,418,235,404,235" style="stroke: #A80036; stroke-width: 1.0;"/><!--MD5=[cac4be5d7e2049881b7fa371d439f170]
link OrderProcessor to IOrderValidator-->
        <path d="M200.21,100.83 C174.47,121.47 144.31,145.65 121.9,163.62 " fill="none"
              id="OrderProcessor-&gt;IOrderValidator" style="stroke: #A80036; stroke-width: 1.0;"/>
        <polygon fill="#A80036" points="117.81,166.9,127.3332,164.3885,121.7102,163.7713,122.3273,158.1482,117.81,166.9"
                 style="stroke: #A80036; stroke-width: 1.0;"/><!--MD5=[c755ae1753648f2fab15db45e28e10e2]
link OrderProcessor to IOrderFormatter-->
        <path d="M253,100.83 C253,120.7 253,143.85 253,161.58 " fill="none" id="OrderProcessor-&gt;IOrderFormatter"
              style="stroke: #A80036; stroke-width: 1.0;"/>
        <polygon fill="#A80036" points="253,166.9,257,157.9,253,161.9,249,157.9,253,166.9"
                 style="stroke: #A80036; stroke-width: 1.0;"/><!--MD5=[9bbbacac7c55202c5eaba9a4af0c520e]
link OrderProcessor to IOrderLogger-->
        <path d="M303.86,100.83 C328.66,121.47 357.71,145.65 379.3,163.62 " fill="none"
              id="OrderProcessor-&gt;IOrderLogger" style="stroke: #A80036; stroke-width: 1.0;"/>
        <polygon fill="#A80036" points="383.25,166.9,378.8935,158.067,379.4077,163.7005,373.7743,164.2147,383.25,166.9"
                 style="stroke: #A80036; stroke-width: 1.0;"/><!--MD5=[2b9de14698a415198023141520b466bd]
@startuml
class Order {
  +string Id
  +int Quantity
  +decimal UnitPrice
  +decimal Total
}

interface IOrderValidator
interface IOrderFormatter
interface IOrderLogger

class OrderValidator implements IOrderValidator
class OrderFormatter implements IOrderFormatter
class OrderLogger implements IOrderLogger

class OrderProcessor {
    -IOrderValidator validator
    -IOrderFormatter formatter
    -IOrderLogger logger
}

OrderProcessor - -> IOrderValidator
OrderProcessor - -> IOrderFormatter
OrderProcessor - -> IOrderLogger
@enduml

PlantUML version 1.2020.02(Sun Mar 01 06:22:07 AMT 2020)
(GPL source distribution)
Java Runtime: OpenJDK Runtime Environment
JVM: OpenJDK 64-Bit Server VM
Java Version: 21.0.7+6-LTS
Operating System: Linux
Default Encoding: UTF-8
Language: en
Country: null
-->
    </g>
</svg>