<?xml version="1.0" encoding="UTF-8" standalone="no"?><svg xmlns="http://www.w3.org/2000/svg" xmlns:xlink="http://www.w3.org/1999/xlink" contentScriptType="application/ecmascript" contentStyleType="text/css" height="403px" preserveAspectRatio="none" style="width:269px;height:403px;" version="1.1" viewBox="0 0 269 403" width="269px" zoomAndPan="magnify"><defs><filter height="300%" id="f14fd4v0ths87d" width="300%" x="-1" y="-1"><feGaussianBlur result="blurOut" stdDeviation="2.0"/><feColorMatrix in="blurOut" result="blurOut2" type="matrix" values="0 0 0 0 0 0 0 0 0 0 0 0 0 0 0 0 0 0 .4 0"/><feOffset dx="4.0" dy="4.0" in="blurOut2" result="blurOut3"/><feBlend in="SourceGraphic" in2="blurOut3" mode="normal"/></filter></defs><g><!--MD5=[1856acef84128a038197ac41f572b9f5]
class IPrintRepository--><rect fill="#FEFECE" filter="url(#f14fd4v0ths87d)" height="48" id="IPrintRepository" style="stroke: #A80036; stroke-width: 1.5;" width="130" x="58" y="224"/><ellipse cx="73" cy="240" fill="#B4A7E5" rx="11" ry="11" style="stroke: #A80036; stroke-width: 1.0;"/><path d="M68.9219,235.7656 L68.9219,233.6094 L76.3125,233.6094 L76.3125,235.7656 L73.8438,235.7656 L73.8438,243.8438 L76.3125,243.8438 L76.3125,246 L68.9219,246 L68.9219,243.8438 L71.3906,243.8438 L71.3906,235.7656 L68.9219,235.7656 Z "/><text fill="#000000" font-family="sans-serif" font-size="12" font-style="italic" lengthAdjust="spacingAndGlyphs" textLength="98" x="87" y="244.1543">IPrintRepository</text><line style="stroke: #A80036; stroke-width: 1.5;" x1="59" x2="187" y1="256" y2="256"/><line style="stroke: #A80036; stroke-width: 1.5;" x1="59" x2="187" y1="264" y2="264"/><!--MD5=[46a81f834757870248d0ddbfc40a8734]
class IPrintBalancerService--><rect fill="#FEFECE" filter="url(#f14fd4v0ths87d)" height="48" id="IPrintBalancerService" style="stroke: #A80036; stroke-width: 1.5;" width="164" x="41" y="8"/><ellipse cx="56" cy="24" fill="#B4A7E5" rx="11" ry="11" style="stroke: #A80036; stroke-width: 1.0;"/><path d="M51.9219,19.7656 L51.9219,17.6094 L59.3125,17.6094 L59.3125,19.7656 L56.8438,19.7656 L56.8438,27.8438 L59.3125,27.8438 L59.3125,30 L51.9219,30 L51.9219,27.8438 L54.3906,27.8438 L54.3906,19.7656 L51.9219,19.7656 Z "/><text fill="#000000" font-family="sans-serif" font-size="12" font-style="italic" lengthAdjust="spacingAndGlyphs" textLength="132" x="70" y="28.1543">IPrintBalancerService</text><line style="stroke: #A80036; stroke-width: 1.5;" x1="42" x2="204" y1="40" y2="40"/><line style="stroke: #A80036; stroke-width: 1.5;" x1="42" x2="204" y1="48" y2="48"/><!--MD5=[cbbd136b30cbff8ce5c8ccc2a8fbc1c7]
class PrintJob--><rect fill="#FEFECE" filter="url(#f14fd4v0ths87d)" height="60.8047" id="PrintJob" style="stroke: #A80036; stroke-width: 1.5;" width="90" x="6" y="332"/><ellipse cx="25.5" cy="348" fill="#ADD1B2" rx="11" ry="11" style="stroke: #A80036; stroke-width: 1.0;"/><path d="M28.4688,353.6406 Q27.8906,353.9375 27.25,354.0781 Q26.6094,354.2344 25.9063,354.2344 Q23.4063,354.2344 22.0781,352.5938 Q20.7656,350.9375 20.7656,347.8125 Q20.7656,344.6875 22.0781,343.0313 Q23.4063,341.375 25.9063,341.375 Q26.6094,341.375 27.25,341.5313 Q27.9063,341.6875 28.4688,341.9844 L28.4688,344.7031 Q27.8438,344.125 27.25,343.8594 Q26.6563,343.5781 26.0313,343.5781 Q24.6875,343.5781 24,344.6563 Q23.3125,345.7188 23.3125,347.8125 Q23.3125,349.9063 24,350.9844 Q24.6875,352.0469 26.0313,352.0469 Q26.6563,352.0469 27.25,351.7813 Q27.8438,351.5 28.4688,350.9219 L28.4688,353.6406 Z "/><text fill="#000000" font-family="sans-serif" font-size="12" lengthAdjust="spacingAndGlyphs" textLength="48" x="40.5" y="352.1543">PrintJob</text><line style="stroke: #A80036; stroke-width: 1.5;" x1="7" x2="95" y1="364" y2="364"/><rect fill="none" height="6" style="stroke: #C82930; stroke-width: 1.0;" width="6" x="14" y="372"/><text fill="#000000" font-family="sans-serif" font-size="11" lengthAdjust="spacingAndGlyphs" textLength="64" x="26" y="378.2104">string JobId</text><line style="stroke: #A80036; stroke-width: 1.5;" x1="7" x2="95" y1="384.8047" y2="384.8047"/><!--MD5=[b6f3c4055799ec371c1b6c3abbad11ce]
class PrintRepository--><rect fill="#FEFECE" filter="url(#f14fd4v0ths87d)" height="48" id="PrintRepository" style="stroke: #A80036; stroke-width: 1.5;" width="127" x="131.5" y="338.5"/><ellipse cx="146.5" cy="354.5" fill="#ADD1B2" rx="11" ry="11" style="stroke: #A80036; stroke-width: 1.0;"/><path d="M149.4688,360.1406 Q148.8906,360.4375 148.25,360.5781 Q147.6094,360.7344 146.9063,360.7344 Q144.4063,360.7344 143.0781,359.0938 Q141.7656,357.4375 141.7656,354.3125 Q141.7656,351.1875 143.0781,349.5313 Q144.4063,347.875 146.9063,347.875 Q147.6094,347.875 148.25,348.0313 Q148.9063,348.1875 149.4688,348.4844 L149.4688,351.2031 Q148.8438,350.625 148.25,350.3594 Q147.6563,350.0781 147.0313,350.0781 Q145.6875,350.0781 145,351.1563 Q144.3125,352.2188 144.3125,354.3125 Q144.3125,356.4063 145,357.4844 Q145.6875,358.5469 147.0313,358.5469 Q147.6563,358.5469 148.25,358.2813 Q148.8438,358 149.4688,357.4219 L149.4688,360.1406 Z "/><text fill="#000000" font-family="sans-serif" font-size="12" lengthAdjust="spacingAndGlyphs" textLength="95" x="160.5" y="358.6543">PrintRepository</text><line style="stroke: #A80036; stroke-width: 1.5;" x1="132.5" x2="257.5" y1="370.5" y2="370.5"/><line style="stroke: #A80036; stroke-width: 1.5;" x1="132.5" x2="257.5" y1="378.5" y2="378.5"/><!--MD5=[573f212ef90856800c4a7390f5e1390a]
class PrintBalancerService--><rect fill="#FEFECE" filter="url(#f14fd4v0ths87d)" height="48" id="PrintBalancerService" style="stroke: #A80036; stroke-width: 1.5;" width="161" x="42.5" y="116"/><ellipse cx="57.5" cy="132" fill="#ADD1B2" rx="11" ry="11" style="stroke: #A80036; stroke-width: 1.0;"/><path d="M60.4688,137.6406 Q59.8906,137.9375 59.25,138.0781 Q58.6094,138.2344 57.9063,138.2344 Q55.4063,138.2344 54.0781,136.5938 Q52.7656,134.9375 52.7656,131.8125 Q52.7656,128.6875 54.0781,127.0313 Q55.4063,125.375 57.9063,125.375 Q58.6094,125.375 59.25,125.5313 Q59.9063,125.6875 60.4688,125.9844 L60.4688,128.7031 Q59.8438,128.125 59.25,127.8594 Q58.6563,127.5781 58.0313,127.5781 Q56.6875,127.5781 56,128.6563 Q55.3125,129.7188 55.3125,131.8125 Q55.3125,133.9063 56,134.9844 Q56.6875,136.0469 58.0313,136.0469 Q58.6563,136.0469 59.25,135.7813 Q59.8438,135.5 60.4688,134.9219 L60.4688,137.6406 Z "/><text fill="#000000" font-family="sans-serif" font-size="12" lengthAdjust="spacingAndGlyphs" textLength="129" x="71.5" y="136.1543">PrintBalancerService</text><line style="stroke: #A80036; stroke-width: 1.5;" x1="43.5" x2="202.5" y1="148" y2="148"/><line style="stroke: #A80036; stroke-width: 1.5;" x1="43.5" x2="202.5" y1="156" y2="156"/><!--MD5=[ad8de4d68adf3c8ee46fb8e521f15cf8]
reverse link IPrintRepository to PrintRepository--><path d="M148.56,288.94 C159.19,305.55 171.16,324.24 180.28,338.49 " fill="none" id="IPrintRepository&lt;-PrintRepository" style="stroke: #A80036; stroke-width: 1.0; stroke-dasharray: 7.0,7.0;"/><polygon fill="none" points="142.63,292.66,137.74,272.04,154.42,285.11,142.63,292.66" style="stroke: #A80036; stroke-width: 1.0;"/><!--MD5=[5c766d34958dea193f3744dbcb1f6ceb]
reverse link IPrintBalancerService to PrintBalancerService--><path d="M123,76.02 C123,89.58 123,104.04 123,115.68 " fill="none" id="IPrintBalancerService&lt;-PrintBalancerService" style="stroke: #A80036; stroke-width: 1.0; stroke-dasharray: 7.0,7.0;"/><polygon fill="none" points="116,76,123,56,130,76,116,76" style="stroke: #A80036; stroke-width: 1.0;"/><!--MD5=[d5fb5ad2ce2c59b73d29a3b6bdf5940a]
link PrintBalancerService to IPrintRepository--><path d="M123,164 C123,180 123,201.45 123,218.53 " fill="none" id="PrintBalancerService-&gt;IPrintRepository" style="stroke: #A80036; stroke-width: 1.0;"/><polygon fill="#A80036" points="123,223.68,127,214.68,123,218.68,119,214.68,123,223.68" style="stroke: #A80036; stroke-width: 1.0;"/><!--MD5=[cde62628d793565cf1cc5f984d211a21]
link IPrintRepository to PrintJob--><path d="M108.26,272.04 C98.09,287.92 84.4,309.31 72.96,327.19 " fill="none" id="IPrintRepository-&gt;PrintJob" style="stroke: #A80036; stroke-width: 1.0;"/><polygon fill="#A80036" points="70.1,331.65,78.3315,326.2424,72.8038,327.4441,71.6021,321.9164,70.1,331.65" style="stroke: #A80036; stroke-width: 1.0;"/><!--MD5=[d724e142fa625c34bf7e50a25ef5c0c9]
@startuml
interface IPrintRepository
interface IPrintBalancerService

class PrintJob {
  -string JobId
}

class PrintRepository implements IPrintRepository
class PrintBalancerService implements IPrintBalancerService

PrintBalancerService - -> IPrintRepository
IPrintRepository - -> PrintJob
@enduml

PlantUML version 1.2020.02(Sun Mar 01 06:22:07 BOT 2020)
(GPL source distribution)
Java Runtime: OpenJDK Runtime Environment
JVM: OpenJDK 64-Bit Server VM
Java Version: 21.0.7+6-Ubuntu-0ubuntu124.04
Operating System: Linux
Default Encoding: UTF-8
Language: en
Country: null
--></g></svg>