<?xml version="1.0" encoding="UTF-8" standalone="no"?>
<svg xmlns="http://www.w3.org/2000/svg" contentScriptType="application/ecmascript" contentStyleType="text/css"
     height="607px" preserveAspectRatio="none" style="width:435px;height:607px;" version="1.1" viewBox="0 0 435 607"
     width="435px" zoomAndPan="magnify">
    <defs>
        <filter height="300%" id="f18pjo82td13pj" width="300%" x="-1" y="-1">
            <feGaussianBlur result="blurOut" stdDeviation="2.0"/>
            <feColorMatrix in="blurOut" result="blurOut2" type="matrix"
                           values="0 0 0 0 0 0 0 0 0 0 0 0 0 0 0 0 0 0 .4 0"/>
            <feOffset dx="4.0" dy="4.0" in="blurOut2" result="blurOut3"/>
            <feBlend in="SourceGraphic" in2="blurOut3" mode="normal"/>
        </filter>
    </defs>
    <g><!--MD5=[5a8044c9d220965836fc8c77e047d213]
class IUndoStackRepository-->
        <rect fill="#FEFECE" filter="url(#f18pjo82td13pj)" height="48" id="IUndoStackRepository"
              style="stroke: #A80036; stroke-width: 1.5;" width="170" x="59.5" y="224"/>
        <ellipse cx="74.5" cy="240" fill="#B4A7E5" rx="11" ry="11" style="stroke: #A80036; stroke-width: 1.0;"/>
        <path d="M70.4219,235.7656 L70.4219,233.6094 L77.8125,233.6094 L77.8125,235.7656 L75.3438,235.7656 L75.3438,243.8438 L77.8125,243.8438 L77.8125,246 L70.4219,246 L70.4219,243.8438 L72.8906,243.8438 L72.8906,235.7656 L70.4219,235.7656 Z "/>
        <text fill="#000000" font-family="sans-serif" font-size="12" font-style="italic" lengthAdjust="spacingAndGlyphs"
              textLength="138" x="88.5" y="244.1543">IUndoStackRepository
        </text>
        <line style="stroke: #A80036; stroke-width: 1.5;" x1="60.5" x2="228.5" y1="256" y2="256"/>
        <line style="stroke: #A80036; stroke-width: 1.5;" x1="60.5" x2="228.5" y1="264" y2="264"/><!--MD5=[9a34a163bcc09ede14d2525be47625a2]
class IExpressionEvaluatorService-->
        <rect fill="#FEFECE" filter="url(#f18pjo82td13pj)" height="48" id="IExpressionEvaluatorService"
              style="stroke: #A80036; stroke-width: 1.5;" width="207" x="141" y="8"/>
        <ellipse cx="156" cy="24" fill="#B4A7E5" rx="11" ry="11" style="stroke: #A80036; stroke-width: 1.0;"/>
        <path d="M151.9219,19.7656 L151.9219,17.6094 L159.3125,17.6094 L159.3125,19.7656 L156.8438,19.7656 L156.8438,27.8438 L159.3125,27.8438 L159.3125,30 L151.9219,30 L151.9219,27.8438 L154.3906,27.8438 L154.3906,19.7656 L151.9219,19.7656 Z "/>
        <text fill="#000000" font-family="sans-serif" font-size="12" font-style="italic" lengthAdjust="spacingAndGlyphs"
              textLength="175" x="170" y="28.1543">IExpressionEvaluatorService
        </text>
        <line style="stroke: #A80036; stroke-width: 1.5;" x1="142" x2="347" y1="40" y2="40"/>
        <line style="stroke: #A80036; stroke-width: 1.5;" x1="142" x2="347" y1="48" y2="48"/><!--MD5=[a1989cc2e3c5332168f6ced3b4ea24cd]
class IExpressionValidator-->
        <rect fill="#FEFECE" filter="url(#f18pjo82td13pj)" height="48" id="IExpressionValidator"
              style="stroke: #A80036; stroke-width: 1.5;" width="159" x="265" y="224"/>
        <ellipse cx="280" cy="240" fill="#B4A7E5" rx="11" ry="11" style="stroke: #A80036; stroke-width: 1.0;"/>
        <path d="M275.9219,235.7656 L275.9219,233.6094 L283.3125,233.6094 L283.3125,235.7656 L280.8438,235.7656 L280.8438,243.8438 L283.3125,243.8438 L283.3125,246 L275.9219,246 L275.9219,243.8438 L278.3906,243.8438 L278.3906,235.7656 L275.9219,235.7656 Z "/>
        <text fill="#000000" font-family="sans-serif" font-size="12" font-style="italic" lengthAdjust="spacingAndGlyphs"
              textLength="127" x="294" y="244.1543">IExpressionValidator
        </text>
        <line style="stroke: #A80036; stroke-width: 1.5;" x1="266" x2="423" y1="256" y2="256"/>
        <line style="stroke: #A80036; stroke-width: 1.5;" x1="266" x2="423" y1="264" y2="264"/><!--MD5=[d8c8cfd5ca149094f5b67f9f607a5ec7]
class Token-->
        <rect fill="#FEFECE" filter="url(#f18pjo82td13pj)" height="48" id="Token"
              style="stroke: #A80036; stroke-width: 1.5;" width="70" x="109.5" y="440"/>
        <ellipse cx="124.5" cy="456" fill="#A9DCDF" rx="11" ry="11" style="stroke: #A80036; stroke-width: 1.0;"/>
        <path d="M124.6094,451.3438 L123.4531,456.4219 L125.7813,456.4219 L124.6094,451.3438 Z M123.125,449.1094 L126.1094,449.1094 L129.4688,461.5 L127.0156,461.5 L126.25,458.4375 L122.9688,458.4375 L122.2188,461.5 L119.7813,461.5 L123.125,449.1094 Z "/>
        <text fill="#000000" font-family="sans-serif" font-size="12" font-style="italic" lengthAdjust="spacingAndGlyphs"
              textLength="38" x="138.5" y="460.1543">Token
        </text>
        <line style="stroke: #A80036; stroke-width: 1.5;" x1="110.5" x2="178.5" y1="472" y2="472"/>
        <line style="stroke: #A80036; stroke-width: 1.5;" x1="110.5" x2="178.5" y1="480" y2="480"/><!--MD5=[d6b8adba2a18570349c06670afecc3f6]
class NumberToken-->
        <rect fill="#FEFECE" filter="url(#f18pjo82td13pj)" height="48" id="NumberToken"
              style="stroke: #A80036; stroke-width: 1.5;" width="119" x="6" y="548"/>
        <ellipse cx="21" cy="564" fill="#ADD1B2" rx="11" ry="11" style="stroke: #A80036; stroke-width: 1.0;"/>
        <path d="M23.9688,569.6406 Q23.3906,569.9375 22.75,570.0781 Q22.1094,570.2344 21.4063,570.2344 Q18.9063,570.2344 17.5781,568.5938 Q16.2656,566.9375 16.2656,563.8125 Q16.2656,560.6875 17.5781,559.0313 Q18.9063,557.375 21.4063,557.375 Q22.1094,557.375 22.75,557.5313 Q23.4063,557.6875 23.9688,557.9844 L23.9688,560.7031 Q23.3438,560.125 22.75,559.8594 Q22.1563,559.5781 21.5313,559.5781 Q20.1875,559.5781 19.5,560.6563 Q18.8125,561.7188 18.8125,563.8125 Q18.8125,565.9063 19.5,566.9844 Q20.1875,568.0469 21.5313,568.0469 Q22.1563,568.0469 22.75,567.7813 Q23.3438,567.5 23.9688,566.9219 L23.9688,569.6406 Z "/>
        <text fill="#000000" font-family="sans-serif" font-size="12" lengthAdjust="spacingAndGlyphs" textLength="87"
              x="35" y="568.1543">NumberToken
        </text>
        <line style="stroke: #A80036; stroke-width: 1.5;" x1="7" x2="124" y1="580" y2="580"/>
        <line style="stroke: #A80036; stroke-width: 1.5;" x1="7" x2="124" y1="588" y2="588"/><!--MD5=[5022ceec50617c0e742021acc50548cd]
class OperatorToken-->
        <rect fill="#FEFECE" filter="url(#f18pjo82td13pj)" height="48" id="OperatorToken"
              style="stroke: #A80036; stroke-width: 1.5;" width="126" x="160.5" y="548"/>
        <ellipse cx="175.5" cy="564" fill="#ADD1B2" rx="11" ry="11" style="stroke: #A80036; stroke-width: 1.0;"/>
        <path d="M178.4688,569.6406 Q177.8906,569.9375 177.25,570.0781 Q176.6094,570.2344 175.9063,570.2344 Q173.4063,570.2344 172.0781,568.5938 Q170.7656,566.9375 170.7656,563.8125 Q170.7656,560.6875 172.0781,559.0313 Q173.4063,557.375 175.9063,557.375 Q176.6094,557.375 177.25,557.5313 Q177.9063,557.6875 178.4688,557.9844 L178.4688,560.7031 Q177.8438,560.125 177.25,559.8594 Q176.6563,559.5781 176.0313,559.5781 Q174.6875,559.5781 174,560.6563 Q173.3125,561.7188 173.3125,563.8125 Q173.3125,565.9063 174,566.9844 Q174.6875,568.0469 176.0313,568.0469 Q176.6563,568.0469 177.25,567.7813 Q177.8438,567.5 178.4688,566.9219 L178.4688,569.6406 Z "/>
        <text fill="#000000" font-family="sans-serif" font-size="12" lengthAdjust="spacingAndGlyphs" textLength="94"
              x="189.5" y="568.1543">OperatorToken
        </text>
        <line style="stroke: #A80036; stroke-width: 1.5;" x1="161.5" x2="285.5" y1="580" y2="580"/>
        <line style="stroke: #A80036; stroke-width: 1.5;" x1="161.5" x2="285.5" y1="588" y2="588"/><!--MD5=[a9ae24311e441e42c250acef45060a99]
class ExpressionEvaluatorService-->
        <rect fill="#FEFECE" filter="url(#f18pjo82td13pj)" height="48" id="ExpressionEvaluatorService"
              style="stroke: #A80036; stroke-width: 1.5;" width="204" x="142.5" y="116"/>
        <ellipse cx="157.5" cy="132" fill="#ADD1B2" rx="11" ry="11" style="stroke: #A80036; stroke-width: 1.0;"/>
        <path d="M160.4688,137.6406 Q159.8906,137.9375 159.25,138.0781 Q158.6094,138.2344 157.9063,138.2344 Q155.4063,138.2344 154.0781,136.5938 Q152.7656,134.9375 152.7656,131.8125 Q152.7656,128.6875 154.0781,127.0313 Q155.4063,125.375 157.9063,125.375 Q158.6094,125.375 159.25,125.5313 Q159.9063,125.6875 160.4688,125.9844 L160.4688,128.7031 Q159.8438,128.125 159.25,127.8594 Q158.6563,127.5781 158.0313,127.5781 Q156.6875,127.5781 156,128.6563 Q155.3125,129.7188 155.3125,131.8125 Q155.3125,133.9063 156,134.9844 Q156.6875,136.0469 158.0313,136.0469 Q158.6563,136.0469 159.25,135.7813 Q159.8438,135.5 160.4688,134.9219 L160.4688,137.6406 Z "/>
        <text fill="#000000" font-family="sans-serif" font-size="12" lengthAdjust="spacingAndGlyphs" textLength="172"
              x="171.5" y="136.1543">ExpressionEvaluatorService
        </text>
        <line style="stroke: #A80036; stroke-width: 1.5;" x1="143.5" x2="345.5" y1="148" y2="148"/>
        <line style="stroke: #A80036; stroke-width: 1.5;" x1="143.5" x2="345.5" y1="156" y2="156"/><!--MD5=[ffec088b5d1a5ff665987be3c9fbb5b4]
class UndoStackRepository-->
        <rect fill="#FEFECE" filter="url(#f18pjo82td13pj)" height="48" id="UndoStackRepository"
              style="stroke: #A80036; stroke-width: 1.5;" width="166" x="61.5" y="332"/>
        <ellipse cx="76.5" cy="348" fill="#ADD1B2" rx="11" ry="11" style="stroke: #A80036; stroke-width: 1.0;"/>
        <path d="M79.4688,353.6406 Q78.8906,353.9375 78.25,354.0781 Q77.6094,354.2344 76.9063,354.2344 Q74.4063,354.2344 73.0781,352.5938 Q71.7656,350.9375 71.7656,347.8125 Q71.7656,344.6875 73.0781,343.0313 Q74.4063,341.375 76.9063,341.375 Q77.6094,341.375 78.25,341.5313 Q78.9063,341.6875 79.4688,341.9844 L79.4688,344.7031 Q78.8438,344.125 78.25,343.8594 Q77.6563,343.5781 77.0313,343.5781 Q75.6875,343.5781 75,344.6563 Q74.3125,345.7188 74.3125,347.8125 Q74.3125,349.9063 75,350.9844 Q75.6875,352.0469 77.0313,352.0469 Q77.6563,352.0469 78.25,351.7813 Q78.8438,351.5 79.4688,350.9219 L79.4688,353.6406 Z "/>
        <text fill="#000000" font-family="sans-serif" font-size="12" lengthAdjust="spacingAndGlyphs" textLength="134"
              x="90.5" y="352.1543">UndoStackRepository
        </text>
        <line style="stroke: #A80036; stroke-width: 1.5;" x1="62.5" x2="226.5" y1="364" y2="364"/>
        <line style="stroke: #A80036; stroke-width: 1.5;" x1="62.5" x2="226.5" y1="372" y2="372"/><!--MD5=[ce520bfa139a8197e4bdd367c1bcc27f]
class ExpressionValidator-->
        <rect fill="#FEFECE" filter="url(#f18pjo82td13pj)" height="48" id="ExpressionValidator"
              style="stroke: #A80036; stroke-width: 1.5;" width="156" x="266.5" y="332"/>
        <ellipse cx="281.5" cy="348" fill="#ADD1B2" rx="11" ry="11" style="stroke: #A80036; stroke-width: 1.0;"/>
        <path d="M284.4688,353.6406 Q283.8906,353.9375 283.25,354.0781 Q282.6094,354.2344 281.9063,354.2344 Q279.4063,354.2344 278.0781,352.5938 Q276.7656,350.9375 276.7656,347.8125 Q276.7656,344.6875 278.0781,343.0313 Q279.4063,341.375 281.9063,341.375 Q282.6094,341.375 283.25,341.5313 Q283.9063,341.6875 284.4688,341.9844 L284.4688,344.7031 Q283.8438,344.125 283.25,343.8594 Q282.6563,343.5781 282.0313,343.5781 Q280.6875,343.5781 280,344.6563 Q279.3125,345.7188 279.3125,347.8125 Q279.3125,349.9063 280,350.9844 Q280.6875,352.0469 282.0313,352.0469 Q282.6563,352.0469 283.25,351.7813 Q283.8438,351.5 284.4688,350.9219 L284.4688,353.6406 Z "/>
        <text fill="#000000" font-family="sans-serif" font-size="12" lengthAdjust="spacingAndGlyphs" textLength="124"
              x="295.5" y="352.1543">ExpressionValidator
        </text>
        <line style="stroke: #A80036; stroke-width: 1.5;" x1="267.5" x2="421.5" y1="364" y2="364"/>
        <line style="stroke: #A80036; stroke-width: 1.5;" x1="267.5" x2="421.5" y1="372" y2="372"/><!--MD5=[b65bfb95935505c70f92d8f4b29e5689]
reverse link Token to NumberToken-->
        <path d="M115.3,504.18 C104.4,518.8 92.38,534.93 82.88,547.68 " fill="none" id="Token&lt;-NumberToken"
              style="stroke: #A80036; stroke-width: 1.0;"/>
        <polygon fill="none" points="109.79,499.85,127.36,488,121.02,508.22,109.79,499.85"
                 style="stroke: #A80036; stroke-width: 1.0;"/><!--MD5=[186f926fc127f8c9d605585de521e08e]
reverse link Token to OperatorToken-->
        <path d="M173.7,504.18 C184.6,518.8 196.62,534.93 206.12,547.68 " fill="none" id="Token&lt;-OperatorToken"
              style="stroke: #A80036; stroke-width: 1.0;"/>
        <polygon fill="none" points="167.98,508.22,161.64,488,179.21,499.85,167.98,508.22"
                 style="stroke: #A80036; stroke-width: 1.0;"/><!--MD5=[4907062dd175c4ae39a7eba01b05052c]
reverse link IExpressionEvaluatorService to ExpressionEvaluatorService-->
        <path d="M244.5,76.02 C244.5,89.58 244.5,104.04 244.5,115.68 " fill="none"
              id="IExpressionEvaluatorService&lt;-ExpressionEvaluatorService"
              style="stroke: #A80036; stroke-width: 1.0; stroke-dasharray: 7.0,7.0;"/>
        <polygon fill="none" points="237.5,76,244.5,56,251.5,76,237.5,76" style="stroke: #A80036; stroke-width: 1.0;"/><!--MD5=[12f5764217da2df57f4947c567cc5a21]
reverse link IUndoStackRepository to UndoStackRepository-->
        <path d="M144.5,292.02 C144.5,305.58 144.5,320.04 144.5,331.68 " fill="none"
              id="IUndoStackRepository&lt;-UndoStackRepository"
              style="stroke: #A80036; stroke-width: 1.0; stroke-dasharray: 7.0,7.0;"/>
        <polygon fill="none" points="137.5,292,144.5,272,151.5,292,137.5,292"
                 style="stroke: #A80036; stroke-width: 1.0;"/><!--MD5=[dae7c449d846a9f832047ceb6d9f31a6]
reverse link IExpressionValidator to ExpressionValidator-->
        <path d="M344.5,292.02 C344.5,305.58 344.5,320.04 344.5,331.68 " fill="none"
              id="IExpressionValidator&lt;-ExpressionValidator"
              style="stroke: #A80036; stroke-width: 1.0; stroke-dasharray: 7.0,7.0;"/>
        <polygon fill="none" points="337.5,292,344.5,272,351.5,292,337.5,292"
                 style="stroke: #A80036; stroke-width: 1.0;"/><!--MD5=[250314a9090f87be015012f5536bfb3c]
link ExpressionEvaluatorService to IUndoStackRepository-->
        <path d="M222.8,164 C207.31,180.42 186.43,202.56 170.12,219.84 " fill="none"
              id="ExpressionEvaluatorService-&gt;IUndoStackRepository" style="stroke: #A80036; stroke-width: 1.0;"/>
        <polygon fill="#A80036" points="166.5,223.68,175.5811,219.8677,169.9268,220.039,169.7555,214.3847,166.5,223.68"
                 style="stroke: #A80036; stroke-width: 1.0;"/><!--MD5=[aee23c8ce864079420e67cc2999bb601]
link ExpressionEvaluatorService to IExpressionValidator-->
        <path d="M266.2,164 C281.69,180.42 302.57,202.56 318.88,219.84 " fill="none"
              id="ExpressionEvaluatorService-&gt;IExpressionValidator" style="stroke: #A80036; stroke-width: 1.0;"/>
        <polygon fill="#A80036" points="322.5,223.68,319.2445,214.3847,319.0732,220.039,313.4189,219.8677,322.5,223.68"
                 style="stroke: #A80036; stroke-width: 1.0;"/><!--MD5=[c6dc7f0402dc04645039664512c45ed2]
link UndoStackRepository to Token-->
        <path d="M144.5,380 C144.5,396 144.5,417.45 144.5,434.53 " fill="none" id="UndoStackRepository-&gt;Token"
              style="stroke: #A80036; stroke-width: 1.0;"/>
        <polygon fill="#A80036" points="144.5,439.68,148.5,430.68,144.5,434.68,140.5,430.68,144.5,439.68"
                 style="stroke: #A80036; stroke-width: 1.0;"/><!--MD5=[82488bbc53b31cc8f5b83510ed67d667]
@startuml ExpressionEvaluatorService

interface IUndoStackRepository
interface IExpressionEvaluatorService
interface IExpressionValidator

abstract class Token
class NumberToken extends Token
class OperatorToken extends Token

class ExpressionEvaluatorService implements IExpressionEvaluatorService
class UndoStackRepository implements IUndoStackRepository
class ExpressionValidator implements IExpressionValidator

ExpressionEvaluatorService - -> IUndoStackRepository
ExpressionEvaluatorService - -> IExpressionValidator
UndoStackRepository - -> Token

@enduml

PlantUML version 1.2020.02(Sun Mar 01 06:22:07 AMT 2020)
(GPL source distribution)
Java Runtime: OpenJDK Runtime Environment
JVM: OpenJDK 64-Bit Server VM
Java Version: 21.0.7+6-LTS
Operating System: Linux
Default Encoding: UTF-8
Language: en
Country: null
-->
    </g>
</svg>