<?xml version="1.0" encoding="UTF-8" standalone="no"?><svg xmlns="http://www.w3.org/2000/svg" xmlns:xlink="http://www.w3.org/1999/xlink" contentScriptType="application/ecmascript" contentStyleType="text/css" height="623px" preserveAspectRatio="none" style="width:1193px;height:623px;" version="1.1" viewBox="0 0 1193 623" width="1193px" zoomAndPan="magnify"><defs><filter height="300%" id="f1v3mnpecxnvaw" width="300%" x="-1" y="-1"><feGaussianBlur result="blurOut" stdDeviation="2.0"/><feColorMatrix in="blurOut" result="blurOut2" type="matrix" values="0 0 0 0 0 0 0 0 0 0 0 0 0 0 0 0 0 0 .4 0"/><feOffset dx="4.0" dy="4.0" in="blurOut2" result="blurOut3"/><feBlend in="SourceGraphic" in2="blurOut3" mode="normal"/></filter></defs><g><!--MD5=[027ebfd53c01aea08f474edbf35d0797]
cluster Models--><polygon fill="#FFFFFF" filter="url(#f1v3mnpecxnvaw)" points="415,337,477,337,484,359.2969,1171,359.2969,1171,611,415,611,415,337" style="stroke: #000000; stroke-width: 1.5;"/><line style="stroke: #000000; stroke-width: 1.5;" x1="415" x2="484" y1="359.2969" y2="359.2969"/><text fill="#000000" font-family="sans-serif" font-size="14" font-weight="bold" lengthAdjust="spacingAndGlyphs" textLength="56" x="419" y="351.9951">Models</text><!--MD5=[c33db22cd91d622c105bbe7bf67b0931]
cluster Components--><polygon fill="#FFFFFF" filter="url(#f1v3mnpecxnvaw)" points="543,380,649,380,656,402.2969,1147,402.2969,1147,587,543,587,543,380" style="stroke: #000000; stroke-width: 1.5;"/><line style="stroke: #000000; stroke-width: 1.5;" x1="543" x2="656" y1="402.2969" y2="402.2969"/><text fill="#000000" font-family="sans-serif" font-size="14" font-weight="bold" lengthAdjust="spacingAndGlyphs" textLength="100" x="547" y="394.9951">Components</text><!--MD5=[0b89f7d34c26fffbb81ea7301eb9df33]
cluster Interfaces--><polygon fill="#FFFFFF" filter="url(#f1v3mnpecxnvaw)" points="816,190,902,190,909,212.2969,924,212.2969,924,289,816,289,816,190" style="stroke: #000000; stroke-width: 1.5;"/><line style="stroke: #000000; stroke-width: 1.5;" x1="816" x2="909" y1="212.2969" y2="212.2969"/><text fill="#000000" font-family="sans-serif" font-size="14" font-weight="bold" lengthAdjust="spacingAndGlyphs" textLength="80" x="820" y="204.9951">Interfaces</text><!--MD5=[cdfd548b3455e70392372b1f27091970]
cluster Services--><polygon fill="#FFFFFF" filter="url(#f1v3mnpecxnvaw)" points="22,24,96,24,103,46.2969,792,46.2969,792,313,22,313,22,24" style="stroke: #000000; stroke-width: 1.5;"/><line style="stroke: #000000; stroke-width: 1.5;" x1="22" x2="103" y1="46.2969" y2="46.2969"/><text fill="#000000" font-family="sans-serif" font-size="14" font-weight="bold" lengthAdjust="spacingAndGlyphs" textLength="68" x="26" y="38.9951">Services</text><!--MD5=[1c28c037b2f136bf7754f9e82e0f1af4]
cluster Decorator--><polygon fill="#FFFFFF" filter="url(#f1v3mnpecxnvaw)" points="296,67,381,67,388,89.2969,768,89.2969,768,289,296,289,296,67" style="stroke: #000000; stroke-width: 1.5;"/><line style="stroke: #000000; stroke-width: 1.5;" x1="296" x2="388" y1="89.2969" y2="89.2969"/><text fill="#000000" font-family="sans-serif" font-size="14" font-weight="bold" lengthAdjust="spacingAndGlyphs" textLength="79" x="300" y="81.9951">Decorator</text><!--MD5=[44cc74aea8168fb4471e814fff38ed12]
cluster Builder--><polygon fill="#FFFFFF" filter="url(#f1v3mnpecxnvaw)" points="79,190,140,190,147,212.2969,261,212.2969,261,289,79,289,79,190" style="stroke: #000000; stroke-width: 1.5;"/><line style="stroke: #000000; stroke-width: 1.5;" x1="79" x2="147" y1="212.2969" y2="212.2969"/><text fill="#000000" font-family="sans-serif" font-size="14" font-weight="bold" lengthAdjust="spacingAndGlyphs" textLength="55" x="83" y="204.9951">Builder</text><!--MD5=[a617c8ebef3a62e40b87f3acbdcd04d8]
cluster Facade--><polygon fill="#FFFFFF" filter="url(#f1v3mnpecxnvaw)" points="46,67,108,67,115,89.2969,272,89.2969,272,166,46,166,46,67" style="stroke: #000000; stroke-width: 1.5;"/><line style="stroke: #000000; stroke-width: 1.5;" x1="46" x2="115" y1="89.2969" y2="89.2969"/><text fill="#000000" font-family="sans-serif" font-size="14" font-weight="bold" lengthAdjust="spacingAndGlyphs" textLength="56" x="50" y="81.9951">Facade</text><!--MD5=[91ffdd76f1c8795364bfc7c752e5da6a]
class Ingredient--><rect fill="#FEFECE" filter="url(#f1v3mnpecxnvaw)" height="48" id="Ingredient" style="stroke: #A80036; stroke-width: 1.5;" width="96" x="431" y="415"/><ellipse cx="446" cy="431" fill="#ADD1B2" rx="11" ry="11" style="stroke: #A80036; stroke-width: 1.0;"/><path d="M448.9688,436.6406 Q448.3906,436.9375 447.75,437.0781 Q447.1094,437.2344 446.4063,437.2344 Q443.9063,437.2344 442.5781,435.5938 Q441.2656,433.9375 441.2656,430.8125 Q441.2656,427.6875 442.5781,426.0313 Q443.9063,424.375 446.4063,424.375 Q447.1094,424.375 447.75,424.5313 Q448.4063,424.6875 448.9688,424.9844 L448.9688,427.7031 Q448.3438,427.125 447.75,426.8594 Q447.1563,426.5781 446.5313,426.5781 Q445.1875,426.5781 444.5,427.6563 Q443.8125,428.7188 443.8125,430.8125 Q443.8125,432.9063 444.5,433.9844 Q445.1875,435.0469 446.5313,435.0469 Q447.1563,435.0469 447.75,434.7813 Q448.3438,434.5 448.9688,433.9219 L448.9688,436.6406 Z "/><text fill="#000000" font-family="sans-serif" font-size="12" lengthAdjust="spacingAndGlyphs" textLength="64" x="460" y="435.1543">Ingredient</text><line style="stroke: #A80036; stroke-width: 1.5;" x1="432" x2="526" y1="447" y2="447"/><line style="stroke: #A80036; stroke-width: 1.5;" x1="432" x2="526" y1="455" y2="455"/><!--MD5=[b986b2b08aa16d16917af7ec9ceffe53]
class BaseCoffee--><rect fill="#FEFECE" filter="url(#f1v3mnpecxnvaw)" height="48" id="BaseCoffee" style="stroke: #A80036; stroke-width: 1.5;" width="103" x="818.5" y="415"/><ellipse cx="833.5" cy="431" fill="#ADD1B2" rx="11" ry="11" style="stroke: #A80036; stroke-width: 1.0;"/><path d="M836.4688,436.6406 Q835.8906,436.9375 835.25,437.0781 Q834.6094,437.2344 833.9063,437.2344 Q831.4063,437.2344 830.0781,435.5938 Q828.7656,433.9375 828.7656,430.8125 Q828.7656,427.6875 830.0781,426.0313 Q831.4063,424.375 833.9063,424.375 Q834.6094,424.375 835.25,424.5313 Q835.9063,424.6875 836.4688,424.9844 L836.4688,427.7031 Q835.8438,427.125 835.25,426.8594 Q834.6563,426.5781 834.0313,426.5781 Q832.6875,426.5781 832,427.6563 Q831.3125,428.7188 831.3125,430.8125 Q831.3125,432.9063 832,433.9844 Q832.6875,435.0469 834.0313,435.0469 Q834.6563,435.0469 835.25,434.7813 Q835.8438,434.5 836.4688,433.9219 L836.4688,436.6406 Z "/><text fill="#000000" font-family="sans-serif" font-size="12" lengthAdjust="spacingAndGlyphs" textLength="71" x="847.5" y="435.1543">BaseCoffee</text><line style="stroke: #A80036; stroke-width: 1.5;" x1="819.5" x2="920.5" y1="447" y2="447"/><line style="stroke: #A80036; stroke-width: 1.5;" x1="819.5" x2="920.5" y1="455" y2="455"/><!--MD5=[f5ea9ff06fc8109cace2c9440d07df67]
class Espresso--><rect fill="#FEFECE" filter="url(#f1v3mnpecxnvaw)" height="48" id="Espresso" style="stroke: #A80036; stroke-width: 1.5;" width="90" x="559" y="523"/><ellipse cx="574" cy="539" fill="#ADD1B2" rx="11" ry="11" style="stroke: #A80036; stroke-width: 1.0;"/><path d="M576.9688,544.6406 Q576.3906,544.9375 575.75,545.0781 Q575.1094,545.2344 574.4063,545.2344 Q571.9063,545.2344 570.5781,543.5938 Q569.2656,541.9375 569.2656,538.8125 Q569.2656,535.6875 570.5781,534.0313 Q571.9063,532.375 574.4063,532.375 Q575.1094,532.375 575.75,532.5313 Q576.4063,532.6875 576.9688,532.9844 L576.9688,535.7031 Q576.3438,535.125 575.75,534.8594 Q575.1563,534.5781 574.5313,534.5781 Q573.1875,534.5781 572.5,535.6563 Q571.8125,536.7188 571.8125,538.8125 Q571.8125,540.9063 572.5,541.9844 Q573.1875,543.0469 574.5313,543.0469 Q575.1563,543.0469 575.75,542.7813 Q576.3438,542.5 576.9688,541.9219 L576.9688,544.6406 Z "/><text fill="#000000" font-family="sans-serif" font-size="12" lengthAdjust="spacingAndGlyphs" textLength="58" x="588" y="543.1543">Espresso</text><line style="stroke: #A80036; stroke-width: 1.5;" x1="560" x2="648" y1="555" y2="555"/><line style="stroke: #A80036; stroke-width: 1.5;" x1="560" x2="648" y1="563" y2="563"/><!--MD5=[7bbd6f7ba2a61795d4eaf51d22c452b7]
class Americano--><rect fill="#FEFECE" filter="url(#f1v3mnpecxnvaw)" height="48" id="Americano" style="stroke: #A80036; stroke-width: 1.5;" width="98" x="684" y="523"/><ellipse cx="699" cy="539" fill="#ADD1B2" rx="11" ry="11" style="stroke: #A80036; stroke-width: 1.0;"/><path d="M701.9688,544.6406 Q701.3906,544.9375 700.75,545.0781 Q700.1094,545.2344 699.4063,545.2344 Q696.9063,545.2344 695.5781,543.5938 Q694.2656,541.9375 694.2656,538.8125 Q694.2656,535.6875 695.5781,534.0313 Q696.9063,532.375 699.4063,532.375 Q700.1094,532.375 700.75,532.5313 Q701.4063,532.6875 701.9688,532.9844 L701.9688,535.7031 Q701.3438,535.125 700.75,534.8594 Q700.1563,534.5781 699.5313,534.5781 Q698.1875,534.5781 697.5,535.6563 Q696.8125,536.7188 696.8125,538.8125 Q696.8125,540.9063 697.5,541.9844 Q698.1875,543.0469 699.5313,543.0469 Q700.1563,543.0469 700.75,542.7813 Q701.3438,542.5 701.9688,541.9219 L701.9688,544.6406 Z "/><text fill="#000000" font-family="sans-serif" font-size="12" lengthAdjust="spacingAndGlyphs" textLength="66" x="713" y="543.1543">Americano</text><line style="stroke: #A80036; stroke-width: 1.5;" x1="685" x2="781" y1="555" y2="555"/><line style="stroke: #A80036; stroke-width: 1.5;" x1="685" x2="781" y1="563" y2="563"/><!--MD5=[92fb634760d97ad36b783c3dd412d033]
class Cappuccino--><rect fill="#FEFECE" filter="url(#f1v3mnpecxnvaw)" height="48" id="Cappuccino" style="stroke: #A80036; stroke-width: 1.5;" width="105" x="817.5" y="523"/><ellipse cx="832.5" cy="539" fill="#ADD1B2" rx="11" ry="11" style="stroke: #A80036; stroke-width: 1.0;"/><path d="M835.4688,544.6406 Q834.8906,544.9375 834.25,545.0781 Q833.6094,545.2344 832.9063,545.2344 Q830.4063,545.2344 829.0781,543.5938 Q827.7656,541.9375 827.7656,538.8125 Q827.7656,535.6875 829.0781,534.0313 Q830.4063,532.375 832.9063,532.375 Q833.6094,532.375 834.25,532.5313 Q834.9063,532.6875 835.4688,532.9844 L835.4688,535.7031 Q834.8438,535.125 834.25,534.8594 Q833.6563,534.5781 833.0313,534.5781 Q831.6875,534.5781 831,535.6563 Q830.3125,536.7188 830.3125,538.8125 Q830.3125,540.9063 831,541.9844 Q831.6875,543.0469 833.0313,543.0469 Q833.6563,543.0469 834.25,542.7813 Q834.8438,542.5 835.4688,541.9219 L835.4688,544.6406 Z "/><text fill="#000000" font-family="sans-serif" font-size="12" lengthAdjust="spacingAndGlyphs" textLength="73" x="846.5" y="543.1543">Cappuccino</text><line style="stroke: #A80036; stroke-width: 1.5;" x1="818.5" x2="921.5" y1="555" y2="555"/><line style="stroke: #A80036; stroke-width: 1.5;" x1="818.5" x2="921.5" y1="563" y2="563"/><!--MD5=[5d17c49a0cce8bf9b921893a24ef5a7e]
class Latte--><rect fill="#FEFECE" filter="url(#f1v3mnpecxnvaw)" height="48" id="Latte" style="stroke: #A80036; stroke-width: 1.5;" width="64" x="958" y="523"/><ellipse cx="973" cy="539" fill="#ADD1B2" rx="11" ry="11" style="stroke: #A80036; stroke-width: 1.0;"/><path d="M975.9688,544.6406 Q975.3906,544.9375 974.75,545.0781 Q974.1094,545.2344 973.4063,545.2344 Q970.9063,545.2344 969.5781,543.5938 Q968.2656,541.9375 968.2656,538.8125 Q968.2656,535.6875 969.5781,534.0313 Q970.9063,532.375 973.4063,532.375 Q974.1094,532.375 974.75,532.5313 Q975.4063,532.6875 975.9688,532.9844 L975.9688,535.7031 Q975.3438,535.125 974.75,534.8594 Q974.1563,534.5781 973.5313,534.5781 Q972.1875,534.5781 971.5,535.6563 Q970.8125,536.7188 970.8125,538.8125 Q970.8125,540.9063 971.5,541.9844 Q972.1875,543.0469 973.5313,543.0469 Q974.1563,543.0469 974.75,542.7813 Q975.3438,542.5 975.9688,541.9219 L975.9688,544.6406 Z "/><text fill="#000000" font-family="sans-serif" font-size="12" lengthAdjust="spacingAndGlyphs" textLength="32" x="987" y="543.1543">Latte</text><line style="stroke: #A80036; stroke-width: 1.5;" x1="959" x2="1021" y1="555" y2="555"/><line style="stroke: #A80036; stroke-width: 1.5;" x1="959" x2="1021" y1="563" y2="563"/><!--MD5=[826a7f68534f7bc14c11c5eacbfd79df]
class Mocha--><rect fill="#FEFECE" filter="url(#f1v3mnpecxnvaw)" height="48" id="Mocha" style="stroke: #A80036; stroke-width: 1.5;" width="73" x="1057.5" y="523"/><ellipse cx="1072.5" cy="539" fill="#ADD1B2" rx="11" ry="11" style="stroke: #A80036; stroke-width: 1.0;"/><path d="M1075.4688,544.6406 Q1074.8906,544.9375 1074.25,545.0781 Q1073.6094,545.2344 1072.9063,545.2344 Q1070.4063,545.2344 1069.0781,543.5938 Q1067.7656,541.9375 1067.7656,538.8125 Q1067.7656,535.6875 1069.0781,534.0313 Q1070.4063,532.375 1072.9063,532.375 Q1073.6094,532.375 1074.25,532.5313 Q1074.9063,532.6875 1075.4688,532.9844 L1075.4688,535.7031 Q1074.8438,535.125 1074.25,534.8594 Q1073.6563,534.5781 1073.0313,534.5781 Q1071.6875,534.5781 1071,535.6563 Q1070.3125,536.7188 1070.3125,538.8125 Q1070.3125,540.9063 1071,541.9844 Q1071.6875,543.0469 1073.0313,543.0469 Q1073.6563,543.0469 1074.25,542.7813 Q1074.8438,542.5 1075.4688,541.9219 L1075.4688,544.6406 Z "/><text fill="#000000" font-family="sans-serif" font-size="12" lengthAdjust="spacingAndGlyphs" textLength="41" x="1086.5" y="543.1543">Mocha</text><line style="stroke: #A80036; stroke-width: 1.5;" x1="1058.5" x2="1129.5" y1="555" y2="555"/><line style="stroke: #A80036; stroke-width: 1.5;" x1="1058.5" x2="1129.5" y1="563" y2="563"/><!--MD5=[7a65d153865c7f0b088cda05737ad967]
class ICoffee--><rect fill="#FEFECE" filter="url(#f1v3mnpecxnvaw)" height="48" id="ICoffee" style="stroke: #A80036; stroke-width: 1.5;" width="76" x="832" y="225"/><ellipse cx="847" cy="241" fill="#B4A7E5" rx="11" ry="11" style="stroke: #A80036; stroke-width: 1.0;"/><path d="M842.9219,236.7656 L842.9219,234.6094 L850.3125,234.6094 L850.3125,236.7656 L847.8438,236.7656 L847.8438,244.8438 L850.3125,244.8438 L850.3125,247 L842.9219,247 L842.9219,244.8438 L845.3906,244.8438 L845.3906,236.7656 L842.9219,236.7656 Z "/><text fill="#000000" font-family="sans-serif" font-size="12" font-style="italic" lengthAdjust="spacingAndGlyphs" textLength="44" x="861" y="245.1543">ICoffee</text><line style="stroke: #A80036; stroke-width: 1.5;" x1="833" x2="907" y1="257" y2="257"/><line style="stroke: #A80036; stroke-width: 1.5;" x1="833" x2="907" y1="265" y2="265"/><!--MD5=[708b6a1e6e6589257fabd6ae05edaef6]
class CoffeeDecorator--><rect fill="#FEFECE" filter="url(#f1v3mnpecxnvaw)" height="48" id="CoffeeDecorator" style="stroke: #A80036; stroke-width: 1.5;" width="135" x="539.5" y="102"/><ellipse cx="554.5" cy="118" fill="#A9DCDF" rx="11" ry="11" style="stroke: #A80036; stroke-width: 1.0;"/><path d="M554.6094,113.3438 L553.4531,118.4219 L555.7813,118.4219 L554.6094,113.3438 Z M553.125,111.1094 L556.1094,111.1094 L559.4688,123.5 L557.0156,123.5 L556.25,120.4375 L552.9688,120.4375 L552.2188,123.5 L549.7813,123.5 L553.125,111.1094 Z "/><text fill="#000000" font-family="sans-serif" font-size="12" font-style="italic" lengthAdjust="spacingAndGlyphs" textLength="103" x="568.5" y="122.1543">CoffeeDecorator</text><line style="stroke: #A80036; stroke-width: 1.5;" x1="540.5" x2="673.5" y1="134" y2="134"/><line style="stroke: #A80036; stroke-width: 1.5;" x1="540.5" x2="673.5" y1="142" y2="142"/><!--MD5=[7387b668b8ac8cc66212986de150ecdb]
class MilkDecorator--><rect fill="#FEFECE" filter="url(#f1v3mnpecxnvaw)" height="48" id="MilkDecorator" style="stroke: #A80036; stroke-width: 1.5;" width="118" x="312" y="225"/><ellipse cx="327" cy="241" fill="#ADD1B2" rx="11" ry="11" style="stroke: #A80036; stroke-width: 1.0;"/><path d="M329.9688,246.6406 Q329.3906,246.9375 328.75,247.0781 Q328.1094,247.2344 327.4063,247.2344 Q324.9063,247.2344 323.5781,245.5938 Q322.2656,243.9375 322.2656,240.8125 Q322.2656,237.6875 323.5781,236.0313 Q324.9063,234.375 327.4063,234.375 Q328.1094,234.375 328.75,234.5313 Q329.4063,234.6875 329.9688,234.9844 L329.9688,237.7031 Q329.3438,237.125 328.75,236.8594 Q328.1563,236.5781 327.5313,236.5781 Q326.1875,236.5781 325.5,237.6563 Q324.8125,238.7188 324.8125,240.8125 Q324.8125,242.9063 325.5,243.9844 Q326.1875,245.0469 327.5313,245.0469 Q328.1563,245.0469 328.75,244.7813 Q329.3438,244.5 329.9688,243.9219 L329.9688,246.6406 Z "/><text fill="#000000" font-family="sans-serif" font-size="12" lengthAdjust="spacingAndGlyphs" textLength="86" x="341" y="245.1543">MilkDecorator</text><line style="stroke: #A80036; stroke-width: 1.5;" x1="313" x2="429" y1="257" y2="257"/><line style="stroke: #A80036; stroke-width: 1.5;" x1="313" x2="429" y1="265" y2="265"/><!--MD5=[d376057648d11c4dd600789e1ca95982]
class SugarDecorator--><rect fill="#FEFECE" filter="url(#f1v3mnpecxnvaw)" height="48" id="SugarDecorator" style="stroke: #A80036; stroke-width: 1.5;" width="132" x="465" y="225"/><ellipse cx="480" cy="241" fill="#ADD1B2" rx="11" ry="11" style="stroke: #A80036; stroke-width: 1.0;"/><path d="M482.9688,246.6406 Q482.3906,246.9375 481.75,247.0781 Q481.1094,247.2344 480.4063,247.2344 Q477.9063,247.2344 476.5781,245.5938 Q475.2656,243.9375 475.2656,240.8125 Q475.2656,237.6875 476.5781,236.0313 Q477.9063,234.375 480.4063,234.375 Q481.1094,234.375 481.75,234.5313 Q482.4063,234.6875 482.9688,234.9844 L482.9688,237.7031 Q482.3438,237.125 481.75,236.8594 Q481.1563,236.5781 480.5313,236.5781 Q479.1875,236.5781 478.5,237.6563 Q477.8125,238.7188 477.8125,240.8125 Q477.8125,242.9063 478.5,243.9844 Q479.1875,245.0469 480.5313,245.0469 Q481.1563,245.0469 481.75,244.7813 Q482.3438,244.5 482.9688,243.9219 L482.9688,246.6406 Z "/><text fill="#000000" font-family="sans-serif" font-size="12" lengthAdjust="spacingAndGlyphs" textLength="100" x="494" y="245.1543">SugarDecorator</text><line style="stroke: #A80036; stroke-width: 1.5;" x1="466" x2="596" y1="257" y2="257"/><line style="stroke: #A80036; stroke-width: 1.5;" x1="466" x2="596" y1="265" y2="265"/><!--MD5=[eea61eb7793c7c525d12c979a01e507d]
class SizeDecorator--><rect fill="#FEFECE" filter="url(#f1v3mnpecxnvaw)" height="48" id="SizeDecorator" style="stroke: #A80036; stroke-width: 1.5;" width="119" x="632.5" y="225"/><ellipse cx="647.5" cy="241" fill="#ADD1B2" rx="11" ry="11" style="stroke: #A80036; stroke-width: 1.0;"/><path d="M650.4688,246.6406 Q649.8906,246.9375 649.25,247.0781 Q648.6094,247.2344 647.9063,247.2344 Q645.4063,247.2344 644.0781,245.5938 Q642.7656,243.9375 642.7656,240.8125 Q642.7656,237.6875 644.0781,236.0313 Q645.4063,234.375 647.9063,234.375 Q648.6094,234.375 649.25,234.5313 Q649.9063,234.6875 650.4688,234.9844 L650.4688,237.7031 Q649.8438,237.125 649.25,236.8594 Q648.6563,236.5781 648.0313,236.5781 Q646.6875,236.5781 646,237.6563 Q645.3125,238.7188 645.3125,240.8125 Q645.3125,242.9063 646,243.9844 Q646.6875,245.0469 648.0313,245.0469 Q648.6563,245.0469 649.25,244.7813 Q649.8438,244.5 650.4688,243.9219 L650.4688,246.6406 Z "/><text fill="#000000" font-family="sans-serif" font-size="12" lengthAdjust="spacingAndGlyphs" textLength="87" x="661.5" y="245.1543">SizeDecorator</text><line style="stroke: #A80036; stroke-width: 1.5;" x1="633.5" x2="750.5" y1="257" y2="257"/><line style="stroke: #A80036; stroke-width: 1.5;" x1="633.5" x2="750.5" y1="265" y2="265"/><!--MD5=[a82b659b48b2b4cc5a294ae85d866559]
class CoffeeOrderBuilder--><rect fill="#FEFECE" filter="url(#f1v3mnpecxnvaw)" height="48" id="CoffeeOrderBuilder" style="stroke: #A80036; stroke-width: 1.5;" width="150" x="95" y="225"/><ellipse cx="110" cy="241" fill="#ADD1B2" rx="11" ry="11" style="stroke: #A80036; stroke-width: 1.0;"/><path d="M112.9688,246.6406 Q112.3906,246.9375 111.75,247.0781 Q111.1094,247.2344 110.4063,247.2344 Q107.9063,247.2344 106.5781,245.5938 Q105.2656,243.9375 105.2656,240.8125 Q105.2656,237.6875 106.5781,236.0313 Q107.9063,234.375 110.4063,234.375 Q111.1094,234.375 111.75,234.5313 Q112.4063,234.6875 112.9688,234.9844 L112.9688,237.7031 Q112.3438,237.125 111.75,236.8594 Q111.1563,236.5781 110.5313,236.5781 Q109.1875,236.5781 108.5,237.6563 Q107.8125,238.7188 107.8125,240.8125 Q107.8125,242.9063 108.5,243.9844 Q109.1875,245.0469 110.5313,245.0469 Q111.1563,245.0469 111.75,244.7813 Q112.3438,244.5 112.9688,243.9219 L112.9688,246.6406 Z "/><text fill="#000000" font-family="sans-serif" font-size="12" lengthAdjust="spacingAndGlyphs" textLength="118" x="124" y="245.1543">CoffeeOrderBuilder</text><line style="stroke: #A80036; stroke-width: 1.5;" x1="96" x2="244" y1="257" y2="257"/><line style="stroke: #A80036; stroke-width: 1.5;" x1="96" x2="244" y1="265" y2="265"/><!--MD5=[b77ca2e788c79ef1e6f25526ffe9d14f]
class CoffeeShopServiceFacade--><rect fill="#FEFECE" filter="url(#f1v3mnpecxnvaw)" height="48" id="CoffeeShopServiceFacade" style="stroke: #A80036; stroke-width: 1.5;" width="195" x="61.5" y="102"/><ellipse cx="76.5" cy="118" fill="#ADD1B2" rx="11" ry="11" style="stroke: #A80036; stroke-width: 1.0;"/><path d="M79.4688,123.6406 Q78.8906,123.9375 78.25,124.0781 Q77.6094,124.2344 76.9063,124.2344 Q74.4063,124.2344 73.0781,122.5938 Q71.7656,120.9375 71.7656,117.8125 Q71.7656,114.6875 73.0781,113.0313 Q74.4063,111.375 76.9063,111.375 Q77.6094,111.375 78.25,111.5313 Q78.9063,111.6875 79.4688,111.9844 L79.4688,114.7031 Q78.8438,114.125 78.25,113.8594 Q77.6563,113.5781 77.0313,113.5781 Q75.6875,113.5781 75,114.6563 Q74.3125,115.7188 74.3125,117.8125 Q74.3125,119.9063 75,120.9844 Q75.6875,122.0469 77.0313,122.0469 Q77.6563,122.0469 78.25,121.7813 Q78.8438,121.5 79.4688,120.9219 L79.4688,123.6406 Z "/><text fill="#000000" font-family="sans-serif" font-size="12" lengthAdjust="spacingAndGlyphs" textLength="163" x="90.5" y="122.1543">CoffeeShopServiceFacade</text><line style="stroke: #A80036; stroke-width: 1.5;" x1="62.5" x2="255.5" y1="134" y2="134"/><line style="stroke: #A80036; stroke-width: 1.5;" x1="62.5" x2="255.5" y1="142" y2="142"/><!--MD5=[2185445270d29f38b91ae3a49dbe4e84]
reverse link ICoffee to BaseCoffee--><path d="M870,293.21 C870,331.02 870,384.5 870,414.76 " fill="none" id="ICoffee&lt;-BaseCoffee" style="stroke: #A80036; stroke-width: 1.0;"/><polygon fill="none" points="863,293.05,870,273.05,877,293.05,863,293.05" style="stroke: #A80036; stroke-width: 1.0;"/><!--MD5=[76b1533e888e10fdfda03dccf2351186]
reverse link BaseCoffee to Espresso--><path d="M799.59,469.22 C744.7,491.32 687.76,513.58 649.39,528.47 " fill="none" id="BaseCoffee&lt;-Espresso" style="stroke: #A80036; stroke-width: 1.0;"/><polygon fill="none" points="797.32,462.59,818.49,461.58,802.57,475.57,797.32,462.59" style="stroke: #A80036; stroke-width: 1.0;"/><!--MD5=[3180c88a2a9a0353df3d7ad13cf7ff7d]
reverse link BaseCoffee to Americano--><path d="M824.25,475.4 C804.13,490.97 781.05,508.82 763.14,522.68 " fill="none" id="BaseCoffee&lt;-Americano" style="stroke: #A80036; stroke-width: 1.0;"/><polygon fill="none" points="820.17,469.7,840.27,463,828.74,480.78,820.17,469.7" style="stroke: #A80036; stroke-width: 1.0;"/><!--MD5=[7ee63e9a86d242859ccc7fa67495df56]
reverse link BaseCoffee to Cappuccino--><path d="M870,483.02 C870,496.58 870,511.04 870,522.68 " fill="none" id="BaseCoffee&lt;-Cappuccino" style="stroke: #A80036; stroke-width: 1.0;"/><polygon fill="none" points="863,483,870,463,877,483,863,483" style="stroke: #A80036; stroke-width: 1.0;"/><!--MD5=[ce08fd0a06b1ffd5d2ca81efe4ba15cb]
reverse link BaseCoffee to Latte--><path d="M911.14,476.34 C928.51,491.68 948.22,509.1 963.6,522.68 " fill="none" id="BaseCoffee&lt;-Latte" style="stroke: #A80036; stroke-width: 1.0;"/><polygon fill="none" points="906.39,481.49,896.04,463,915.66,470.99,906.39,481.49" style="stroke: #A80036; stroke-width: 1.0;"/><!--MD5=[0dd3a2e825f7eae89c692596ef6135a2]
reverse link BaseCoffee to Mocha--><path d="M936.85,471.64 C976.29,490.3 1024.7,513.21 1057.29,528.63 " fill="none" id="BaseCoffee&lt;-Mocha" style="stroke: #A80036; stroke-width: 1.0;"/><polygon fill="none" points="933.69,477.88,918.6,463,939.68,465.23,933.69,477.88" style="stroke: #A80036; stroke-width: 1.0;"/><!--MD5=[cbaf86a7f633e3a3a6c475f7423c008c]
reverse link ICoffee to CoffeeDecorator--><path d="M821.99,213.48 C805.4,202.5 786.35,190.91 768,182 C738.37,167.62 704.01,155.34 674.66,146.05 " fill="none" id="ICoffee&lt;-CoffeeDecorator" style="stroke: #A80036; stroke-width: 1.0; stroke-dasharray: 7.0,7.0;"/><polygon fill="none" points="825.99,207.74,838.57,224.79,818.1,219.31,825.99,207.74" style="stroke: #A80036; stroke-width: 1.0;"/><!--MD5=[527cfd20415ecb2e808fef15f7a8ccc0]
reverse link CoffeeDecorator to MilkDecorator--><path d="M519.96,150.18 C495.52,158.46 469.49,169.03 447,182 C426.87,193.61 407.14,210.97 392.83,224.97 " fill="none" id="CoffeeDecorator&lt;-MilkDecorator" style="stroke: #A80036; stroke-width: 1.0;"/><polygon fill="none" points="517.95,143.48,539.13,144.03,522.23,156.81,517.95,143.48" style="stroke: #A80036; stroke-width: 1.0;"/><!--MD5=[9f8ca883482acca53ff48d9c707fc710]
reverse link CoffeeDecorator to SugarDecorator--><path d="M581.81,167.11 C569.82,186.19 555.91,208.34 545.68,224.63 " fill="none" id="CoffeeDecorator&lt;-SugarDecorator" style="stroke: #A80036; stroke-width: 1.0;"/><polygon fill="none" points="575.96,163.26,592.53,150.04,587.82,170.7,575.96,163.26" style="stroke: #A80036; stroke-width: 1.0;"/><!--MD5=[86ada7e12ffb319417019fc9349340fc]
reverse link CoffeeDecorator to SizeDecorator--><path d="M634.76,166.52 C648.26,185.73 664.02,208.17 675.58,224.63 " fill="none" id="CoffeeDecorator&lt;-SizeDecorator" style="stroke: #A80036; stroke-width: 1.0;"/><polygon fill="none" points="628.96,170.43,623.19,150.04,640.41,162.39,628.96,170.43" style="stroke: #A80036; stroke-width: 1.0;"/><!--MD5=[d9ddab9838296af6c70d0d97f5933451]
link CoffeeOrderBuilder to ICoffee--><path d="M202.12,224.97 C229.92,206.25 272.07,182.67 313.5,178 C337.62,175.28 726.38,175.28 750.5,178 C784.36,181.82 817.23,203.03 839.89,221.28 " fill="none" id="CoffeeOrderBuilder-&gt;ICoffee" style="stroke: #A80036; stroke-width: 1.0;"/><polygon fill="#A80036" points="844,224.65,839.5886,215.8443,840.1379,221.4745,834.5077,222.0238,844,224.65" style="stroke: #A80036; stroke-width: 1.0;"/><!--MD5=[1622617a5babe711af9f2b2dbd025871]
link CoffeeShopServiceFacade to ICoffee--><path d="M213.29,150.01 C238.04,159.36 268.01,169.09 296,174 C347.66,183.07 717.82,166.72 768,182 C794.26,190 820.19,206.92 839.33,221.63 " fill="none" id="CoffeeShopServiceFacade-&gt;ICoffee" style="stroke: #A80036; stroke-width: 1.0; stroke-dasharray: 7.0,7.0;"/><polygon fill="#A80036" points="843.55,224.93,838.9081,216.2436,839.6055,221.8573,833.9919,222.5548,843.55,224.93" style="stroke: #A80036; stroke-width: 1.0;"/><!--MD5=[2af39d37d77abf9149aeb5fce3921e5c]
link CoffeeShopServiceFacade to CoffeeOrderBuilder--><path d="M161.09,150.04 C162.89,169.77 165.48,198.24 167.4,219.41 " fill="none" id="CoffeeShopServiceFacade-&gt;CoffeeOrderBuilder" style="stroke: #A80036; stroke-width: 1.0; stroke-dasharray: 7.0,7.0;"/><polygon fill="#A80036" points="167.88,224.63,171.0415,215.3024,167.4235,219.6509,163.0749,216.0328,167.88,224.63" style="stroke: #A80036; stroke-width: 1.0;"/><!--MD5=[a56ef39fc5685cda8449771ff72a7404]
link CoffeeShopServiceFacade to MilkDecorator--><path d="M202.92,150.12 C221.01,159.78 242.12,171.25 261,182 C283.77,194.96 308.84,209.94 329.29,222.36 " fill="none" id="CoffeeShopServiceFacade-&gt;MilkDecorator" style="stroke: #A80036; stroke-width: 1.0; stroke-dasharray: 7.0,7.0;"/><polygon fill="#A80036" points="333.58,224.97,327.9522,216.8874,329.3027,222.3807,323.8094,223.7311,333.58,224.97" style="stroke: #A80036; stroke-width: 1.0;"/><!--MD5=[b09b04844174c18264177773048d3f9a]
link CoffeeShopServiceFacade to SizeDecorator--><path d="M213.64,150.03 C238.33,159.31 268.16,169 296,174 C330.9,180.27 581.9,169.28 615,182 C636.06,190.09 655.33,206.62 669.32,221.11 " fill="none" id="CoffeeShopServiceFacade-&gt;SizeDecorator" style="stroke: #A80036; stroke-width: 1.0; stroke-dasharray: 7.0,7.0;"/><polygon fill="#A80036" points="672.77,224.74,669.477,215.458,669.3285,221.1129,663.6736,220.9644,672.77,224.74" style="stroke: #A80036; stroke-width: 1.0;"/><!--MD5=[89f788bc7b095c1a4bd830cb51b2a831]
link CoffeeShopServiceFacade to SugarDecorator--><path d="M214.7,150.04 C239.2,159.14 268.6,168.68 296,174 C328.99,180.4 415.54,170.18 447,182 C469.25,190.36 490.27,206.89 505.72,221.31 " fill="none" id="CoffeeShopServiceFacade-&gt;SugarDecorator" style="stroke: #A80036; stroke-width: 1.0; stroke-dasharray: 7.0,7.0;"/><polygon fill="#A80036" points="509.52,224.93,505.7444,215.8336,505.8929,221.4885,500.238,221.637,509.52,224.93" style="stroke: #A80036; stroke-width: 1.0;"/><!--MD5=[d17416664eb88fe936d4ce4e126ba8df]
@startuml
package Models {
    package Components {
        class BaseCoffee
        class Espresso
        class Americano
        class Cappuccino
        class Latte
        class Mocha
    }
    class Ingredient
}

package Interfaces {
    interface ICoffee
}

package Services {
    package Decorator {
        abstract class CoffeeDecorator
        class MilkDecorator
        class SugarDecorator
        class SizeDecorator
    }
    package Builder {
        class CoffeeOrderBuilder
    }
    package Facade {
        class CoffeeShopServiceFacade
    }
}

ICoffee <|- - BaseCoffee
BaseCoffee <|- - Espresso
BaseCoffee <|- - Americano
BaseCoffee <|- - Cappuccino
BaseCoffee <|- - Latte
BaseCoffee <|- - Mocha

ICoffee <|.. CoffeeDecorator
CoffeeDecorator <|- - MilkDecorator
CoffeeDecorator <|- - SugarDecorator
CoffeeDecorator <|- - SizeDecorator

CoffeeOrderBuilder - -> ICoffee
CoffeeShopServiceFacade ..> ICoffee
CoffeeShopServiceFacade ..> CoffeeOrderBuilder
CoffeeShopServiceFacade ..> MilkDecorator
CoffeeShopServiceFacade ..> SizeDecorator
CoffeeShopServiceFacade ..> SugarDecorator
@enduml

PlantUML version 1.2020.02(Sun Mar 01 06:22:07 AMT 2020)
(GPL source distribution)
Java Runtime: OpenJDK Runtime Environment
JVM: OpenJDK 64-Bit Server VM
Java Version: 21.0.7+6-LTS
Operating System: Linux
Default Encoding: UTF-8
Language: en
Country: null
--></g></svg>