<?xml version="1.0" encoding="UTF-8" standalone="no"?><svg xmlns="http://www.w3.org/2000/svg" xmlns:xlink="http://www.w3.org/1999/xlink" contentScriptType="application/ecmascript" contentStyleType="text/css" height="465px" preserveAspectRatio="none" style="width:1123px;height:465px;" version="1.1" viewBox="0 0 1123 465" width="1123px" zoomAndPan="magnify"><defs><filter height="300%" id="f1m7np0zrakcy5" width="300%" x="-1" y="-1"><feGaussianBlur result="blurOut" stdDeviation="2.0"/><feColorMatrix in="blurOut" result="blurOut2" type="matrix" values="0 0 0 0 0 0 0 0 0 0 0 0 0 0 0 0 0 0 .4 0"/><feOffset dx="4.0" dy="4.0" in="blurOut2" result="blurOut3"/><feBlend in="SourceGraphic" in2="blurOut3" mode="normal"/></filter></defs><g><!--MD5=[d953825bde73971c4e822be0b3c8b2f7]
cluster FactoryMethod--><polygon fill="#FFFFFF" filter="url(#f1m7np0zrakcy5)" points="22,24,146,24,153,46.2969,1101,46.2969,1101,453,22,453,22,24" style="stroke: #000000; stroke-width: 1.5;"/><line style="stroke: #000000; stroke-width: 1.5;" x1="22" x2="153" y1="46.2969" y2="46.2969"/><text fill="#000000" font-family="sans-serif" font-size="14" font-weight="bold" lengthAdjust="spacingAndGlyphs" textLength="118" x="26" y="38.9951">FactoryMethod</text><!--MD5=[d1c060848ad2df0791f673f7db1f100f]
class IDocumentProcessor--><rect fill="#FEFECE" filter="url(#f1m7np0zrakcy5)" height="48" id="IDocumentProcessor" style="stroke: #A80036; stroke-width: 1.5;" width="160" x="599" y="389"/><ellipse cx="614" cy="405" fill="#B4A7E5" rx="11" ry="11" style="stroke: #A80036; stroke-width: 1.0;"/><path d="M609.9219,400.7656 L609.9219,398.6094 L617.3125,398.6094 L617.3125,400.7656 L614.8438,400.7656 L614.8438,408.8438 L617.3125,408.8438 L617.3125,411 L609.9219,411 L609.9219,408.8438 L612.3906,408.8438 L612.3906,400.7656 L609.9219,400.7656 Z "/><text fill="#000000" font-family="sans-serif" font-size="12" font-style="italic" lengthAdjust="spacingAndGlyphs" textLength="128" x="628" y="409.1543">IDocumentProcessor</text><line style="stroke: #A80036; stroke-width: 1.5;" x1="600" x2="758" y1="421" y2="421"/><line style="stroke: #A80036; stroke-width: 1.5;" x1="600" x2="758" y1="429" y2="429"/><!--MD5=[a458bad0df107e46b5e82915eb0aa97e]
class DocumentType--><rect fill="#FEFECE" filter="url(#f1m7np0zrakcy5)" height="48" id="DocumentType" style="stroke: #A80036; stroke-width: 1.5;" width="125" x="61.5" y="281"/><ellipse cx="76.5" cy="297" fill="#EB937F" rx="11" ry="11" style="stroke: #A80036; stroke-width: 1.0;"/><path d="M80.6094,303 L72.8906,303 L72.8906,290.6094 L80.6094,290.6094 L80.6094,292.7656 L75.3438,292.7656 L75.3438,295.4375 L80.1094,295.4375 L80.1094,297.5938 L75.3438,297.5938 L75.3438,300.8438 L80.6094,300.8438 L80.6094,303 Z "/><text fill="#000000" font-family="sans-serif" font-size="12" lengthAdjust="spacingAndGlyphs" textLength="93" x="90.5" y="301.1543">DocumentType</text><line style="stroke: #A80036; stroke-width: 1.5;" x1="62.5" x2="185.5" y1="313" y2="313"/><line style="stroke: #A80036; stroke-width: 1.5;" x1="62.5" x2="185.5" y1="321" y2="321"/><!--MD5=[07dbf625028329051663ae4d8c5189fc]
class DocumentProcessorFactory--><rect fill="#FEFECE" filter="url(#f1m7np0zrakcy5)" height="48" id="DocumentProcessorFactory" style="stroke: #A80036; stroke-width: 1.5;" width="203" x="577.5" y="281"/><ellipse cx="592.5" cy="297" fill="#A9DCDF" rx="11" ry="11" style="stroke: #A80036; stroke-width: 1.0;"/><path d="M592.6094,292.3438 L591.4531,297.4219 L593.7813,297.4219 L592.6094,292.3438 Z M591.125,290.1094 L594.1094,290.1094 L597.4688,302.5 L595.0156,302.5 L594.25,299.4375 L590.9688,299.4375 L590.2188,302.5 L587.7813,302.5 L591.125,290.1094 Z "/><text fill="#000000" font-family="sans-serif" font-size="12" font-style="italic" lengthAdjust="spacingAndGlyphs" textLength="171" x="606.5" y="301.1543">DocumentProcessorFactory</text><line style="stroke: #A80036; stroke-width: 1.5;" x1="578.5" x2="779.5" y1="313" y2="313"/><line style="stroke: #A80036; stroke-width: 1.5;" x1="578.5" x2="779.5" y1="321" y2="321"/><!--MD5=[6e9eeda92b38714b1f7a48b2a3ea7a43]
class PdfProcessorFactory--><rect fill="#FEFECE" filter="url(#f1m7np0zrakcy5)" height="48" id="PdfProcessorFactory" style="stroke: #A80036; stroke-width: 1.5;" width="161" x="923.5" y="170"/><ellipse cx="938.5" cy="186" fill="#ADD1B2" rx="11" ry="11" style="stroke: #A80036; stroke-width: 1.0;"/><path d="M941.4688,191.6406 Q940.8906,191.9375 940.25,192.0781 Q939.6094,192.2344 938.9063,192.2344 Q936.4063,192.2344 935.0781,190.5938 Q933.7656,188.9375 933.7656,185.8125 Q933.7656,182.6875 935.0781,181.0313 Q936.4063,179.375 938.9063,179.375 Q939.6094,179.375 940.25,179.5313 Q940.9063,179.6875 941.4688,179.9844 L941.4688,182.7031 Q940.8438,182.125 940.25,181.8594 Q939.6563,181.5781 939.0313,181.5781 Q937.6875,181.5781 937,182.6563 Q936.3125,183.7188 936.3125,185.8125 Q936.3125,187.9063 937,188.9844 Q937.6875,190.0469 939.0313,190.0469 Q939.6563,190.0469 940.25,189.7813 Q940.8438,189.5 941.4688,188.9219 L941.4688,191.6406 Z "/><text fill="#000000" font-family="sans-serif" font-size="12" lengthAdjust="spacingAndGlyphs" textLength="129" x="952.5" y="190.1543">PdfProcessorFactory</text><line style="stroke: #A80036; stroke-width: 1.5;" x1="924.5" x2="1083.5" y1="202" y2="202"/><line style="stroke: #A80036; stroke-width: 1.5;" x1="924.5" x2="1083.5" y1="210" y2="210"/><!--MD5=[76021e84caebb658a62197fd9657595e]
class WordProcessorFactory--><rect fill="#FEFECE" filter="url(#f1m7np0zrakcy5)" height="48" id="WordProcessorFactory" style="stroke: #A80036; stroke-width: 1.5;" width="173" x="715.5" y="170"/><ellipse cx="730.5" cy="186" fill="#ADD1B2" rx="11" ry="11" style="stroke: #A80036; stroke-width: 1.0;"/><path d="M733.4688,191.6406 Q732.8906,191.9375 732.25,192.0781 Q731.6094,192.2344 730.9063,192.2344 Q728.4063,192.2344 727.0781,190.5938 Q725.7656,188.9375 725.7656,185.8125 Q725.7656,182.6875 727.0781,181.0313 Q728.4063,179.375 730.9063,179.375 Q731.6094,179.375 732.25,179.5313 Q732.9063,179.6875 733.4688,179.9844 L733.4688,182.7031 Q732.8438,182.125 732.25,181.8594 Q731.6563,181.5781 731.0313,181.5781 Q729.6875,181.5781 729,182.6563 Q728.3125,183.7188 728.3125,185.8125 Q728.3125,187.9063 729,188.9844 Q729.6875,190.0469 731.0313,190.0469 Q731.6563,190.0469 732.25,189.7813 Q732.8438,189.5 733.4688,188.9219 L733.4688,191.6406 Z "/><text fill="#000000" font-family="sans-serif" font-size="12" lengthAdjust="spacingAndGlyphs" textLength="141" x="744.5" y="190.1543">WordProcessorFactory</text><line style="stroke: #A80036; stroke-width: 1.5;" x1="716.5" x2="887.5" y1="202" y2="202"/><line style="stroke: #A80036; stroke-width: 1.5;" x1="716.5" x2="887.5" y1="210" y2="210"/><!--MD5=[1211953938fd842781faaeb08257b362]
class ExcelProcessorFactory--><rect fill="#FEFECE" filter="url(#f1m7np0zrakcy5)" height="48" id="ExcelProcessorFactory" style="stroke: #A80036; stroke-width: 1.5;" width="173" x="469.5" y="170"/><ellipse cx="484.5" cy="186" fill="#ADD1B2" rx="11" ry="11" style="stroke: #A80036; stroke-width: 1.0;"/><path d="M487.4688,191.6406 Q486.8906,191.9375 486.25,192.0781 Q485.6094,192.2344 484.9063,192.2344 Q482.4063,192.2344 481.0781,190.5938 Q479.7656,188.9375 479.7656,185.8125 Q479.7656,182.6875 481.0781,181.0313 Q482.4063,179.375 484.9063,179.375 Q485.6094,179.375 486.25,179.5313 Q486.9063,179.6875 487.4688,179.9844 L487.4688,182.7031 Q486.8438,182.125 486.25,181.8594 Q485.6563,181.5781 485.0313,181.5781 Q483.6875,181.5781 483,182.6563 Q482.3125,183.7188 482.3125,185.8125 Q482.3125,187.9063 483,188.9844 Q483.6875,190.0469 485.0313,190.0469 Q485.6563,190.0469 486.25,189.7813 Q486.8438,189.5 487.4688,188.9219 L487.4688,191.6406 Z "/><text fill="#000000" font-family="sans-serif" font-size="12" lengthAdjust="spacingAndGlyphs" textLength="141" x="498.5" y="190.1543">ExcelProcessorFactory</text><line style="stroke: #A80036; stroke-width: 1.5;" x1="470.5" x2="641.5" y1="202" y2="202"/><line style="stroke: #A80036; stroke-width: 1.5;" x1="470.5" x2="641.5" y1="210" y2="210"/><!--MD5=[9820c03a2633e4268cdd208103d2616f]
class DocumentService--><rect fill="#FEFECE" filter="url(#f1m7np0zrakcy5)" height="48" id="DocumentService" style="stroke: #A80036; stroke-width: 1.5;" width="141" x="75.5" y="170"/><ellipse cx="90.5" cy="186" fill="#ADD1B2" rx="11" ry="11" style="stroke: #A80036; stroke-width: 1.0;"/><path d="M93.4688,191.6406 Q92.8906,191.9375 92.25,192.0781 Q91.6094,192.2344 90.9063,192.2344 Q88.4063,192.2344 87.0781,190.5938 Q85.7656,188.9375 85.7656,185.8125 Q85.7656,182.6875 87.0781,181.0313 Q88.4063,179.375 90.9063,179.375 Q91.6094,179.375 92.25,179.5313 Q92.9063,179.6875 93.4688,179.9844 L93.4688,182.7031 Q92.8438,182.125 92.25,181.8594 Q91.6563,181.5781 91.0313,181.5781 Q89.6875,181.5781 89,182.6563 Q88.3125,183.7188 88.3125,185.8125 Q88.3125,187.9063 89,188.9844 Q89.6875,190.0469 91.0313,190.0469 Q91.6563,190.0469 92.25,189.7813 Q92.8438,189.5 93.4688,188.9219 L93.4688,191.6406 Z "/><text fill="#000000" font-family="sans-serif" font-size="12" lengthAdjust="spacingAndGlyphs" textLength="109" x="104.5" y="190.1543">DocumentService</text><line style="stroke: #A80036; stroke-width: 1.5;" x1="76.5" x2="215.5" y1="202" y2="202"/><line style="stroke: #A80036; stroke-width: 1.5;" x1="76.5" x2="215.5" y1="210" y2="210"/><!--MD5=[175f95e045c1a44aed0b30df3abe0e5c]
class Program--><rect fill="#FEFECE" filter="url(#f1m7np0zrakcy5)" height="48" id="Program" style="stroke: #A80036; stroke-width: 1.5;" width="85" x="201.5" y="59"/><ellipse cx="216.5" cy="75" fill="#ADD1B2" rx="11" ry="11" style="stroke: #A80036; stroke-width: 1.0;"/><path d="M219.4688,80.6406 Q218.8906,80.9375 218.25,81.0781 Q217.6094,81.2344 216.9063,81.2344 Q214.4063,81.2344 213.0781,79.5938 Q211.7656,77.9375 211.7656,74.8125 Q211.7656,71.6875 213.0781,70.0313 Q214.4063,68.375 216.9063,68.375 Q217.6094,68.375 218.25,68.5313 Q218.9063,68.6875 219.4688,68.9844 L219.4688,71.7031 Q218.8438,71.125 218.25,70.8594 Q217.6563,70.5781 217.0313,70.5781 Q215.6875,70.5781 215,71.6563 Q214.3125,72.7188 214.3125,74.8125 Q214.3125,76.9063 215,77.9844 Q215.6875,79.0469 217.0313,79.0469 Q217.6563,79.0469 218.25,78.7813 Q218.8438,78.5 219.4688,77.9219 L219.4688,80.6406 Z "/><text fill="#000000" font-family="sans-serif" font-size="12" lengthAdjust="spacingAndGlyphs" textLength="53" x="230.5" y="79.1543">Program</text><line style="stroke: #A80036; stroke-width: 1.5;" x1="202.5" x2="285.5" y1="91" y2="91"/><line style="stroke: #A80036; stroke-width: 1.5;" x1="202.5" x2="285.5" y1="99" y2="99"/><!--MD5=[bda3715ed6f513aab58682d0245705b8]
class DocumentProcessorBad--><rect fill="#FEFECE" filter="url(#f1m7np0zrakcy5)" height="53.9375" id="DocumentProcessorBad" style="stroke: #A80036; stroke-width: 1.5;" width="183" x="251.5" y="167"/><ellipse cx="266.5" cy="185.9688" fill="#ADD1B2" rx="11" ry="11" style="stroke: #A80036; stroke-width: 1.0;"/><path d="M269.4688,191.6094 Q268.8906,191.9063 268.25,192.0469 Q267.6094,192.2031 266.9063,192.2031 Q264.4063,192.2031 263.0781,190.5625 Q261.7656,188.9063 261.7656,185.7813 Q261.7656,182.6563 263.0781,181 Q264.4063,179.3438 266.9063,179.3438 Q267.6094,179.3438 268.25,179.5 Q268.9063,179.6563 269.4688,179.9531 L269.4688,182.6719 Q268.8438,182.0938 268.25,181.8281 Q267.6563,181.5469 267.0313,181.5469 Q265.6875,181.5469 265,182.625 Q264.3125,183.6875 264.3125,185.7813 Q264.3125,187.875 265,188.9531 Q265.6875,190.0156 267.0313,190.0156 Q267.6563,190.0156 268.25,189.75 Q268.8438,189.4688 269.4688,188.8906 L269.4688,191.6094 Z "/><text fill="#000000" font-family="sans-serif" font-size="12" font-style="italic" lengthAdjust="spacingAndGlyphs" textLength="89" x="311.5" y="183.1387">«anti-pattern»</text><text fill="#000000" font-family="sans-serif" font-size="12" lengthAdjust="spacingAndGlyphs" textLength="151" x="280.5" y="197.1074">DocumentProcessorBad</text><line style="stroke: #A80036; stroke-width: 1.5;" x1="252.5" x2="433.5" y1="204.9375" y2="204.9375"/><line style="stroke: #A80036; stroke-width: 1.5;" x1="252.5" x2="433.5" y1="212.9375" y2="212.9375"/><!--MD5=[bf24727d5b53643d44efd5d8676302f6]
link PdfProcessorFactory to DocumentProcessorFactory--><path d="M935.08,218.12 C886.06,234.55 819.82,256.77 766.99,274.49 " fill="none" id="PdfProcessorFactory-&gt;DocumentProcessorFactory" style="stroke: #A80036; stroke-width: 1.0; stroke-dasharray: 7.0,7.0;"/><polygon fill="none" points="769.01,281.19,747.82,280.92,764.56,267.92,769.01,281.19" style="stroke: #A80036; stroke-width: 1.0;"/><!--MD5=[8c4c0b0a166a1bfb45eece03d5b5d778]
link WordProcessorFactory to DocumentProcessorFactory--><path d="M775.91,218.12 C759.69,232.5 738.47,251.3 720.03,267.64 " fill="none" id="WordProcessorFactory-&gt;DocumentProcessorFactory" style="stroke: #A80036; stroke-width: 1.0; stroke-dasharray: 7.0,7.0;"/><polygon fill="none" points="724.66,272.89,705.05,280.92,715.37,262.41,724.66,272.89" style="stroke: #A80036; stroke-width: 1.0;"/><!--MD5=[836b91ed1a4ebccd3a3e59996ae6eb32]
link ExcelProcessorFactory to DocumentProcessorFactory--><path d="M582.09,218.12 C598.31,232.5 619.53,251.3 637.97,267.64 " fill="none" id="ExcelProcessorFactory-&gt;DocumentProcessorFactory" style="stroke: #A80036; stroke-width: 1.0; stroke-dasharray: 7.0,7.0;"/><polygon fill="none" points="642.63,262.41,652.95,280.92,633.34,272.89,642.63,262.41" style="stroke: #A80036; stroke-width: 1.0;"/><!--MD5=[126b29fbba4d9e68247b547d21327edd]
link DocumentProcessorFactory to IDocumentProcessor--><path d="M679,329 C679,345 679,366.45 679,383.53 " fill="none" id="DocumentProcessorFactory-&gt;IDocumentProcessor" style="stroke: #A80036; stroke-width: 1.0;"/><polygon fill="#A80036" points="679,388.68,683,379.68,679,383.68,675,379.68,679,388.68" style="stroke: #A80036; stroke-width: 1.0;"/><!--MD5=[45d593b78e03e0a2317143bb23710109]
link PdfProcessorFactory to IDocumentProcessor--><path d="M972.28,218.09 C934.69,245.25 869.97,291.41 813,329 C782.99,348.8 748.48,370.14 722,386.22 " fill="none" id="PdfProcessorFactory-&gt;IDocumentProcessor" style="stroke: #A80036; stroke-width: 1.0;"/><polygon fill="#A80036" points="717.49,388.96,727.2625,387.7356,721.7712,386.377,723.1297,380.8857,717.49,388.96" style="stroke: #A80036; stroke-width: 1.0;"/><!--MD5=[14567f24bd998c5531d27dfdba4b2194]
link WordProcessorFactory to IDocumentProcessor--><path d="M807.32,218.42 C812.41,246.53 816.82,294.2 798,329 C784.58,353.82 760.11,372.81 736.84,386.32 " fill="none" id="WordProcessorFactory-&gt;IDocumentProcessor" style="stroke: #A80036; stroke-width: 1.0;"/><polygon fill="#A80036" points="732.2,388.95,742.0019,387.9889,736.5491,386.4831,738.0549,381.0304,732.2,388.95" style="stroke: #A80036; stroke-width: 1.0;"/><!--MD5=[b4d5a766d05362507b114c544d98ad58]
link ExcelProcessorFactory to IDocumentProcessor--><path d="M550.68,218.42 C545.59,246.53 541.18,294.2 560,329 C573.42,353.82 597.89,372.81 621.16,386.32 " fill="none" id="ExcelProcessorFactory-&gt;IDocumentProcessor" style="stroke: #A80036; stroke-width: 1.0;"/><polygon fill="#A80036" points="625.8,388.95,619.9451,381.0304,621.4509,386.4831,615.9981,387.9889,625.8,388.95" style="stroke: #A80036; stroke-width: 1.0;"/><!--MD5=[7efc4ff5b7f7f728824829faf338a57a]
link DocumentService to DocumentProcessorFactory--><path d="M216.91,216.63 C222.68,218.18 228.42,219.66 234,221 C348.56,248.53 481.55,272.28 572.1,287.24 " fill="none" id="DocumentService-&gt;DocumentProcessorFactory" style="stroke: #A80036; stroke-width: 1.0;"/><polygon fill="#A80036" points="577.19,288.07,568.9624,282.6564,572.2569,287.255,567.6583,290.5494,577.19,288.07" style="stroke: #A80036; stroke-width: 1.0;"/><!--MD5=[c24a423ba9d0d966d61adbb93b69b665]
link DocumentService to DocumentType--><path d="M141.33,218.12 C137.92,235.02 133.28,258.05 129.65,276 " fill="none" id="DocumentService-&gt;DocumentType" style="stroke: #A80036; stroke-width: 1.0;"/><polygon fill="#A80036" points="128.66,280.92,134.3564,272.8856,129.6461,276.0182,126.5135,271.3079,128.66,280.92" style="stroke: #A80036; stroke-width: 1.0;"/><!--MD5=[8bffa1d7022f24ef691d9c3bca23a8ba]
link DocumentService to IDocumentProcessor--><path d="M202.54,218.02 C303.28,259.03 513.05,344.44 617.36,386.9 " fill="none" id="DocumentService-&gt;IDocumentProcessor" style="stroke: #A80036; stroke-width: 1.0;"/><polygon fill="#A80036" points="622.24,388.89,615.4144,381.79,617.6095,387.0035,612.396,389.1987,622.24,388.89" style="stroke: #A80036; stroke-width: 1.0;"/><!--MD5=[5975ec5d74dab8b844859fa0f9309caf]
link Program to DocumentProcessorBad--><path d="M265,107.12 C279.77,123.38 299.69,145.31 315.69,162.94 " fill="none" id="Program-&gt;DocumentProcessorBad" style="stroke: #A80036; stroke-width: 1.0;"/><polygon fill="#A80036" points="319.26,166.86,316.1747,157.5069,315.9002,163.1571,310.25,162.8826,319.26,166.86" style="stroke: #A80036; stroke-width: 1.0;"/><!--MD5=[b18e3e815e805da013304c7b9a17feaf]
link Program to DocumentProcessorFactory--><path d="M286.68,86.41 C382.3,92.74 609.3,113.21 660,167 C687.32,195.99 687.21,244.94 683.75,275.81 " fill="none" id="Program-&gt;DocumentProcessorFactory" style="stroke: #A80036; stroke-width: 1.0;"/><polygon fill="#A80036" points="683.12,280.98,688.1964,272.5402,683.7349,276.018,680.2572,271.5564,683.12,280.98" style="stroke: #A80036; stroke-width: 1.0;"/><!--MD5=[e01f1d388e22941947ddbdd4948f0e61]
link Program to DocumentService--><path d="M223.22,107.12 C207.76,124.31 186.61,147.83 170.35,165.91 " fill="none" id="Program-&gt;DocumentService" style="stroke: #A80036; stroke-width: 1.0;"/><polygon fill="#A80036" points="166.75,169.92,175.7362,165.8891,170.0877,166.1972,169.7796,160.5487,166.75,169.92" style="stroke: #A80036; stroke-width: 1.0;"/><!--MD5=[33ce8d93eab94cc9ea931140bc9d9dbd]
link Program to DocumentType--><path d="M201.43,89.6 C157.02,97.97 89.56,118.35 58,167 C34.62,203.03 67.62,248.6 94.77,277.03 " fill="none" id="Program-&gt;DocumentType" style="stroke: #A80036; stroke-width: 1.0;"/><polygon fill="#A80036" points="98.39,280.75,94.9848,271.5085,94.9048,277.1648,89.2485,277.0848,98.39,280.75" style="stroke: #A80036; stroke-width: 1.0;"/><!--MD5=[a6119354067432dfcc778e6c4a868fc1]
@startuml

package FactoryMethod {
  interface IDocumentProcessor
  enum DocumentType
  abstract class DocumentProcessorFactory
  class PdfProcessorFactory
  class WordProcessorFactory
  class ExcelProcessorFactory
  class DocumentService
  class Program
  class DocumentProcessorBad <<anti-pattern>>
}

PdfProcessorFactory ..|> DocumentProcessorFactory
WordProcessorFactory ..|> DocumentProcessorFactory
ExcelProcessorFactory ..|> DocumentProcessorFactory

DocumentProcessorFactory - -> IDocumentProcessor
PdfProcessorFactory - -> IDocumentProcessor
WordProcessorFactory - -> IDocumentProcessor
ExcelProcessorFactory - -> IDocumentProcessor

DocumentService - -> DocumentProcessorFactory
DocumentService - -> DocumentType
DocumentService - -> IDocumentProcessor

Program - -> DocumentProcessorBad
Program - -> DocumentProcessorFactory
Program - -> DocumentService
Program - -> DocumentType
@enduml

PlantUML version 1.2020.02(Sun Mar 01 06:22:07 AMT 2020)
(GPL source distribution)
Java Runtime: OpenJDK Runtime Environment
JVM: OpenJDK 64-Bit Server VM
Java Version: 21.0.7+6-LTS
Operating System: Linux
Default Encoding: UTF-8
Language: en
Country: null
--></g></svg>