<?xml version="1.0" encoding="UTF-8" standalone="no"?><svg xmlns="http://www.w3.org/2000/svg" xmlns:xlink="http://www.w3.org/1999/xlink" contentScriptType="application/ecmascript" contentStyleType="text/css" height="513px" preserveAspectRatio="none" style="width:1457px;height:513px;" version="1.1" viewBox="0 0 1457 513" width="1457px" zoomAndPan="magnify"><defs><filter height="300%" id="fpqsvxqnwo245" width="300%" x="-1" y="-1"><feGaussianBlur result="blurOut" stdDeviation="2.0"/><feColorMatrix in="blurOut" result="blurOut2" type="matrix" values="0 0 0 0 0 0 0 0 0 0 0 0 0 0 0 0 0 0 .4 0"/><feOffset dx="4.0" dy="4.0" in="blurOut2" result="blurOut3"/><feBlend in="SourceGraphic" in2="blurOut3" mode="normal"/></filter></defs><g><!--MD5=[027ebfd53c01aea08f474edbf35d0797]
cluster Models--><polygon fill="#FFFFFF" filter="url(#fpqsvxqnwo245)" points="366,402,428,402,435,424.2969,642,424.2969,642,501,366,501,366,402" style="stroke: #000000; stroke-width: 1.5;"/><line style="stroke: #000000; stroke-width: 1.5;" x1="366" x2="435" y1="424.2969" y2="424.2969"/><text fill="#000000" font-family="sans-serif" font-size="14" font-weight="bold" lengthAdjust="spacingAndGlyphs" textLength="56" x="370" y="416.9951">Models</text><!--MD5=[0b89f7d34c26fffbb81ea7301eb9df33]
cluster Interfaces--><polygon fill="#FFFFFF" filter="url(#fpqsvxqnwo245)" points="674,402,760,402,767,424.2969,882,424.2969,882,501,674,501,674,402" style="stroke: #000000; stroke-width: 1.5;"/><line style="stroke: #000000; stroke-width: 1.5;" x1="674" x2="767" y1="424.2969" y2="424.2969"/><text fill="#000000" font-family="sans-serif" font-size="14" font-weight="bold" lengthAdjust="spacingAndGlyphs" textLength="80" x="678" y="416.9951">Interfaces</text><!--MD5=[cdfd548b3455e70392372b1f27091970]
cluster Services--><polygon fill="#FFFFFF" filter="url(#fpqsvxqnwo245)" points="22,24,96,24,103,46.2969,1435,46.2969,1435,378,22,378,22,24" style="stroke: #000000; stroke-width: 1.5;"/><line style="stroke: #000000; stroke-width: 1.5;" x1="22" x2="103" y1="46.2969" y2="46.2969"/><text fill="#000000" font-family="sans-serif" font-size="14" font-weight="bold" lengthAdjust="spacingAndGlyphs" textLength="68" x="26" y="38.9951">Services</text><!--MD5=[13deee7bba1140ca9d8aad9bd20b3c41]
cluster Factories--><polygon fill="#FFFFFF" filter="url(#fpqsvxqnwo245)" points="678,255,757,255,764,277.2969,886,277.2969,886,354,678,354,678,255" style="stroke: #000000; stroke-width: 1.5;"/><line style="stroke: #000000; stroke-width: 1.5;" x1="678" x2="764" y1="277.2969" y2="277.2969"/><text fill="#000000" font-family="sans-serif" font-size="14" font-weight="bold" lengthAdjust="spacingAndGlyphs" textLength="73" x="682" y="269.9951">Factories</text><!--MD5=[444f91ba8c20991ef20f3cbea2f1cf45]
cluster ReportGenerators--><polygon fill="#FFFFFF" filter="url(#fpqsvxqnwo245)" points="46,132,195,132,202,154.2969,682,154.2969,682,231,46,231,46,132" style="stroke: #000000; stroke-width: 1.5;"/><line style="stroke: #000000; stroke-width: 1.5;" x1="46" x2="202" y1="154.2969" y2="154.2969"/><text fill="#000000" font-family="sans-serif" font-size="14" font-weight="bold" lengthAdjust="spacingAndGlyphs" textLength="143" x="50" y="146.9951">ReportGenerators</text><!--MD5=[e60e88ecedf54f7d55b113b5da790a64]
cluster Templates--><polygon fill="#FFFFFF" filter="url(#fpqsvxqnwo245)" points="484,255,572,255,579,277.2969,654,277.2969,654,354,484,354,484,255" style="stroke: #000000; stroke-width: 1.5;"/><line style="stroke: #000000; stroke-width: 1.5;" x1="484" x2="579" y1="277.2969" y2="277.2969"/><text fill="#000000" font-family="sans-serif" font-size="14" font-weight="bold" lengthAdjust="spacingAndGlyphs" textLength="82" x="488" y="269.9951">Templates</text><!--MD5=[3b99badd0b58009c027fdc69e3b1f509]
cluster Strategies--><polygon fill="#FFFFFF" filter="url(#fpqsvxqnwo245)" points="706,132,793,132,800,154.2969,1281,154.2969,1281,231,706,231,706,132" style="stroke: #000000; stroke-width: 1.5;"/><line style="stroke: #000000; stroke-width: 1.5;" x1="706" x2="800" y1="154.2969" y2="154.2969"/><text fill="#000000" font-family="sans-serif" font-size="14" font-weight="bold" lengthAdjust="spacingAndGlyphs" textLength="81" x="710" y="146.9951">Strategies</text><!--MD5=[20e2b03fbd87bf84de74b6e73903c8d0]
class FormatType--><rect fill="#FEFECE" filter="url(#fpqsvxqnwo245)" height="48" id="FormatType" style="stroke: #A80036; stroke-width: 1.5;" width="105" x="520.5" y="437"/><ellipse cx="535.5" cy="453" fill="#EB937F" rx="11" ry="11" style="stroke: #A80036; stroke-width: 1.0;"/><path d="M539.6094,459 L531.8906,459 L531.8906,446.6094 L539.6094,446.6094 L539.6094,448.7656 L534.3438,448.7656 L534.3438,451.4375 L539.1094,451.4375 L539.1094,453.5938 L534.3438,453.5938 L534.3438,456.8438 L539.6094,456.8438 L539.6094,459 Z "/><text fill="#000000" font-family="sans-serif" font-size="12" lengthAdjust="spacingAndGlyphs" textLength="73" x="549.5" y="457.1543">FormatType</text><line style="stroke: #A80036; stroke-width: 1.5;" x1="521.5" x2="624.5" y1="469" y2="469"/><line style="stroke: #A80036; stroke-width: 1.5;" x1="521.5" x2="624.5" y1="477" y2="477"/><!--MD5=[3e595314a662911651dc11a64b1bf8d2]
class ReportType--><rect fill="#FEFECE" filter="url(#fpqsvxqnwo245)" height="48" id="ReportType" style="stroke: #A80036; stroke-width: 1.5;" width="103" x="382.5" y="437"/><ellipse cx="397.5" cy="453" fill="#EB937F" rx="11" ry="11" style="stroke: #A80036; stroke-width: 1.0;"/><path d="M401.6094,459 L393.8906,459 L393.8906,446.6094 L401.6094,446.6094 L401.6094,448.7656 L396.3438,448.7656 L396.3438,451.4375 L401.1094,451.4375 L401.1094,453.5938 L396.3438,453.5938 L396.3438,456.8438 L401.6094,456.8438 L401.6094,459 Z "/><text fill="#000000" font-family="sans-serif" font-size="12" lengthAdjust="spacingAndGlyphs" textLength="71" x="411.5" y="457.1543">ReportType</text><line style="stroke: #A80036; stroke-width: 1.5;" x1="383.5" x2="484.5" y1="469" y2="469"/><line style="stroke: #A80036; stroke-width: 1.5;" x1="383.5" x2="484.5" y1="477" y2="477"/><!--MD5=[ddb97ac55aa711b85ee39e074a935f80]
class IReportFormatStrategy--><rect fill="#FEFECE" filter="url(#fpqsvxqnwo245)" height="48" id="IReportFormatStrategy" style="stroke: #A80036; stroke-width: 1.5;" width="176" x="690" y="437"/><ellipse cx="705" cy="453" fill="#B4A7E5" rx="11" ry="11" style="stroke: #A80036; stroke-width: 1.0;"/><path d="M700.9219,448.7656 L700.9219,446.6094 L708.3125,446.6094 L708.3125,448.7656 L705.8438,448.7656 L705.8438,456.8438 L708.3125,456.8438 L708.3125,459 L700.9219,459 L700.9219,456.8438 L703.3906,456.8438 L703.3906,448.7656 L700.9219,448.7656 Z "/><text fill="#000000" font-family="sans-serif" font-size="12" font-style="italic" lengthAdjust="spacingAndGlyphs" textLength="144" x="719" y="457.1543">IReportFormatStrategy</text><line style="stroke: #A80036; stroke-width: 1.5;" x1="691" x2="865" y1="469" y2="469"/><line style="stroke: #A80036; stroke-width: 1.5;" x1="691" x2="865" y1="477" y2="477"/><!--MD5=[6f87e9699705eff7b532341e7f8b6542]
class ReportService--><rect fill="#FEFECE" filter="url(#fpqsvxqnwo245)" height="48" id="ReportService" style="stroke: #A80036; stroke-width: 1.5;" width="119" x="1299.5" y="167"/><ellipse cx="1314.5" cy="183" fill="#ADD1B2" rx="11" ry="11" style="stroke: #A80036; stroke-width: 1.0;"/><path d="M1317.4688,188.6406 Q1316.8906,188.9375 1316.25,189.0781 Q1315.6094,189.2344 1314.9063,189.2344 Q1312.4063,189.2344 1311.0781,187.5938 Q1309.7656,185.9375 1309.7656,182.8125 Q1309.7656,179.6875 1311.0781,178.0313 Q1312.4063,176.375 1314.9063,176.375 Q1315.6094,176.375 1316.25,176.5313 Q1316.9063,176.6875 1317.4688,176.9844 L1317.4688,179.7031 Q1316.8438,179.125 1316.25,178.8594 Q1315.6563,178.5781 1315.0313,178.5781 Q1313.6875,178.5781 1313,179.6563 Q1312.3125,180.7188 1312.3125,182.8125 Q1312.3125,184.9063 1313,185.9844 Q1313.6875,187.0469 1315.0313,187.0469 Q1315.6563,187.0469 1316.25,186.7813 Q1316.8438,186.5 1317.4688,185.9219 L1317.4688,188.6406 Z "/><text fill="#000000" font-family="sans-serif" font-size="12" lengthAdjust="spacingAndGlyphs" textLength="87" x="1328.5" y="187.1543">ReportService</text><line style="stroke: #A80036; stroke-width: 1.5;" x1="1300.5" x2="1417.5" y1="199" y2="199"/><line style="stroke: #A80036; stroke-width: 1.5;" x1="1300.5" x2="1417.5" y1="207" y2="207"/><!--MD5=[0a8ba2a8dd6125de8c002daaed5e0306]
class RuntimeStrategyService--><rect fill="#FEFECE" filter="url(#fpqsvxqnwo245)" height="48" id="RuntimeStrategyService" style="stroke: #A80036; stroke-width: 1.5;" width="181" x="905.5" y="59"/><ellipse cx="920.5" cy="75" fill="#ADD1B2" rx="11" ry="11" style="stroke: #A80036; stroke-width: 1.0;"/><path d="M923.4688,80.6406 Q922.8906,80.9375 922.25,81.0781 Q921.6094,81.2344 920.9063,81.2344 Q918.4063,81.2344 917.0781,79.5938 Q915.7656,77.9375 915.7656,74.8125 Q915.7656,71.6875 917.0781,70.0313 Q918.4063,68.375 920.9063,68.375 Q921.6094,68.375 922.25,68.5313 Q922.9063,68.6875 923.4688,68.9844 L923.4688,71.7031 Q922.8438,71.125 922.25,70.8594 Q921.6563,70.5781 921.0313,70.5781 Q919.6875,70.5781 919,71.6563 Q918.3125,72.7188 918.3125,74.8125 Q918.3125,76.9063 919,77.9844 Q919.6875,79.0469 921.0313,79.0469 Q921.6563,79.0469 922.25,78.7813 Q922.8438,78.5 923.4688,77.9219 L923.4688,80.6406 Z "/><text fill="#000000" font-family="sans-serif" font-size="12" lengthAdjust="spacingAndGlyphs" textLength="149" x="934.5" y="79.1543">RuntimeStrategyService</text><line style="stroke: #A80036; stroke-width: 1.5;" x1="906.5" x2="1085.5" y1="91" y2="91"/><line style="stroke: #A80036; stroke-width: 1.5;" x1="906.5" x2="1085.5" y1="99" y2="99"/><!--MD5=[58552312c7c301cffabc1404c6d887ba]
class FormatStrategyFactory--><rect fill="#FEFECE" filter="url(#fpqsvxqnwo245)" height="48" id="FormatStrategyFactory" style="stroke: #A80036; stroke-width: 1.5;" width="175" x="694.5" y="290"/><ellipse cx="709.5" cy="306" fill="#ADD1B2" rx="11" ry="11" style="stroke: #A80036; stroke-width: 1.0;"/><path d="M712.4688,311.6406 Q711.8906,311.9375 711.25,312.0781 Q710.6094,312.2344 709.9063,312.2344 Q707.4063,312.2344 706.0781,310.5938 Q704.7656,308.9375 704.7656,305.8125 Q704.7656,302.6875 706.0781,301.0313 Q707.4063,299.375 709.9063,299.375 Q710.6094,299.375 711.25,299.5313 Q711.9063,299.6875 712.4688,299.9844 L712.4688,302.7031 Q711.8438,302.125 711.25,301.8594 Q710.6563,301.5781 710.0313,301.5781 Q708.6875,301.5781 708,302.6563 Q707.3125,303.7188 707.3125,305.8125 Q707.3125,307.9063 708,308.9844 Q708.6875,310.0469 710.0313,310.0469 Q710.6563,310.0469 711.25,309.7813 Q711.8438,309.5 712.4688,308.9219 L712.4688,311.6406 Z "/><text fill="#000000" font-family="sans-serif" font-size="12" lengthAdjust="spacingAndGlyphs" textLength="143" x="723.5" y="310.1543">FormatStrategyFactory</text><line style="stroke: #A80036; stroke-width: 1.5;" x1="695.5" x2="868.5" y1="322" y2="322"/><line style="stroke: #A80036; stroke-width: 1.5;" x1="695.5" x2="868.5" y1="330" y2="330"/><!--MD5=[3db03c1f0d588f0d3029281366da36de]
class SalesReportGenerator--><rect fill="#FEFECE" filter="url(#fpqsvxqnwo245)" height="48" id="SalesReportGenerator" style="stroke: #A80036; stroke-width: 1.5;" width="172" x="62" y="167"/><ellipse cx="77" cy="183" fill="#ADD1B2" rx="11" ry="11" style="stroke: #A80036; stroke-width: 1.0;"/><path d="M79.9688,188.6406 Q79.3906,188.9375 78.75,189.0781 Q78.1094,189.2344 77.4063,189.2344 Q74.9063,189.2344 73.5781,187.5938 Q72.2656,185.9375 72.2656,182.8125 Q72.2656,179.6875 73.5781,178.0313 Q74.9063,176.375 77.4063,176.375 Q78.1094,176.375 78.75,176.5313 Q79.4063,176.6875 79.9688,176.9844 L79.9688,179.7031 Q79.3438,179.125 78.75,178.8594 Q78.1563,178.5781 77.5313,178.5781 Q76.1875,178.5781 75.5,179.6563 Q74.8125,180.7188 74.8125,182.8125 Q74.8125,184.9063 75.5,185.9844 Q76.1875,187.0469 77.5313,187.0469 Q78.1563,187.0469 78.75,186.7813 Q79.3438,186.5 79.9688,185.9219 L79.9688,188.6406 Z "/><text fill="#000000" font-family="sans-serif" font-size="12" lengthAdjust="spacingAndGlyphs" textLength="140" x="91" y="187.1543">SalesReportGenerator</text><line style="stroke: #A80036; stroke-width: 1.5;" x1="63" x2="233" y1="199" y2="199"/><line style="stroke: #A80036; stroke-width: 1.5;" x1="63" x2="233" y1="207" y2="207"/><!--MD5=[63fbf96f3421f3184b1c4b70378efb0f]
class InventoryReportGenerator--><rect fill="#FEFECE" filter="url(#fpqsvxqnwo245)" height="48" id="InventoryReportGenerator" style="stroke: #A80036; stroke-width: 1.5;" width="195" x="471.5" y="167"/><ellipse cx="486.5" cy="183" fill="#ADD1B2" rx="11" ry="11" style="stroke: #A80036; stroke-width: 1.0;"/><path d="M489.4688,188.6406 Q488.8906,188.9375 488.25,189.0781 Q487.6094,189.2344 486.9063,189.2344 Q484.4063,189.2344 483.0781,187.5938 Q481.7656,185.9375 481.7656,182.8125 Q481.7656,179.6875 483.0781,178.0313 Q484.4063,176.375 486.9063,176.375 Q487.6094,176.375 488.25,176.5313 Q488.9063,176.6875 489.4688,176.9844 L489.4688,179.7031 Q488.8438,179.125 488.25,178.8594 Q487.6563,178.5781 487.0313,178.5781 Q485.6875,178.5781 485,179.6563 Q484.3125,180.7188 484.3125,182.8125 Q484.3125,184.9063 485,185.9844 Q485.6875,187.0469 487.0313,187.0469 Q487.6563,187.0469 488.25,186.7813 Q488.8438,186.5 489.4688,185.9219 L489.4688,188.6406 Z "/><text fill="#000000" font-family="sans-serif" font-size="12" lengthAdjust="spacingAndGlyphs" textLength="163" x="500.5" y="187.1543">InventoryReportGenerator</text><line style="stroke: #A80036; stroke-width: 1.5;" x1="472.5" x2="665.5" y1="199" y2="199"/><line style="stroke: #A80036; stroke-width: 1.5;" x1="472.5" x2="665.5" y1="207" y2="207"/><!--MD5=[f663bd7d9ea1f92183eca84064224f31]
class UserReportGenerator--><rect fill="#FEFECE" filter="url(#fpqsvxqnwo245)" height="48" id="UserReportGenerator" style="stroke: #A80036; stroke-width: 1.5;" width="167" x="269.5" y="167"/><ellipse cx="284.5" cy="183" fill="#ADD1B2" rx="11" ry="11" style="stroke: #A80036; stroke-width: 1.0;"/><path d="M287.4688,188.6406 Q286.8906,188.9375 286.25,189.0781 Q285.6094,189.2344 284.9063,189.2344 Q282.4063,189.2344 281.0781,187.5938 Q279.7656,185.9375 279.7656,182.8125 Q279.7656,179.6875 281.0781,178.0313 Q282.4063,176.375 284.9063,176.375 Q285.6094,176.375 286.25,176.5313 Q286.9063,176.6875 287.4688,176.9844 L287.4688,179.7031 Q286.8438,179.125 286.25,178.8594 Q285.6563,178.5781 285.0313,178.5781 Q283.6875,178.5781 283,179.6563 Q282.3125,180.7188 282.3125,182.8125 Q282.3125,184.9063 283,185.9844 Q283.6875,187.0469 285.0313,187.0469 Q285.6563,187.0469 286.25,186.7813 Q286.8438,186.5 287.4688,185.9219 L287.4688,188.6406 Z "/><text fill="#000000" font-family="sans-serif" font-size="12" lengthAdjust="spacingAndGlyphs" textLength="135" x="298.5" y="187.1543">UserReportGenerator</text><line style="stroke: #A80036; stroke-width: 1.5;" x1="270.5" x2="435.5" y1="199" y2="199"/><line style="stroke: #A80036; stroke-width: 1.5;" x1="270.5" x2="435.5" y1="207" y2="207"/><!--MD5=[281bb5dd1d30cabf93bd4ed98cd3f817]
class ReportGenerator--><rect fill="#FEFECE" filter="url(#fpqsvxqnwo245)" height="48" id="ReportGenerator" style="stroke: #A80036; stroke-width: 1.5;" width="138" x="500" y="290"/><ellipse cx="515" cy="306" fill="#A9DCDF" rx="11" ry="11" style="stroke: #A80036; stroke-width: 1.0;"/><path d="M515.1094,301.3438 L513.9531,306.4219 L516.2813,306.4219 L515.1094,301.3438 Z M513.625,299.1094 L516.6094,299.1094 L519.9688,311.5 L517.5156,311.5 L516.75,308.4375 L513.4688,308.4375 L512.7188,311.5 L510.2813,311.5 L513.625,299.1094 Z "/><text fill="#000000" font-family="sans-serif" font-size="12" font-style="italic" lengthAdjust="spacingAndGlyphs" textLength="106" x="529" y="310.1543">ReportGenerator</text><line style="stroke: #A80036; stroke-width: 1.5;" x1="501" x2="637" y1="322" y2="322"/><line style="stroke: #A80036; stroke-width: 1.5;" x1="501" x2="637" y1="330" y2="330"/><!--MD5=[5fa2830bf29a2d38415e4381257fca05]
class HTMLFormatStrategy--><rect fill="#FEFECE" filter="url(#fpqsvxqnwo245)" height="48" id="HTMLFormatStrategy" style="stroke: #A80036; stroke-width: 1.5;" width="161" x="915.5" y="167"/><ellipse cx="930.5" cy="183" fill="#ADD1B2" rx="11" ry="11" style="stroke: #A80036; stroke-width: 1.0;"/><path d="M933.4688,188.6406 Q932.8906,188.9375 932.25,189.0781 Q931.6094,189.2344 930.9063,189.2344 Q928.4063,189.2344 927.0781,187.5938 Q925.7656,185.9375 925.7656,182.8125 Q925.7656,179.6875 927.0781,178.0313 Q928.4063,176.375 930.9063,176.375 Q931.6094,176.375 932.25,176.5313 Q932.9063,176.6875 933.4688,176.9844 L933.4688,179.7031 Q932.8438,179.125 932.25,178.8594 Q931.6563,178.5781 931.0313,178.5781 Q929.6875,178.5781 929,179.6563 Q928.3125,180.7188 928.3125,182.8125 Q928.3125,184.9063 929,185.9844 Q929.6875,187.0469 931.0313,187.0469 Q931.6563,187.0469 932.25,186.7813 Q932.8438,186.5 933.4688,185.9219 L933.4688,188.6406 Z "/><text fill="#000000" font-family="sans-serif" font-size="12" lengthAdjust="spacingAndGlyphs" textLength="129" x="944.5" y="187.1543">HTMLFormatStrategy</text><line style="stroke: #A80036; stroke-width: 1.5;" x1="916.5" x2="1075.5" y1="199" y2="199"/><line style="stroke: #A80036; stroke-width: 1.5;" x1="916.5" x2="1075.5" y1="207" y2="207"/><!--MD5=[9e52495e7fb263b581bc05f5c2714032]
class CSVFormatStrategy--><rect fill="#FEFECE" filter="url(#fpqsvxqnwo245)" height="48" id="CSVFormatStrategy" style="stroke: #A80036; stroke-width: 1.5;" width="153" x="1111.5" y="167"/><ellipse cx="1126.5" cy="183" fill="#ADD1B2" rx="11" ry="11" style="stroke: #A80036; stroke-width: 1.0;"/><path d="M1129.4688,188.6406 Q1128.8906,188.9375 1128.25,189.0781 Q1127.6094,189.2344 1126.9063,189.2344 Q1124.4063,189.2344 1123.0781,187.5938 Q1121.7656,185.9375 1121.7656,182.8125 Q1121.7656,179.6875 1123.0781,178.0313 Q1124.4063,176.375 1126.9063,176.375 Q1127.6094,176.375 1128.25,176.5313 Q1128.9063,176.6875 1129.4688,176.9844 L1129.4688,179.7031 Q1128.8438,179.125 1128.25,178.8594 Q1127.6563,178.5781 1127.0313,178.5781 Q1125.6875,178.5781 1125,179.6563 Q1124.3125,180.7188 1124.3125,182.8125 Q1124.3125,184.9063 1125,185.9844 Q1125.6875,187.0469 1127.0313,187.0469 Q1127.6563,187.0469 1128.25,186.7813 Q1128.8438,186.5 1129.4688,185.9219 L1129.4688,188.6406 Z "/><text fill="#000000" font-family="sans-serif" font-size="12" lengthAdjust="spacingAndGlyphs" textLength="121" x="1140.5" y="187.1543">CSVFormatStrategy</text><line style="stroke: #A80036; stroke-width: 1.5;" x1="1112.5" x2="1263.5" y1="199" y2="199"/><line style="stroke: #A80036; stroke-width: 1.5;" x1="1112.5" x2="1263.5" y1="207" y2="207"/><!--MD5=[af7b1a626d2ebf86fc505ee5beec8d26]
class JSONFormatStrategy--><rect fill="#FEFECE" filter="url(#fpqsvxqnwo245)" height="48" id="JSONFormatStrategy" style="stroke: #A80036; stroke-width: 1.5;" width="158" x="722" y="167"/><ellipse cx="737" cy="183" fill="#ADD1B2" rx="11" ry="11" style="stroke: #A80036; stroke-width: 1.0;"/><path d="M739.9688,188.6406 Q739.3906,188.9375 738.75,189.0781 Q738.1094,189.2344 737.4063,189.2344 Q734.9063,189.2344 733.5781,187.5938 Q732.2656,185.9375 732.2656,182.8125 Q732.2656,179.6875 733.5781,178.0313 Q734.9063,176.375 737.4063,176.375 Q738.1094,176.375 738.75,176.5313 Q739.4063,176.6875 739.9688,176.9844 L739.9688,179.7031 Q739.3438,179.125 738.75,178.8594 Q738.1563,178.5781 737.5313,178.5781 Q736.1875,178.5781 735.5,179.6563 Q734.8125,180.7188 734.8125,182.8125 Q734.8125,184.9063 735.5,185.9844 Q736.1875,187.0469 737.5313,187.0469 Q738.1563,187.0469 738.75,186.7813 Q739.3438,186.5 739.9688,185.9219 L739.9688,188.6406 Z "/><text fill="#000000" font-family="sans-serif" font-size="12" lengthAdjust="spacingAndGlyphs" textLength="126" x="751" y="187.1543">JSONFormatStrategy</text><line style="stroke: #A80036; stroke-width: 1.5;" x1="723" x2="879" y1="199" y2="199"/><line style="stroke: #A80036; stroke-width: 1.5;" x1="723" x2="879" y1="207" y2="207"/><!--MD5=[83a9c547f5f2c277aea06e1534ebd528]
link ReportGenerator to FormatType--><path d="M569.64,338.3 C570.34,363.66 571.46,404.25 572.21,431.5 " fill="none" id="ReportGenerator-&gt;FormatType" style="stroke: #A80036; stroke-width: 1.0;"/><polygon fill="#A80036" points="572.36,436.76,576.1013,427.6494,572.2172,431.762,568.1046,427.8779,572.36,436.76" style="stroke: #A80036; stroke-width: 1.0;"/><!--MD5=[67815ffd7829b9d87f9a9676c9d211e6]
link ReportGenerator to IReportFormatStrategy--><path d="M602.58,338.3 C640.21,364.4 701.07,406.63 740.3,433.85 " fill="none" id="ReportGenerator-&gt;IReportFormatStrategy" style="stroke: #A80036; stroke-width: 1.0;"/><polygon fill="#A80036" points="744.5,436.76,739.3695,428.353,740.3865,433.9177,734.8218,434.9346,744.5,436.76" style="stroke: #A80036; stroke-width: 1.0;"/><!--MD5=[029ac4c21624e80eb61a15d3b75351ee]
link FormatStrategyFactory to IReportFormatStrategy--><path d="M781.36,338.3 C780.66,363.66 779.54,404.25 778.79,431.5 " fill="none" id="FormatStrategyFactory-&gt;IReportFormatStrategy" style="stroke: #A80036; stroke-width: 1.0;"/><polygon fill="#A80036" points="778.64,436.76,782.8954,427.8779,778.7828,431.762,774.8987,427.6494,778.64,436.76" style="stroke: #A80036; stroke-width: 1.0;"/><!--MD5=[ca5448bf9b5ef23ed91b7f2590ed9420]
link FormatStrategyFactory to FormatType--><path d="M748.42,338.3 C710.79,364.4 649.93,406.63 610.7,433.85 " fill="none" id="FormatStrategyFactory-&gt;FormatType" style="stroke: #A80036; stroke-width: 1.0;"/><polygon fill="#A80036" points="606.5,436.76,616.1782,434.9346,610.6135,433.9177,611.6305,428.353,606.5,436.76" style="stroke: #A80036; stroke-width: 1.0;"/><!--MD5=[8217c3a0c7d6944ce4027141f2286934]
link SalesReportGenerator to ReportGenerator--><path d="M193.81,215.03 C211.66,223.39 232.48,232.38 252,239 C333.37,266.59 429.9,287.51 494.89,299.95 " fill="none" id="SalesReportGenerator-&gt;ReportGenerator" style="stroke: #A80036; stroke-width: 1.0;"/><polygon fill="#A80036" points="499.9,300.91,491.7992,295.3085,494.9869,299.9817,490.3138,303.1694,499.9,300.91" style="stroke: #A80036; stroke-width: 1.0;"/><!--MD5=[d68985dd80ecf27b29d7ba6fab82e51f]
link InventoryReportGenerator to ReportGenerator--><path d="M569,215.04 C569,234.77 569,263.24 569,284.41 " fill="none" id="InventoryReportGenerator-&gt;ReportGenerator" style="stroke: #A80036; stroke-width: 1.0;"/><polygon fill="#A80036" points="569,289.63,573,280.63,569,284.63,565,280.63,569,289.63" style="stroke: #A80036; stroke-width: 1.0;"/><!--MD5=[7cd6f0d0f1a73edef23a6f3ef4bee6f0]
link UserReportGenerator to ReportGenerator--><path d="M394.14,215.04 C430.95,235.67 484.86,265.86 523.07,287.27 " fill="none" id="UserReportGenerator-&gt;ReportGenerator" style="stroke: #A80036; stroke-width: 1.0;"/><polygon fill="#A80036" points="527.65,289.84,521.7558,281.9496,523.2887,287.3948,517.8435,288.9277,527.65,289.84" style="stroke: #A80036; stroke-width: 1.0;"/><!--MD5=[e247e402cd96b974c0683ffbe0f64f9f]
link ReportService to ReportGenerator--><path d="M1329.26,215.03 C1315.39,224.37 1298.18,234.1 1281,239 C1216.56,257.37 742.42,228.56 678,247 C650.2,254.96 622.38,272 601.8,286.77 " fill="none" id="ReportService-&gt;ReportGenerator" style="stroke: #A80036; stroke-width: 1.0;"/><polygon fill="#A80036" points="597.52,289.88,607.1504,287.8174,601.5624,286.9374,602.4424,281.3494,597.52,289.88" style="stroke: #A80036; stroke-width: 1.0;"/><!--MD5=[993dd08d6828a9e0b5997b7ab7baf8c7]
link ReportService to FormatStrategyFactory--><path d="M1327.05,215.18 C1313.46,223.96 1297.07,233.23 1281,239 C1145.03,287.83 977.09,304.46 874.84,310.11 " fill="none" id="ReportService-&gt;FormatStrategyFactory" style="stroke: #A80036; stroke-width: 1.0;"/><polygon fill="#A80036" points="869.72,310.38,878.9241,313.8848,874.7126,310.1082,878.4892,305.8967,869.72,310.38" style="stroke: #A80036; stroke-width: 1.0;"/><!--MD5=[b889885a42e65c0f755477a34bc4a29d]
link RuntimeStrategyService to SalesReportGenerator--><path d="M905.27,83.17 C734.33,82.54 371.05,85.92 252,124 C225.68,132.42 199.43,149.16 179.89,163.67 " fill="none" id="RuntimeStrategyService-&gt;SalesReportGenerator" style="stroke: #A80036; stroke-width: 1.0;"/><polygon fill="#A80036" points="175.57,166.92,185.165,164.6981,179.5631,163.9109,180.3504,158.3091,175.57,166.92" style="stroke: #A80036; stroke-width: 1.0;"/><!--MD5=[313e716de7b26a5bb3a6d1728fa31664]
link RuntimeStrategyService to CSVFormatStrategy--><path d="M1058.41,107.01 C1070.44,112.13 1082.79,117.88 1094,124 C1114.97,135.45 1136.91,150.65 1154.31,163.57 " fill="none" id="RuntimeStrategyService-&gt;CSVFormatStrategy" style="stroke: #A80036; stroke-width: 1.0;"/><polygon fill="#A80036" points="1158.64,166.8,1153.84,158.2,1154.64,163.8,1149.04,164.6,1158.64,166.8" style="stroke: #A80036; stroke-width: 1.0;"/><!--MD5=[a8e06fa44cfc6c831ecd7314b2ee566c]
link RuntimeStrategyService to HTMLFormatStrategy--><path d="M996,107 C996,123 996,144.45 996,161.53 " fill="none" id="RuntimeStrategyService-&gt;HTMLFormatStrategy" style="stroke: #A80036; stroke-width: 1.0;"/><polygon fill="#A80036" points="996,166.68,1000,157.68,996,161.68,992,157.68,996,166.68" style="stroke: #A80036; stroke-width: 1.0;"/><!--MD5=[a2b42ba455af3646d9dc1ab68aee4378]
@startuml
package Models {
    enum FormatType
    enum ReportType
}

package Interfaces {
    interface IReportFormatStrategy
}

package Services {
    class ReportService
    class RuntimeStrategyService

    package Factories {
        class FormatStrategyFactory
    }
    package ReportGenerators {
        class SalesReportGenerator
        class InventoryReportGenerator
        class UserReportGenerator
    }
    package Templates {
        abstract class ReportGenerator
    }
    package Strategies {
        class HTMLFormatStrategy
        class CSVFormatStrategy
        class JSONFormatStrategy
    }
}

ReportGenerator - -> FormatType
ReportGenerator - -> IReportFormatStrategy
FormatStrategyFactory - -> IReportFormatStrategy
FormatStrategyFactory - -> FormatType
SalesReportGenerator - -> ReportGenerator
InventoryReportGenerator - -> ReportGenerator
UserReportGenerator - -> ReportGenerator
ReportService - -> ReportGenerator
ReportService - -> FormatStrategyFactory
RuntimeStrategyService - -> SalesReportGenerator
RuntimeStrategyService - -> CSVFormatStrategy
RuntimeStrategyService - -> HTMLFormatStrategy
@enduml

PlantUML version 1.2020.02(Sun Mar 01 06:22:07 AMT 2020)
(GPL source distribution)
Java Runtime: OpenJDK Runtime Environment
JVM: OpenJDK 64-Bit Server VM
Java Version: 21.0.7+6-LTS
Operating System: Linux
Default Encoding: UTF-8
Language: en
Country: null
--></g></svg>