<?xml version="1.0" encoding="UTF-8" standalone="no"?><svg xmlns="http://www.w3.org/2000/svg" xmlns:xlink="http://www.w3.org/1999/xlink" contentScriptType="application/ecmascript" contentStyleType="text/css" height="286px" preserveAspectRatio="none" style="width:852px;height:286px;" version="1.1" viewBox="0 0 852 286" width="852px" zoomAndPan="magnify"><defs><filter height="300%" id="f17ocsse273pup" width="300%" x="-1" y="-1"><feGaussianBlur result="blurOut" stdDeviation="2.0"/><feColorMatrix in="blurOut" result="blurOut2" type="matrix" values="0 0 0 0 0 0 0 0 0 0 0 0 0 0 0 0 0 0 .4 0"/><feOffset dx="4.0" dy="4.0" in="blurOut2" result="blurOut3"/><feBlend in="SourceGraphic" in2="blurOut3" mode="normal"/></filter></defs><g><!--MD5=[6cfdaa51c6662155e419003eaab2177e]
cluster PaymentApp--><polygon fill="#FFFFFF" filter="url(#f17ocsse273pup)" points="22,24,127,24,134,46.2969,830,46.2969,830,274,22,274,22,24" style="stroke: #000000; stroke-width: 1.5;"/><line style="stroke: #000000; stroke-width: 1.5;" x1="22" x2="134" y1="46.2969" y2="46.2969"/><text fill="#000000" font-family="sans-serif" font-size="14" font-weight="bold" lengthAdjust="spacingAndGlyphs" textLength="99" x="26" y="38.9951">PaymentApp</text><!--MD5=[a5098824331e13c730d8e354abbabfbd]
class ICharger--><rect fill="#FEFECE" filter="url(#f17ocsse273pup)" height="60.8047" id="ICharger" style="stroke: #A80036; stroke-width: 1.5;" width="181" x="418.5" y="190.5"/><ellipse cx="477.75" cy="206.5" fill="#B4A7E5" rx="11" ry="11" style="stroke: #A80036; stroke-width: 1.0;"/><path d="M473.6719,202.2656 L473.6719,200.1094 L481.0625,200.1094 L481.0625,202.2656 L478.5938,202.2656 L478.5938,210.3438 L481.0625,210.3438 L481.0625,212.5 L473.6719,212.5 L473.6719,210.3438 L476.1406,210.3438 L476.1406,202.2656 L473.6719,202.2656 Z "/><text fill="#000000" font-family="sans-serif" font-size="12" font-style="italic" lengthAdjust="spacingAndGlyphs" textLength="54" x="498.25" y="210.6543">ICharger</text><line style="stroke: #A80036; stroke-width: 1.5;" x1="419.5" x2="598.5" y1="222.5" y2="222.5"/><line style="stroke: #A80036; stroke-width: 1.5;" x1="419.5" x2="598.5" y1="230.5" y2="230.5"/><ellipse cx="429.5" cy="241.5" fill="#84BE84" rx="3" ry="3" style="stroke: #038048; stroke-width: 1.0;"/><text fill="#000000" font-family="sans-serif" font-size="11" lengthAdjust="spacingAndGlyphs" textLength="155" x="438.5" y="244.7104">Charge(amount, reference)</text><!--MD5=[8d02697a5d9dbc05f20fc41345ec581d]
class IRefunder--><rect fill="#FEFECE" filter="url(#f17ocsse273pup)" height="60.8047" id="IRefunder" style="stroke: #A80036; stroke-width: 1.5;" width="179" x="634.5" y="190.5"/><ellipse cx="689.25" cy="206.5" fill="#B4A7E5" rx="11" ry="11" style="stroke: #A80036; stroke-width: 1.0;"/><path d="M685.1719,202.2656 L685.1719,200.1094 L692.5625,200.1094 L692.5625,202.2656 L690.0938,202.2656 L690.0938,210.3438 L692.5625,210.3438 L692.5625,212.5 L685.1719,212.5 L685.1719,210.3438 L687.6406,210.3438 L687.6406,202.2656 L685.1719,202.2656 Z "/><text fill="#000000" font-family="sans-serif" font-size="12" font-style="italic" lengthAdjust="spacingAndGlyphs" textLength="61" x="709.75" y="210.6543">IRefunder</text><line style="stroke: #A80036; stroke-width: 1.5;" x1="635.5" x2="812.5" y1="222.5" y2="222.5"/><line style="stroke: #A80036; stroke-width: 1.5;" x1="635.5" x2="812.5" y1="230.5" y2="230.5"/><ellipse cx="645.5" cy="241.5" fill="#84BE84" rx="3" ry="3" style="stroke: #038048; stroke-width: 1.0;"/><text fill="#000000" font-family="sans-serif" font-size="11" lengthAdjust="spacingAndGlyphs" textLength="153" x="654.5" y="244.7104">Refund(amount, reference)</text><!--MD5=[6f2b73c3aed45695d915ae7bcdc92eeb]
class CreditCardPayment--><rect fill="#FEFECE" filter="url(#f17ocsse273pup)" height="48" id="CreditCardPayment" style="stroke: #A80036; stroke-width: 1.5;" width="152" x="662" y="59"/><ellipse cx="677" cy="75" fill="#ADD1B2" rx="11" ry="11" style="stroke: #A80036; stroke-width: 1.0;"/><path d="M679.9688,80.6406 Q679.3906,80.9375 678.75,81.0781 Q678.1094,81.2344 677.4063,81.2344 Q674.9063,81.2344 673.5781,79.5938 Q672.2656,77.9375 672.2656,74.8125 Q672.2656,71.6875 673.5781,70.0313 Q674.9063,68.375 677.4063,68.375 Q678.1094,68.375 678.75,68.5313 Q679.4063,68.6875 679.9688,68.9844 L679.9688,71.7031 Q679.3438,71.125 678.75,70.8594 Q678.1563,70.5781 677.5313,70.5781 Q676.1875,70.5781 675.5,71.6563 Q674.8125,72.7188 674.8125,74.8125 Q674.8125,76.9063 675.5,77.9844 Q676.1875,79.0469 677.5313,79.0469 Q678.1563,79.0469 678.75,78.7813 Q679.3438,78.5 679.9688,77.9219 L679.9688,80.6406 Z "/><text fill="#000000" font-family="sans-serif" font-size="12" lengthAdjust="spacingAndGlyphs" textLength="120" x="691" y="79.1543">CreditCardPayment</text><line style="stroke: #A80036; stroke-width: 1.5;" x1="663" x2="813" y1="91" y2="91"/><line style="stroke: #A80036; stroke-width: 1.5;" x1="663" x2="813" y1="99" y2="99"/><!--MD5=[59f74f8178866f87d5e48546c7583e4d]
class PayPalPayment--><rect fill="#FEFECE" filter="url(#f17ocsse273pup)" height="48" id="PayPalPayment" style="stroke: #A80036; stroke-width: 1.5;" width="127" x="499.5" y="59"/><ellipse cx="514.5" cy="75" fill="#ADD1B2" rx="11" ry="11" style="stroke: #A80036; stroke-width: 1.0;"/><path d="M517.4688,80.6406 Q516.8906,80.9375 516.25,81.0781 Q515.6094,81.2344 514.9063,81.2344 Q512.4063,81.2344 511.0781,79.5938 Q509.7656,77.9375 509.7656,74.8125 Q509.7656,71.6875 511.0781,70.0313 Q512.4063,68.375 514.9063,68.375 Q515.6094,68.375 516.25,68.5313 Q516.9063,68.6875 517.4688,68.9844 L517.4688,71.7031 Q516.8438,71.125 516.25,70.8594 Q515.6563,70.5781 515.0313,70.5781 Q513.6875,70.5781 513,71.6563 Q512.3125,72.7188 512.3125,74.8125 Q512.3125,76.9063 513,77.9844 Q513.6875,79.0469 515.0313,79.0469 Q515.6563,79.0469 516.25,78.7813 Q516.8438,78.5 517.4688,77.9219 L517.4688,80.6406 Z "/><text fill="#000000" font-family="sans-serif" font-size="12" lengthAdjust="spacingAndGlyphs" textLength="95" x="528.5" y="79.1543">PayPalPayment</text><line style="stroke: #A80036; stroke-width: 1.5;" x1="500.5" x2="625.5" y1="91" y2="91"/><line style="stroke: #A80036; stroke-width: 1.5;" x1="500.5" x2="625.5" y1="99" y2="99"/><!--MD5=[8b7cd5da6631678c3677ab15a9437461]
class BitcoinPayment--><rect fill="#FEFECE" filter="url(#f17ocsse273pup)" height="48" id="BitcoinPayment" style="stroke: #A80036; stroke-width: 1.5;" width="128" x="336" y="59"/><ellipse cx="351" cy="75" fill="#ADD1B2" rx="11" ry="11" style="stroke: #A80036; stroke-width: 1.0;"/><path d="M353.9688,80.6406 Q353.3906,80.9375 352.75,81.0781 Q352.1094,81.2344 351.4063,81.2344 Q348.9063,81.2344 347.5781,79.5938 Q346.2656,77.9375 346.2656,74.8125 Q346.2656,71.6875 347.5781,70.0313 Q348.9063,68.375 351.4063,68.375 Q352.1094,68.375 352.75,68.5313 Q353.4063,68.6875 353.9688,68.9844 L353.9688,71.7031 Q353.3438,71.125 352.75,70.8594 Q352.1563,70.5781 351.5313,70.5781 Q350.1875,70.5781 349.5,71.6563 Q348.8125,72.7188 348.8125,74.8125 Q348.8125,76.9063 349.5,77.9844 Q350.1875,79.0469 351.5313,79.0469 Q352.1563,79.0469 352.75,78.7813 Q353.3438,78.5 353.9688,77.9219 L353.9688,80.6406 Z "/><text fill="#000000" font-family="sans-serif" font-size="12" lengthAdjust="spacingAndGlyphs" textLength="96" x="365" y="79.1543">BitcoinPayment</text><line style="stroke: #A80036; stroke-width: 1.5;" x1="337" x2="463" y1="91" y2="91"/><line style="stroke: #A80036; stroke-width: 1.5;" x1="337" x2="463" y1="99" y2="99"/><!--MD5=[ca73532a14a69b94f1b2a7ad076a548e]
class IPaymentRouter--><rect fill="#FEFECE" filter="url(#f17ocsse273pup)" height="73.6094" id="IPaymentRouter" style="stroke: #A80036; stroke-width: 1.5;" width="248" x="65" y="184"/><ellipse cx="134.75" cy="200" fill="#B4A7E5" rx="11" ry="11" style="stroke: #A80036; stroke-width: 1.0;"/><path d="M130.6719,195.7656 L130.6719,193.6094 L138.0625,193.6094 L138.0625,195.7656 L135.5938,195.7656 L135.5938,203.8438 L138.0625,203.8438 L138.0625,206 L130.6719,206 L130.6719,203.8438 L133.1406,203.8438 L133.1406,195.7656 L130.6719,195.7656 Z "/><text fill="#000000" font-family="sans-serif" font-size="12" font-style="italic" lengthAdjust="spacingAndGlyphs" textLength="100" x="155.25" y="204.1543">IPaymentRouter</text><line style="stroke: #A80036; stroke-width: 1.5;" x1="66" x2="312" y1="216" y2="216"/><line style="stroke: #A80036; stroke-width: 1.5;" x1="66" x2="312" y1="224" y2="224"/><ellipse cx="76" cy="235" fill="#84BE84" rx="3" ry="3" style="stroke: #038048; stroke-width: 1.0;"/><text fill="#000000" font-family="sans-serif" font-size="11" lengthAdjust="spacingAndGlyphs" textLength="206" x="85" y="238.2104">Charge(method, amount, reference)</text><ellipse cx="76" cy="247.8047" fill="#84BE84" rx="3" ry="3" style="stroke: #038048; stroke-width: 1.0;"/><text fill="#000000" font-family="sans-serif" font-size="11" lengthAdjust="spacingAndGlyphs" textLength="222" x="85" y="251.0151">TryRefund(method, amount, reference)</text><!--MD5=[b2358f881dc182cc3d08364639d5d756]
class PaymentRouter--><rect fill="#FEFECE" filter="url(#f17ocsse273pup)" height="48" id="PaymentRouter" style="stroke: #A80036; stroke-width: 1.5;" width="128" x="173" y="59"/><ellipse cx="188" cy="75" fill="#ADD1B2" rx="11" ry="11" style="stroke: #A80036; stroke-width: 1.0;"/><path d="M190.9688,80.6406 Q190.3906,80.9375 189.75,81.0781 Q189.1094,81.2344 188.4063,81.2344 Q185.9063,81.2344 184.5781,79.5938 Q183.2656,77.9375 183.2656,74.8125 Q183.2656,71.6875 184.5781,70.0313 Q185.9063,68.375 188.4063,68.375 Q189.1094,68.375 189.75,68.5313 Q190.4063,68.6875 190.9688,68.9844 L190.9688,71.7031 Q190.3438,71.125 189.75,70.8594 Q189.1563,70.5781 188.5313,70.5781 Q187.1875,70.5781 186.5,71.6563 Q185.8125,72.7188 185.8125,74.8125 Q185.8125,76.9063 186.5,77.9844 Q187.1875,79.0469 188.5313,79.0469 Q189.1563,79.0469 189.75,78.7813 Q190.3438,78.5 190.9688,77.9219 L190.9688,80.6406 Z "/><text fill="#000000" font-family="sans-serif" font-size="12" lengthAdjust="spacingAndGlyphs" textLength="96" x="202" y="79.1543">PaymentRouter</text><line style="stroke: #A80036; stroke-width: 1.5;" x1="174" x2="300" y1="91" y2="91"/><line style="stroke: #A80036; stroke-width: 1.5;" x1="174" x2="300" y1="99" y2="99"/><!--MD5=[fbdf2bc4b64fb2597a77116c678d5f5a]
class PaymentCli--><rect fill="#FEFECE" filter="url(#f17ocsse273pup)" height="48" id="PaymentCli" style="stroke: #A80036; stroke-width: 1.5;" width="100" x="38" y="59"/><ellipse cx="53" cy="75" fill="#ADD1B2" rx="11" ry="11" style="stroke: #A80036; stroke-width: 1.0;"/><path d="M55.9688,80.6406 Q55.3906,80.9375 54.75,81.0781 Q54.1094,81.2344 53.4063,81.2344 Q50.9063,81.2344 49.5781,79.5938 Q48.2656,77.9375 48.2656,74.8125 Q48.2656,71.6875 49.5781,70.0313 Q50.9063,68.375 53.4063,68.375 Q54.1094,68.375 54.75,68.5313 Q55.4063,68.6875 55.9688,68.9844 L55.9688,71.7031 Q55.3438,71.125 54.75,70.8594 Q54.1563,70.5781 53.5313,70.5781 Q52.1875,70.5781 51.5,71.6563 Q50.8125,72.7188 50.8125,74.8125 Q50.8125,76.9063 51.5,77.9844 Q52.1875,79.0469 53.5313,79.0469 Q54.1563,79.0469 54.75,78.7813 Q55.3438,78.5 55.9688,77.9219 L55.9688,80.6406 Z "/><text fill="#000000" font-family="sans-serif" font-size="12" lengthAdjust="spacingAndGlyphs" textLength="68" x="67" y="79.1543">PaymentCli</text><line style="stroke: #A80036; stroke-width: 1.5;" x1="39" x2="137" y1="91" y2="91"/><line style="stroke: #A80036; stroke-width: 1.5;" x1="39" x2="137" y1="99" y2="99"/><!--MD5=[ea96a2f1947356155c4027de8b81d307]
link CreditCardPayment to ICharger--><path d="M699.15,107.07 C665.55,127.03 616.21,156.33 576.21,180.09 " fill="none" id="CreditCardPayment-&gt;ICharger" style="stroke: #A80036; stroke-width: 1.0; stroke-dasharray: 7.0,7.0;"/><polygon fill="none" points="579.63,186.2,558.86,190.39,572.48,174.16,579.63,186.2" style="stroke: #A80036; stroke-width: 1.0;"/><!--MD5=[35478f07058bb3d4bf853fb6073c91e8]
link PayPalPayment to ICharger--><path d="M553.84,107.07 C546.85,124.68 536.96,149.57 528.26,171.51 " fill="none" id="PayPalPayment-&gt;ICharger" style="stroke: #A80036; stroke-width: 1.0; stroke-dasharray: 7.0,7.0;"/><polygon fill="none" points="534.74,174.14,520.86,190.14,521.73,168.97,534.74,174.14" style="stroke: #A80036; stroke-width: 1.0;"/><!--MD5=[1ac4a656949077014f2c3dbe72daead4]
link BitcoinPayment to ICharger--><path d="M418.49,107.07 C433.25,125.49 454.39,151.86 472.53,174.49 " fill="none" id="BitcoinPayment-&gt;ICharger" style="stroke: #A80036; stroke-width: 1.0; stroke-dasharray: 7.0,7.0;"/><polygon fill="none" points="478.02,170.16,485.07,190.14,467.1,178.91,478.02,170.16" style="stroke: #A80036; stroke-width: 1.0;"/><!--MD5=[55b105a66140a60d9ed613de85a3543e]
link CreditCardPayment to IRefunder--><path d="M735.63,107.07 C733.85,124.33 731.35,148.57 729.13,170.17 " fill="none" id="CreditCardPayment-&gt;IRefunder" style="stroke: #A80036; stroke-width: 1.0; stroke-dasharray: 7.0,7.0;"/><polygon fill="none" points="736.09,170.96,727.07,190.14,722.16,169.53,736.09,170.96" style="stroke: #A80036; stroke-width: 1.0;"/><!--MD5=[4170911666881c1f4738c774c23c3319]
link PayPalPayment to IRefunder--><path d="M590.31,107.07 C613.04,126.27 645.99,154.11 673.5,177.34 " fill="none" id="PayPalPayment-&gt;IRefunder" style="stroke: #A80036; stroke-width: 1.0; stroke-dasharray: 7.0,7.0;"/><polygon fill="none" points="678.18,172.14,688.95,190.39,669.15,182.83,678.18,172.14" style="stroke: #A80036; stroke-width: 1.0;"/><!--MD5=[65ebfcd93fa86cf89055b590c702cc01]
link PaymentRouter to IPaymentRouter--><path d="M228.86,107.07 C223.25,122.95 215.56,144.76 208.42,164.97 " fill="none" id="PaymentRouter-&gt;IPaymentRouter" style="stroke: #A80036; stroke-width: 1.0; stroke-dasharray: 7.0,7.0;"/><polygon fill="none" points="214.96,167.47,201.71,184,201.76,162.81,214.96,167.47" style="stroke: #A80036; stroke-width: 1.0;"/><!--MD5=[8e00ce27198203d6a8ef819eda90c0b2]
link PaymentCli to IPaymentRouter--><path d="M89.36,107.27 C91.12,121.67 95.09,140.02 104,154 C110.24,163.79 118.46,172.71 127.33,180.61 " fill="none" id="PaymentCli-&gt;IPaymentRouter" style="stroke: #A80036; stroke-width: 1.0;"/><polygon fill="#A80036" points="131.16,183.94,126.9657,175.0289,127.3768,180.6708,121.735,181.0819,131.16,183.94" style="stroke: #A80036; stroke-width: 1.0;"/><text fill="#000000" font-family="sans-serif" font-size="13" lengthAdjust="spacingAndGlyphs" textLength="99" x="105" y="150.0669">paymentRouter</text><!--MD5=[36d146db9df49030e0bb8d2000150040]
@startuml
package PaymentApp {
    interface ICharger {
        +Charge(amount, reference)
    }
    interface IRefunder {
        +Refund(amount, reference)
    }
    class CreditCardPayment
    class PayPalPayment
    class BitcoinPayment

    interface IPaymentRouter {
        +Charge(method, amount, reference)
        +TryRefund(method, amount, reference)
    }
    class PaymentRouter
    class PaymentCli

    CreditCardPayment ..|> ICharger
    PayPalPayment ..|> ICharger
    BitcoinPayment ..|> ICharger
    CreditCardPayment ..|> IRefunder
    PayPalPayment ..|> IRefunder

    PaymentRouter ..|> IPaymentRouter
    PaymentCli - -> IPaymentRouter : paymentRouter
}
@enduml

PlantUML version 1.2020.02(Sun Mar 01 06:22:07 AMT 2020)
(GPL source distribution)
Java Runtime: OpenJDK Runtime Environment
JVM: OpenJDK 64-Bit Server VM
Java Version: 21.0.7+6-LTS
Operating System: Linux
Default Encoding: UTF-8
Language: en
Country: null
--></g></svg>