<?xml version="1.0" encoding="UTF-8" standalone="no"?><svg xmlns="http://www.w3.org/2000/svg" xmlns:xlink="http://www.w3.org/1999/xlink" contentScriptType="application/ecmascript" contentStyleType="text/css" height="286px" preserveAspectRatio="none" style="width:955px;height:286px;" version="1.1" viewBox="0 0 955 286" width="955px" zoomAndPan="magnify"><defs><filter height="300%" id="fagrn800kw585" width="300%" x="-1" y="-1"><feGaussianBlur result="blurOut" stdDeviation="2.0"/><feColorMatrix in="blurOut" result="blurOut2" type="matrix" values="0 0 0 0 0 0 0 0 0 0 0 0 0 0 0 0 0 0 .4 0"/><feOffset dx="4.0" dy="4.0" in="blurOut2" result="blurOut3"/><feBlend in="SourceGraphic" in2="blurOut3" mode="normal"/></filter></defs><g><!--MD5=[867285a90230157c2bef701392b62b5f]
cluster ProductExportApp--><polygon fill="#FFFFFF" filter="url(#fagrn800kw585)" points="22,24,172,24,179,46.2969,933,46.2969,933,274,22,274,22,24" style="stroke: #000000; stroke-width: 1.5;"/><line style="stroke: #000000; stroke-width: 1.5;" x1="22" x2="179" y1="46.2969" y2="46.2969"/><text fill="#000000" font-family="sans-serif" font-size="14" font-weight="bold" lengthAdjust="spacingAndGlyphs" textLength="144" x="26" y="38.9951">ProductExportApp</text><!--MD5=[96bca9a6f21944d27c85827a0709b4f5]
class IProductExporter--><rect fill="#FEFECE" filter="url(#fagrn800kw585)" height="73.6094" id="IProductExporter" style="stroke: #A80036; stroke-width: 1.5;" width="161" x="496.5" y="184"/><ellipse cx="521.85" cy="200" fill="#B4A7E5" rx="11" ry="11" style="stroke: #A80036; stroke-width: 1.0;"/><path d="M517.7719,195.7656 L517.7719,193.6094 L525.1625,193.6094 L525.1625,195.7656 L522.6938,195.7656 L522.6938,203.8438 L525.1625,203.8438 L525.1625,206 L517.7719,206 L517.7719,203.8438 L520.2406,203.8438 L520.2406,195.7656 L517.7719,195.7656 Z "/><text fill="#000000" font-family="sans-serif" font-size="12" font-style="italic" lengthAdjust="spacingAndGlyphs" textLength="106" x="538.15" y="204.1543">IProductExporter</text><line style="stroke: #A80036; stroke-width: 1.5;" x1="497.5" x2="656.5" y1="216" y2="216"/><ellipse cx="507.5" cy="227" fill="none" rx="3" ry="3" style="stroke: #038048; stroke-width: 1.0;"/><text fill="#000000" font-family="sans-serif" font-size="11" lengthAdjust="spacingAndGlyphs" textLength="131" x="516.5" y="230.2104">FormatType FormatKey</text><line style="stroke: #A80036; stroke-width: 1.5;" x1="497.5" x2="656.5" y1="236.8047" y2="236.8047"/><ellipse cx="507.5" cy="247.8047" fill="#84BE84" rx="3" ry="3" style="stroke: #038048; stroke-width: 1.0;"/><text fill="#000000" font-family="sans-serif" font-size="11" lengthAdjust="spacingAndGlyphs" textLength="135" x="516.5" y="251.0151">Export(products): string</text><!--MD5=[3afc45542313dff2f241d08950a754e8]
class JsonExporter--><rect fill="#FEFECE" filter="url(#fagrn800kw585)" height="48" id="JsonExporter" style="stroke: #A80036; stroke-width: 1.5;" width="111" x="806.5" y="59"/><ellipse cx="821.5" cy="75" fill="#ADD1B2" rx="11" ry="11" style="stroke: #A80036; stroke-width: 1.0;"/><path d="M824.4688,80.6406 Q823.8906,80.9375 823.25,81.0781 Q822.6094,81.2344 821.9063,81.2344 Q819.4063,81.2344 818.0781,79.5938 Q816.7656,77.9375 816.7656,74.8125 Q816.7656,71.6875 818.0781,70.0313 Q819.4063,68.375 821.9063,68.375 Q822.6094,68.375 823.25,68.5313 Q823.9063,68.6875 824.4688,68.9844 L824.4688,71.7031 Q823.8438,71.125 823.25,70.8594 Q822.6563,70.5781 822.0313,70.5781 Q820.6875,70.5781 820,71.6563 Q819.3125,72.7188 819.3125,74.8125 Q819.3125,76.9063 820,77.9844 Q820.6875,79.0469 822.0313,79.0469 Q822.6563,79.0469 823.25,78.7813 Q823.8438,78.5 824.4688,77.9219 L824.4688,80.6406 Z "/><text fill="#000000" font-family="sans-serif" font-size="12" lengthAdjust="spacingAndGlyphs" textLength="79" x="835.5" y="79.1543">JsonExporter</text><line style="stroke: #A80036; stroke-width: 1.5;" x1="807.5" x2="916.5" y1="91" y2="91"/><line style="stroke: #A80036; stroke-width: 1.5;" x1="807.5" x2="916.5" y1="99" y2="99"/><!--MD5=[2f5d6e01fe75439dfc07f7d52cf7e59d]
class CsvExporter--><rect fill="#FEFECE" filter="url(#fagrn800kw585)" height="48" id="CsvExporter" style="stroke: #A80036; stroke-width: 1.5;" width="106" x="665" y="59"/><ellipse cx="680" cy="75" fill="#ADD1B2" rx="11" ry="11" style="stroke: #A80036; stroke-width: 1.0;"/><path d="M682.9688,80.6406 Q682.3906,80.9375 681.75,81.0781 Q681.1094,81.2344 680.4063,81.2344 Q677.9063,81.2344 676.5781,79.5938 Q675.2656,77.9375 675.2656,74.8125 Q675.2656,71.6875 676.5781,70.0313 Q677.9063,68.375 680.4063,68.375 Q681.1094,68.375 681.75,68.5313 Q682.4063,68.6875 682.9688,68.9844 L682.9688,71.7031 Q682.3438,71.125 681.75,70.8594 Q681.1563,70.5781 680.5313,70.5781 Q679.1875,70.5781 678.5,71.6563 Q677.8125,72.7188 677.8125,74.8125 Q677.8125,76.9063 678.5,77.9844 Q679.1875,79.0469 680.5313,79.0469 Q681.1563,79.0469 681.75,78.7813 Q682.3438,78.5 682.9688,77.9219 L682.9688,80.6406 Z "/><text fill="#000000" font-family="sans-serif" font-size="12" lengthAdjust="spacingAndGlyphs" textLength="74" x="694" y="79.1543">CsvExporter</text><line style="stroke: #A80036; stroke-width: 1.5;" x1="666" x2="770" y1="91" y2="91"/><line style="stroke: #A80036; stroke-width: 1.5;" x1="666" x2="770" y1="99" y2="99"/><!--MD5=[98d79233c8a3a4099dc283c1963dc513]
class XmlExporter--><rect fill="#FEFECE" filter="url(#fagrn800kw585)" height="48" id="XmlExporter" style="stroke: #A80036; stroke-width: 1.5;" width="106" x="524" y="59"/><ellipse cx="539" cy="75" fill="#ADD1B2" rx="11" ry="11" style="stroke: #A80036; stroke-width: 1.0;"/><path d="M541.9688,80.6406 Q541.3906,80.9375 540.75,81.0781 Q540.1094,81.2344 539.4063,81.2344 Q536.9063,81.2344 535.5781,79.5938 Q534.2656,77.9375 534.2656,74.8125 Q534.2656,71.6875 535.5781,70.0313 Q536.9063,68.375 539.4063,68.375 Q540.1094,68.375 540.75,68.5313 Q541.4063,68.6875 541.9688,68.9844 L541.9688,71.7031 Q541.3438,71.125 540.75,70.8594 Q540.1563,70.5781 539.5313,70.5781 Q538.1875,70.5781 537.5,71.6563 Q536.8125,72.7188 536.8125,74.8125 Q536.8125,76.9063 537.5,77.9844 Q538.1875,79.0469 539.5313,79.0469 Q540.1563,79.0469 540.75,78.7813 Q541.3438,78.5 541.9688,77.9219 L541.9688,80.6406 Z "/><text fill="#000000" font-family="sans-serif" font-size="12" lengthAdjust="spacingAndGlyphs" textLength="74" x="553" y="79.1543">XmlExporter</text><line style="stroke: #A80036; stroke-width: 1.5;" x1="525" x2="629" y1="91" y2="91"/><line style="stroke: #A80036; stroke-width: 1.5;" x1="525" x2="629" y1="99" y2="99"/><!--MD5=[086f8fb8d814b9f2be34a76aebaf8d21]
class YamlExporter--><rect fill="#FEFECE" filter="url(#fagrn800kw585)" height="48" id="YamlExporter" style="stroke: #A80036; stroke-width: 1.5;" width="114" x="375" y="59"/><ellipse cx="390" cy="75" fill="#ADD1B2" rx="11" ry="11" style="stroke: #A80036; stroke-width: 1.0;"/><path d="M392.9688,80.6406 Q392.3906,80.9375 391.75,81.0781 Q391.1094,81.2344 390.4063,81.2344 Q387.9063,81.2344 386.5781,79.5938 Q385.2656,77.9375 385.2656,74.8125 Q385.2656,71.6875 386.5781,70.0313 Q387.9063,68.375 390.4063,68.375 Q391.1094,68.375 391.75,68.5313 Q392.4063,68.6875 392.9688,68.9844 L392.9688,71.7031 Q392.3438,71.125 391.75,70.8594 Q391.1563,70.5781 390.5313,70.5781 Q389.1875,70.5781 388.5,71.6563 Q387.8125,72.7188 387.8125,74.8125 Q387.8125,76.9063 388.5,77.9844 Q389.1875,79.0469 390.5313,79.0469 Q391.1563,79.0469 391.75,78.7813 Q392.3438,78.5 392.9688,77.9219 L392.9688,80.6406 Z "/><text fill="#000000" font-family="sans-serif" font-size="12" lengthAdjust="spacingAndGlyphs" textLength="82" x="404" y="79.1543">YamlExporter</text><line style="stroke: #A80036; stroke-width: 1.5;" x1="376" x2="488" y1="91" y2="91"/><line style="stroke: #A80036; stroke-width: 1.5;" x1="376" x2="488" y1="99" y2="99"/><!--MD5=[2e3b7aeb6357b8ae6c7cc63b26e2b49b]
class IExporterFactory--><rect fill="#FEFECE" filter="url(#fagrn800kw585)" height="60.8047" id="IExporterFactory" style="stroke: #A80036; stroke-width: 1.5;" width="234" x="98" y="190.5"/><ellipse cx="158.25" cy="206.5" fill="#B4A7E5" rx="11" ry="11" style="stroke: #A80036; stroke-width: 1.0;"/><path d="M154.1719,202.2656 L154.1719,200.1094 L161.5625,200.1094 L161.5625,202.2656 L159.0938,202.2656 L159.0938,210.3438 L161.5625,210.3438 L161.5625,212.5 L154.1719,212.5 L154.1719,210.3438 L156.6406,210.3438 L156.6406,202.2656 L154.1719,202.2656 Z "/><text fill="#000000" font-family="sans-serif" font-size="12" font-style="italic" lengthAdjust="spacingAndGlyphs" textLength="105" x="178.75" y="210.6543">IExporterFactory</text><line style="stroke: #A80036; stroke-width: 1.5;" x1="99" x2="331" y1="222.5" y2="222.5"/><line style="stroke: #A80036; stroke-width: 1.5;" x1="99" x2="331" y1="230.5" y2="230.5"/><ellipse cx="109" cy="241.5" fill="#84BE84" rx="3" ry="3" style="stroke: #038048; stroke-width: 1.0;"/><text fill="#000000" font-family="sans-serif" font-size="11" lengthAdjust="spacingAndGlyphs" textLength="208" x="118" y="244.7104">Export(products, formatType): string</text><!--MD5=[6c61c11fdd18020ba5aec4a069103075]
class ExporterFactory--><rect fill="#FEFECE" filter="url(#fagrn800kw585)" height="48" id="ExporterFactory" style="stroke: #A80036; stroke-width: 1.5;" width="131" x="208.5" y="59"/><ellipse cx="223.5" cy="75" fill="#ADD1B2" rx="11" ry="11" style="stroke: #A80036; stroke-width: 1.0;"/><path d="M226.4688,80.6406 Q225.8906,80.9375 225.25,81.0781 Q224.6094,81.2344 223.9063,81.2344 Q221.4063,81.2344 220.0781,79.5938 Q218.7656,77.9375 218.7656,74.8125 Q218.7656,71.6875 220.0781,70.0313 Q221.4063,68.375 223.9063,68.375 Q224.6094,68.375 225.25,68.5313 Q225.9063,68.6875 226.4688,68.9844 L226.4688,71.7031 Q225.8438,71.125 225.25,70.8594 Q224.6563,70.5781 224.0313,70.5781 Q222.6875,70.5781 222,71.6563 Q221.3125,72.7188 221.3125,74.8125 Q221.3125,76.9063 222,77.9844 Q222.6875,79.0469 224.0313,79.0469 Q224.6563,79.0469 225.25,78.7813 Q225.8438,78.5 226.4688,77.9219 L226.4688,80.6406 Z "/><text fill="#000000" font-family="sans-serif" font-size="12" lengthAdjust="spacingAndGlyphs" textLength="99" x="237.5" y="79.1543">ExporterFactory</text><line style="stroke: #A80036; stroke-width: 1.5;" x1="209.5" x2="338.5" y1="91" y2="91"/><line style="stroke: #A80036; stroke-width: 1.5;" x1="209.5" x2="338.5" y1="99" y2="99"/><!--MD5=[ab887154885117c86d55e8099c6f9e4e]
class ProductExportCli--><rect fill="#FEFECE" filter="url(#fagrn800kw585)" height="48" id="ProductExportCli" style="stroke: #A80036; stroke-width: 1.5;" width="135" x="38.5" y="59"/><ellipse cx="53.5" cy="75" fill="#ADD1B2" rx="11" ry="11" style="stroke: #A80036; stroke-width: 1.0;"/><path d="M56.4688,80.6406 Q55.8906,80.9375 55.25,81.0781 Q54.6094,81.2344 53.9063,81.2344 Q51.4063,81.2344 50.0781,79.5938 Q48.7656,77.9375 48.7656,74.8125 Q48.7656,71.6875 50.0781,70.0313 Q51.4063,68.375 53.9063,68.375 Q54.6094,68.375 55.25,68.5313 Q55.9063,68.6875 56.4688,68.9844 L56.4688,71.7031 Q55.8438,71.125 55.25,70.8594 Q54.6563,70.5781 54.0313,70.5781 Q52.6875,70.5781 52,71.6563 Q51.3125,72.7188 51.3125,74.8125 Q51.3125,76.9063 52,77.9844 Q52.6875,79.0469 54.0313,79.0469 Q54.6563,79.0469 55.25,78.7813 Q55.8438,78.5 56.4688,77.9219 L56.4688,80.6406 Z "/><text fill="#000000" font-family="sans-serif" font-size="12" lengthAdjust="spacingAndGlyphs" textLength="103" x="67.5" y="79.1543">ProductExportCli</text><line style="stroke: #A80036; stroke-width: 1.5;" x1="39.5" x2="172.5" y1="91" y2="91"/><line style="stroke: #A80036; stroke-width: 1.5;" x1="39.5" x2="172.5" y1="99" y2="99"/><!--MD5=[941f65ce0b74f124f450fda1371c1f03]
link JsonExporter to IProductExporter--><path d="M813.65,107.07 C774.59,125.71 718.44,152.5 670.64,175.31 " fill="none" id="JsonExporter-&gt;IProductExporter" style="stroke: #A80036; stroke-width: 1.0; stroke-dasharray: 7.0,7.0;"/><polygon fill="none" points="673.51,181.7,652.45,184,667.48,169.07,673.51,181.7" style="stroke: #A80036; stroke-width: 1.0;"/><!--MD5=[c3c727cb9bcd4a5633ffaf8d185c44e0]
link CsvExporter to IProductExporter--><path d="M694.08,107.07 C676.25,124.27 651.22,148.41 628.88,169.96 " fill="none" id="CsvExporter-&gt;IProductExporter" style="stroke: #A80036; stroke-width: 1.0; stroke-dasharray: 7.0,7.0;"/><polygon fill="none" points="633.58,175.15,614.33,184,623.86,165.07,633.58,175.15" style="stroke: #A80036; stroke-width: 1.0;"/><!--MD5=[c39def18ec7f9f987ba286ab4a9699cb]
link XmlExporter to IProductExporter--><path d="M577,107.07 C577,122.62 577,143.86 577,163.71 " fill="none" id="XmlExporter-&gt;IProductExporter" style="stroke: #A80036; stroke-width: 1.0; stroke-dasharray: 7.0,7.0;"/><polygon fill="none" points="584,164,577,184,570,164,584,164" style="stroke: #A80036; stroke-width: 1.0;"/><!--MD5=[d661be2b9dcaffa24ca2167fa833d772]
link YamlExporter to IProductExporter--><path d="M456.6,107.07 C475.02,124.35 500.92,148.64 523.98,170.27 " fill="none" id="YamlExporter-&gt;IProductExporter" style="stroke: #A80036; stroke-width: 1.0; stroke-dasharray: 7.0,7.0;"/><polygon fill="none" points="528.82,165.21,538.62,184,519.24,175.42,528.82,165.21" style="stroke: #A80036; stroke-width: 1.0;"/><!--MD5=[b1a194d15596758238f1407599555b9d]
link ExporterFactory to IExporterFactory--><path d="M263.99,107.07 C256.35,124.68 245.55,149.57 236.04,171.51 " fill="none" id="ExporterFactory-&gt;IExporterFactory" style="stroke: #A80036; stroke-width: 1.0; stroke-dasharray: 7.0,7.0;"/><polygon fill="none" points="242.34,174.58,227.95,190.14,229.49,169.01,242.34,174.58" style="stroke: #A80036; stroke-width: 1.0;"/><!--MD5=[9ec5be4d903771109c7659fff68f1481]
link ExporterFactory to IProductExporter--><path d="M320.74,107.13 C349.26,121.06 386.54,138.96 420,154 C443.13,164.4 468.39,175.24 491.75,185.06 " fill="none" id="ExporterFactory-&gt;IProductExporter" style="stroke: #A80036; stroke-width: 1.0;"/><polygon fill="#A80036" points="496.4,187.01,489.6575,179.8309,491.7918,185.0697,486.5531,187.204,496.4,187.01" style="stroke: #A80036; stroke-width: 1.0;"/><text fill="#000000" font-family="sans-serif" font-size="13" lengthAdjust="spacingAndGlyphs" textLength="61" x="421" y="150.0669">exporters</text><!--MD5=[98f900c7845e450eb28eb0b53219ba11]
link ProductExportCli to IExporterFactory--><path d="M111.64,107.26 C115.9,121.66 122.79,140.01 133,154 C142,166.33 153.86,177.65 165.76,187.29 " fill="none" id="ProductExportCli-&gt;IExporterFactory" style="stroke: #A80036; stroke-width: 1.0;"/><polygon fill="#A80036" points="169.79,190.5,165.2376,181.7664,165.8773,187.387,160.2567,188.0267,169.79,190.5" style="stroke: #A80036; stroke-width: 1.0;"/><text fill="#000000" font-family="sans-serif" font-size="13" lengthAdjust="spacingAndGlyphs" textLength="101" x="134" y="150.0669">exporterFactory</text><!--MD5=[20710f4ab8fa7e97f5f65ef07ebaeb7f]
@startuml
package ProductExportApp {
    interface IProductExporter {
        +FormatType FormatKey
        +Export(products): string
    }
    class JsonExporter
    class CsvExporter
    class XmlExporter
    class YamlExporter

    interface IExporterFactory {
        +Export(products, formatType): string
    }
    class ExporterFactory
    class ProductExportCli

    JsonExporter ..|> IProductExporter
    CsvExporter ..|> IProductExporter
    XmlExporter ..|> IProductExporter
    YamlExporter ..|> IProductExporter
    ExporterFactory ..|> IExporterFactory
    ExporterFactory - -> IProductExporter : exporters
    ProductExportCli - -> IExporterFactory : exporterFactory
}
@enduml

PlantUML version 1.2020.02(Sun Mar 01 06:22:07 AMT 2020)
(GPL source distribution)
Java Runtime: OpenJDK Runtime Environment
JVM: OpenJDK 64-Bit Server VM
Java Version: 21.0.7+6-LTS
Operating System: Linux
Default Encoding: UTF-8
Language: en
Country: null
--></g></svg>