<?xml version="1.0" encoding="UTF-8" standalone="no"?><svg xmlns="http://www.w3.org/2000/svg" xmlns:xlink="http://www.w3.org/1999/xlink" contentScriptType="application/ecmascript" contentStyleType="text/css" height="973px" preserveAspectRatio="none" style="width:468px;height:973px;" version="1.1" viewBox="0 0 468 973" width="468px" zoomAndPan="magnify"><defs><filter height="300%" id="fgok17bun52zl" width="300%" x="-1" y="-1"><feGaussianBlur result="blurOut" stdDeviation="2.0"/><feColorMatrix in="blurOut" result="blurOut2" type="matrix" values="0 0 0 0 0 0 0 0 0 0 0 0 0 0 0 0 0 0 .4 0"/><feOffset dx="4.0" dy="4.0" in="blurOut2" result="blurOut3"/><feBlend in="SourceGraphic" in2="blurOut3" mode="normal"/></filter></defs><g><!--MD5=[cb0eed51ad5f45375771034004261b5c]
class ISQLQueryBuilder--><rect fill="#FEFECE" filter="url(#fgok17bun52zl)" height="176.0469" id="ISQLQueryBuilder" style="stroke: #A80036; stroke-width: 1.5;" width="207" x="141.5" y="142"/><ellipse cx="187.75" cy="158" fill="#B4A7E5" rx="11" ry="11" style="stroke: #A80036; stroke-width: 1.0;"/><path d="M183.6719,153.7656 L183.6719,151.6094 L191.0625,151.6094 L191.0625,153.7656 L188.5938,153.7656 L188.5938,161.8438 L191.0625,161.8438 L191.0625,164 L183.6719,164 L183.6719,161.8438 L186.1406,161.8438 L186.1406,153.7656 L183.6719,153.7656 Z "/><text fill="#000000" font-family="sans-serif" font-size="12" font-style="italic" lengthAdjust="spacingAndGlyphs" textLength="106" x="208.25" y="162.1543">ISQLQueryBuilder</text><line style="stroke: #A80036; stroke-width: 1.5;" x1="142.5" x2="347.5" y1="174" y2="174"/><line style="stroke: #A80036; stroke-width: 1.5;" x1="142.5" x2="347.5" y1="182" y2="182"/><ellipse cx="152.5" cy="193" fill="#84BE84" rx="3" ry="3" style="stroke: #038048; stroke-width: 1.0;"/><text fill="#000000" font-family="sans-serif" font-size="11" lengthAdjust="spacingAndGlyphs" textLength="40" x="161.5" y="196.2104">Reset()</text><ellipse cx="152.5" cy="205.8047" fill="#84BE84" rx="3" ry="3" style="stroke: #038048; stroke-width: 1.0;"/><text fill="#000000" font-family="sans-serif" font-size="11" lengthAdjust="spacingAndGlyphs" textLength="167" x="161.5" y="209.0151">Select(params string[] fields)</text><ellipse cx="152.5" cy="218.6094" fill="#84BE84" rx="3" ry="3" style="stroke: #038048; stroke-width: 1.0;"/><text fill="#000000" font-family="sans-serif" font-size="11" lengthAdjust="spacingAndGlyphs" textLength="165" x="161.5" y="221.8198">From(params string[] tables)</text><ellipse cx="152.5" cy="231.4141" fill="#84BE84" rx="3" ry="3" style="stroke: #038048; stroke-width: 1.0;"/><text fill="#000000" font-family="sans-serif" font-size="11" lengthAdjust="spacingAndGlyphs" textLength="131" x="161.5" y="234.6245">Where(string condition)</text><ellipse cx="152.5" cy="244.2188" fill="#84BE84" rx="3" ry="3" style="stroke: #038048; stroke-width: 1.0;"/><text fill="#000000" font-family="sans-serif" font-size="11" lengthAdjust="spacingAndGlyphs" textLength="124" x="161.5" y="247.4292">Join(string joinClause)</text><ellipse cx="152.5" cy="257.0234" fill="#84BE84" rx="3" ry="3" style="stroke: #038048; stroke-width: 1.0;"/><text fill="#000000" font-family="sans-serif" font-size="11" lengthAdjust="spacingAndGlyphs" textLength="181" x="161.5" y="260.2339">GroupBy(params string[] fields)</text><ellipse cx="152.5" cy="269.8281" fill="#84BE84" rx="3" ry="3" style="stroke: #038048; stroke-width: 1.0;"/><text fill="#000000" font-family="sans-serif" font-size="11" lengthAdjust="spacingAndGlyphs" textLength="134" x="161.5" y="273.0386">Having(string condition)</text><ellipse cx="152.5" cy="282.6328" fill="#84BE84" rx="3" ry="3" style="stroke: #038048; stroke-width: 1.0;"/><text fill="#000000" font-family="sans-serif" font-size="11" lengthAdjust="spacingAndGlyphs" textLength="179" x="161.5" y="285.8433">OrderBy(params string[] fields)</text><ellipse cx="152.5" cy="295.4375" fill="#84BE84" rx="3" ry="3" style="stroke: #038048; stroke-width: 1.0;"/><text fill="#000000" font-family="sans-serif" font-size="11" lengthAdjust="spacingAndGlyphs" textLength="84" x="161.5" y="298.6479">Limit(int count)</text><ellipse cx="152.5" cy="308.2422" fill="#84BE84" rx="3" ry="3" style="stroke: #038048; stroke-width: 1.0;"/><text fill="#000000" font-family="sans-serif" font-size="11" lengthAdjust="spacingAndGlyphs" textLength="101" x="161.5" y="311.4526">Build(): SQLQuery</text><!--MD5=[837f72ee7c174686726f8389bb2ad520]
class SQLQueryBuilder--><rect fill="#FEFECE" filter="url(#fgok17bun52zl)" height="188.8516" id="SQLQueryBuilder" style="stroke: #A80036; stroke-width: 1.5;" width="207" x="141.5" y="378"/><ellipse cx="189.75" cy="394" fill="#A9DCDF" rx="11" ry="11" style="stroke: #A80036; stroke-width: 1.0;"/><path d="M189.8594,389.3438 L188.7031,394.4219 L191.0313,394.4219 L189.8594,389.3438 Z M188.375,387.1094 L191.3594,387.1094 L194.7188,399.5 L192.2656,399.5 L191.5,396.4375 L188.2188,396.4375 L187.4688,399.5 L185.0313,399.5 L188.375,387.1094 Z "/><text fill="#000000" font-family="sans-serif" font-size="12" font-style="italic" lengthAdjust="spacingAndGlyphs" textLength="102" x="210.25" y="398.1543">SQLQueryBuilder</text><line style="stroke: #A80036; stroke-width: 1.5;" x1="142.5" x2="347.5" y1="410" y2="410"/><rect fill="none" height="6" style="stroke: #C82930; stroke-width: 1.0;" width="6" x="149.5" y="418"/><text fill="#000000" font-family="sans-serif" font-size="11" lengthAdjust="spacingAndGlyphs" textLength="103" x="161.5" y="424.2104">_query: SQLQuery</text><line style="stroke: #A80036; stroke-width: 1.5;" x1="142.5" x2="347.5" y1="430.8047" y2="430.8047"/><ellipse cx="152.5" cy="441.8047" fill="#84BE84" rx="3" ry="3" style="stroke: #038048; stroke-width: 1.0;"/><text fill="#000000" font-family="sans-serif" font-size="11" lengthAdjust="spacingAndGlyphs" textLength="40" x="161.5" y="445.0151">Reset()</text><ellipse cx="152.5" cy="454.6094" fill="#84BE84" rx="3" ry="3" style="stroke: #038048; stroke-width: 1.0;"/><text fill="#000000" font-family="sans-serif" font-size="11" lengthAdjust="spacingAndGlyphs" textLength="101" x="161.5" y="457.8198">Build(): SQLQuery</text><polygon fill="#FFFF44" points="152.5,462.4141,156.5,466.4141,152.5,470.4141,148.5,466.4141" style="stroke: #B38D22; stroke-width: 1.0;"/><text fill="#000000" font-family="sans-serif" font-size="11" lengthAdjust="spacingAndGlyphs" textLength="167" x="161.5" y="470.6245">Select(params string[] fields)</text><polygon fill="#FFFF44" points="152.5,475.2188,156.5,479.2188,152.5,483.2188,148.5,479.2188" style="stroke: #B38D22; stroke-width: 1.0;"/><text fill="#000000" font-family="sans-serif" font-size="11" lengthAdjust="spacingAndGlyphs" textLength="165" x="161.5" y="483.4292">From(params string[] tables)</text><polygon fill="#FFFF44" points="152.5,488.0234,156.5,492.0234,152.5,496.0234,148.5,492.0234" style="stroke: #B38D22; stroke-width: 1.0;"/><text fill="#000000" font-family="sans-serif" font-size="11" lengthAdjust="spacingAndGlyphs" textLength="131" x="161.5" y="496.2339">Where(string condition)</text><polygon fill="#FFFF44" points="152.5,500.8281,156.5,504.8281,152.5,508.8281,148.5,504.8281" style="stroke: #B38D22; stroke-width: 1.0;"/><text fill="#000000" font-family="sans-serif" font-size="11" lengthAdjust="spacingAndGlyphs" textLength="124" x="161.5" y="509.0386">Join(string joinClause)</text><polygon fill="#FFFF44" points="152.5,513.6328,156.5,517.6328,152.5,521.6328,148.5,517.6328" style="stroke: #B38D22; stroke-width: 1.0;"/><text fill="#000000" font-family="sans-serif" font-size="11" lengthAdjust="spacingAndGlyphs" textLength="181" x="161.5" y="521.8433">GroupBy(params string[] fields)</text><polygon fill="#FFFF44" points="152.5,526.4375,156.5,530.4375,152.5,534.4375,148.5,530.4375" style="stroke: #B38D22; stroke-width: 1.0;"/><text fill="#000000" font-family="sans-serif" font-size="11" lengthAdjust="spacingAndGlyphs" textLength="134" x="161.5" y="534.6479">Having(string condition)</text><polygon fill="#FFFF44" points="152.5,539.2422,156.5,543.2422,152.5,547.2422,148.5,543.2422" style="stroke: #B38D22; stroke-width: 1.0;"/><text fill="#000000" font-family="sans-serif" font-size="11" lengthAdjust="spacingAndGlyphs" textLength="179" x="161.5" y="547.4526">OrderBy(params string[] fields)</text><polygon fill="#FFFF44" points="152.5,552.0469,156.5,556.0469,152.5,560.0469,148.5,556.0469" style="stroke: #B38D22; stroke-width: 1.0;"/><text fill="#000000" font-family="sans-serif" font-size="11" lengthAdjust="spacingAndGlyphs" textLength="84" x="161.5" y="560.2573">Limit(int count)</text><!--MD5=[549b41580fb6dc6408b0291022f066ce]
class StandardSQLQueryBuilder--><rect fill="#FEFECE" filter="url(#fgok17bun52zl)" height="150.4375" id="StandardSQLQueryBuilder" style="stroke: #A80036; stroke-width: 1.5;" width="207" x="24.5" y="646.5"/><ellipse cx="46.25" cy="662.5" fill="#ADD1B2" rx="11" ry="11" style="stroke: #A80036; stroke-width: 1.0;"/><path d="M49.2188,668.1406 Q48.6406,668.4375 48,668.5781 Q47.3594,668.7344 46.6563,668.7344 Q44.1563,668.7344 42.8281,667.0938 Q41.5156,665.4375 41.5156,662.3125 Q41.5156,659.1875 42.8281,657.5313 Q44.1563,655.875 46.6563,655.875 Q47.3594,655.875 48,656.0313 Q48.6563,656.1875 49.2188,656.4844 L49.2188,659.2031 Q48.5938,658.625 48,658.3594 Q47.4063,658.0781 46.7813,658.0781 Q45.4375,658.0781 44.75,659.1563 Q44.0625,660.2188 44.0625,662.3125 Q44.0625,664.4063 44.75,665.4844 Q45.4375,666.5469 46.7813,666.5469 Q47.4063,666.5469 48,666.2813 Q48.5938,666 49.2188,665.4219 L49.2188,668.1406 Z "/><text fill="#000000" font-family="sans-serif" font-size="12" lengthAdjust="spacingAndGlyphs" textLength="160" x="61.75" y="666.6543">StandardSQLQueryBuilder</text><line style="stroke: #A80036; stroke-width: 1.5;" x1="25.5" x2="230.5" y1="678.5" y2="678.5"/><line style="stroke: #A80036; stroke-width: 1.5;" x1="25.5" x2="230.5" y1="686.5" y2="686.5"/><ellipse cx="35.5" cy="697.5" fill="#84BE84" rx="3" ry="3" style="stroke: #038048; stroke-width: 1.0;"/><text fill="#000000" font-family="sans-serif" font-size="11" lengthAdjust="spacingAndGlyphs" textLength="167" x="44.5" y="700.7104">Select(params string[] fields)</text><ellipse cx="35.5" cy="710.3047" fill="#84BE84" rx="3" ry="3" style="stroke: #038048; stroke-width: 1.0;"/><text fill="#000000" font-family="sans-serif" font-size="11" lengthAdjust="spacingAndGlyphs" textLength="165" x="44.5" y="713.5151">From(params string[] tables)</text><ellipse cx="35.5" cy="723.1094" fill="#84BE84" rx="3" ry="3" style="stroke: #038048; stroke-width: 1.0;"/><text fill="#000000" font-family="sans-serif" font-size="11" lengthAdjust="spacingAndGlyphs" textLength="131" x="44.5" y="726.3198">Where(string condition)</text><ellipse cx="35.5" cy="735.9141" fill="#84BE84" rx="3" ry="3" style="stroke: #038048; stroke-width: 1.0;"/><text fill="#000000" font-family="sans-serif" font-size="11" lengthAdjust="spacingAndGlyphs" textLength="124" x="44.5" y="739.1245">Join(string joinClause)</text><ellipse cx="35.5" cy="748.7188" fill="#84BE84" rx="3" ry="3" style="stroke: #038048; stroke-width: 1.0;"/><text fill="#000000" font-family="sans-serif" font-size="11" lengthAdjust="spacingAndGlyphs" textLength="181" x="44.5" y="751.9292">GroupBy(params string[] fields)</text><ellipse cx="35.5" cy="761.5234" fill="#84BE84" rx="3" ry="3" style="stroke: #038048; stroke-width: 1.0;"/><text fill="#000000" font-family="sans-serif" font-size="11" lengthAdjust="spacingAndGlyphs" textLength="134" x="44.5" y="764.7339">Having(string condition)</text><ellipse cx="35.5" cy="774.3281" fill="#84BE84" rx="3" ry="3" style="stroke: #038048; stroke-width: 1.0;"/><text fill="#000000" font-family="sans-serif" font-size="11" lengthAdjust="spacingAndGlyphs" textLength="179" x="44.5" y="777.5386">OrderBy(params string[] fields)</text><ellipse cx="35.5" cy="787.1328" fill="#84BE84" rx="3" ry="3" style="stroke: #038048; stroke-width: 1.0;"/><text fill="#000000" font-family="sans-serif" font-size="11" lengthAdjust="spacingAndGlyphs" textLength="84" x="44.5" y="790.3433">Limit(int count)</text><!--MD5=[f44fa80cde55189be7181b8ccaefc2c5]
class MySQLQueryBuilder--><rect fill="#FEFECE" filter="url(#fgok17bun52zl)" height="86.4141" id="MySQLQueryBuilder" style="stroke: #A80036; stroke-width: 1.5;" width="244" x="6" y="876"/><ellipse cx="64.75" cy="892" fill="#ADD1B2" rx="11" ry="11" style="stroke: #A80036; stroke-width: 1.0;"/><path d="M67.7188,897.6406 Q67.1406,897.9375 66.5,898.0781 Q65.8594,898.2344 65.1563,898.2344 Q62.6563,898.2344 61.3281,896.5938 Q60.0156,894.9375 60.0156,891.8125 Q60.0156,888.6875 61.3281,887.0313 Q62.6563,885.375 65.1563,885.375 Q65.8594,885.375 66.5,885.5313 Q67.1563,885.6875 67.7188,885.9844 L67.7188,888.7031 Q67.0938,888.125 66.5,887.8594 Q65.9063,887.5781 65.2813,887.5781 Q63.9375,887.5781 63.25,888.6563 Q62.5625,889.7188 62.5625,891.8125 Q62.5625,893.9063 63.25,894.9844 Q63.9375,896.0469 65.2813,896.0469 Q65.9063,896.0469 66.5,895.7813 Q67.0938,895.5 67.7188,894.9219 L67.7188,897.6406 Z "/><text fill="#000000" font-family="sans-serif" font-size="12" lengthAdjust="spacingAndGlyphs" textLength="118" x="85.25" y="896.1543">MySQLQueryBuilder</text><line style="stroke: #A80036; stroke-width: 1.5;" x1="7" x2="249" y1="908" y2="908"/><line style="stroke: #A80036; stroke-width: 1.5;" x1="7" x2="249" y1="916" y2="916"/><ellipse cx="17" cy="927" fill="#84BE84" rx="3" ry="3" style="stroke: #038048; stroke-width: 1.0;"/><text fill="#000000" font-family="sans-serif" font-size="11" lengthAdjust="spacingAndGlyphs" textLength="210" x="26" y="930.2104">LeftJoin(string table, string condition)</text><ellipse cx="17" cy="939.8047" fill="#84BE84" rx="3" ry="3" style="stroke: #038048; stroke-width: 1.0;"/><text fill="#000000" font-family="sans-serif" font-size="11" lengthAdjust="spacingAndGlyphs" textLength="217" x="26" y="943.0151">RightJoin(string table, string condition)</text><ellipse cx="17" cy="952.6094" fill="#84BE84" rx="3" ry="3" style="stroke: #038048; stroke-width: 1.0;"/><text fill="#000000" font-family="sans-serif" font-size="11" lengthAdjust="spacingAndGlyphs" textLength="218" x="26" y="955.8198">InnerJoin(string table, string condition)</text><!--MD5=[9553c1611d0eaf98b3234b7376f80d33]
class SQLQuery--><rect fill="#FEFECE" filter="url(#fgok17bun52zl)" height="188.8516" id="SQLQuery" style="stroke: #A80036; stroke-width: 1.5;" width="191" x="266.5" y="627"/><ellipse cx="328.25" cy="643" fill="#ADD1B2" rx="11" ry="11" style="stroke: #A80036; stroke-width: 1.0;"/><path d="M331.2188,648.6406 Q330.6406,648.9375 330,649.0781 Q329.3594,649.2344 328.6563,649.2344 Q326.1563,649.2344 324.8281,647.5938 Q323.5156,645.9375 323.5156,642.8125 Q323.5156,639.6875 324.8281,638.0313 Q326.1563,636.375 328.6563,636.375 Q329.3594,636.375 330,636.5313 Q330.6563,636.6875 331.2188,636.9844 L331.2188,639.7031 Q330.5938,639.125 330,638.8594 Q329.4063,638.5781 328.7813,638.5781 Q327.4375,638.5781 326.75,639.6563 Q326.0625,640.7188 326.0625,642.8125 Q326.0625,644.9063 326.75,645.9844 Q327.4375,647.0469 328.7813,647.0469 Q329.4063,647.0469 330,646.7813 Q330.5938,646.5 331.2188,645.9219 L331.2188,648.6406 Z "/><text fill="#000000" font-family="sans-serif" font-size="12" lengthAdjust="spacingAndGlyphs" textLength="59" x="348.75" y="647.1543">SQLQuery</text><line style="stroke: #A80036; stroke-width: 1.5;" x1="267.5" x2="456.5" y1="659" y2="659"/><rect fill="none" height="6" style="stroke: #C82930; stroke-width: 1.0;" width="6" x="274.5" y="667"/><text fill="#000000" font-family="sans-serif" font-size="11" lengthAdjust="spacingAndGlyphs" textLength="152" x="286.5" y="673.2104">_selectFields: List&lt;string&gt;</text><rect fill="none" height="6" style="stroke: #C82930; stroke-width: 1.0;" width="6" x="274.5" y="679.8047"/><text fill="#000000" font-family="sans-serif" font-size="11" lengthAdjust="spacingAndGlyphs" textLength="150" x="286.5" y="686.0151">_fromTables: List&lt;string&gt;</text><rect fill="none" height="6" style="stroke: #C82930; stroke-width: 1.0;" width="6" x="274.5" y="692.6094"/><text fill="#000000" font-family="sans-serif" font-size="11" lengthAdjust="spacingAndGlyphs" textLength="151" x="286.5" y="698.8198">_joinClauses: List&lt;string&gt;</text><rect fill="none" height="6" style="stroke: #C82930; stroke-width: 1.0;" width="6" x="274.5" y="705.4141"/><text fill="#000000" font-family="sans-serif" font-size="11" lengthAdjust="spacingAndGlyphs" textLength="165" x="286.5" y="711.6245">_groupByFields: List&lt;string&gt;</text><rect fill="none" height="6" style="stroke: #C82930; stroke-width: 1.0;" width="6" x="274.5" y="718.2188"/><text fill="#000000" font-family="sans-serif" font-size="11" lengthAdjust="spacingAndGlyphs" textLength="163" x="286.5" y="724.4292">_orderByFields: List&lt;string&gt;</text><rect fill="none" height="6" style="stroke: #C82930; stroke-width: 1.0;" width="6" x="274.5" y="731.0234"/><text fill="#000000" font-family="sans-serif" font-size="11" lengthAdjust="spacingAndGlyphs" textLength="127" x="286.5" y="737.2339">_whereClause: string?</text><rect fill="none" height="6" style="stroke: #C82930; stroke-width: 1.0;" width="6" x="274.5" y="743.8281"/><text fill="#000000" font-family="sans-serif" font-size="11" lengthAdjust="spacingAndGlyphs" textLength="129" x="286.5" y="750.0386">_havingClause: string?</text><rect fill="none" height="6" style="stroke: #C82930; stroke-width: 1.0;" width="6" x="274.5" y="756.6328"/><text fill="#000000" font-family="sans-serif" font-size="11" lengthAdjust="spacingAndGlyphs" textLength="97" x="286.5" y="762.8433">_limitClause: int?</text><rect fill="none" height="6" style="stroke: #C82930; stroke-width: 1.0;" width="6" x="274.5" y="769.4375"/><text fill="#000000" font-family="sans-serif" font-size="11" lengthAdjust="spacingAndGlyphs" textLength="90" x="286.5" y="775.6479">_isDistinct: bool</text><line style="stroke: #A80036; stroke-width: 1.5;" x1="267.5" x2="456.5" y1="782.2422" y2="782.2422"/><ellipse cx="277.5" cy="793.2422" fill="#84BE84" rx="3" ry="3" style="stroke: #038048; stroke-width: 1.0;"/><text fill="#000000" font-family="sans-serif" font-size="11" lengthAdjust="spacingAndGlyphs" textLength="111" x="286.5" y="796.4526">IsQueryValid(): bool</text><ellipse cx="277.5" cy="806.0469" fill="#84BE84" rx="3" ry="3" style="stroke: #038048; stroke-width: 1.0;"/><text fill="#000000" font-family="sans-serif" font-size="11" lengthAdjust="spacingAndGlyphs" textLength="86" x="286.5" y="809.2573">ToSQL(): string</text><!--MD5=[d086b909f589eb3188d2fb599f92d774]
class QueryDirector--><rect fill="#FEFECE" filter="url(#fgok17bun52zl)" height="73.6094" id="QueryDirector" style="stroke: #A80036; stroke-width: 1.5;" width="208" x="141" y="8"/><ellipse cx="197.75" cy="24" fill="#ADD1B2" rx="11" ry="11" style="stroke: #A80036; stroke-width: 1.0;"/><path d="M200.7188,29.6406 Q200.1406,29.9375 199.5,30.0781 Q198.8594,30.2344 198.1563,30.2344 Q195.6563,30.2344 194.3281,28.5938 Q193.0156,26.9375 193.0156,23.8125 Q193.0156,20.6875 194.3281,19.0313 Q195.6563,17.375 198.1563,17.375 Q198.8594,17.375 199.5,17.5313 Q200.1563,17.6875 200.7188,17.9844 L200.7188,20.7031 Q200.0938,20.125 199.5,19.8594 Q198.9063,19.5781 198.2813,19.5781 Q196.9375,19.5781 196.25,20.6563 Q195.5625,21.7188 195.5625,23.8125 Q195.5625,25.9063 196.25,26.9844 Q196.9375,28.0469 198.2813,28.0469 Q198.9063,28.0469 199.5,27.7813 Q200.0938,27.5 200.7188,26.9219 L200.7188,29.6406 Z "/><text fill="#000000" font-family="sans-serif" font-size="12" lengthAdjust="spacingAndGlyphs" textLength="86" x="218.25" y="28.1543">QueryDirector</text><line style="stroke: #A80036; stroke-width: 1.5;" x1="142" x2="348" y1="40" y2="40"/><rect fill="none" height="6" style="stroke: #C82930; stroke-width: 1.0;" width="6" x="149" y="48"/><text fill="#000000" font-family="sans-serif" font-size="11" lengthAdjust="spacingAndGlyphs" textLength="153" x="161" y="54.2104">_builder: ISQLQueryBuilder</text><line style="stroke: #A80036; stroke-width: 1.5;" x1="142" x2="348" y1="60.8047" y2="60.8047"/><ellipse cx="152" cy="71.8047" fill="#84BE84" rx="3" ry="3" style="stroke: #038048; stroke-width: 1.0;"/><text fill="#000000" font-family="sans-serif" font-size="11" lengthAdjust="spacingAndGlyphs" textLength="182" x="161" y="75.0151">BuildUserListQuery(): SQLQuery</text><!--MD5=[924796689f4a820b8e7bbc5271f38518]
reverse link ISQLQueryBuilder to SQLQueryBuilder--><path d="M245,338.48 C245,351.57 245,364.86 245,377.73 " fill="none" id="ISQLQueryBuilder&lt;-SQLQueryBuilder" style="stroke: #A80036; stroke-width: 1.0; stroke-dasharray: 7.0,7.0;"/><polygon fill="none" points="238,338.17,245,318.17,252,338.17,238,338.17" style="stroke: #A80036; stroke-width: 1.0;"/><!--MD5=[38d6ac8ed7afae05ec0e8fc5be462572]
reverse link SQLQueryBuilder to StandardSQLQueryBuilder--><path d="M191.9,585.59 C182.13,606.22 172.16,627.28 163.08,646.43 " fill="none" id="SQLQueryBuilder&lt;-StandardSQLQueryBuilder" style="stroke: #A80036; stroke-width: 1.0;"/><polygon fill="none" points="185.71,582.31,200.6,567.23,198.36,588.3,185.71,582.31" style="stroke: #A80036; stroke-width: 1.0;"/><!--MD5=[607245982d67e36678c6451344288c13]
reverse link StandardSQLQueryBuilder to MySQLQueryBuilder--><path d="M128,816.79 C128,837.52 128,858.46 128,875.87 " fill="none" id="StandardSQLQueryBuilder&lt;-MySQLQueryBuilder" style="stroke: #A80036; stroke-width: 1.0;"/><polygon fill="none" points="121,816.69,128,796.69,135,816.69,121,816.69" style="stroke: #A80036; stroke-width: 1.0;"/><!--MD5=[abeb47d587b5908ef44896ccbc9e9df7]
link SQLQueryBuilder to SQLQuery--><path d="M289.4,567.23 C297.92,585.22 306.87,604.11 315.46,622.24 " fill="none" id="SQLQueryBuilder-&gt;SQLQuery" style="stroke: #A80036; stroke-width: 1.0;"/><polygon fill="#A80036" points="317.63,626.83,317.3841,616.9842,315.4859,622.3131,310.157,620.4148,317.63,626.83" style="stroke: #A80036; stroke-width: 1.0;"/><!--MD5=[f0163f06115ea006b1775372efcd0f1d]
link QueryDirector to ISQLQueryBuilder--><path d="M245,82.15 C245,97.86 245,117.06 245,136.33 " fill="none" id="QueryDirector-&gt;ISQLQueryBuilder" style="stroke: #A80036; stroke-width: 1.0;"/><polygon fill="#A80036" points="245,141.76,249,132.76,245,136.76,241,132.76,245,141.76" style="stroke: #A80036; stroke-width: 1.0;"/><!--MD5=[7a3a2c422ae93acf88cb375dc628542c]
@startuml
interface ISQLQueryBuilder {
    + Reset()
    + Select(params string[] fields)
    + From(params string[] tables)
    + Where(string condition)
    + Join(string joinClause)
    + GroupBy(params string[] fields)
    + Having(string condition)
    + OrderBy(params string[] fields)
    + Limit(int count)
    + Build(): SQLQuery
}

abstract class SQLQueryBuilder {
    - _query: SQLQuery
    + Reset()
    + Build(): SQLQuery
    # Select(params string[] fields)
    # From(params string[] tables)
    # Where(string condition)
    # Join(string joinClause)
    # GroupBy(params string[] fields)
    # Having(string condition)
    # OrderBy(params string[] fields)
    # Limit(int count)
}

class StandardSQLQueryBuilder {
    + Select(params string[] fields)
    + From(params string[] tables)
    + Where(string condition)
    + Join(string joinClause)
    + GroupBy(params string[] fields)
    + Having(string condition)
    + OrderBy(params string[] fields)
    + Limit(int count)
}

class MySQLQueryBuilder {
    + LeftJoin(string table, string condition)
    + RightJoin(string table, string condition)
    + InnerJoin(string table, string condition)
}

class SQLQuery {
    - _selectFields: List<string>
    - _fromTables: List<string>
    - _joinClauses: List<string>
    - _groupByFields: List<string>
    - _orderByFields: List<string>
    - _whereClause: string?
    - _havingClause: string?
    - _limitClause: int?
    - _isDistinct: bool
    + IsQueryValid(): bool
    + ToSQL(): string
}

class QueryDirector {
    - _builder: ISQLQueryBuilder
    + BuildUserListQuery(): SQLQuery
}

ISQLQueryBuilder <|.. SQLQueryBuilder
SQLQueryBuilder <|- - StandardSQLQueryBuilder
StandardSQLQueryBuilder <|- - MySQLQueryBuilder
SQLQueryBuilder - -> SQLQuery
QueryDirector - -> ISQLQueryBuilder
@enduml

PlantUML version 1.2020.02(Sun Mar 01 06:22:07 AMT 2020)
(GPL source distribution)
Java Runtime: OpenJDK Runtime Environment
JVM: OpenJDK 64-Bit Server VM
Java Version: 21.0.7+6-LTS
Operating System: Linux
Default Encoding: UTF-8
Language: en
Country: null
--></g></svg>