<?xml version="1.0" encoding="UTF-8" standalone="no"?><svg xmlns="http://www.w3.org/2000/svg" xmlns:xlink="http://www.w3.org/1999/xlink" contentScriptType="application/ecmascript" contentStyleType="text/css" height="264px" preserveAspectRatio="none" style="width:379px;height:264px;" version="1.1" viewBox="0 0 379 264" width="379px" zoomAndPan="magnify"><defs><filter height="300%" id="fie92knkr4g3c" width="300%" x="-1" y="-1"><feGaussianBlur result="blurOut" stdDeviation="2.0"/><feColorMatrix in="blurOut" result="blurOut2" type="matrix" values="0 0 0 0 0 0 0 0 0 0 0 0 0 0 0 0 0 0 .4 0"/><feOffset dx="4.0" dy="4.0" in="blurOut2" result="blurOut3"/><feBlend in="SourceGraphic" in2="blurOut3" mode="normal"/></filter></defs><g><!--MD5=[e54af2a3dfd72988f8d17c8016ff295d]
class Box--><rect fill="#FEFECE" filter="url(#fie92knkr4g3c)" height="73.6094" id="Box" style="stroke: #A80036; stroke-width: 1.5;" width="66" x="15.5" y="20.5"/><ellipse cx="30.95" cy="36.5" fill="#ADD1B2" rx="11" ry="11" style="stroke: #A80036; stroke-width: 1.0;"/><path d="M33.9188,42.1406 Q33.3406,42.4375 32.7,42.5781 Q32.0594,42.7344 31.3563,42.7344 Q28.8563,42.7344 27.5281,41.0938 Q26.2156,39.4375 26.2156,36.3125 Q26.2156,33.1875 27.5281,31.5313 Q28.8563,29.875 31.3563,29.875 Q32.0594,29.875 32.7,30.0313 Q33.3563,30.1875 33.9188,30.4844 L33.9188,33.2031 Q33.2938,32.625 32.7,32.3594 Q32.1063,32.0781 31.4813,32.0781 Q30.1375,32.0781 29.45,33.1563 Q28.7625,34.2188 28.7625,36.3125 Q28.7625,38.4063 29.45,39.4844 Q30.1375,40.5469 31.4813,40.5469 Q32.1063,40.5469 32.7,40.2813 Q33.2938,40 33.9188,39.4219 L33.9188,42.1406 Z "/><text fill="#000000" font-family="sans-serif" font-size="12" lengthAdjust="spacingAndGlyphs" textLength="22" x="45.05" y="40.6543">Box</text><rect fill="#FFFFFF" height="15.9688" style="stroke: #000000; stroke-width: 1.0; stroke-dasharray: 2.0,2.0;" width="9" x="75.5" y="17.5"/><text fill="#000000" font-family="sans-serif" font-size="12" font-style="italic" lengthAdjust="spacingAndGlyphs" textLength="7" x="76.5" y="29.6387">T</text><line style="stroke: #A80036; stroke-width: 1.5;" x1="16.5" x2="80.5" y1="52.5" y2="52.5"/><ellipse cx="26.5" cy="63.5" fill="none" rx="3" ry="3" style="stroke: #038048; stroke-width: 1.0;"/><text fill="#000000" font-family="sans-serif" font-size="11" lengthAdjust="spacingAndGlyphs" textLength="40" x="35.5" y="66.7104">Item: T</text><line style="stroke: #A80036; stroke-width: 1.5;" x1="16.5" x2="80.5" y1="73.3047" y2="73.3047"/><ellipse cx="26.5" cy="84.3047" fill="#84BE84" rx="3" ry="3" style="stroke: #038048; stroke-width: 1.0;"/><text fill="#000000" font-family="sans-serif" font-size="11" lengthAdjust="spacingAndGlyphs" textLength="29" x="35.5" y="87.5151">Box()</text><!--MD5=[53e19064bc94d23a4d9a9dc89fd0950e]
class SafeBox--><rect fill="#FEFECE" filter="url(#fie92knkr4g3c)" height="60.8047" id="SafeBox" style="stroke: #A80036; stroke-width: 1.5;" width="93" x="117" y="27"/><ellipse cx="132" cy="43" fill="#ADD1B2" rx="11" ry="11" style="stroke: #A80036; stroke-width: 1.0;"/><path d="M134.9688,48.6406 Q134.3906,48.9375 133.75,49.0781 Q133.1094,49.2344 132.4063,49.2344 Q129.9063,49.2344 128.5781,47.5938 Q127.2656,45.9375 127.2656,42.8125 Q127.2656,39.6875 128.5781,38.0313 Q129.9063,36.375 132.4063,36.375 Q133.1094,36.375 133.75,36.5313 Q134.4063,36.6875 134.9688,36.9844 L134.9688,39.7031 Q134.3438,39.125 133.75,38.8594 Q133.1563,38.5781 132.5313,38.5781 Q131.1875,38.5781 130.5,39.6563 Q129.8125,40.7188 129.8125,42.8125 Q129.8125,44.9063 130.5,45.9844 Q131.1875,47.0469 132.5313,47.0469 Q133.1563,47.0469 133.75,46.7813 Q134.3438,46.5 134.9688,45.9219 L134.9688,48.6406 Z "/><text fill="#000000" font-family="sans-serif" font-size="12" lengthAdjust="spacingAndGlyphs" textLength="50" x="146" y="47.1543">SafeBox</text><rect fill="#FFFFFF" height="15.9688" style="stroke: #000000; stroke-width: 1.0; stroke-dasharray: 2.0,2.0;" width="9" x="204" y="24"/><text fill="#000000" font-family="sans-serif" font-size="12" font-style="italic" lengthAdjust="spacingAndGlyphs" textLength="7" x="205" y="36.1387">T</text><line style="stroke: #A80036; stroke-width: 1.5;" x1="118" x2="209" y1="59" y2="59"/><line style="stroke: #A80036; stroke-width: 1.5;" x1="118" x2="209" y1="67" y2="67"/><ellipse cx="128" cy="78" fill="#84BE84" rx="3" ry="3" style="stroke: #038048; stroke-width: 1.0;"/><text fill="#000000" font-family="sans-serif" font-size="11" lengthAdjust="spacingAndGlyphs" textLength="55" x="137" y="81.2104">SafeBox()</text><!--MD5=[e6f67585185a4b3ef1aae8f414a63962]
class Calculator--><rect fill="#FEFECE" filter="url(#fie92knkr4g3c)" height="99.2188" id="Calculator" style="stroke: #A80036; stroke-width: 1.5;" width="106" x="245.5" y="8"/><ellipse cx="260.5" cy="24" fill="#ADD1B2" rx="11" ry="11" style="stroke: #A80036; stroke-width: 1.0;"/><path d="M263.4688,29.6406 Q262.8906,29.9375 262.25,30.0781 Q261.6094,30.2344 260.9063,30.2344 Q258.4063,30.2344 257.0781,28.5938 Q255.7656,26.9375 255.7656,23.8125 Q255.7656,20.6875 257.0781,19.0313 Q258.4063,17.375 260.9063,17.375 Q261.6094,17.375 262.25,17.5313 Q262.9063,17.6875 263.4688,17.9844 L263.4688,20.7031 Q262.8438,20.125 262.25,19.8594 Q261.6563,19.5781 261.0313,19.5781 Q259.6875,19.5781 259,20.6563 Q258.3125,21.7188 258.3125,23.8125 Q258.3125,25.9063 259,26.9844 Q259.6875,28.0469 261.0313,28.0469 Q261.6563,28.0469 262.25,27.7813 Q262.8438,27.5 263.4688,26.9219 L263.4688,29.6406 Z "/><text fill="#000000" font-family="sans-serif" font-size="12" lengthAdjust="spacingAndGlyphs" textLength="63" x="274.5" y="28.1543">Calculator</text><rect fill="#FFFFFF" height="15.9688" style="stroke: #000000; stroke-width: 1.0; stroke-dasharray: 2.0,2.0;" width="9" x="345.5" y="5"/><text fill="#000000" font-family="sans-serif" font-size="12" font-style="italic" lengthAdjust="spacingAndGlyphs" textLength="7" x="346.5" y="17.1387">T</text><line style="stroke: #A80036; stroke-width: 1.5;" x1="246.5" x2="350.5" y1="40" y2="40"/><line style="stroke: #A80036; stroke-width: 1.5;" x1="246.5" x2="350.5" y1="48" y2="48"/><ellipse cx="256.5" cy="59" fill="#84BE84" rx="3" ry="3" style="stroke: #038048; stroke-width: 1.0;"/><text fill="#000000" font-family="sans-serif" font-size="11" lengthAdjust="spacingAndGlyphs" textLength="29" x="265.5" y="62.2104">Add()</text><ellipse cx="256.5" cy="71.8047" fill="#84BE84" rx="3" ry="3" style="stroke: #038048; stroke-width: 1.0;"/><text fill="#000000" font-family="sans-serif" font-size="11" lengthAdjust="spacingAndGlyphs" textLength="56" x="265.5" y="75.0151">Subtract()</text><ellipse cx="256.5" cy="84.6094" fill="#84BE84" rx="3" ry="3" style="stroke: #038048; stroke-width: 1.0;"/><text fill="#000000" font-family="sans-serif" font-size="11" lengthAdjust="spacingAndGlyphs" textLength="50" x="265.5" y="87.8198">Multiply()</text><ellipse cx="256.5" cy="97.4141" fill="#84BE84" rx="3" ry="3" style="stroke: #038048; stroke-width: 1.0;"/><text fill="#000000" font-family="sans-serif" font-size="11" lengthAdjust="spacingAndGlyphs" textLength="42" x="265.5" y="100.6245">Divide()</text><!--MD5=[69f2f3ad3645114d26612368d508f737]
class Printer--><rect fill="#FEFECE" filter="url(#fie92knkr4g3c)" height="60.8047" id="Printer" style="stroke: #A80036; stroke-width: 1.5;" width="85" x="6" y="179.5"/><ellipse cx="21" cy="195.5" fill="#ADD1B2" rx="11" ry="11" style="stroke: #A80036; stroke-width: 1.0;"/><path d="M23.9688,201.1406 Q23.3906,201.4375 22.75,201.5781 Q22.1094,201.7344 21.4063,201.7344 Q18.9063,201.7344 17.5781,200.0938 Q16.2656,198.4375 16.2656,195.3125 Q16.2656,192.1875 17.5781,190.5313 Q18.9063,188.875 21.4063,188.875 Q22.1094,188.875 22.75,189.0313 Q23.4063,189.1875 23.9688,189.4844 L23.9688,192.2031 Q23.3438,191.625 22.75,191.3594 Q22.1563,191.0781 21.5313,191.0781 Q20.1875,191.0781 19.5,192.1563 Q18.8125,193.2188 18.8125,195.3125 Q18.8125,197.4063 19.5,198.4844 Q20.1875,199.5469 21.5313,199.5469 Q22.1563,199.5469 22.75,199.2813 Q23.3438,199 23.9688,198.4219 L23.9688,201.1406 Z "/><text fill="#000000" font-family="sans-serif" font-size="12" lengthAdjust="spacingAndGlyphs" textLength="42" x="35" y="199.6543">Printer</text><rect fill="#FFFFFF" height="15.9688" style="stroke: #000000; stroke-width: 1.0; stroke-dasharray: 2.0,2.0;" width="9" x="85" y="176.5"/><text fill="#000000" font-family="sans-serif" font-size="12" font-style="italic" lengthAdjust="spacingAndGlyphs" textLength="7" x="86" y="188.6387">T</text><line style="stroke: #A80036; stroke-width: 1.5;" x1="7" x2="90" y1="211.5" y2="211.5"/><line style="stroke: #A80036; stroke-width: 1.5;" x1="7" x2="90" y1="219.5" y2="219.5"/><ellipse cx="17" cy="230.5" fill="#84BE84" rx="3" ry="3" style="stroke: #038048; stroke-width: 1.0;"/><text fill="#000000" font-family="sans-serif" font-size="11" lengthAdjust="spacingAndGlyphs" textLength="34" x="26" y="233.7104">Print()</text><!--MD5=[2c589014e840926a718801db2289e0a7]
class Creator--><rect fill="#FEFECE" filter="url(#fie92knkr4g3c)" height="60.8047" id="Creator" style="stroke: #A80036; stroke-width: 1.5;" width="90" x="126.5" y="179.5"/><ellipse cx="141.5" cy="195.5" fill="#ADD1B2" rx="11" ry="11" style="stroke: #A80036; stroke-width: 1.0;"/><path d="M144.4688,201.1406 Q143.8906,201.4375 143.25,201.5781 Q142.6094,201.7344 141.9063,201.7344 Q139.4063,201.7344 138.0781,200.0938 Q136.7656,198.4375 136.7656,195.3125 Q136.7656,192.1875 138.0781,190.5313 Q139.4063,188.875 141.9063,188.875 Q142.6094,188.875 143.25,189.0313 Q143.9063,189.1875 144.4688,189.4844 L144.4688,192.2031 Q143.8438,191.625 143.25,191.3594 Q142.6563,191.0781 142.0313,191.0781 Q140.6875,191.0781 140,192.1563 Q139.3125,193.2188 139.3125,195.3125 Q139.3125,197.4063 140,198.4844 Q140.6875,199.5469 142.0313,199.5469 Q142.6563,199.5469 143.25,199.2813 Q143.8438,199 144.4688,198.4219 L144.4688,201.1406 Z "/><text fill="#000000" font-family="sans-serif" font-size="12" lengthAdjust="spacingAndGlyphs" textLength="47" x="155.5" y="199.6543">Creator</text><rect fill="#FFFFFF" height="15.9688" style="stroke: #000000; stroke-width: 1.0; stroke-dasharray: 2.0,2.0;" width="9" x="210.5" y="176.5"/><text fill="#000000" font-family="sans-serif" font-size="12" font-style="italic" lengthAdjust="spacingAndGlyphs" textLength="7" x="211.5" y="188.6387">T</text><line style="stroke: #A80036; stroke-width: 1.5;" x1="127.5" x2="215.5" y1="211.5" y2="211.5"/><line style="stroke: #A80036; stroke-width: 1.5;" x1="127.5" x2="215.5" y1="219.5" y2="219.5"/><ellipse cx="137.5" cy="230.5" fill="#84BE84" rx="3" ry="3" style="stroke: #038048; stroke-width: 1.0;"/><text fill="#000000" font-family="sans-serif" font-size="11" lengthAdjust="spacingAndGlyphs" textLength="46" x="146.5" y="233.7104">Create()</text><!--MD5=[dba577e83ef218fe88d82c4fda0ed8b4]
class IRepository--><rect fill="#FEFECE" filter="url(#fie92knkr4g3c)" height="86.4141" id="IRepository" style="stroke: #A80036; stroke-width: 1.5;" width="113" x="252" y="167"/><ellipse cx="267" cy="183" fill="#B4A7E5" rx="11" ry="11" style="stroke: #A80036; stroke-width: 1.0;"/><path d="M262.9219,178.7656 L262.9219,176.6094 L270.3125,176.6094 L270.3125,178.7656 L267.8438,178.7656 L267.8438,186.8438 L270.3125,186.8438 L270.3125,189 L262.9219,189 L262.9219,186.8438 L265.3906,186.8438 L265.3906,178.7656 L262.9219,178.7656 Z "/><text fill="#000000" font-family="sans-serif" font-size="12" font-style="italic" lengthAdjust="spacingAndGlyphs" textLength="70" x="281" y="187.1543">IRepository</text><rect fill="#FFFFFF" height="15.9688" style="stroke: #000000; stroke-width: 1.0; stroke-dasharray: 2.0,2.0;" width="9" x="359" y="164"/><text fill="#000000" font-family="sans-serif" font-size="12" font-style="italic" lengthAdjust="spacingAndGlyphs" textLength="7" x="360" y="176.1387">T</text><line style="stroke: #A80036; stroke-width: 1.5;" x1="253" x2="364" y1="199" y2="199"/><line style="stroke: #A80036; stroke-width: 1.5;" x1="253" x2="364" y1="207" y2="207"/><ellipse cx="263" cy="218" fill="#84BE84" rx="3" ry="3" style="stroke: #038048; stroke-width: 1.0;"/><text fill="#000000" font-family="sans-serif" font-size="11" lengthAdjust="spacingAndGlyphs" textLength="29" x="272" y="221.2104">Add()</text><ellipse cx="263" cy="230.8047" fill="#84BE84" rx="3" ry="3" style="stroke: #038048; stroke-width: 1.0;"/><text fill="#000000" font-family="sans-serif" font-size="11" lengthAdjust="spacingAndGlyphs" textLength="53" x="272" y="234.0151">Remove()</text><ellipse cx="263" cy="243.6094" fill="#84BE84" rx="3" ry="3" style="stroke: #038048; stroke-width: 1.0;"/><text fill="#000000" font-family="sans-serif" font-size="11" lengthAdjust="spacingAndGlyphs" textLength="28" x="272" y="246.8198">Get()</text><!--MD5=[27c60c7f9131d1f324e9284007c21d29]
link Box to SafeBox--><!--MD5=[dda4a4ec2e40bd19daa6d8e00d2a1000]
link SafeBox to Calculator--><!--MD5=[0d23d1222c46100e1d1658120d80ad59]
link Box to Printer--><!--MD5=[d0410d8487655eb371e62a721a2e6d90]
link Printer to Creator--><!--MD5=[601f09938720e4cb9a4b01cc2f9453de]
link Creator to IRepository--><!--MD5=[ff86a2dec55e9dfd377df4cab0d32207]
@startuml
class Box<T> {
  +Box()
  +Item: T
}
class SafeBox<T> {
  +SafeBox()
}
class Calculator<T> {
  +Add()
  +Subtract()
  +Multiply()
  +Divide()
}
class Printer<T> {
  +Print()
}
class Creator<T> {
  +Create()
}
interface IRepository<T> {
  +Add()
  +Remove()
  +Get()
}
@enduml

PlantUML version 1.2020.02(Sun Mar 01 06:22:07 BOT 2020)
(GPL source distribution)
Java Runtime: OpenJDK Runtime Environment
JVM: OpenJDK 64-Bit Server VM
Java Version: 21.0.7+6-Ubuntu-0ubuntu124.04
Operating System: Linux
Default Encoding: UTF-8
Language: en
Country: null
--></g></svg>