<?xml version="1.0" encoding="UTF-8" standalone="no"?><svg xmlns="http://www.w3.org/2000/svg" xmlns:xlink="http://www.w3.org/1999/xlink" contentScriptType="application/ecmascript" contentStyleType="text/css" height="285px" preserveAspectRatio="none" style="width:379px;height:285px;" version="1.1" viewBox="0 0 379 285" width="379px" zoomAndPan="magnify"><defs><filter height="300%" id="fnx3e9fhtqho1" width="300%" x="-1" y="-1"><feGaussianBlur result="blurOut" stdDeviation="2.0"/><feColorMatrix in="blurOut" result="blurOut2" type="matrix" values="0 0 0 0 0 0 0 0 0 0 0 0 0 0 0 0 0 0 .4 0"/><feOffset dx="4.0" dy="4.0" in="blurOut2" result="blurOut3"/><feBlend in="SourceGraphic" in2="blurOut3" mode="normal"/></filter></defs><g><text fill="#000000" font-family="sans-serif" font-size="18" lengthAdjust="spacingAndGlyphs" textLength="221" x="81" y="16.708">Generics - Class Diagram</text><!--MD5=[e54af2a3dfd72988f8d17c8016ff295d]
class Box--><rect fill="#FEFECE" filter="url(#fnx3e9fhtqho1)" height="73.6094" id="Box" style="stroke: #A80036; stroke-width: 1.5;" width="66" x="15.5" y="41.4531"/><ellipse cx="30.95" cy="57.4531" fill="#ADD1B2" rx="11" ry="11" style="stroke: #A80036; stroke-width: 1.0;"/><path d="M33.9188,63.0938 Q33.3406,63.3906 32.7,63.5313 Q32.0594,63.6875 31.3563,63.6875 Q28.8563,63.6875 27.5281,62.0469 Q26.2156,60.3906 26.2156,57.2656 Q26.2156,54.1406 27.5281,52.4844 Q28.8563,50.8281 31.3563,50.8281 Q32.0594,50.8281 32.7,50.9844 Q33.3563,51.1406 33.9188,51.4375 L33.9188,54.1563 Q33.2938,53.5781 32.7,53.3125 Q32.1063,53.0313 31.4813,53.0313 Q30.1375,53.0313 29.45,54.1094 Q28.7625,55.1719 28.7625,57.2656 Q28.7625,59.3594 29.45,60.4375 Q30.1375,61.5 31.4813,61.5 Q32.1063,61.5 32.7,61.2344 Q33.2938,60.9531 33.9188,60.375 L33.9188,63.0938 Z "/><text fill="#000000" font-family="sans-serif" font-size="12" lengthAdjust="spacingAndGlyphs" textLength="22" x="45.05" y="61.6074">Box</text><rect fill="#FFFFFF" height="15.9688" style="stroke: #000000; stroke-width: 1.0; stroke-dasharray: 2.0,2.0;" width="9" x="75.5" y="38.4531"/><text fill="#000000" font-family="sans-serif" font-size="12" font-style="italic" lengthAdjust="spacingAndGlyphs" textLength="7" x="76.5" y="50.5918">T</text><line style="stroke: #A80036; stroke-width: 1.5;" x1="16.5" x2="80.5" y1="73.4531" y2="73.4531"/><ellipse cx="26.5" cy="84.4531" fill="none" rx="3" ry="3" style="stroke: #038048; stroke-width: 1.0;"/><text fill="#000000" font-family="sans-serif" font-size="11" lengthAdjust="spacingAndGlyphs" textLength="40" x="35.5" y="87.6636">Item: T</text><line style="stroke: #A80036; stroke-width: 1.5;" x1="16.5" x2="80.5" y1="94.2578" y2="94.2578"/><ellipse cx="26.5" cy="105.2578" fill="#84BE84" rx="3" ry="3" style="stroke: #038048; stroke-width: 1.0;"/><text fill="#000000" font-family="sans-serif" font-size="11" lengthAdjust="spacingAndGlyphs" textLength="29" x="35.5" y="108.4683">Box()</text><!--MD5=[53e19064bc94d23a4d9a9dc89fd0950e]
class SafeBox--><rect fill="#FEFECE" filter="url(#fnx3e9fhtqho1)" height="60.8047" id="SafeBox" style="stroke: #A80036; stroke-width: 1.5;" width="93" x="117" y="47.9531"/><ellipse cx="132" cy="63.9531" fill="#ADD1B2" rx="11" ry="11" style="stroke: #A80036; stroke-width: 1.0;"/><path d="M134.9688,69.5938 Q134.3906,69.8906 133.75,70.0313 Q133.1094,70.1875 132.4063,70.1875 Q129.9063,70.1875 128.5781,68.5469 Q127.2656,66.8906 127.2656,63.7656 Q127.2656,60.6406 128.5781,58.9844 Q129.9063,57.3281 132.4063,57.3281 Q133.1094,57.3281 133.75,57.4844 Q134.4063,57.6406 134.9688,57.9375 L134.9688,60.6563 Q134.3438,60.0781 133.75,59.8125 Q133.1563,59.5313 132.5313,59.5313 Q131.1875,59.5313 130.5,60.6094 Q129.8125,61.6719 129.8125,63.7656 Q129.8125,65.8594 130.5,66.9375 Q131.1875,68 132.5313,68 Q133.1563,68 133.75,67.7344 Q134.3438,67.4531 134.9688,66.875 L134.9688,69.5938 Z "/><text fill="#000000" font-family="sans-serif" font-size="12" lengthAdjust="spacingAndGlyphs" textLength="50" x="146" y="68.1074">SafeBox</text><rect fill="#FFFFFF" height="15.9688" style="stroke: #000000; stroke-width: 1.0; stroke-dasharray: 2.0,2.0;" width="9" x="204" y="44.9531"/><text fill="#000000" font-family="sans-serif" font-size="12" font-style="italic" lengthAdjust="spacingAndGlyphs" textLength="7" x="205" y="57.0918">T</text><line style="stroke: #A80036; stroke-width: 1.5;" x1="118" x2="209" y1="79.9531" y2="79.9531"/><line style="stroke: #A80036; stroke-width: 1.5;" x1="118" x2="209" y1="87.9531" y2="87.9531"/><ellipse cx="128" cy="98.9531" fill="#84BE84" rx="3" ry="3" style="stroke: #038048; stroke-width: 1.0;"/><text fill="#000000" font-family="sans-serif" font-size="11" lengthAdjust="spacingAndGlyphs" textLength="55" x="137" y="102.1636">SafeBox()</text><!--MD5=[e6f67585185a4b3ef1aae8f414a63962]
class Calculator--><rect fill="#FEFECE" filter="url(#fnx3e9fhtqho1)" height="99.2188" id="Calculator" style="stroke: #A80036; stroke-width: 1.5;" width="106" x="245.5" y="28.9531"/><ellipse cx="260.5" cy="44.9531" fill="#ADD1B2" rx="11" ry="11" style="stroke: #A80036; stroke-width: 1.0;"/><path d="M263.4688,50.5938 Q262.8906,50.8906 262.25,51.0313 Q261.6094,51.1875 260.9063,51.1875 Q258.4063,51.1875 257.0781,49.5469 Q255.7656,47.8906 255.7656,44.7656 Q255.7656,41.6406 257.0781,39.9844 Q258.4063,38.3281 260.9063,38.3281 Q261.6094,38.3281 262.25,38.4844 Q262.9063,38.6406 263.4688,38.9375 L263.4688,41.6563 Q262.8438,41.0781 262.25,40.8125 Q261.6563,40.5313 261.0313,40.5313 Q259.6875,40.5313 259,41.6094 Q258.3125,42.6719 258.3125,44.7656 Q258.3125,46.8594 259,47.9375 Q259.6875,49 261.0313,49 Q261.6563,49 262.25,48.7344 Q262.8438,48.4531 263.4688,47.875 L263.4688,50.5938 Z "/><text fill="#000000" font-family="sans-serif" font-size="12" lengthAdjust="spacingAndGlyphs" textLength="63" x="274.5" y="49.1074">Calculator</text><rect fill="#FFFFFF" height="15.9688" style="stroke: #000000; stroke-width: 1.0; stroke-dasharray: 2.0,2.0;" width="9" x="345.5" y="25.9531"/><text fill="#000000" font-family="sans-serif" font-size="12" font-style="italic" lengthAdjust="spacingAndGlyphs" textLength="7" x="346.5" y="38.0918">T</text><line style="stroke: #A80036; stroke-width: 1.5;" x1="246.5" x2="350.5" y1="60.9531" y2="60.9531"/><line style="stroke: #A80036; stroke-width: 1.5;" x1="246.5" x2="350.5" y1="68.9531" y2="68.9531"/><ellipse cx="256.5" cy="79.9531" fill="#84BE84" rx="3" ry="3" style="stroke: #038048; stroke-width: 1.0;"/><text fill="#000000" font-family="sans-serif" font-size="11" lengthAdjust="spacingAndGlyphs" textLength="29" x="265.5" y="83.1636">Add()</text><ellipse cx="256.5" cy="92.7578" fill="#84BE84" rx="3" ry="3" style="stroke: #038048; stroke-width: 1.0;"/><text fill="#000000" font-family="sans-serif" font-size="11" lengthAdjust="spacingAndGlyphs" textLength="56" x="265.5" y="95.9683">Subtract()</text><ellipse cx="256.5" cy="105.5625" fill="#84BE84" rx="3" ry="3" style="stroke: #038048; stroke-width: 1.0;"/><text fill="#000000" font-family="sans-serif" font-size="11" lengthAdjust="spacingAndGlyphs" textLength="50" x="265.5" y="108.7729">Multiply()</text><ellipse cx="256.5" cy="118.3672" fill="#84BE84" rx="3" ry="3" style="stroke: #038048; stroke-width: 1.0;"/><text fill="#000000" font-family="sans-serif" font-size="11" lengthAdjust="spacingAndGlyphs" textLength="42" x="265.5" y="121.5776">Divide()</text><!--MD5=[69f2f3ad3645114d26612368d508f737]
class Printer--><rect fill="#FEFECE" filter="url(#fnx3e9fhtqho1)" height="60.8047" id="Printer" style="stroke: #A80036; stroke-width: 1.5;" width="85" x="6" y="200.4531"/><ellipse cx="21" cy="216.4531" fill="#ADD1B2" rx="11" ry="11" style="stroke: #A80036; stroke-width: 1.0;"/><path d="M23.9688,222.0938 Q23.3906,222.3906 22.75,222.5313 Q22.1094,222.6875 21.4063,222.6875 Q18.9063,222.6875 17.5781,221.0469 Q16.2656,219.3906 16.2656,216.2656 Q16.2656,213.1406 17.5781,211.4844 Q18.9063,209.8281 21.4063,209.8281 Q22.1094,209.8281 22.75,209.9844 Q23.4063,210.1406 23.9688,210.4375 L23.9688,213.1563 Q23.3438,212.5781 22.75,212.3125 Q22.1563,212.0313 21.5313,212.0313 Q20.1875,212.0313 19.5,213.1094 Q18.8125,214.1719 18.8125,216.2656 Q18.8125,218.3594 19.5,219.4375 Q20.1875,220.5 21.5313,220.5 Q22.1563,220.5 22.75,220.2344 Q23.3438,219.9531 23.9688,219.375 L23.9688,222.0938 Z "/><text fill="#000000" font-family="sans-serif" font-size="12" lengthAdjust="spacingAndGlyphs" textLength="42" x="35" y="220.6074">Printer</text><rect fill="#FFFFFF" height="15.9688" style="stroke: #000000; stroke-width: 1.0; stroke-dasharray: 2.0,2.0;" width="9" x="85" y="197.4531"/><text fill="#000000" font-family="sans-serif" font-size="12" font-style="italic" lengthAdjust="spacingAndGlyphs" textLength="7" x="86" y="209.5918">T</text><line style="stroke: #A80036; stroke-width: 1.5;" x1="7" x2="90" y1="232.4531" y2="232.4531"/><line style="stroke: #A80036; stroke-width: 1.5;" x1="7" x2="90" y1="240.4531" y2="240.4531"/><ellipse cx="17" cy="251.4531" fill="#84BE84" rx="3" ry="3" style="stroke: #038048; stroke-width: 1.0;"/><text fill="#000000" font-family="sans-serif" font-size="11" lengthAdjust="spacingAndGlyphs" textLength="34" x="26" y="254.6636">Print()</text><!--MD5=[2c589014e840926a718801db2289e0a7]
class Creator--><rect fill="#FEFECE" filter="url(#fnx3e9fhtqho1)" height="60.8047" id="Creator" style="stroke: #A80036; stroke-width: 1.5;" width="90" x="126.5" y="200.4531"/><ellipse cx="141.5" cy="216.4531" fill="#ADD1B2" rx="11" ry="11" style="stroke: #A80036; stroke-width: 1.0;"/><path d="M144.4688,222.0938 Q143.8906,222.3906 143.25,222.5313 Q142.6094,222.6875 141.9063,222.6875 Q139.4063,222.6875 138.0781,221.0469 Q136.7656,219.3906 136.7656,216.2656 Q136.7656,213.1406 138.0781,211.4844 Q139.4063,209.8281 141.9063,209.8281 Q142.6094,209.8281 143.25,209.9844 Q143.9063,210.1406 144.4688,210.4375 L144.4688,213.1563 Q143.8438,212.5781 143.25,212.3125 Q142.6563,212.0313 142.0313,212.0313 Q140.6875,212.0313 140,213.1094 Q139.3125,214.1719 139.3125,216.2656 Q139.3125,218.3594 140,219.4375 Q140.6875,220.5 142.0313,220.5 Q142.6563,220.5 143.25,220.2344 Q143.8438,219.9531 144.4688,219.375 L144.4688,222.0938 Z "/><text fill="#000000" font-family="sans-serif" font-size="12" lengthAdjust="spacingAndGlyphs" textLength="47" x="155.5" y="220.6074">Creator</text><rect fill="#FFFFFF" height="15.9688" style="stroke: #000000; stroke-width: 1.0; stroke-dasharray: 2.0,2.0;" width="9" x="210.5" y="197.4531"/><text fill="#000000" font-family="sans-serif" font-size="12" font-style="italic" lengthAdjust="spacingAndGlyphs" textLength="7" x="211.5" y="209.5918">T</text><line style="stroke: #A80036; stroke-width: 1.5;" x1="127.5" x2="215.5" y1="232.4531" y2="232.4531"/><line style="stroke: #A80036; stroke-width: 1.5;" x1="127.5" x2="215.5" y1="240.4531" y2="240.4531"/><ellipse cx="137.5" cy="251.4531" fill="#84BE84" rx="3" ry="3" style="stroke: #038048; stroke-width: 1.0;"/><text fill="#000000" font-family="sans-serif" font-size="11" lengthAdjust="spacingAndGlyphs" textLength="46" x="146.5" y="254.6636">Create()</text><!--MD5=[dba577e83ef218fe88d82c4fda0ed8b4]
class IRepository--><rect fill="#FEFECE" filter="url(#fnx3e9fhtqho1)" height="86.4141" id="IRepository" style="stroke: #A80036; stroke-width: 1.5;" width="113" x="252" y="187.9531"/><ellipse cx="267" cy="203.9531" fill="#B4A7E5" rx="11" ry="11" style="stroke: #A80036; stroke-width: 1.0;"/><path d="M262.9219,199.7188 L262.9219,197.5625 L270.3125,197.5625 L270.3125,199.7188 L267.8438,199.7188 L267.8438,207.7969 L270.3125,207.7969 L270.3125,209.9531 L262.9219,209.9531 L262.9219,207.7969 L265.3906,207.7969 L265.3906,199.7188 L262.9219,199.7188 Z "/><text fill="#000000" font-family="sans-serif" font-size="12" font-style="italic" lengthAdjust="spacingAndGlyphs" textLength="70" x="281" y="208.1074">IRepository</text><rect fill="#FFFFFF" height="15.9688" style="stroke: #000000; stroke-width: 1.0; stroke-dasharray: 2.0,2.0;" width="9" x="359" y="184.9531"/><text fill="#000000" font-family="sans-serif" font-size="12" font-style="italic" lengthAdjust="spacingAndGlyphs" textLength="7" x="360" y="197.0918">T</text><line style="stroke: #A80036; stroke-width: 1.5;" x1="253" x2="364" y1="219.9531" y2="219.9531"/><line style="stroke: #A80036; stroke-width: 1.5;" x1="253" x2="364" y1="227.9531" y2="227.9531"/><ellipse cx="263" cy="238.9531" fill="#84BE84" rx="3" ry="3" style="stroke: #038048; stroke-width: 1.0;"/><text fill="#000000" font-family="sans-serif" font-size="11" lengthAdjust="spacingAndGlyphs" textLength="29" x="272" y="242.1636">Add()</text><ellipse cx="263" cy="251.7578" fill="#84BE84" rx="3" ry="3" style="stroke: #038048; stroke-width: 1.0;"/><text fill="#000000" font-family="sans-serif" font-size="11" lengthAdjust="spacingAndGlyphs" textLength="53" x="272" y="254.9683">Remove()</text><ellipse cx="263" cy="264.5625" fill="#84BE84" rx="3" ry="3" style="stroke: #038048; stroke-width: 1.0;"/><text fill="#000000" font-family="sans-serif" font-size="11" lengthAdjust="spacingAndGlyphs" textLength="28" x="272" y="267.7729">Get()</text><!--MD5=[27c60c7f9131d1f324e9284007c21d29]
link Box to SafeBox--><!--MD5=[dda4a4ec2e40bd19daa6d8e00d2a1000]
link SafeBox to Calculator--><!--MD5=[0d23d1222c46100e1d1658120d80ad59]
link Box to Printer--><!--MD5=[d0410d8487655eb371e62a721a2e6d90]
link Printer to Creator--><!--MD5=[601f09938720e4cb9a4b01cc2f9453de]
link Creator to IRepository--><!--MD5=[24acbbb37b686d0a78378313d7a9883f]
@startuml
title Generics - Class Diagram
class Box<T> {
  +Box()
  +Item: T
}
class SafeBox<T> {
  +SafeBox()
}
class Calculator<T> {
  +Add()
  +Subtract()
  +Multiply()
  +Divide()
}
class Printer<T> {
  +Print()
}
class Creator<T> {
  +Create()
}
interface IRepository<T> {
  +Add()
  +Remove()
  +Get()
}
@enduml

PlantUML version 1.2020.02(Sun Mar 01 06:22:07 BOT 2020)
(GPL source distribution)
Java Runtime: OpenJDK Runtime Environment
JVM: OpenJDK 64-Bit Server VM
Java Version: 21.0.7+6-Ubuntu-0ubuntu124.04
Operating System: Linux
Default Encoding: UTF-8
Language: en
Country: null
--></g></svg>