<?xml version="1.0" encoding="UTF-8" standalone="no"?><svg xmlns="http://www.w3.org/2000/svg" xmlns:xlink="http://www.w3.org/1999/xlink" contentScriptType="application/ecmascript" contentStyleType="text/css" height="713px" preserveAspectRatio="none" style="width:1443px;height:713px;" version="1.1" viewBox="0 0 1443 713" width="1443px" zoomAndPan="magnify"><defs><filter height="300%" id="f1uers4kjzlb68" width="300%" x="-1" y="-1"><feGaussianBlur result="blurOut" stdDeviation="2.0"/><feColorMatrix in="blurOut" result="blurOut2" type="matrix" values="0 0 0 0 0 0 0 0 0 0 0 0 0 0 0 0 0 0 .4 0"/><feOffset dx="4.0" dy="4.0" in="blurOut2" result="blurOut3"/><feBlend in="SourceGraphic" in2="blurOut3" mode="normal"/></filter></defs><g><text fill="#000000" font-family="sans-serif" font-size="18" lengthAdjust="spacingAndGlyphs" textLength="242" x="604.5" y="16.708">InvoiceApp - Class Diagram</text><!--MD5=[d84771afe8f99359d973e4423928f11b]
class IInvoiceValidator--><rect fill="#FEFECE" filter="url(#f1uers4kjzlb68)" height="60.8047" id="IInvoiceValidator" style="stroke: #A80036; stroke-width: 1.5;" width="185" x="6" y="342.9531"/><ellipse cx="43.05" cy="358.9531" fill="#B4A7E5" rx="11" ry="11" style="stroke: #A80036; stroke-width: 1.0;"/><path d="M38.9719,354.7188 L38.9719,352.5625 L46.3625,352.5625 L46.3625,354.7188 L43.8938,354.7188 L43.8938,362.7969 L46.3625,362.7969 L46.3625,364.9531 L38.9719,364.9531 L38.9719,362.7969 L41.4406,362.7969 L41.4406,354.7188 L38.9719,354.7188 Z "/><text fill="#000000" font-family="sans-serif" font-size="12" font-style="italic" lengthAdjust="spacingAndGlyphs" textLength="104" x="61.95" y="363.1074">IInvoiceValidator</text><line style="stroke: #A80036; stroke-width: 1.5;" x1="7" x2="190" y1="374.9531" y2="374.9531"/><line style="stroke: #A80036; stroke-width: 1.5;" x1="7" x2="190" y1="382.9531" y2="382.9531"/><ellipse cx="17" cy="393.9531" fill="#84BE84" rx="3" ry="3" style="stroke: #038048; stroke-width: 1.0;"/><text fill="#000000" font-family="sans-serif" font-size="11" lengthAdjust="spacingAndGlyphs" textLength="159" x="26" y="397.1636">Validate(args: string[]): void</text><!--MD5=[92b84c936a37cf2ae961ecbc388ae68c]
class IInvoiceParser--><rect fill="#FEFECE" filter="url(#f1uers4kjzlb68)" height="60.8047" id="IInvoiceParser" style="stroke: #A80036; stroke-width: 1.5;" width="268" x="226.5" y="342.9531"/><ellipse cx="312.75" cy="358.9531" fill="#B4A7E5" rx="11" ry="11" style="stroke: #A80036; stroke-width: 1.0;"/><path d="M308.6719,354.7188 L308.6719,352.5625 L316.0625,352.5625 L316.0625,354.7188 L313.5938,354.7188 L313.5938,362.7969 L316.0625,362.7969 L316.0625,364.9531 L308.6719,364.9531 L308.6719,362.7969 L311.1406,362.7969 L311.1406,354.7188 L308.6719,354.7188 Z "/><text fill="#000000" font-family="sans-serif" font-size="12" font-style="italic" lengthAdjust="spacingAndGlyphs" textLength="87" x="333.25" y="363.1074">IInvoiceParser</text><line style="stroke: #A80036; stroke-width: 1.5;" x1="227.5" x2="493.5" y1="374.9531" y2="374.9531"/><line style="stroke: #A80036; stroke-width: 1.5;" x1="227.5" x2="493.5" y1="382.9531" y2="382.9531"/><ellipse cx="237.5" cy="393.9531" fill="#84BE84" rx="3" ry="3" style="stroke: #038048; stroke-width: 1.0;"/><text fill="#000000" font-family="sans-serif" font-size="11" lengthAdjust="spacingAndGlyphs" textLength="242" x="246.5" y="397.1636">Parse(json: string): IEnumerable&lt;Invoice&gt;</text><!--MD5=[38514fac6f59e614a185bdb0bd6f3587]
class IInvoiceCalculator--><rect fill="#FEFECE" filter="url(#f1uers4kjzlb68)" height="60.8047" id="IInvoiceCalculator" style="stroke: #A80036; stroke-width: 1.5;" width="380" x="529.5" y="342.9531"/><ellipse cx="659.75" cy="358.9531" fill="#B4A7E5" rx="11" ry="11" style="stroke: #A80036; stroke-width: 1.0;"/><path d="M655.6719,354.7188 L655.6719,352.5625 L663.0625,352.5625 L663.0625,354.7188 L660.5938,354.7188 L660.5938,362.7969 L663.0625,362.7969 L663.0625,364.9531 L655.6719,364.9531 L655.6719,362.7969 L658.1406,362.7969 L658.1406,354.7188 L655.6719,354.7188 Z "/><text fill="#000000" font-family="sans-serif" font-size="12" font-style="italic" lengthAdjust="spacingAndGlyphs" textLength="111" x="680.25" y="363.1074">IInvoiceCalculator</text><line style="stroke: #A80036; stroke-width: 1.5;" x1="530.5" x2="908.5" y1="374.9531" y2="374.9531"/><line style="stroke: #A80036; stroke-width: 1.5;" x1="530.5" x2="908.5" y1="382.9531" y2="382.9531"/><ellipse cx="540.5" cy="393.9531" fill="#84BE84" rx="3" ry="3" style="stroke: #038048; stroke-width: 1.0;"/><text fill="#000000" font-family="sans-serif" font-size="11" lengthAdjust="spacingAndGlyphs" textLength="354" x="549.5" y="397.1636">Calculate(invoices: IEnumerable&lt;Invoice&gt;): (decimal, decimal)</text><!--MD5=[ef43577eb9cac55da95c595709460de9]
class IReportFormatter--><rect fill="#FEFECE" filter="url(#f1uers4kjzlb68)" height="60.8047" id="IReportFormatter" style="stroke: #A80036; stroke-width: 1.5;" width="488" x="944.5" y="342.9531"/><ellipse cx="1130.25" cy="358.9531" fill="#B4A7E5" rx="11" ry="11" style="stroke: #A80036; stroke-width: 1.0;"/><path d="M1126.1719,354.7188 L1126.1719,352.5625 L1133.5625,352.5625 L1133.5625,354.7188 L1131.0938,354.7188 L1131.0938,362.7969 L1133.5625,362.7969 L1133.5625,364.9531 L1126.1719,364.9531 L1126.1719,362.7969 L1128.6406,362.7969 L1128.6406,354.7188 L1126.1719,354.7188 Z "/><text fill="#000000" font-family="sans-serif" font-size="12" font-style="italic" lengthAdjust="spacingAndGlyphs" textLength="108" x="1150.75" y="363.1074">IReportFormatter</text><line style="stroke: #A80036; stroke-width: 1.5;" x1="945.5" x2="1431.5" y1="374.9531" y2="374.9531"/><line style="stroke: #A80036; stroke-width: 1.5;" x1="945.5" x2="1431.5" y1="382.9531" y2="382.9531"/><ellipse cx="955.5" cy="393.9531" fill="#84BE84" rx="3" ry="3" style="stroke: #038048; stroke-width: 1.0;"/><text fill="#000000" font-family="sans-serif" font-size="11" lengthAdjust="spacingAndGlyphs" textLength="462" x="964.5" y="397.1636">Format(invoices: IEnumerable&lt;Invoice&gt;, total: decimal, average: decimal): string</text><!--MD5=[894442645724153f40a9f7a43026dbfc]
class Invoice--><rect fill="#FEFECE" filter="url(#f1uers4kjzlb68)" height="99.2188" id="Invoice" style="stroke: #A80036; stroke-width: 1.5;" width="123" x="658" y="602.9531"/><ellipse cx="694.6" cy="618.9531" fill="#ADD1B2" rx="11" ry="11" style="stroke: #A80036; stroke-width: 1.0;"/><path d="M697.5688,624.5938 Q696.9906,624.8906 696.35,625.0313 Q695.7094,625.1875 695.0063,625.1875 Q692.5063,625.1875 691.1781,623.5469 Q689.8656,621.8906 689.8656,618.7656 Q689.8656,615.6406 691.1781,613.9844 Q692.5063,612.3281 695.0063,612.3281 Q695.7094,612.3281 696.35,612.4844 Q697.0063,612.6406 697.5688,612.9375 L697.5688,615.6563 Q696.9438,615.0781 696.35,614.8125 Q695.7563,614.5313 695.1313,614.5313 Q693.7875,614.5313 693.1,615.6094 Q692.4125,616.6719 692.4125,618.7656 Q692.4125,620.8594 693.1,621.9375 Q693.7875,623 695.1313,623 Q695.7563,623 696.35,622.7344 Q696.9438,622.4531 697.5688,621.875 L697.5688,624.5938 Z "/><text fill="#000000" font-family="sans-serif" font-size="12" lengthAdjust="spacingAndGlyphs" textLength="43" x="713.4" y="623.1074">Invoice</text><line style="stroke: #A80036; stroke-width: 1.5;" x1="659" x2="780" y1="634.9531" y2="634.9531"/><ellipse cx="669" cy="645.9531" fill="none" rx="3" ry="3" style="stroke: #038048; stroke-width: 1.0;"/><text fill="#000000" font-family="sans-serif" font-size="11" lengthAdjust="spacingAndGlyphs" textLength="32" x="678" y="649.1636">Id: int</text><ellipse cx="669" cy="658.7578" fill="none" rx="3" ry="3" style="stroke: #038048; stroke-width: 1.0;"/><text fill="#000000" font-family="sans-serif" font-size="11" lengthAdjust="spacingAndGlyphs" textLength="97" x="678" y="661.9683">Customer: string</text><ellipse cx="669" cy="671.5625" fill="none" rx="3" ry="3" style="stroke: #038048; stroke-width: 1.0;"/><text fill="#000000" font-family="sans-serif" font-size="11" lengthAdjust="spacingAndGlyphs" textLength="95" x="678" y="674.7729">Amount: decimal</text><ellipse cx="669" cy="684.3672" fill="none" rx="3" ry="3" style="stroke: #038048; stroke-width: 1.0;"/><text fill="#000000" font-family="sans-serif" font-size="11" lengthAdjust="spacingAndGlyphs" textLength="85" x="678" y="687.5776">Date: DateOnly</text><line style="stroke: #A80036; stroke-width: 1.5;" x1="659" x2="780" y1="694.1719" y2="694.1719"/><!--MD5=[9f72965d19c7b07fdd4be56ce8c082b9]
class InvoiceValidator--><rect fill="#FEFECE" filter="url(#f1uers4kjzlb68)" height="60.8047" id="InvoiceValidator" style="stroke: #A80036; stroke-width: 1.5;" width="185" x="6" y="464.9531"/><ellipse cx="45.3" cy="480.9531" fill="#ADD1B2" rx="11" ry="11" style="stroke: #A80036; stroke-width: 1.0;"/><path d="M48.2688,486.5938 Q47.6906,486.8906 47.05,487.0313 Q46.4094,487.1875 45.7063,487.1875 Q43.2063,487.1875 41.8781,485.5469 Q40.5656,483.8906 40.5656,480.7656 Q40.5656,477.6406 41.8781,475.9844 Q43.2063,474.3281 45.7063,474.3281 Q46.4094,474.3281 47.05,474.4844 Q47.7063,474.6406 48.2688,474.9375 L48.2688,477.6563 Q47.6438,477.0781 47.05,476.8125 Q46.4563,476.5313 45.8313,476.5313 Q44.4875,476.5313 43.8,477.6094 Q43.1125,478.6719 43.1125,480.7656 Q43.1125,482.8594 43.8,483.9375 Q44.4875,485 45.8313,485 Q46.4563,485 47.05,484.7344 Q47.6438,484.4531 48.2688,483.875 L48.2688,486.5938 Z "/><text fill="#000000" font-family="sans-serif" font-size="12" lengthAdjust="spacingAndGlyphs" textLength="99" x="64.7" y="485.1074">InvoiceValidator</text><line style="stroke: #A80036; stroke-width: 1.5;" x1="7" x2="190" y1="496.9531" y2="496.9531"/><line style="stroke: #A80036; stroke-width: 1.5;" x1="7" x2="190" y1="504.9531" y2="504.9531"/><ellipse cx="17" cy="515.9531" fill="#84BE84" rx="3" ry="3" style="stroke: #038048; stroke-width: 1.0;"/><text fill="#000000" font-family="sans-serif" font-size="11" lengthAdjust="spacingAndGlyphs" textLength="159" x="26" y="519.1636">Validate(args: string[]): void</text><!--MD5=[50e15743709f9141666e736a3106f2fa]
class InvoiceParser--><rect fill="#FEFECE" filter="url(#f1uers4kjzlb68)" height="60.8047" id="InvoiceParser" style="stroke: #A80036; stroke-width: 1.5;" width="268" x="226.5" y="464.9531"/><ellipse cx="314.25" cy="480.9531" fill="#ADD1B2" rx="11" ry="11" style="stroke: #A80036; stroke-width: 1.0;"/><path d="M317.2188,486.5938 Q316.6406,486.8906 316,487.0313 Q315.3594,487.1875 314.6563,487.1875 Q312.1563,487.1875 310.8281,485.5469 Q309.5156,483.8906 309.5156,480.7656 Q309.5156,477.6406 310.8281,475.9844 Q312.1563,474.3281 314.6563,474.3281 Q315.3594,474.3281 316,474.4844 Q316.6563,474.6406 317.2188,474.9375 L317.2188,477.6563 Q316.5938,477.0781 316,476.8125 Q315.4063,476.5313 314.7813,476.5313 Q313.4375,476.5313 312.75,477.6094 Q312.0625,478.6719 312.0625,480.7656 Q312.0625,482.8594 312.75,483.9375 Q313.4375,485 314.7813,485 Q315.4063,485 316,484.7344 Q316.5938,484.4531 317.2188,483.875 L317.2188,486.5938 Z "/><text fill="#000000" font-family="sans-serif" font-size="12" lengthAdjust="spacingAndGlyphs" textLength="84" x="334.75" y="485.1074">InvoiceParser</text><line style="stroke: #A80036; stroke-width: 1.5;" x1="227.5" x2="493.5" y1="496.9531" y2="496.9531"/><line style="stroke: #A80036; stroke-width: 1.5;" x1="227.5" x2="493.5" y1="504.9531" y2="504.9531"/><ellipse cx="237.5" cy="515.9531" fill="#84BE84" rx="3" ry="3" style="stroke: #038048; stroke-width: 1.0;"/><text fill="#000000" font-family="sans-serif" font-size="11" lengthAdjust="spacingAndGlyphs" textLength="242" x="246.5" y="519.1636">Parse(json: string): IEnumerable&lt;Invoice&gt;</text><!--MD5=[5cd411e10c7997ea8dddea37a33b3bc8]
class InvoiceCalculator--><rect fill="#FEFECE" filter="url(#f1uers4kjzlb68)" height="60.8047" id="InvoiceCalculator" style="stroke: #A80036; stroke-width: 1.5;" width="380" x="529.5" y="464.9531"/><ellipse cx="662.25" cy="480.9531" fill="#ADD1B2" rx="11" ry="11" style="stroke: #A80036; stroke-width: 1.0;"/><path d="M665.2188,486.5938 Q664.6406,486.8906 664,487.0313 Q663.3594,487.1875 662.6563,487.1875 Q660.1563,487.1875 658.8281,485.5469 Q657.5156,483.8906 657.5156,480.7656 Q657.5156,477.6406 658.8281,475.9844 Q660.1563,474.3281 662.6563,474.3281 Q663.3594,474.3281 664,474.4844 Q664.6563,474.6406 665.2188,474.9375 L665.2188,477.6563 Q664.5938,477.0781 664,476.8125 Q663.4063,476.5313 662.7813,476.5313 Q661.4375,476.5313 660.75,477.6094 Q660.0625,478.6719 660.0625,480.7656 Q660.0625,482.8594 660.75,483.9375 Q661.4375,485 662.7813,485 Q663.4063,485 664,484.7344 Q664.5938,484.4531 665.2188,483.875 L665.2188,486.5938 Z "/><text fill="#000000" font-family="sans-serif" font-size="12" lengthAdjust="spacingAndGlyphs" textLength="106" x="682.75" y="485.1074">InvoiceCalculator</text><line style="stroke: #A80036; stroke-width: 1.5;" x1="530.5" x2="908.5" y1="496.9531" y2="496.9531"/><line style="stroke: #A80036; stroke-width: 1.5;" x1="530.5" x2="908.5" y1="504.9531" y2="504.9531"/><ellipse cx="540.5" cy="515.9531" fill="#84BE84" rx="3" ry="3" style="stroke: #038048; stroke-width: 1.0;"/><text fill="#000000" font-family="sans-serif" font-size="11" lengthAdjust="spacingAndGlyphs" textLength="354" x="549.5" y="519.1636">Calculate(invoices: IEnumerable&lt;Invoice&gt;): (decimal, decimal)</text><!--MD5=[8fa1330299a0d3e4f96733a257ecf07f]
class AsciiReportFormatter--><rect fill="#FEFECE" filter="url(#f1uers4kjzlb68)" height="60.8047" id="AsciiReportFormatter" style="stroke: #A80036; stroke-width: 1.5;" width="488" x="944.5" y="464.9531"/><ellipse cx="1118.25" cy="480.9531" fill="#ADD1B2" rx="11" ry="11" style="stroke: #A80036; stroke-width: 1.0;"/><path d="M1121.2188,486.5938 Q1120.6406,486.8906 1120,487.0313 Q1119.3594,487.1875 1118.6563,487.1875 Q1116.1563,487.1875 1114.8281,485.5469 Q1113.5156,483.8906 1113.5156,480.7656 Q1113.5156,477.6406 1114.8281,475.9844 Q1116.1563,474.3281 1118.6563,474.3281 Q1119.3594,474.3281 1120,474.4844 Q1120.6563,474.6406 1121.2188,474.9375 L1121.2188,477.6563 Q1120.5938,477.0781 1120,476.8125 Q1119.4063,476.5313 1118.7813,476.5313 Q1117.4375,476.5313 1116.75,477.6094 Q1116.0625,478.6719 1116.0625,480.7656 Q1116.0625,482.8594 1116.75,483.9375 Q1117.4375,485 1118.7813,485 Q1119.4063,485 1120,484.7344 Q1120.5938,484.4531 1121.2188,483.875 L1121.2188,486.5938 Z "/><text fill="#000000" font-family="sans-serif" font-size="12" lengthAdjust="spacingAndGlyphs" textLength="132" x="1138.75" y="485.1074">AsciiReportFormatter</text><line style="stroke: #A80036; stroke-width: 1.5;" x1="945.5" x2="1431.5" y1="496.9531" y2="496.9531"/><line style="stroke: #A80036; stroke-width: 1.5;" x1="945.5" x2="1431.5" y1="504.9531" y2="504.9531"/><ellipse cx="955.5" cy="515.9531" fill="#84BE84" rx="3" ry="3" style="stroke: #038048; stroke-width: 1.0;"/><text fill="#000000" font-family="sans-serif" font-size="11" lengthAdjust="spacingAndGlyphs" textLength="462" x="964.5" y="519.1636">Format(invoices: IEnumerable&lt;Invoice&gt;, total: decimal, average: decimal): string</text><!--MD5=[b418544f4aa99a5c6482a121e29f8751]
class InvoiceCli--><rect fill="#FEFECE" filter="url(#f1uers4kjzlb68)" height="112.0234" id="InvoiceCli" style="stroke: #A80036; stroke-width: 1.5;" width="235" x="422" y="153.9531"/><ellipse cx="506.75" cy="169.9531" fill="#ADD1B2" rx="11" ry="11" style="stroke: #A80036; stroke-width: 1.0;"/><path d="M509.7188,175.5938 Q509.1406,175.8906 508.5,176.0313 Q507.8594,176.1875 507.1563,176.1875 Q504.6563,176.1875 503.3281,174.5469 Q502.0156,172.8906 502.0156,169.7656 Q502.0156,166.6406 503.3281,164.9844 Q504.6563,163.3281 507.1563,163.3281 Q507.8594,163.3281 508.5,163.4844 Q509.1563,163.6406 509.7188,163.9375 L509.7188,166.6563 Q509.0938,166.0781 508.5,165.8125 Q507.9063,165.5313 507.2813,165.5313 Q505.9375,165.5313 505.25,166.6094 Q504.5625,167.6719 504.5625,169.7656 Q504.5625,171.8594 505.25,172.9375 Q505.9375,174 507.2813,174 Q507.9063,174 508.5,173.7344 Q509.0938,173.4531 509.7188,172.875 L509.7188,175.5938 Z "/><text fill="#000000" font-family="sans-serif" font-size="12" lengthAdjust="spacingAndGlyphs" textLength="57" x="527.25" y="174.1074">InvoiceCli</text><line style="stroke: #A80036; stroke-width: 1.5;" x1="423" x2="656" y1="185.9531" y2="185.9531"/><rect fill="none" height="6" style="stroke: #C82930; stroke-width: 1.0;" width="6" x="430" y="193.9531"/><text fill="#000000" font-family="sans-serif" font-size="11" lengthAdjust="spacingAndGlyphs" textLength="171" x="442" y="200.1636">_invoiceParser: IInvoiceParser</text><rect fill="none" height="6" style="stroke: #C82930; stroke-width: 1.0;" width="6" x="430" y="206.7578"/><text fill="#000000" font-family="sans-serif" font-size="11" lengthAdjust="spacingAndGlyphs" textLength="209" x="442" y="212.9683">_invoiceCalculator: IInvoiceCalculator</text><rect fill="none" height="6" style="stroke: #C82930; stroke-width: 1.0;" width="6" x="430" y="219.5625"/><text fill="#000000" font-family="sans-serif" font-size="11" lengthAdjust="spacingAndGlyphs" textLength="201" x="442" y="225.7729">_reportFormatter: IReportFormatter</text><rect fill="none" height="6" style="stroke: #C82930; stroke-width: 1.0;" width="6" x="430" y="232.3672"/><text fill="#000000" font-family="sans-serif" font-size="11" lengthAdjust="spacingAndGlyphs" textLength="195" x="442" y="238.5776">_invoiceValidator: IInvoiceValidator</text><line style="stroke: #A80036; stroke-width: 1.5;" x1="423" x2="656" y1="245.1719" y2="245.1719"/><ellipse cx="433" cy="256.1719" fill="#84BE84" rx="3" ry="3" style="stroke: #038048; stroke-width: 1.0;"/><text fill="#000000" font-family="sans-serif" font-size="11" lengthAdjust="spacingAndGlyphs" textLength="135" x="442" y="259.3823">Run(args: string[]): void</text><!--MD5=[175f95e045c1a44aed0b30df3abe0e5c]
class Program--><rect fill="#FEFECE" filter="url(#f1uers4kjzlb68)" height="48" id="Program" style="stroke: #A80036; stroke-width: 1.5;" width="85" x="497" y="28.9531"/><ellipse cx="512" cy="44.9531" fill="#ADD1B2" rx="11" ry="11" style="stroke: #A80036; stroke-width: 1.0;"/><path d="M514.9688,50.5938 Q514.3906,50.8906 513.75,51.0313 Q513.1094,51.1875 512.4063,51.1875 Q509.9063,51.1875 508.5781,49.5469 Q507.2656,47.8906 507.2656,44.7656 Q507.2656,41.6406 508.5781,39.9844 Q509.9063,38.3281 512.4063,38.3281 Q513.1094,38.3281 513.75,38.4844 Q514.4063,38.6406 514.9688,38.9375 L514.9688,41.6563 Q514.3438,41.0781 513.75,40.8125 Q513.1563,40.5313 512.5313,40.5313 Q511.1875,40.5313 510.5,41.6094 Q509.8125,42.6719 509.8125,44.7656 Q509.8125,46.8594 510.5,47.9375 Q511.1875,49 512.5313,49 Q513.1563,49 513.75,48.7344 Q514.3438,48.4531 514.9688,47.875 L514.9688,50.5938 Z "/><text fill="#000000" font-family="sans-serif" font-size="12" lengthAdjust="spacingAndGlyphs" textLength="53" x="526" y="49.1074">Program</text><line style="stroke: #A80036; stroke-width: 1.5;" x1="498" x2="581" y1="60.9531" y2="60.9531"/><line style="stroke: #A80036; stroke-width: 1.5;" x1="498" x2="581" y1="68.9531" y2="68.9531"/><!--MD5=[d820df7dc0c620a09126df6224a765f0]
reverse link IInvoiceValidator to InvoiceValidator--><path d="M98.5,424.5731 C98.5,438.2331 98.5,452.5931 98.5,464.7131 " fill="none" id="IInvoiceValidator&lt;-InvoiceValidator" style="stroke: #A80036; stroke-width: 1.0; stroke-dasharray: 7.0,7.0;"/><polygon fill="none" points="91.5,424.1131,98.5,404.1131,105.5,424.1131,91.5,424.1131" style="stroke: #A80036; stroke-width: 1.0;"/><!--MD5=[55095156fa4b4c4df1e3af3a1db4a8a7]
reverse link IInvoiceParser to InvoiceParser--><path d="M360.5,424.5731 C360.5,438.2331 360.5,452.5931 360.5,464.7131 " fill="none" id="IInvoiceParser&lt;-InvoiceParser" style="stroke: #A80036; stroke-width: 1.0; stroke-dasharray: 7.0,7.0;"/><polygon fill="none" points="353.5,424.1131,360.5,404.1131,367.5,424.1131,353.5,424.1131" style="stroke: #A80036; stroke-width: 1.0;"/><!--MD5=[b2f82cd3c9265fe5e57784e396909446]
reverse link IInvoiceCalculator to InvoiceCalculator--><path d="M719.5,424.5731 C719.5,438.2331 719.5,452.5931 719.5,464.7131 " fill="none" id="IInvoiceCalculator&lt;-InvoiceCalculator" style="stroke: #A80036; stroke-width: 1.0; stroke-dasharray: 7.0,7.0;"/><polygon fill="none" points="712.5,424.1131,719.5,404.1131,726.5,424.1131,712.5,424.1131" style="stroke: #A80036; stroke-width: 1.0;"/><!--MD5=[ce6d48978af1d41ca0830997149fa995]
reverse link IReportFormatter to AsciiReportFormatter--><path d="M1188.5,424.5731 C1188.5,438.2331 1188.5,452.5931 1188.5,464.7131 " fill="none" id="IReportFormatter&lt;-AsciiReportFormatter" style="stroke: #A80036; stroke-width: 1.0; stroke-dasharray: 7.0,7.0;"/><polygon fill="none" points="1181.5,424.1131,1188.5,404.1131,1195.5,424.1131,1181.5,424.1131" style="stroke: #A80036; stroke-width: 1.0;"/><!--MD5=[5b7e95dd552f8cb5fc70e87e600d5875]
link InvoiceCli to IInvoiceValidator--><path d="M421.9,254.0231 C347.02,281.4431 251.74,316.3331 184.04,341.1331 " fill="none" id="InvoiceCli-&gt;IInvoiceValidator" style="stroke: #A80036; stroke-width: 1.0;"/><polygon fill="#A80036" points="179.21,342.8931,189.0375,343.5407,183.9027,341.1672,186.2761,336.0324,179.21,342.8931" style="stroke: #A80036; stroke-width: 1.0;"/><text fill="#000000" font-family="sans-serif" font-size="13" lengthAdjust="spacingAndGlyphs" textLength="30" x="307.5" y="309.02">uses</text><!--MD5=[c3dd0f498fef26b5cbed172542ff6277]
link InvoiceCli to IInvoiceParser--><path d="M478.4,266.0831 C451.4,290.4431 420.55,318.2731 397.19,339.3531 " fill="none" id="InvoiceCli-&gt;IInvoiceParser" style="stroke: #A80036; stroke-width: 1.0;"/><polygon fill="#A80036" points="393.21,342.9431,402.5755,339.8956,396.9265,339.5983,397.2238,333.9493,393.21,342.9431" style="stroke: #A80036; stroke-width: 1.0;"/><text fill="#000000" font-family="sans-serif" font-size="13" lengthAdjust="spacingAndGlyphs" textLength="30" x="446.5" y="309.02">uses</text><!--MD5=[d44cd0beea44b89e4a580c2fd6770eec]
link InvoiceCli to IInvoiceCalculator--><path d="M600.94,266.0831 C628.09,290.4431 659.11,318.2731 682.61,339.3531 " fill="none" id="InvoiceCli-&gt;IInvoiceCalculator" style="stroke: #A80036; stroke-width: 1.0;"/><polygon fill="#A80036" points="686.61,342.9431,682.5771,333.9578,682.8864,339.6062,677.238,339.9156,686.61,342.9431" style="stroke: #A80036; stroke-width: 1.0;"/><text fill="#000000" font-family="sans-serif" font-size="13" lengthAdjust="spacingAndGlyphs" textLength="30" x="652.5" y="309.02">uses</text><!--MD5=[c1197973d2e5c3a5148a9d301b5b9172]
link InvoiceCli to IReportFormatter--><path d="M657.03,240.2031 C772.3,268.8831 947.36,312.4431 1064.73,341.6531 " fill="none" id="InvoiceCli-&gt;IReportFormatter" style="stroke: #A80036; stroke-width: 1.0;"/><polygon fill="#A80036" points="1069.93,342.9431,1062.1731,336.8743,1065.0801,341.7271,1060.2274,344.6341,1069.93,342.9431" style="stroke: #A80036; stroke-width: 1.0;"/><text fill="#000000" font-family="sans-serif" font-size="13" lengthAdjust="spacingAndGlyphs" textLength="30" x="941.5" y="309.02">uses</text><!--MD5=[b31158ba7820d75658573168e5965ac7]
link Program to InvoiceCli--><path d="M539.5,77.1631 C539.5,96.0031 539.5,123.4531 539.5,148.4331 " fill="none" id="Program-&gt;InvoiceCli" style="stroke: #A80036; stroke-width: 1.0;"/><polygon fill="#A80036" points="539.5,153.7131,543.5,144.7131,539.5,148.7131,535.5,144.7131,539.5,153.7131" style="stroke: #A80036; stroke-width: 1.0;"/><text fill="#000000" font-family="sans-serif" font-size="13" lengthAdjust="spacingAndGlyphs" textLength="48" x="540.5" y="120.02">creates</text><!--MD5=[f24290141577f969322382e2100a1726]
link InvoiceParser to Invoice--><path d="M428.87,525.9731 C493.31,553.7931 589.25,595.2131 653.05,622.7631 " fill="none" id="InvoiceParser-&gt;Invoice" style="stroke: #A80036; stroke-width: 1.0; stroke-dasharray: 7.0,7.0;"/><polygon fill="#A80036" points="657.97,624.8931,651.3005,617.6462,653.3817,622.9063,648.1216,624.9875,657.97,624.8931" style="stroke: #A80036; stroke-width: 1.0;"/><text fill="#000000" font-family="sans-serif" font-size="13" lengthAdjust="spacingAndGlyphs" textLength="43" x="530.5" y="569.02">parses</text><!--MD5=[3618301068573e5ff78dc2cca5f4a6ba]
link InvoiceCalculator to Invoice--><path d="M719.5,525.9731 C719.5,546.2231 719.5,573.6931 719.5,597.7631 " fill="none" id="InvoiceCalculator-&gt;Invoice" style="stroke: #A80036; stroke-width: 1.0; stroke-dasharray: 7.0,7.0;"/><polygon fill="#A80036" points="719.5,602.8431,723.5,593.8431,719.5,597.8431,715.5,593.8431,719.5,602.8431" style="stroke: #A80036; stroke-width: 1.0;"/><text fill="#000000" font-family="sans-serif" font-size="13" lengthAdjust="spacingAndGlyphs" textLength="64" x="720.5" y="569.02">calculates</text><!--MD5=[ef0bd254c885dbde1f4fc629d4da2f82]
link AsciiReportFormatter to Invoice--><path d="M1099.18,525.9731 C1007.85,556.1531 868.07,602.3531 786.03,629.4631 " fill="none" id="AsciiReportFormatter-&gt;Invoice" style="stroke: #A80036; stroke-width: 1.0; stroke-dasharray: 7.0,7.0;"/><polygon fill="#A80036" points="781.19,631.0631,790.9913,632.0295,785.9363,629.4906,788.4752,624.4355,781.19,631.0631" style="stroke: #A80036; stroke-width: 1.0;"/><text fill="#000000" font-family="sans-serif" font-size="13" lengthAdjust="spacingAndGlyphs" textLength="50" x="996.5" y="569.02">formats</text><!--MD5=[9c4f74d827ffe4655fffcdce8550155f]
@startuml
title InvoiceApp - Class Diagram

interface IInvoiceValidator {
    +Validate(args: string[]): void
}
interface IInvoiceParser {
    +Parse(json: string): IEnumerable<Invoice>
}
interface IInvoiceCalculator {
    +Calculate(invoices: IEnumerable<Invoice>): (decimal, decimal)
}
interface IReportFormatter {
    +Format(invoices: IEnumerable<Invoice>, total: decimal, average: decimal): string
}

class Invoice {
    +Id: int
    +Customer: string
    +Amount: decimal
    +Date: DateOnly
}

class InvoiceValidator {
    +Validate(args: string[]): void
}
class InvoiceParser {
    +Parse(json: string): IEnumerable<Invoice>
}
class InvoiceCalculator {
    +Calculate(invoices: IEnumerable<Invoice>): (decimal, decimal)
}
class AsciiReportFormatter {
    +Format(invoices: IEnumerable<Invoice>, total: decimal, average: decimal): string
}

class InvoiceCli {
    +Run(args: string[]): void
    -_invoiceParser: IInvoiceParser
    -_invoiceCalculator: IInvoiceCalculator
    -_reportFormatter: IReportFormatter
    -_invoiceValidator: IInvoiceValidator
}
class Program

IInvoiceValidator <|.. InvoiceValidator
IInvoiceParser <|.. InvoiceParser
IInvoiceCalculator <|.. InvoiceCalculator
IReportFormatter <|.. AsciiReportFormatter

InvoiceCli - -> IInvoiceValidator : uses
InvoiceCli - -> IInvoiceParser : uses
InvoiceCli - -> IInvoiceCalculator : uses
InvoiceCli - -> IReportFormatter : uses
Program - -> InvoiceCli : creates

InvoiceParser ..> Invoice : parses
InvoiceCalculator ..> Invoice : calculates
AsciiReportFormatter ..> Invoice : formats

@enduml

PlantUML version 1.2020.02(Sun Mar 01 06:22:07 BOT 2020)
(GPL source distribution)
Java Runtime: OpenJDK Runtime Environment
JVM: OpenJDK 64-Bit Server VM
Java Version: 21.0.7+6-Ubuntu-0ubuntu124.04
Operating System: Linux
Default Encoding: UTF-8
Language: en
Country: null
--></g></svg>