<?xml version="1.0" encoding="UTF-8" standalone="no"?><svg xmlns="http://www.w3.org/2000/svg" xmlns:xlink="http://www.w3.org/1999/xlink" contentScriptType="application/ecmascript" contentStyleType="text/css" height="391px" preserveAspectRatio="none" style="width:680px;height:391px;" version="1.1" viewBox="0 0 680 391" width="680px" zoomAndPan="magnify"><defs><filter height="300%" id="f1r9wsaxktlpwi" width="300%" x="-1" y="-1"><feGaussianBlur result="blurOut" stdDeviation="2.0"/><feColorMatrix in="blurOut" result="blurOut2" type="matrix" values="0 0 0 0 0 0 0 0 0 0 0 0 0 0 0 0 0 0 .4 0"/><feOffset dx="4.0" dy="4.0" in="blurOut2" result="blurOut3"/><feBlend in="SourceGraphic" in2="blurOut3" mode="normal"/></filter></defs><g><!--MD5=[d84771afe8f99359d973e4423928f11b]
class IInvoiceValidator--><rect fill="#FEFECE" filter="url(#f1r9wsaxktlpwi)" height="48" id="IInvoiceValidator" style="stroke: #A80036; stroke-width: 1.5;" width="136" x="6" y="224"/><ellipse cx="21" cy="240" fill="#B4A7E5" rx="11" ry="11" style="stroke: #A80036; stroke-width: 1.0;"/><path d="M16.9219,235.7656 L16.9219,233.6094 L24.3125,233.6094 L24.3125,235.7656 L21.8438,235.7656 L21.8438,243.8438 L24.3125,243.8438 L24.3125,246 L16.9219,246 L16.9219,243.8438 L19.3906,243.8438 L19.3906,235.7656 L16.9219,235.7656 Z "/><text fill="#000000" font-family="sans-serif" font-size="12" font-style="italic" lengthAdjust="spacingAndGlyphs" textLength="104" x="35" y="244.1543">IInvoiceValidator</text><line style="stroke: #A80036; stroke-width: 1.5;" x1="7" x2="141" y1="256" y2="256"/><line style="stroke: #A80036; stroke-width: 1.5;" x1="7" x2="141" y1="264" y2="264"/><!--MD5=[92b84c936a37cf2ae961ecbc388ae68c]
class IInvoiceParser--><rect fill="#FEFECE" filter="url(#f1r9wsaxktlpwi)" height="48" id="IInvoiceParser" style="stroke: #A80036; stroke-width: 1.5;" width="119" x="177.5" y="224"/><ellipse cx="192.5" cy="240" fill="#B4A7E5" rx="11" ry="11" style="stroke: #A80036; stroke-width: 1.0;"/><path d="M188.4219,235.7656 L188.4219,233.6094 L195.8125,233.6094 L195.8125,235.7656 L193.3438,235.7656 L193.3438,243.8438 L195.8125,243.8438 L195.8125,246 L188.4219,246 L188.4219,243.8438 L190.8906,243.8438 L190.8906,235.7656 L188.4219,235.7656 Z "/><text fill="#000000" font-family="sans-serif" font-size="12" font-style="italic" lengthAdjust="spacingAndGlyphs" textLength="87" x="206.5" y="244.1543">IInvoiceParser</text><line style="stroke: #A80036; stroke-width: 1.5;" x1="178.5" x2="295.5" y1="256" y2="256"/><line style="stroke: #A80036; stroke-width: 1.5;" x1="178.5" x2="295.5" y1="264" y2="264"/><!--MD5=[38514fac6f59e614a185bdb0bd6f3587]
class IInvoiceCalculator--><rect fill="#FEFECE" filter="url(#f1r9wsaxktlpwi)" height="48" id="IInvoiceCalculator" style="stroke: #A80036; stroke-width: 1.5;" width="143" x="331.5" y="224"/><ellipse cx="346.5" cy="240" fill="#B4A7E5" rx="11" ry="11" style="stroke: #A80036; stroke-width: 1.0;"/><path d="M342.4219,235.7656 L342.4219,233.6094 L349.8125,233.6094 L349.8125,235.7656 L347.3438,235.7656 L347.3438,243.8438 L349.8125,243.8438 L349.8125,246 L342.4219,246 L342.4219,243.8438 L344.8906,243.8438 L344.8906,235.7656 L342.4219,235.7656 Z "/><text fill="#000000" font-family="sans-serif" font-size="12" font-style="italic" lengthAdjust="spacingAndGlyphs" textLength="111" x="360.5" y="244.1543">IInvoiceCalculator</text><line style="stroke: #A80036; stroke-width: 1.5;" x1="332.5" x2="473.5" y1="256" y2="256"/><line style="stroke: #A80036; stroke-width: 1.5;" x1="332.5" x2="473.5" y1="264" y2="264"/><!--MD5=[ef43577eb9cac55da95c595709460de9]
class IReportFormatter--><rect fill="#FEFECE" filter="url(#f1r9wsaxktlpwi)" height="48" id="IReportFormatter" style="stroke: #A80036; stroke-width: 1.5;" width="140" x="513" y="224"/><ellipse cx="528" cy="240" fill="#B4A7E5" rx="11" ry="11" style="stroke: #A80036; stroke-width: 1.0;"/><path d="M523.9219,235.7656 L523.9219,233.6094 L531.3125,233.6094 L531.3125,235.7656 L528.8438,235.7656 L528.8438,243.8438 L531.3125,243.8438 L531.3125,246 L523.9219,246 L523.9219,243.8438 L526.3906,243.8438 L526.3906,235.7656 L523.9219,235.7656 Z "/><text fill="#000000" font-family="sans-serif" font-size="12" font-style="italic" lengthAdjust="spacingAndGlyphs" textLength="108" x="542" y="244.1543">IReportFormatter</text><line style="stroke: #A80036; stroke-width: 1.5;" x1="514" x2="652" y1="256" y2="256"/><line style="stroke: #A80036; stroke-width: 1.5;" x1="514" x2="652" y1="264" y2="264"/><!--MD5=[9f72965d19c7b07fdd4be56ce8c082b9]
class InvoiceValidator--><rect fill="#FEFECE" filter="url(#f1r9wsaxktlpwi)" height="48" id="InvoiceValidator" style="stroke: #A80036; stroke-width: 1.5;" width="131" x="8.5" y="332"/><ellipse cx="23.5" cy="348" fill="#ADD1B2" rx="11" ry="11" style="stroke: #A80036; stroke-width: 1.0;"/><path d="M26.4688,353.6406 Q25.8906,353.9375 25.25,354.0781 Q24.6094,354.2344 23.9063,354.2344 Q21.4063,354.2344 20.0781,352.5938 Q18.7656,350.9375 18.7656,347.8125 Q18.7656,344.6875 20.0781,343.0313 Q21.4063,341.375 23.9063,341.375 Q24.6094,341.375 25.25,341.5313 Q25.9063,341.6875 26.4688,341.9844 L26.4688,344.7031 Q25.8438,344.125 25.25,343.8594 Q24.6563,343.5781 24.0313,343.5781 Q22.6875,343.5781 22,344.6563 Q21.3125,345.7188 21.3125,347.8125 Q21.3125,349.9063 22,350.9844 Q22.6875,352.0469 24.0313,352.0469 Q24.6563,352.0469 25.25,351.7813 Q25.8438,351.5 26.4688,350.9219 L26.4688,353.6406 Z "/><text fill="#000000" font-family="sans-serif" font-size="12" lengthAdjust="spacingAndGlyphs" textLength="99" x="37.5" y="352.1543">InvoiceValidator</text><line style="stroke: #A80036; stroke-width: 1.5;" x1="9.5" x2="138.5" y1="364" y2="364"/><line style="stroke: #A80036; stroke-width: 1.5;" x1="9.5" x2="138.5" y1="372" y2="372"/><!--MD5=[50e15743709f9141666e736a3106f2fa]
class InvoiceParser--><rect fill="#FEFECE" filter="url(#f1r9wsaxktlpwi)" height="48" id="InvoiceParser" style="stroke: #A80036; stroke-width: 1.5;" width="116" x="179" y="332"/><ellipse cx="194" cy="348" fill="#ADD1B2" rx="11" ry="11" style="stroke: #A80036; stroke-width: 1.0;"/><path d="M196.9688,353.6406 Q196.3906,353.9375 195.75,354.0781 Q195.1094,354.2344 194.4063,354.2344 Q191.9063,354.2344 190.5781,352.5938 Q189.2656,350.9375 189.2656,347.8125 Q189.2656,344.6875 190.5781,343.0313 Q191.9063,341.375 194.4063,341.375 Q195.1094,341.375 195.75,341.5313 Q196.4063,341.6875 196.9688,341.9844 L196.9688,344.7031 Q196.3438,344.125 195.75,343.8594 Q195.1563,343.5781 194.5313,343.5781 Q193.1875,343.5781 192.5,344.6563 Q191.8125,345.7188 191.8125,347.8125 Q191.8125,349.9063 192.5,350.9844 Q193.1875,352.0469 194.5313,352.0469 Q195.1563,352.0469 195.75,351.7813 Q196.3438,351.5 196.9688,350.9219 L196.9688,353.6406 Z "/><text fill="#000000" font-family="sans-serif" font-size="12" lengthAdjust="spacingAndGlyphs" textLength="84" x="208" y="352.1543">InvoiceParser</text><line style="stroke: #A80036; stroke-width: 1.5;" x1="180" x2="294" y1="364" y2="364"/><line style="stroke: #A80036; stroke-width: 1.5;" x1="180" x2="294" y1="372" y2="372"/><!--MD5=[5cd411e10c7997ea8dddea37a33b3bc8]
class InvoiceCalculator--><rect fill="#FEFECE" filter="url(#f1r9wsaxktlpwi)" height="48" id="InvoiceCalculator" style="stroke: #A80036; stroke-width: 1.5;" width="138" x="332" y="332"/><ellipse cx="347" cy="348" fill="#ADD1B2" rx="11" ry="11" style="stroke: #A80036; stroke-width: 1.0;"/><path d="M349.9688,353.6406 Q349.3906,353.9375 348.75,354.0781 Q348.1094,354.2344 347.4063,354.2344 Q344.9063,354.2344 343.5781,352.5938 Q342.2656,350.9375 342.2656,347.8125 Q342.2656,344.6875 343.5781,343.0313 Q344.9063,341.375 347.4063,341.375 Q348.1094,341.375 348.75,341.5313 Q349.4063,341.6875 349.9688,341.9844 L349.9688,344.7031 Q349.3438,344.125 348.75,343.8594 Q348.1563,343.5781 347.5313,343.5781 Q346.1875,343.5781 345.5,344.6563 Q344.8125,345.7188 344.8125,347.8125 Q344.8125,349.9063 345.5,350.9844 Q346.1875,352.0469 347.5313,352.0469 Q348.1563,352.0469 348.75,351.7813 Q349.3438,351.5 349.9688,350.9219 L349.9688,353.6406 Z "/><text fill="#000000" font-family="sans-serif" font-size="12" lengthAdjust="spacingAndGlyphs" textLength="106" x="361" y="352.1543">InvoiceCalculator</text><line style="stroke: #A80036; stroke-width: 1.5;" x1="333" x2="469" y1="364" y2="364"/><line style="stroke: #A80036; stroke-width: 1.5;" x1="333" x2="469" y1="372" y2="372"/><!--MD5=[8fa1330299a0d3e4f96733a257ecf07f]
class AsciiReportFormatter--><rect fill="#FEFECE" filter="url(#f1r9wsaxktlpwi)" height="48" id="AsciiReportFormatter" style="stroke: #A80036; stroke-width: 1.5;" width="164" x="505" y="332"/><ellipse cx="520" cy="348" fill="#ADD1B2" rx="11" ry="11" style="stroke: #A80036; stroke-width: 1.0;"/><path d="M522.9688,353.6406 Q522.3906,353.9375 521.75,354.0781 Q521.1094,354.2344 520.4063,354.2344 Q517.9063,354.2344 516.5781,352.5938 Q515.2656,350.9375 515.2656,347.8125 Q515.2656,344.6875 516.5781,343.0313 Q517.9063,341.375 520.4063,341.375 Q521.1094,341.375 521.75,341.5313 Q522.4063,341.6875 522.9688,341.9844 L522.9688,344.7031 Q522.3438,344.125 521.75,343.8594 Q521.1563,343.5781 520.5313,343.5781 Q519.1875,343.5781 518.5,344.6563 Q517.8125,345.7188 517.8125,347.8125 Q517.8125,349.9063 518.5,350.9844 Q519.1875,352.0469 520.5313,352.0469 Q521.1563,352.0469 521.75,351.7813 Q522.3438,351.5 522.9688,350.9219 L522.9688,353.6406 Z "/><text fill="#000000" font-family="sans-serif" font-size="12" lengthAdjust="spacingAndGlyphs" textLength="132" x="534" y="352.1543">AsciiReportFormatter</text><line style="stroke: #A80036; stroke-width: 1.5;" x1="506" x2="668" y1="364" y2="364"/><line style="stroke: #A80036; stroke-width: 1.5;" x1="506" x2="668" y1="372" y2="372"/><!--MD5=[b418544f4aa99a5c6482a121e29f8751]
class InvoiceCli--><rect fill="#FEFECE" filter="url(#f1r9wsaxktlpwi)" height="48" id="InvoiceCli" style="stroke: #A80036; stroke-width: 1.5;" width="89" x="275.5" y="116"/><ellipse cx="290.5" cy="132" fill="#ADD1B2" rx="11" ry="11" style="stroke: #A80036; stroke-width: 1.0;"/><path d="M293.4688,137.6406 Q292.8906,137.9375 292.25,138.0781 Q291.6094,138.2344 290.9063,138.2344 Q288.4063,138.2344 287.0781,136.5938 Q285.7656,134.9375 285.7656,131.8125 Q285.7656,128.6875 287.0781,127.0313 Q288.4063,125.375 290.9063,125.375 Q291.6094,125.375 292.25,125.5313 Q292.9063,125.6875 293.4688,125.9844 L293.4688,128.7031 Q292.8438,128.125 292.25,127.8594 Q291.6563,127.5781 291.0313,127.5781 Q289.6875,127.5781 289,128.6563 Q288.3125,129.7188 288.3125,131.8125 Q288.3125,133.9063 289,134.9844 Q289.6875,136.0469 291.0313,136.0469 Q291.6563,136.0469 292.25,135.7813 Q292.8438,135.5 293.4688,134.9219 L293.4688,137.6406 Z "/><text fill="#000000" font-family="sans-serif" font-size="12" lengthAdjust="spacingAndGlyphs" textLength="57" x="304.5" y="136.1543">InvoiceCli</text><line style="stroke: #A80036; stroke-width: 1.5;" x1="276.5" x2="363.5" y1="148" y2="148"/><line style="stroke: #A80036; stroke-width: 1.5;" x1="276.5" x2="363.5" y1="156" y2="156"/><!--MD5=[175f95e045c1a44aed0b30df3abe0e5c]
class Program--><rect fill="#FEFECE" filter="url(#f1r9wsaxktlpwi)" height="48" id="Program" style="stroke: #A80036; stroke-width: 1.5;" width="85" x="277.5" y="8"/><ellipse cx="292.5" cy="24" fill="#ADD1B2" rx="11" ry="11" style="stroke: #A80036; stroke-width: 1.0;"/><path d="M295.4688,29.6406 Q294.8906,29.9375 294.25,30.0781 Q293.6094,30.2344 292.9063,30.2344 Q290.4063,30.2344 289.0781,28.5938 Q287.7656,26.9375 287.7656,23.8125 Q287.7656,20.6875 289.0781,19.0313 Q290.4063,17.375 292.9063,17.375 Q293.6094,17.375 294.25,17.5313 Q294.9063,17.6875 295.4688,17.9844 L295.4688,20.7031 Q294.8438,20.125 294.25,19.8594 Q293.6563,19.5781 293.0313,19.5781 Q291.6875,19.5781 291,20.6563 Q290.3125,21.7188 290.3125,23.8125 Q290.3125,25.9063 291,26.9844 Q291.6875,28.0469 293.0313,28.0469 Q293.6563,28.0469 294.25,27.7813 Q294.8438,27.5 295.4688,26.9219 L295.4688,29.6406 Z "/><text fill="#000000" font-family="sans-serif" font-size="12" lengthAdjust="spacingAndGlyphs" textLength="53" x="306.5" y="28.1543">Program</text><line style="stroke: #A80036; stroke-width: 1.5;" x1="278.5" x2="361.5" y1="40" y2="40"/><line style="stroke: #A80036; stroke-width: 1.5;" x1="278.5" x2="361.5" y1="48" y2="48"/><!--MD5=[d820df7dc0c620a09126df6224a765f0]
reverse link IInvoiceValidator to InvoiceValidator--><path d="M74,292.02 C74,305.58 74,320.04 74,331.68 " fill="none" id="IInvoiceValidator&lt;-InvoiceValidator" style="stroke: #A80036; stroke-width: 1.0; stroke-dasharray: 7.0,7.0;"/><polygon fill="none" points="67,292,74,272,81,292,67,292" style="stroke: #A80036; stroke-width: 1.0;"/><!--MD5=[55095156fa4b4c4df1e3af3a1db4a8a7]
reverse link IInvoiceParser to InvoiceParser--><path d="M237,292.02 C237,305.58 237,320.04 237,331.68 " fill="none" id="IInvoiceParser&lt;-InvoiceParser" style="stroke: #A80036; stroke-width: 1.0; stroke-dasharray: 7.0,7.0;"/><polygon fill="none" points="230,292,237,272,244,292,230,292" style="stroke: #A80036; stroke-width: 1.0;"/><!--MD5=[b2f82cd3c9265fe5e57784e396909446]
reverse link IInvoiceCalculator to InvoiceCalculator--><path d="M402.19,292.02 C401.93,305.58 401.66,320.04 401.44,331.68 " fill="none" id="IInvoiceCalculator&lt;-InvoiceCalculator" style="stroke: #A80036; stroke-width: 1.0; stroke-dasharray: 7.0,7.0;"/><polygon fill="none" points="395.19,291.86,402.57,272,409.19,292.13,395.19,291.86" style="stroke: #A80036; stroke-width: 1.0;"/><!--MD5=[ce6d48978af1d41ca0830997149fa995]
reverse link IReportFormatter to AsciiReportFormatter--><path d="M584.62,292.02 C585.14,305.58 585.68,320.04 586.12,331.68 " fill="none" id="IReportFormatter&lt;-AsciiReportFormatter" style="stroke: #A80036; stroke-width: 1.0; stroke-dasharray: 7.0,7.0;"/><polygon fill="none" points="577.63,292.25,583.87,272,591.62,291.72,577.63,292.25" style="stroke: #A80036; stroke-width: 1.0;"/><!--MD5=[5b7e95dd552f8cb5fc70e87e600d5875]
link InvoiceCli to IInvoiceValidator--><path d="M275.45,160.2 C235.37,177.46 176.23,202.95 132.38,221.84 " fill="none" id="InvoiceCli-&gt;IInvoiceValidator" style="stroke: #A80036; stroke-width: 1.0;"/><polygon fill="#A80036" points="127.65,223.88,137.4981,224.0002,132.2435,221.9052,134.3385,216.6506,127.65,223.88" style="stroke: #A80036; stroke-width: 1.0;"/><!--MD5=[c3dd0f498fef26b5cbed172542ff6277]
link InvoiceCli to IInvoiceParser--><path d="M301.99,164 C289.24,180.28 272.09,202.19 258.61,219.41 " fill="none" id="InvoiceCli-&gt;IInvoiceParser" style="stroke: #A80036; stroke-width: 1.0;"/><polygon fill="#A80036" points="255.26,223.68,263.9649,219.073,258.3485,219.7479,257.6736,214.1315,255.26,223.68" style="stroke: #A80036; stroke-width: 1.0;"/><!--MD5=[d44cd0beea44b89e4a580c2fd6770eec]
link InvoiceCli to IInvoiceCalculator--><path d="M338.01,164 C350.76,180.28 367.91,202.19 381.39,219.41 " fill="none" id="InvoiceCli-&gt;IInvoiceCalculator" style="stroke: #A80036; stroke-width: 1.0;"/><polygon fill="#A80036" points="384.74,223.68,382.3264,214.1315,381.6515,219.7479,376.0351,219.073,384.74,223.68" style="stroke: #A80036; stroke-width: 1.0;"/><!--MD5=[c1197973d2e5c3a5148a9d301b5b9172]
link InvoiceCli to IReportFormatter--><path d="M364.61,158.98 C407.55,176.28 472.84,202.6 520.85,221.95 " fill="none" id="InvoiceCli-&gt;IReportFormatter" style="stroke: #A80036; stroke-width: 1.0;"/><polygon fill="#A80036" points="525.74,223.92,518.8768,216.8563,521.0996,222.0581,515.8978,224.2809,525.74,223.92" style="stroke: #A80036; stroke-width: 1.0;"/><!--MD5=[b31158ba7820d75658573168e5965ac7]
link Program to InvoiceCli--><path d="M320,56 C320,72 320,93.45 320,110.53 " fill="none" id="Program-&gt;InvoiceCli" style="stroke: #A80036; stroke-width: 1.0;"/><polygon fill="#A80036" points="320,115.68,324,106.68,320,110.68,316,106.68,320,115.68" style="stroke: #A80036; stroke-width: 1.0;"/><!--MD5=[f39650cb0bab3dd9da72875349057af8]
@startuml
interface IInvoiceValidator
interface IInvoiceParser
interface IInvoiceCalculator
interface IReportFormatter
class InvoiceValidator
class InvoiceParser
class InvoiceCalculator
class AsciiReportFormatter
class InvoiceCli
class Program

IInvoiceValidator <|.. InvoiceValidator
IInvoiceParser <|.. InvoiceParser
IInvoiceCalculator <|.. InvoiceCalculator
IReportFormatter <|.. AsciiReportFormatter
InvoiceCli - -> IInvoiceValidator
InvoiceCli - -> IInvoiceParser
InvoiceCli - -> IInvoiceCalculator
InvoiceCli - -> IReportFormatter
Program - -> InvoiceCli
@enduml

PlantUML version 1.2020.02(Sun Mar 01 06:22:07 BOT 2020)
(GPL source distribution)
Java Runtime: OpenJDK Runtime Environment
JVM: OpenJDK 64-Bit Server VM
Java Version: 21.0.7+6-Ubuntu-0ubuntu124.04
Operating System: Linux
Default Encoding: UTF-8
Language: en
Country: null
--></g></svg>