<?xml version="1.0" encoding="UTF-8" standalone="no"?><svg xmlns="http://www.w3.org/2000/svg" xmlns:xlink="http://www.w3.org/1999/xlink" contentScriptType="application/ecmascript" contentStyleType="text/css" height="300px" preserveAspectRatio="none" style="width:1128px;height:300px;" version="1.1" viewBox="0 0 1128 300" width="1128px" zoomAndPan="magnify"><defs><filter height="300%" id="f12tabm1hlp0py" width="300%" x="-1" y="-1"><feGaussianBlur result="blurOut" stdDeviation="2.0"/><feColorMatrix in="blurOut" result="blurOut2" type="matrix" values="0 0 0 0 0 0 0 0 0 0 0 0 0 0 0 0 0 0 .4 0"/><feOffset dx="4.0" dy="4.0" in="blurOut2" result="blurOut3"/><feBlend in="SourceGraphic" in2="blurOut3" mode="normal"/></filter></defs><g><!--MD5=[dbe892600e91f6ed19e45efdd3056fd4]
cluster NotificationApp--><polygon fill="#FFFFFF" filter="url(#f12tabm1hlp0py)" points="22,24,148,24,155,46.2969,861,46.2969,861,288,22,288,22,24" style="stroke: #000000; stroke-width: 1.5;"/><line style="stroke: #000000; stroke-width: 1.5;" x1="22" x2="155" y1="46.2969" y2="46.2969"/><text fill="#000000" font-family="sans-serif" font-size="14" font-weight="bold" lengthAdjust="spacingAndGlyphs" textLength="120" x="26" y="38.9951">NotificationApp</text><!--MD5=[619cced2bba638c8ef0ca5bee8827f65]
cluster NotificationApp.Interfaces--><polygon fill="#FFFFFF" filter="url(#f12tabm1hlp0py)" points="885,170,1096,170,1103,192.2969,1106,192.2969,1106,269,885,269,885,170" style="stroke: #000000; stroke-width: 1.5;"/><line style="stroke: #000000; stroke-width: 1.5;" x1="885" x2="1103" y1="192.2969" y2="192.2969"/><text fill="#000000" font-family="sans-serif" font-size="14" font-weight="bold" lengthAdjust="spacingAndGlyphs" textLength="205" x="889" y="184.9951">NotificationApp.Interfaces</text><!--MD5=[f7cfd16e4193b177764fb7ce127a666a]
class NotificationType--><rect fill="#FEFECE" filter="url(#f12tabm1hlp0py)" height="86.4141" id="NotificationType" style="stroke: #A80036; stroke-width: 1.5;" width="132" x="38" y="186"/><ellipse cx="53" cy="202" fill="#EB937F" rx="11" ry="11" style="stroke: #A80036; stroke-width: 1.0;"/><path d="M57.1094,208 L49.3906,208 L49.3906,195.6094 L57.1094,195.6094 L57.1094,197.7656 L51.8438,197.7656 L51.8438,200.4375 L56.6094,200.4375 L56.6094,202.5938 L51.8438,202.5938 L51.8438,205.8438 L57.1094,205.8438 L57.1094,208 Z "/><text fill="#000000" font-family="sans-serif" font-size="12" lengthAdjust="spacingAndGlyphs" textLength="100" x="67" y="206.1543">NotificationType</text><line style="stroke: #A80036; stroke-width: 1.5;" x1="39" x2="169" y1="218" y2="218"/><text fill="#000000" font-family="sans-serif" font-size="11" lengthAdjust="spacingAndGlyphs" textLength="31" x="44" y="232.2104">Email</text><text fill="#000000" font-family="sans-serif" font-size="11" lengthAdjust="spacingAndGlyphs" textLength="26" x="44" y="245.0151">Sms</text><text fill="#000000" font-family="sans-serif" font-size="11" lengthAdjust="spacingAndGlyphs" textLength="28" x="44" y="257.8198">Push</text><line style="stroke: #A80036; stroke-width: 1.5;" x1="39" x2="169" y1="264.4141" y2="264.4141"/><!--MD5=[1f0f4e2ed4de98ebb271b847a74507d6]
class IEmailSender--><rect fill="#FEFECE" filter="url(#f12tabm1hlp0py)" height="60.8047" id="IEmailSender" style="stroke: #A80036; stroke-width: 1.5;" width="189" x="205.5" y="198.5"/><ellipse cx="254.75" cy="214.5" fill="#B4A7E5" rx="11" ry="11" style="stroke: #A80036; stroke-width: 1.0;"/><path d="M250.6719,210.2656 L250.6719,208.1094 L258.0625,208.1094 L258.0625,210.2656 L255.5938,210.2656 L255.5938,218.3438 L258.0625,218.3438 L258.0625,220.5 L250.6719,220.5 L250.6719,218.3438 L253.1406,218.3438 L253.1406,210.2656 L250.6719,210.2656 Z "/><text fill="#000000" font-family="sans-serif" font-size="12" font-style="italic" lengthAdjust="spacingAndGlyphs" textLength="82" x="275.25" y="218.6543">IEmailSender</text><line style="stroke: #A80036; stroke-width: 1.5;" x1="206.5" x2="393.5" y1="230.5" y2="230.5"/><line style="stroke: #A80036; stroke-width: 1.5;" x1="206.5" x2="393.5" y1="238.5" y2="238.5"/><ellipse cx="216.5" cy="249.5" fill="#84BE84" rx="3" ry="3" style="stroke: #038048; stroke-width: 1.0;"/><text fill="#000000" font-family="sans-serif" font-size="11" lengthAdjust="spacingAndGlyphs" textLength="163" x="225.5" y="252.7104">SendEmail(to, subject, body)</text><!--MD5=[65d09847d4350614c8f538b1f9120dd7]
class ISmsSender--><rect fill="#FEFECE" filter="url(#f12tabm1hlp0py)" height="60.8047" id="ISmsSender" style="stroke: #A80036; stroke-width: 1.5;" width="129" x="429.5" y="198.5"/><ellipse cx="454.85" cy="214.5" fill="#B4A7E5" rx="11" ry="11" style="stroke: #A80036; stroke-width: 1.0;"/><path d="M450.7719,210.2656 L450.7719,208.1094 L458.1625,208.1094 L458.1625,210.2656 L455.6938,210.2656 L455.6938,218.3438 L458.1625,218.3438 L458.1625,220.5 L450.7719,220.5 L450.7719,218.3438 L453.2406,218.3438 L453.2406,210.2656 L450.7719,210.2656 Z "/><text fill="#000000" font-family="sans-serif" font-size="12" font-style="italic" lengthAdjust="spacingAndGlyphs" textLength="74" x="471.15" y="218.6543">ISmsSender</text><line style="stroke: #A80036; stroke-width: 1.5;" x1="430.5" x2="557.5" y1="230.5" y2="230.5"/><line style="stroke: #A80036; stroke-width: 1.5;" x1="430.5" x2="557.5" y1="238.5" y2="238.5"/><ellipse cx="440.5" cy="249.5" fill="#84BE84" rx="3" ry="3" style="stroke: #038048; stroke-width: 1.0;"/><text fill="#000000" font-family="sans-serif" font-size="11" lengthAdjust="spacingAndGlyphs" textLength="103" x="449.5" y="252.7104">SendSms(to, text)</text><!--MD5=[a4506adf70e4a6213c945d4c3e6252de]
class IPushSender--><rect fill="#FEFECE" filter="url(#f12tabm1hlp0py)" height="60.8047" id="IPushSender" style="stroke: #A80036; stroke-width: 1.5;" width="251" x="593.5" y="198.5"/><ellipse cx="675.75" cy="214.5" fill="#B4A7E5" rx="11" ry="11" style="stroke: #A80036; stroke-width: 1.0;"/><path d="M671.6719,210.2656 L671.6719,208.1094 L679.0625,208.1094 L679.0625,210.2656 L676.5938,210.2656 L676.5938,218.3438 L679.0625,218.3438 L679.0625,220.5 L671.6719,220.5 L671.6719,218.3438 L674.1406,218.3438 L674.1406,210.2656 L671.6719,210.2656 Z "/><text fill="#000000" font-family="sans-serif" font-size="12" font-style="italic" lengthAdjust="spacingAndGlyphs" textLength="78" x="696.25" y="218.6543">IPushSender</text><line style="stroke: #A80036; stroke-width: 1.5;" x1="594.5" x2="843.5" y1="230.5" y2="230.5"/><line style="stroke: #A80036; stroke-width: 1.5;" x1="594.5" x2="843.5" y1="238.5" y2="238.5"/><ellipse cx="604.5" cy="249.5" fill="#84BE84" rx="3" ry="3" style="stroke: #038048; stroke-width: 1.0;"/><text fill="#000000" font-family="sans-serif" font-size="11" lengthAdjust="spacingAndGlyphs" textLength="225" x="613.5" y="252.7104">SendPush(deviceToken, title, message)</text><!--MD5=[250d432bd3b805ddd7af008e566177c2]
class NotificationFacade--><rect fill="#FEFECE" filter="url(#f12tabm1hlp0py)" height="48" id="NotificationFacade" style="stroke: #A80036; stroke-width: 1.5;" width="149" x="531.5" y="59"/><ellipse cx="546.5" cy="75" fill="#ADD1B2" rx="11" ry="11" style="stroke: #A80036; stroke-width: 1.0;"/><path d="M549.4688,80.6406 Q548.8906,80.9375 548.25,81.0781 Q547.6094,81.2344 546.9063,81.2344 Q544.4063,81.2344 543.0781,79.5938 Q541.7656,77.9375 541.7656,74.8125 Q541.7656,71.6875 543.0781,70.0313 Q544.4063,68.375 546.9063,68.375 Q547.6094,68.375 548.25,68.5313 Q548.9063,68.6875 549.4688,68.9844 L549.4688,71.7031 Q548.8438,71.125 548.25,70.8594 Q547.6563,70.5781 547.0313,70.5781 Q545.6875,70.5781 545,71.6563 Q544.3125,72.7188 544.3125,74.8125 Q544.3125,76.9063 545,77.9844 Q545.6875,79.0469 547.0313,79.0469 Q547.6563,79.0469 548.25,78.7813 Q548.8438,78.5 549.4688,77.9219 L549.4688,80.6406 Z "/><text fill="#000000" font-family="sans-serif" font-size="12" lengthAdjust="spacingAndGlyphs" textLength="117" x="560.5" y="79.1543">NotificationFacade</text><line style="stroke: #A80036; stroke-width: 1.5;" x1="532.5" x2="679.5" y1="91" y2="91"/><line style="stroke: #A80036; stroke-width: 1.5;" x1="532.5" x2="679.5" y1="99" y2="99"/><!--MD5=[db38d0d26be906b7e049af228e11526f]
class OrderEvent--><rect fill="#FEFECE" filter="url(#f12tabm1hlp0py)" height="48" id="OrderEvent" style="stroke: #A80036; stroke-width: 1.5;" width="102" x="53" y="59"/><ellipse cx="68" cy="75" fill="#ADD1B2" rx="11" ry="11" style="stroke: #A80036; stroke-width: 1.0;"/><path d="M70.9688,80.6406 Q70.3906,80.9375 69.75,81.0781 Q69.1094,81.2344 68.4063,81.2344 Q65.9063,81.2344 64.5781,79.5938 Q63.2656,77.9375 63.2656,74.8125 Q63.2656,71.6875 64.5781,70.0313 Q65.9063,68.375 68.4063,68.375 Q69.1094,68.375 69.75,68.5313 Q70.4063,68.6875 70.9688,68.9844 L70.9688,71.7031 Q70.3438,71.125 69.75,70.8594 Q69.1563,70.5781 68.5313,70.5781 Q67.1875,70.5781 66.5,71.6563 Q65.8125,72.7188 65.8125,74.8125 Q65.8125,76.9063 66.5,77.9844 Q67.1875,79.0469 68.5313,79.0469 Q69.1563,79.0469 69.75,78.7813 Q70.3438,78.5 70.9688,77.9219 L70.9688,80.6406 Z "/><text fill="#000000" font-family="sans-serif" font-size="12" lengthAdjust="spacingAndGlyphs" textLength="70" x="82" y="79.1543">OrderEvent</text><line style="stroke: #A80036; stroke-width: 1.5;" x1="54" x2="154" y1="91" y2="91"/><line style="stroke: #A80036; stroke-width: 1.5;" x1="54" x2="154" y1="99" y2="99"/><!--MD5=[97b72b2ced68a5c6ae66f0d7abf12c9b]
class NotificationApp.Interfaces.INotificationFacade--><rect fill="#FEFECE" filter="url(#f12tabm1hlp0py)" height="48" id="NotificationApp.Interfaces.INotificationFacade" style="stroke: #A80036; stroke-width: 1.5;" width="152" x="901" y="205"/><ellipse cx="916" cy="221" fill="#ADD1B2" rx="11" ry="11" style="stroke: #A80036; stroke-width: 1.0;"/><path d="M918.9688,226.6406 Q918.3906,226.9375 917.75,227.0781 Q917.1094,227.2344 916.4063,227.2344 Q913.9063,227.2344 912.5781,225.5938 Q911.2656,223.9375 911.2656,220.8125 Q911.2656,217.6875 912.5781,216.0313 Q913.9063,214.375 916.4063,214.375 Q917.1094,214.375 917.75,214.5313 Q918.4063,214.6875 918.9688,214.9844 L918.9688,217.7031 Q918.3438,217.125 917.75,216.8594 Q917.1563,216.5781 916.5313,216.5781 Q915.1875,216.5781 914.5,217.6563 Q913.8125,218.7188 913.8125,220.8125 Q913.8125,222.9063 914.5,223.9844 Q915.1875,225.0469 916.5313,225.0469 Q917.1563,225.0469 917.75,224.7813 Q918.3438,224.5 918.9688,223.9219 L918.9688,226.6406 Z "/><text fill="#000000" font-family="sans-serif" font-size="12" lengthAdjust="spacingAndGlyphs" textLength="120" x="930" y="225.1543">INotificationFacade</text><line style="stroke: #A80036; stroke-width: 1.5;" x1="902" x2="1052" y1="237" y2="237"/><line style="stroke: #A80036; stroke-width: 1.5;" x1="902" x2="1052" y1="245" y2="245"/><!--MD5=[1af50b441ef7350d31fe53f89b1c1010]
link NotificationFacade to NotificationApp.Interfaces.INotificationFacade--><path d="M680.63,102.17 C732.31,115.87 802.12,136.61 861,162 C882.31,171.19 904.71,183.29 924.07,194.62 " fill="none" id="NotificationFacade-&gt;NotificationApp.Interfaces.INotificationFacade" style="stroke: #A80036; stroke-width: 1.0; stroke-dasharray: 7.0,7.0;"/><polygon fill="none" points="927.68,188.62,941.23,204.91,920.48,200.63,927.68,188.62" style="stroke: #A80036; stroke-width: 1.0;"/><!--MD5=[d17bf459e2e6fc0106f1361b754c1050]
link OrderEvent to NotificationType--><path d="M104,107.14 C104,126.88 104,155.9 104,180.56 " fill="none" id="OrderEvent-&gt;NotificationType" style="stroke: #A80036; stroke-width: 1.0;"/><polygon fill="#A80036" points="104,185.75,108,176.75,104,180.75,100,176.75,104,185.75" style="stroke: #A80036; stroke-width: 1.0;"/><text fill="#000000" font-family="sans-serif" font-size="13" lengthAdjust="spacingAndGlyphs" textLength="109" x="105" y="150.0669">NotificationTypes</text><!--MD5=[4a3d1bec79380941b01a25184380efe0]
link NotificationFacade to IEmailSender--><path d="M541.6,107.11 C503.33,121.52 454.18,141.24 412,162 C391.65,172.02 370.02,184.34 351.25,195.61 " fill="none" id="NotificationFacade-&gt;IEmailSender" style="stroke: #A80036; stroke-width: 1.0;"/><polygon fill="#A80036" points="346.54,198.45,356.3125,197.2256,350.8212,195.867,352.1797,190.3757,346.54,198.45" style="stroke: #A80036; stroke-width: 1.0;"/><!--MD5=[a551ef52f61d12e4afab123c06d57061]
link NotificationFacade to ISmsSender--><path d="M588.01,107.14 C569.69,130.68 541.11,167.43 520.27,194.22 " fill="none" id="NotificationFacade-&gt;ISmsSender" style="stroke: #A80036; stroke-width: 1.0;"/><polygon fill="#A80036" points="516.99,198.44,525.6682,193.7829,520.0558,194.4902,519.3485,188.8777,516.99,198.44" style="stroke: #A80036; stroke-width: 1.0;"/><!--MD5=[1fa8f32eb76c26bc7d7915a0a1536830]
link NotificationFacade to IPushSender--><path d="M624.16,107.14 C642.63,130.68 671.47,167.43 692.5,194.22 " fill="none" id="NotificationFacade-&gt;IPushSender" style="stroke: #A80036; stroke-width: 1.0;"/><polygon fill="#A80036" points="695.8,198.44,693.3864,188.8915,692.7115,194.5079,687.0951,193.833,695.8,198.44" style="stroke: #A80036; stroke-width: 1.0;"/><!--MD5=[edead8941035bab1ce476371e3e7c9da]
@startuml
package NotificationApp {
    enum NotificationType {
        Email
        Sms
        Push
    }
    interface IEmailSender {
        +SendEmail(to, subject, body)
    }
    interface ISmsSender {
        +SendSms(to, text)
    }
    interface IPushSender {
        +SendPush(deviceToken, title, message)
    }
    class NotificationFacade
    class OrderEvent

    NotificationFacade ..|> NotificationApp.Interfaces.INotificationFacade
    OrderEvent - -> NotificationType : NotificationTypes
    NotificationFacade - -> IEmailSender
    NotificationFacade - -> ISmsSender
    NotificationFacade - -> IPushSender
}
@enduml

PlantUML version 1.2020.02(Sun Mar 01 06:22:07 AMT 2020)
(GPL source distribution)
Java Runtime: OpenJDK Runtime Environment
JVM: OpenJDK 64-Bit Server VM
Java Version: 21.0.7+6-LTS
Operating System: Linux
Default Encoding: UTF-8
Language: en
Country: null
--></g></svg>