<?xml version="1.0" encoding="UTF-8" standalone="no"?><svg xmlns="http://www.w3.org/2000/svg" xmlns:xlink="http://www.w3.org/1999/xlink" contentScriptType="application/ecmascript" contentStyleType="text/css" height="709px" preserveAspectRatio="none" style="width:1344px;height:709px;" version="1.1" viewBox="0 0 1344 709" width="1344px" zoomAndPan="magnify"><defs><filter height="300%" id="ftgh3mda1d923" width="300%" x="-1" y="-1"><feGaussianBlur result="blurOut" stdDeviation="2.0"/><feColorMatrix in="blurOut" result="blurOut2" type="matrix" values="0 0 0 0 0 0 0 0 0 0 0 0 0 0 0 0 0 0 .4 0"/><feOffset dx="4.0" dy="4.0" in="blurOut2" result="blurOut3"/><feBlend in="SourceGraphic" in2="blurOut3" mode="normal"/></filter></defs><g><!--MD5=[d39d75d20503768f828654fc47e3a2bb]
cluster CLI--><polygon fill="#FFFFFF" filter="url(#ftgh3mda1d923)" points="633,24,663,24,670,46.2969,817,46.2969,817,282,633,282,633,24" style="stroke: #000000; stroke-width: 1.5;"/><line style="stroke: #000000; stroke-width: 1.5;" x1="633" x2="670" y1="46.2969" y2="46.2969"/><text fill="#000000" font-family="sans-serif" font-size="14" font-weight="bold" lengthAdjust="spacingAndGlyphs" textLength="24" x="637" y="38.9951">CLI</text><!--MD5=[d64883541e3d62e3241c4d12decf100d]
cluster Application--><polygon fill="#FFFFFF" filter="url(#ftgh3mda1d923)" points="22,306,115,306,122,328.2969,348,328.2969,348,697,22,697,22,306" style="stroke: #000000; stroke-width: 1.5;"/><line style="stroke: #000000; stroke-width: 1.5;" x1="22" x2="122" y1="328.2969" y2="328.2969"/><text fill="#000000" font-family="sans-serif" font-size="14" font-weight="bold" lengthAdjust="spacingAndGlyphs" textLength="87" x="26" y="320.9951">Application</text><!--MD5=[9ddaf8ee8bcae11a9a9232f969198262]
cluster Infrastructure--><polygon fill="#FFFFFF" filter="url(#ftgh3mda1d923)" points="1084,318.5,1200,318.5,1207,340.7969,1322,340.7969,1322,570,1084,570,1084,318.5" style="stroke: #000000; stroke-width: 1.5;"/><line style="stroke: #000000; stroke-width: 1.5;" x1="1084" x2="1207" y1="340.7969" y2="340.7969"/><text fill="#000000" font-family="sans-serif" font-size="14" font-weight="bold" lengthAdjust="spacingAndGlyphs" textLength="110" x="1088" y="333.4951">Infrastructure</text><!--MD5=[121a8bf1197281ab89ed693fab589f94]
cluster Domain--><polygon fill="#FFFFFF" filter="url(#ftgh3mda1d923)" points="372,452,436,452,443,474.2969,1060,474.2969,1060,697,372,697,372,452" style="stroke: #000000; stroke-width: 1.5;"/><line style="stroke: #000000; stroke-width: 1.5;" x1="372" x2="443" y1="474.2969" y2="474.2969"/><text fill="#000000" font-family="sans-serif" font-size="14" font-weight="bold" lengthAdjust="spacingAndGlyphs" textLength="58" x="376" y="466.9951">Domain</text><!--MD5=[175f95e045c1a44aed0b30df3abe0e5c]
class Program--><rect fill="#FEFECE" filter="url(#ftgh3mda1d923)" height="60.8047" id="Program" style="stroke: #A80036; stroke-width: 1.5;" width="126" x="662" y="59"/><ellipse cx="695.45" cy="75" fill="#ADD1B2" rx="11" ry="11" style="stroke: #A80036; stroke-width: 1.0;"/><path d="M698.4188,80.6406 Q697.8406,80.9375 697.2,81.0781 Q696.5594,81.2344 695.8563,81.2344 Q693.3563,81.2344 692.0281,79.5938 Q690.7156,77.9375 690.7156,74.8125 Q690.7156,71.6875 692.0281,70.0313 Q693.3563,68.375 695.8563,68.375 Q696.5594,68.375 697.2,68.5313 Q697.8563,68.6875 698.4188,68.9844 L698.4188,71.7031 Q697.7938,71.125 697.2,70.8594 Q696.6063,70.5781 695.9813,70.5781 Q694.6375,70.5781 693.95,71.6563 Q693.2625,72.7188 693.2625,74.8125 Q693.2625,76.9063 693.95,77.9844 Q694.6375,79.0469 695.9813,79.0469 Q696.6063,79.0469 697.2,78.7813 Q697.7938,78.5 698.4188,77.9219 L698.4188,80.6406 Z "/><text fill="#000000" font-family="sans-serif" font-size="12" lengthAdjust="spacingAndGlyphs" textLength="53" x="713.55" y="79.1543">Program</text><line style="stroke: #A80036; stroke-width: 1.5;" x1="663" x2="787" y1="91" y2="91"/><line style="stroke: #A80036; stroke-width: 1.5;" x1="663" x2="787" y1="99" y2="99"/><text fill="#000000" font-family="sans-serif" font-size="11" lengthAdjust="spacingAndGlyphs" textLength="114" x="668" y="113.2104">+Main(string[] args)</text><!--MD5=[fcee19ed469fc7aa31583d8424ca28f1]
class CartRunner--><rect fill="#FEFECE" filter="url(#ftgh3mda1d923)" height="86.4141" id="CartRunner" style="stroke: #A80036; stroke-width: 1.5;" width="152" x="649" y="180"/><ellipse cx="686.05" cy="196" fill="#ADD1B2" rx="11" ry="11" style="stroke: #A80036; stroke-width: 1.0;"/><path d="M689.0188,201.6406 Q688.4406,201.9375 687.8,202.0781 Q687.1594,202.2344 686.4563,202.2344 Q683.9563,202.2344 682.6281,200.5938 Q681.3156,198.9375 681.3156,195.8125 Q681.3156,192.6875 682.6281,191.0313 Q683.9563,189.375 686.4563,189.375 Q687.1594,189.375 687.8,189.5313 Q688.4563,189.6875 689.0188,189.9844 L689.0188,192.7031 Q688.3938,192.125 687.8,191.8594 Q687.2063,191.5781 686.5813,191.5781 Q685.2375,191.5781 684.55,192.6563 Q683.8625,193.7188 683.8625,195.8125 Q683.8625,197.9063 684.55,198.9844 Q685.2375,200.0469 686.5813,200.0469 Q687.2063,200.0469 687.8,199.7813 Q688.3938,199.5 689.0188,198.9219 L689.0188,201.6406 Z "/><text fill="#000000" font-family="sans-serif" font-size="12" lengthAdjust="spacingAndGlyphs" textLength="71" x="704.95" y="200.1543">CartRunner</text><line style="stroke: #A80036; stroke-width: 1.5;" x1="650" x2="800" y1="212" y2="212"/><text fill="#000000" font-family="sans-serif" font-size="11" lengthAdjust="spacingAndGlyphs" textLength="107" x="655" y="226.2104">-ShoppingCart cart</text><text fill="#000000" font-family="sans-serif" font-size="11" lengthAdjust="spacingAndGlyphs" textLength="140" x="655" y="239.0151">-IProductRepository repo</text><line style="stroke: #A80036; stroke-width: 1.5;" x1="650" x2="800" y1="245.6094" y2="245.6094"/><text fill="#000000" font-family="sans-serif" font-size="11" lengthAdjust="spacingAndGlyphs" textLength="109" x="655" y="259.8198">+Run(string[] args)</text><!--MD5=[19bf24ffd4172a436ee350ba693145c5]
class Application.ShoppingCart--><rect fill="#FEFECE" filter="url(#ftgh3mda1d923)" height="86.4141" id="Application.ShoppingCart" style="stroke: #A80036; stroke-width: 1.5;" width="143" x="188.5" y="341"/><ellipse cx="215.2" cy="357" fill="#ADD1B2" rx="11" ry="11" style="stroke: #A80036; stroke-width: 1.0;"/><path d="M218.1688,362.6406 Q217.5906,362.9375 216.95,363.0781 Q216.3094,363.2344 215.6063,363.2344 Q213.1063,363.2344 211.7781,361.5938 Q210.4656,359.9375 210.4656,356.8125 Q210.4656,353.6875 211.7781,352.0313 Q213.1063,350.375 215.6063,350.375 Q216.3094,350.375 216.95,350.5313 Q217.6063,350.6875 218.1688,350.9844 L218.1688,353.7031 Q217.5438,353.125 216.95,352.8594 Q216.3563,352.5781 215.7313,352.5781 Q214.3875,352.5781 213.7,353.6563 Q213.0125,354.7188 213.0125,356.8125 Q213.0125,358.9063 213.7,359.9844 Q214.3875,361.0469 215.7313,361.0469 Q216.3563,361.0469 216.95,360.7813 Q217.5438,360.5 218.1688,359.9219 L218.1688,362.6406 Z "/><text fill="#000000" font-family="sans-serif" font-size="12" lengthAdjust="spacingAndGlyphs" textLength="85" x="231.8" y="361.1543">ShoppingCart</text><line style="stroke: #A80036; stroke-width: 1.5;" x1="189.5" x2="330.5" y1="373" y2="373"/><line style="stroke: #A80036; stroke-width: 1.5;" x1="189.5" x2="330.5" y1="381" y2="381"/><text fill="#000000" font-family="sans-serif" font-size="11" lengthAdjust="spacingAndGlyphs" textLength="131" x="194.5" y="395.2104">+AddItem(IProduct, int)</text><text fill="#000000" font-family="sans-serif" font-size="11" lengthAdjust="spacingAndGlyphs" textLength="82" x="194.5" y="408.0151">+DisplayCart()</text><text fill="#000000" font-family="sans-serif" font-size="11" lengthAdjust="spacingAndGlyphs" textLength="69" x="194.5" y="420.8198">+Checkout()</text><!--MD5=[1e88049824ee0ca6a9e1d4f4c366115f]
class Application.ICartProcessor--><rect fill="#FEFECE" filter="url(#ftgh3mda1d923)" height="60.8047" id="Application.ICartProcessor" style="stroke: #A80036; stroke-width: 1.5;" width="294" x="38" y="499.5"/><ellipse cx="135.75" cy="515.5" fill="#B4A7E5" rx="11" ry="11" style="stroke: #A80036; stroke-width: 1.0;"/><path d="M131.6719,511.2656 L131.6719,509.1094 L139.0625,509.1094 L139.0625,511.2656 L136.5938,511.2656 L136.5938,519.3438 L139.0625,519.3438 L139.0625,521.5 L131.6719,521.5 L131.6719,519.3438 L134.1406,519.3438 L134.1406,511.2656 L131.6719,511.2656 Z "/><text fill="#000000" font-family="sans-serif" font-size="12" font-style="italic" lengthAdjust="spacingAndGlyphs" textLength="90" x="156.25" y="519.6543">ICartProcessor</text><line style="stroke: #A80036; stroke-width: 1.5;" x1="39" x2="331" y1="531.5" y2="531.5"/><line style="stroke: #A80036; stroke-width: 1.5;" x1="39" x2="331" y1="539.5" y2="539.5"/><text fill="#000000" font-family="sans-serif" font-size="11" lengthAdjust="spacingAndGlyphs" textLength="282" x="44" y="553.7104">+Process(items: IEnumerable&lt;ProductQuantity&gt;)</text><!--MD5=[bf6c0daec83b1d83903aefd3c129a1a3]
class Application.ConsoleCartProcessor--><rect fill="#FEFECE" filter="url(#ftgh3mda1d923)" height="48" id="Application.ConsoleCartProcessor" style="stroke: #A80036; stroke-width: 1.5;" width="171" x="99.5" y="633"/><ellipse cx="114.5" cy="649" fill="#ADD1B2" rx="11" ry="11" style="stroke: #A80036; stroke-width: 1.0;"/><path d="M117.4688,654.6406 Q116.8906,654.9375 116.25,655.0781 Q115.6094,655.2344 114.9063,655.2344 Q112.4063,655.2344 111.0781,653.5938 Q109.7656,651.9375 109.7656,648.8125 Q109.7656,645.6875 111.0781,644.0313 Q112.4063,642.375 114.9063,642.375 Q115.6094,642.375 116.25,642.5313 Q116.9063,642.6875 117.4688,642.9844 L117.4688,645.7031 Q116.8438,645.125 116.25,644.8594 Q115.6563,644.5781 115.0313,644.5781 Q113.6875,644.5781 113,645.6563 Q112.3125,646.7188 112.3125,648.8125 Q112.3125,650.9063 113,651.9844 Q113.6875,653.0469 115.0313,653.0469 Q115.6563,653.0469 116.25,652.7813 Q116.8438,652.5 117.4688,651.9219 L117.4688,654.6406 Z "/><text fill="#000000" font-family="sans-serif" font-size="12" lengthAdjust="spacingAndGlyphs" textLength="139" x="128.5" y="653.1543">ConsoleCartProcessor</text><line style="stroke: #A80036; stroke-width: 1.5;" x1="100.5" x2="269.5" y1="665" y2="665"/><line style="stroke: #A80036; stroke-width: 1.5;" x1="100.5" x2="269.5" y1="673" y2="673"/><!--MD5=[eeff1dd663d9d3072c605827e18f05ac]
class Infrastructure.IProductRepository--><rect fill="#FEFECE" filter="url(#ftgh3mda1d923)" height="60.8047" id="Infrastructure.IProductRepository" style="stroke: #A80036; stroke-width: 1.5;" width="179" x="1106.5" y="353.5"/><ellipse cx="1134.55" cy="369.5" fill="#B4A7E5" rx="11" ry="11" style="stroke: #A80036; stroke-width: 1.0;"/><path d="M1130.4719,365.2656 L1130.4719,363.1094 L1137.8625,363.1094 L1137.8625,365.2656 L1135.3938,365.2656 L1135.3938,373.3438 L1137.8625,373.3438 L1137.8625,375.5 L1130.4719,375.5 L1130.4719,373.3438 L1132.9406,373.3438 L1132.9406,365.2656 L1130.4719,365.2656 Z "/><text fill="#000000" font-family="sans-serif" font-size="12" font-style="italic" lengthAdjust="spacingAndGlyphs" textLength="118" x="1151.45" y="373.6543">IProductRepository</text><line style="stroke: #A80036; stroke-width: 1.5;" x1="1107.5" x2="1284.5" y1="385.5" y2="385.5"/><line style="stroke: #A80036; stroke-width: 1.5;" x1="1107.5" x2="1284.5" y1="393.5" y2="393.5"/><text fill="#000000" font-family="sans-serif" font-size="11" lengthAdjust="spacingAndGlyphs" textLength="167" x="1112.5" y="407.7104">+GetProduct(string): IProduct</text><!--MD5=[398d286b3cabc9debf564ea4a45565f6]
class Infrastructure.InMemoryProductRepository--><rect fill="#FEFECE" filter="url(#ftgh3mda1d923)" height="48" id="Infrastructure.InMemoryProductRepository" style="stroke: #A80036; stroke-width: 1.5;" width="206" x="1100" y="506"/><ellipse cx="1115" cy="522" fill="#ADD1B2" rx="11" ry="11" style="stroke: #A80036; stroke-width: 1.0;"/><path d="M1117.9688,527.6406 Q1117.3906,527.9375 1116.75,528.0781 Q1116.1094,528.2344 1115.4063,528.2344 Q1112.9063,528.2344 1111.5781,526.5938 Q1110.2656,524.9375 1110.2656,521.8125 Q1110.2656,518.6875 1111.5781,517.0313 Q1112.9063,515.375 1115.4063,515.375 Q1116.1094,515.375 1116.75,515.5313 Q1117.4063,515.6875 1117.9688,515.9844 L1117.9688,518.7031 Q1117.3438,518.125 1116.75,517.8594 Q1116.1563,517.5781 1115.5313,517.5781 Q1114.1875,517.5781 1113.5,518.6563 Q1112.8125,519.7188 1112.8125,521.8125 Q1112.8125,523.9063 1113.5,524.9844 Q1114.1875,526.0469 1115.5313,526.0469 Q1116.1563,526.0469 1116.75,525.7813 Q1117.3438,525.5 1117.9688,524.9219 L1117.9688,527.6406 Z "/><text fill="#000000" font-family="sans-serif" font-size="12" lengthAdjust="spacingAndGlyphs" textLength="174" x="1129" y="526.1543">InMemoryProductRepository</text><line style="stroke: #A80036; stroke-width: 1.5;" x1="1101" x2="1305" y1="538" y2="538"/><line style="stroke: #A80036; stroke-width: 1.5;" x1="1101" x2="1305" y1="546" y2="546"/><!--MD5=[b23d6049b18cd4697a78883dbc7fdd9e]
class Domain.ProductQuantity--><rect fill="#FEFECE" filter="url(#ftgh3mda1d923)" height="73.6094" id="Domain.ProductQuantity" style="stroke: #A80036; stroke-width: 1.5;" width="133" x="910.5" y="493"/><ellipse cx="925.5" cy="509" fill="#ADD1B2" rx="11" ry="11" style="stroke: #A80036; stroke-width: 1.0;"/><path d="M928.4688,514.6406 Q927.8906,514.9375 927.25,515.0781 Q926.6094,515.2344 925.9063,515.2344 Q923.4063,515.2344 922.0781,513.5938 Q920.7656,511.9375 920.7656,508.8125 Q920.7656,505.6875 922.0781,504.0313 Q923.4063,502.375 925.9063,502.375 Q926.6094,502.375 927.25,502.5313 Q927.9063,502.6875 928.4688,502.9844 L928.4688,505.7031 Q927.8438,505.125 927.25,504.8594 Q926.6563,504.5781 926.0313,504.5781 Q924.6875,504.5781 924,505.6563 Q923.3125,506.7188 923.3125,508.8125 Q923.3125,510.9063 924,511.9844 Q924.6875,513.0469 926.0313,513.0469 Q926.6563,513.0469 927.25,512.7813 Q927.8438,512.5 928.4688,511.9219 L928.4688,514.6406 Z "/><text fill="#000000" font-family="sans-serif" font-size="12" lengthAdjust="spacingAndGlyphs" textLength="101" x="939.5" y="513.1543">ProductQuantity</text><line style="stroke: #A80036; stroke-width: 1.5;" x1="911.5" x2="1042.5" y1="525" y2="525"/><text fill="#000000" font-family="sans-serif" font-size="11" lengthAdjust="spacingAndGlyphs" textLength="106" x="916.5" y="539.2104">+Product: IProduct</text><text fill="#000000" font-family="sans-serif" font-size="11" lengthAdjust="spacingAndGlyphs" textLength="78" x="916.5" y="552.0151">+Quantity: int</text><line style="stroke: #A80036; stroke-width: 1.5;" x1="911.5" x2="1042.5" y1="558.6094" y2="558.6094"/><!--MD5=[39ec1dde5a6f9b964dfad3cb00d424ba]
class Domain.IProduct--><rect fill="#FEFECE" filter="url(#ftgh3mda1d923)" height="73.6094" id="Domain.IProduct" style="stroke: #A80036; stroke-width: 1.5;" width="101" x="556.5" y="493"/><ellipse cx="579.15" cy="509" fill="#B4A7E5" rx="11" ry="11" style="stroke: #A80036; stroke-width: 1.0;"/><path d="M575.0719,504.7656 L575.0719,502.6094 L582.4625,502.6094 L582.4625,504.7656 L579.9938,504.7656 L579.9938,512.8438 L582.4625,512.8438 L582.4625,515 L575.0719,515 L575.0719,512.8438 L577.5406,512.8438 L577.5406,504.7656 L575.0719,504.7656 Z "/><text fill="#000000" font-family="sans-serif" font-size="12" font-style="italic" lengthAdjust="spacingAndGlyphs" textLength="52" x="594.85" y="513.1543">IProduct</text><line style="stroke: #A80036; stroke-width: 1.5;" x1="557.5" x2="656.5" y1="525" y2="525"/><text fill="#000000" font-family="sans-serif" font-size="11" lengthAdjust="spacingAndGlyphs" textLength="83" x="562.5" y="539.2104">+Name: string</text><text fill="#000000" font-family="sans-serif" font-size="11" lengthAdjust="spacingAndGlyphs" textLength="89" x="562.5" y="552.0151">+Price: decimal</text><line style="stroke: #A80036; stroke-width: 1.5;" x1="557.5" x2="656.5" y1="558.6094" y2="558.6094"/><!--MD5=[1e380d7f048acd432dae9b1d4e178235]
class Domain.IShippable--><rect fill="#FEFECE" filter="url(#ftgh3mda1d923)" height="86.4141" id="Domain.IShippable" style="stroke: #A80036; stroke-width: 1.5;" width="182" x="693" y="487"/><ellipse cx="746.75" cy="503" fill="#B4A7E5" rx="11" ry="11" style="stroke: #A80036; stroke-width: 1.0;"/><path d="M742.6719,498.7656 L742.6719,496.6094 L750.0625,496.6094 L750.0625,498.7656 L747.5938,498.7656 L747.5938,506.8438 L750.0625,506.8438 L750.0625,509 L742.6719,509 L742.6719,506.8438 L745.1406,506.8438 L745.1406,498.7656 L742.6719,498.7656 Z "/><text fill="#000000" font-family="sans-serif" font-size="12" font-style="italic" lengthAdjust="spacingAndGlyphs" textLength="66" x="767.25" y="507.1543">IShippable</text><line style="stroke: #A80036; stroke-width: 1.5;" x1="694" x2="874" y1="519" y2="519"/><text fill="#000000" font-family="sans-serif" font-size="11" lengthAdjust="spacingAndGlyphs" textLength="98" x="699" y="533.2104">+Weight: decimal</text><line style="stroke: #A80036; stroke-width: 1.5;" x1="694" x2="874" y1="539.8047" y2="539.8047"/><text fill="#000000" font-family="sans-serif" font-size="11" lengthAdjust="spacingAndGlyphs" textLength="170" x="699" y="554.0151">+CalculateShipping(): decimal</text><text fill="#000000" font-family="sans-serif" font-size="11" lengthAdjust="spacingAndGlyphs" textLength="73" x="699" y="566.8198">+Ship(): void</text><!--MD5=[09895429f4b21ce50e45a968f6e17eb5]
class Domain.IDownloadable--><rect fill="#FEFECE" filter="url(#ftgh3mda1d923)" height="73.6094" id="Domain.IDownloadable" style="stroke: #A80036; stroke-width: 1.5;" width="133" x="388.5" y="493"/><ellipse cx="407.1" cy="509" fill="#B4A7E5" rx="11" ry="11" style="stroke: #A80036; stroke-width: 1.0;"/><path d="M403.0219,504.7656 L403.0219,502.6094 L410.4125,502.6094 L410.4125,504.7656 L407.9438,504.7656 L407.9438,512.8438 L410.4125,512.8438 L410.4125,515 L403.0219,515 L403.0219,512.8438 L405.4906,512.8438 L405.4906,504.7656 L403.0219,504.7656 Z "/><text fill="#000000" font-family="sans-serif" font-size="12" font-style="italic" lengthAdjust="spacingAndGlyphs" textLength="93" x="421.9" y="513.1543">IDownloadable</text><line style="stroke: #A80036; stroke-width: 1.5;" x1="389.5" x2="520.5" y1="525" y2="525"/><text fill="#000000" font-family="sans-serif" font-size="11" lengthAdjust="spacingAndGlyphs" textLength="121" x="394.5" y="539.2104">+DownloadUrl: string</text><line style="stroke: #A80036; stroke-width: 1.5;" x1="389.5" x2="520.5" y1="545.8047" y2="545.8047"/><text fill="#000000" font-family="sans-serif" font-size="11" lengthAdjust="spacingAndGlyphs" textLength="103" x="394.5" y="560.0151">+Download(): void</text><!--MD5=[e08ebde9ecd33d0b4a918eedd67f0370]
class Domain.PhysicalProduct--><rect fill="#FEFECE" filter="url(#ftgh3mda1d923)" height="48" id="Domain.PhysicalProduct" style="stroke: #A80036; stroke-width: 1.5;" width="131" x="676.5" y="633"/><ellipse cx="691.5" cy="649" fill="#ADD1B2" rx="11" ry="11" style="stroke: #A80036; stroke-width: 1.0;"/><path d="M694.4688,654.6406 Q693.8906,654.9375 693.25,655.0781 Q692.6094,655.2344 691.9063,655.2344 Q689.4063,655.2344 688.0781,653.5938 Q686.7656,651.9375 686.7656,648.8125 Q686.7656,645.6875 688.0781,644.0313 Q689.4063,642.375 691.9063,642.375 Q692.6094,642.375 693.25,642.5313 Q693.9063,642.6875 694.4688,642.9844 L694.4688,645.7031 Q693.8438,645.125 693.25,644.8594 Q692.6563,644.5781 692.0313,644.5781 Q690.6875,644.5781 690,645.6563 Q689.3125,646.7188 689.3125,648.8125 Q689.3125,650.9063 690,651.9844 Q690.6875,653.0469 692.0313,653.0469 Q692.6563,653.0469 693.25,652.7813 Q693.8438,652.5 694.4688,651.9219 L694.4688,654.6406 Z "/><text fill="#000000" font-family="sans-serif" font-size="12" lengthAdjust="spacingAndGlyphs" textLength="99" x="705.5" y="653.1543">PhysicalProduct</text><line style="stroke: #A80036; stroke-width: 1.5;" x1="677.5" x2="806.5" y1="665" y2="665"/><line style="stroke: #A80036; stroke-width: 1.5;" x1="677.5" x2="806.5" y1="673" y2="673"/><!--MD5=[e84a7311611301def7974e650ad67b58]
class Domain.DigitalProduct--><rect fill="#FEFECE" filter="url(#ftgh3mda1d923)" height="48" id="Domain.DigitalProduct" style="stroke: #A80036; stroke-width: 1.5;" width="120" x="437" y="633"/><ellipse cx="452" cy="649" fill="#ADD1B2" rx="11" ry="11" style="stroke: #A80036; stroke-width: 1.0;"/><path d="M454.9688,654.6406 Q454.3906,654.9375 453.75,655.0781 Q453.1094,655.2344 452.4063,655.2344 Q449.9063,655.2344 448.5781,653.5938 Q447.2656,651.9375 447.2656,648.8125 Q447.2656,645.6875 448.5781,644.0313 Q449.9063,642.375 452.4063,642.375 Q453.1094,642.375 453.75,642.5313 Q454.4063,642.6875 454.9688,642.9844 L454.9688,645.7031 Q454.3438,645.125 453.75,644.8594 Q453.1563,644.5781 452.5313,644.5781 Q451.1875,644.5781 450.5,645.6563 Q449.8125,646.7188 449.8125,648.8125 Q449.8125,650.9063 450.5,651.9844 Q451.1875,653.0469 452.5313,653.0469 Q453.1563,653.0469 453.75,652.7813 Q454.3438,652.5 454.9688,651.9219 L454.9688,654.6406 Z "/><text fill="#000000" font-family="sans-serif" font-size="12" lengthAdjust="spacingAndGlyphs" textLength="88" x="466" y="653.1543">DigitalProduct</text><line style="stroke: #A80036; stroke-width: 1.5;" x1="438" x2="556" y1="665" y2="665"/><line style="stroke: #A80036; stroke-width: 1.5;" x1="438" x2="556" y1="673" y2="673"/><!--MD5=[e88fa769a782222de4a9799a44089783]
link Program to CartRunner--><path d="M725,120.13 C725,120.13 725,174.87 725,174.87 " fill="none" id="Program-&gt;CartRunner" style="stroke: #A80036; stroke-width: 1.0;"/><polygon fill="#A80036" points="725,179.87,729,170.87,725,174.87,721,170.87,725,179.87" style="stroke: #A80036; stroke-width: 1.0;"/><!--MD5=[180ee72e42f84c8b52ddbe7cdd64947d]
link CartRunner to Application.ShoppingCart--><path d="M653.25,266.02 C653.25,302.18 653.25,348 653.25,348 C653.25,348 336.67,348 336.67,348 " fill="none" id="CartRunner-&gt;Application.ShoppingCart" style="stroke: #A80036; stroke-width: 1.0;"/><polygon fill="#A80036" points="331.67,348,340.67,352,336.67,348,340.67,344,331.67,348" style="stroke: #A80036; stroke-width: 1.0;"/><!--MD5=[ae45681508ce2aae2ef8ffc2fa0eb6a1]
link CartRunner to Infrastructure.IProductRepository--><path d="M747,266.15 C747,313.84 747,384 747,384 C747,384 1101.49,384 1101.49,384 " fill="none" id="CartRunner-&gt;Infrastructure.IProductRepository" style="stroke: #A80036; stroke-width: 1.0;"/><polygon fill="#A80036" points="1106.49,384,1097.49,380,1101.49,384,1097.49,388,1106.49,384" style="stroke: #A80036; stroke-width: 1.0;"/><!--MD5=[43c797de9afa5f43eeca63e273112d0a]
reverse link Application.ICartProcessor to Application.ConsoleCartProcessor--><path d="M185,580.74 C185,580.74 185,632.89 185,632.89 " fill="none" id="Application.ICartProcessor&lt;-Application.ConsoleCartProcessor" style="stroke: #A80036; stroke-width: 1.0; stroke-dasharray: 7.0,7.0;"/><polygon fill="none" points="178,580.74,185,560.74,192,580.74,178,580.74" style="stroke: #A80036; stroke-width: 1.0;"/><!--MD5=[e0ff937ffa475713cde03b3fe847ad07]
link Application.ShoppingCart to Domain.ProductQuantity--><path d="M331.7,421 C513.29,421 977,421 977,421 C977,421 977,487.79 977,487.79 " fill="none" id="Application.ShoppingCart-&gt;Domain.ProductQuantity" style="stroke: #A80036; stroke-width: 1.0;"/><polygon fill="#A80036" points="977,492.79,981,483.79,977,487.79,973,483.79,977,492.79" style="stroke: #A80036; stroke-width: 1.0;"/><!--MD5=[12c29a52e8e3e1d92ef1e19b421c10b6]
link Application.ShoppingCart to Application.ICartProcessor--><path d="M260,427.02 C260,427.02 260,494.33 260,494.33 " fill="none" id="Application.ShoppingCart-&gt;Application.ICartProcessor" style="stroke: #A80036; stroke-width: 1.0;"/><polygon fill="#A80036" points="260,499.33,264,490.33,260,494.33,256,490.33,260,499.33" style="stroke: #A80036; stroke-width: 1.0;"/><!--MD5=[2da298b4e6c34f1dcdd7e479ecb994d1]
reverse link Domain.IProduct to Domain.PhysicalProduct--><path d="M677.56,530 C677.56,530 684.75,530 684.75,530 C684.75,530 684.75,595.97 684.75,632.81 " fill="none" id="Domain.IProduct&lt;-Domain.PhysicalProduct" style="stroke: #A80036; stroke-width: 1.0; stroke-dasharray: 7.0,7.0;"/><polygon fill="none" points="677.56,537,657.56,530,677.56,523,677.56,537" style="stroke: #A80036; stroke-width: 1.0;"/><!--MD5=[5ccf30dcfe346bc3e01b4270a1f337e3]
reverse link Domain.IProduct to Domain.DigitalProduct--><path d="M540.72,530 C540.72,530 539,530 539,530 C539,530 539,595.97 539,632.81 " fill="none" id="Domain.IProduct&lt;-Domain.DigitalProduct" style="stroke: #A80036; stroke-width: 1.0; stroke-dasharray: 7.0,7.0;"/><polygon fill="none" points="536.16,523,556.16,530,536.16,537,536.16,523" style="stroke: #A80036; stroke-width: 1.0;"/><!--MD5=[50ace90571ff34ac6394af9e962a0258]
reverse link Domain.IShippable to Domain.PhysicalProduct--><path d="M750.25,593.35 C750.25,593.35 750.25,632.71 750.25,632.71 " fill="none" id="Domain.IShippable&lt;-Domain.PhysicalProduct" style="stroke: #A80036; stroke-width: 1.0; stroke-dasharray: 7.0,7.0;"/><polygon fill="none" points="743.25,593.35,750.25,573.35,757.25,593.35,743.25,593.35" style="stroke: #A80036; stroke-width: 1.0;"/><!--MD5=[0168ce3247a571880bc78aef3b813f68]
reverse link Domain.IDownloadable to Domain.DigitalProduct--><path d="M479.25,587.08 C479.25,587.08 479.25,632.92 479.25,632.92 " fill="none" id="Domain.IDownloadable&lt;-Domain.DigitalProduct" style="stroke: #A80036; stroke-width: 1.0; stroke-dasharray: 7.0,7.0;"/><polygon fill="none" points="472.25,587.08,479.25,567.08,486.25,587.08,472.25,587.08" style="stroke: #A80036; stroke-width: 1.0;"/><!--MD5=[761b0bc1e6f62a70620244314eba8f5b]
reverse link Infrastructure.IProductRepository to Infrastructure.InMemoryProductRepository--><path d="M1196,434.61 C1196,434.61 1196,505.71 1196,505.71 " fill="none" id="Infrastructure.IProductRepository&lt;-Infrastructure.InMemoryProductRepository" style="stroke: #A80036; stroke-width: 1.0; stroke-dasharray: 7.0,7.0;"/><polygon fill="none" points="1189,434.61,1196,414.61,1203,434.61,1189,434.61" style="stroke: #A80036; stroke-width: 1.0;"/><!--MD5=[493c813905638e1b9f80b73729afdb69]
@startuml
skinparam classAttributeIconSize 0
skinparam linetype ortho

package CLI {
  class Program {
    + Main(string[] args)
  }

  class CartRunner {
    - ShoppingCart cart
    - IProductRepository repo
    + Run(string[] args)
  }

  Program - -> CartRunner
  CartRunner - -> Application.ShoppingCart
  CartRunner - -> Infrastructure.IProductRepository
}

package Application {
  interface ICartProcessor {
    + Process(items: IEnumerable<ProductQuantity>)
  }

  class ShoppingCart {
    + AddItem(IProduct, int)
    + DisplayCart()
    + Checkout()
  }

  class ConsoleCartProcessor

  ICartProcessor <|.. ConsoleCartProcessor
  ShoppingCart - -> Domain.ProductQuantity
  ShoppingCart - -> ICartProcessor
}

package Domain {
  interface IProduct {
    + Name: string
    + Price: decimal
  }

  interface IShippable {
    + Weight: decimal
    + CalculateShipping(): decimal
    + Ship(): void
  }

  interface IDownloadable {
    + DownloadUrl: string
    + Download(): void
  }

  class PhysicalProduct
  class DigitalProduct
  class ProductQuantity {
    + Product: IProduct
    + Quantity: int
  }

  IProduct <|.. PhysicalProduct
  IProduct <|.. DigitalProduct
  IShippable <|.. PhysicalProduct
  IDownloadable <|.. DigitalProduct
}

package Infrastructure {
  interface IProductRepository {
    + GetProduct(string): IProduct
  }

  class InMemoryProductRepository

  IProductRepository <|.. InMemoryProductRepository
}
@enduml

PlantUML version 1.2020.02(Sun Mar 01 06:22:07 AMT 2020)
(GPL source distribution)
Java Runtime: OpenJDK Runtime Environment
JVM: OpenJDK 64-Bit Server VM
Java Version: 21.0.7+6-LTS
Operating System: Linux
Default Encoding: UTF-8
Language: en
Country: null
--></g></svg>