<?xml version="1.0" encoding="UTF-8" standalone="no"?><svg xmlns="http://www.w3.org/2000/svg" xmlns:xlink="http://www.w3.org/1999/xlink" contentScriptType="application/ecmascript" contentStyleType="text/css" height="249px" preserveAspectRatio="none" style="width:1716px;height:249px;" version="1.1" viewBox="0 0 1716 249" width="1716px" zoomAndPan="magnify"><defs><filter height="300%" id="f1quzuwdowqogb" width="300%" x="-1" y="-1"><feGaussianBlur result="blurOut" stdDeviation="2.0"/><feColorMatrix in="blurOut" result="blurOut2" type="matrix" values="0 0 0 0 0 0 0 0 0 0 0 0 0 0 0 0 0 0 .4 0"/><feOffset dx="4.0" dy="4.0" in="blurOut2" result="blurOut3"/><feBlend in="SourceGraphic" in2="blurOut3" mode="normal"/></filter></defs><g><!--MD5=[10c921e20d77cbf6f16a02bc076307be]
cluster WeatherApp--><polygon fill="#FFFFFF" filter="url(#f1quzuwdowqogb)" points="22,24,126,24,133,46.2969,917,46.2969,917,237,22,237,22,24" style="stroke: #000000; stroke-width: 1.5;"/><line style="stroke: #000000; stroke-width: 1.5;" x1="22" x2="133" y1="46.2969" y2="46.2969"/><text fill="#000000" font-family="sans-serif" font-size="14" font-weight="bold" lengthAdjust="spacingAndGlyphs" textLength="98" x="26" y="38.9951">WeatherApp</text><!--MD5=[e69bcc6468f881f462e15297b415d278]
cluster WeatherApp.Models--><polygon fill="#FFFFFF" filter="url(#f1quzuwdowqogb)" points="941,27,1106,27,1113,49.2969,1470,49.2969,1470,237,941,237,941,27" style="stroke: #000000; stroke-width: 1.5;"/><line style="stroke: #000000; stroke-width: 1.5;" x1="941" x2="1113" y1="49.2969" y2="49.2969"/><text fill="#000000" font-family="sans-serif" font-size="14" font-weight="bold" lengthAdjust="spacingAndGlyphs" textLength="159" x="945" y="41.9951">WeatherApp.Models</text><!--MD5=[0d65d8ff29d233babfb951fd39bb983a]
cluster WeatherApp.Utils--><polygon fill="#FFFFFF" filter="url(#f1quzuwdowqogb)" points="1494,24,1637,24,1644,46.2969,1694,46.2969,1694,129,1494,129,1494,24" style="stroke: #000000; stroke-width: 1.5;"/><line style="stroke: #000000; stroke-width: 1.5;" x1="1494" x2="1644" y1="46.2969" y2="46.2969"/><text fill="#000000" font-family="sans-serif" font-size="14" font-weight="bold" lengthAdjust="spacingAndGlyphs" textLength="137" x="1498" y="38.9951">WeatherApp.Utils</text><!--MD5=[d51801305bea8269edfc9d8a3b493748]
class IHttpService--><rect fill="#FEFECE" filter="url(#f1quzuwdowqogb)" height="48" id="IHttpService" style="stroke: #A80036; stroke-width: 1.5;" width="108" x="515" y="173"/><ellipse cx="530" cy="189" fill="#B4A7E5" rx="11" ry="11" style="stroke: #A80036; stroke-width: 1.0;"/><path d="M525.9219,184.7656 L525.9219,182.6094 L533.3125,182.6094 L533.3125,184.7656 L530.8438,184.7656 L530.8438,192.8438 L533.3125,192.8438 L533.3125,195 L525.9219,195 L525.9219,192.8438 L528.3906,192.8438 L528.3906,184.7656 L525.9219,184.7656 Z "/><text fill="#000000" font-family="sans-serif" font-size="12" font-style="italic" lengthAdjust="spacingAndGlyphs" textLength="76" x="544" y="193.1543">IHttpService</text><line style="stroke: #A80036; stroke-width: 1.5;" x1="516" x2="622" y1="205" y2="205"/><line style="stroke: #A80036; stroke-width: 1.5;" x1="516" x2="622" y1="213" y2="213"/><!--MD5=[3f6ae37ccfaa4431526c21efd89e8408]
class IWeatherProvider--><rect fill="#FEFECE" filter="url(#f1quzuwdowqogb)" height="48" id="IWeatherProvider" style="stroke: #A80036; stroke-width: 1.5;" width="140" x="257" y="173"/><ellipse cx="272" cy="189" fill="#B4A7E5" rx="11" ry="11" style="stroke: #A80036; stroke-width: 1.0;"/><path d="M267.9219,184.7656 L267.9219,182.6094 L275.3125,182.6094 L275.3125,184.7656 L272.8438,184.7656 L272.8438,192.8438 L275.3125,192.8438 L275.3125,195 L267.9219,195 L267.9219,192.8438 L270.3906,192.8438 L270.3906,184.7656 L267.9219,184.7656 Z "/><text fill="#000000" font-family="sans-serif" font-size="12" font-style="italic" lengthAdjust="spacingAndGlyphs" textLength="108" x="286" y="193.1543">IWeatherProvider</text><line style="stroke: #A80036; stroke-width: 1.5;" x1="258" x2="396" y1="205" y2="205"/><line style="stroke: #A80036; stroke-width: 1.5;" x1="258" x2="396" y1="213" y2="213"/><!--MD5=[b8da968a4a902f8c8508ad0decda1387]
class HttpService--><rect fill="#FEFECE" filter="url(#f1quzuwdowqogb)" height="48" id="HttpService" style="stroke: #A80036; stroke-width: 1.5;" width="104" x="797" y="62"/><ellipse cx="812" cy="78" fill="#ADD1B2" rx="11" ry="11" style="stroke: #A80036; stroke-width: 1.0;"/><path d="M814.9688,83.6406 Q814.3906,83.9375 813.75,84.0781 Q813.1094,84.2344 812.4063,84.2344 Q809.9063,84.2344 808.5781,82.5938 Q807.2656,80.9375 807.2656,77.8125 Q807.2656,74.6875 808.5781,73.0313 Q809.9063,71.375 812.4063,71.375 Q813.1094,71.375 813.75,71.5313 Q814.4063,71.6875 814.9688,71.9844 L814.9688,74.7031 Q814.3438,74.125 813.75,73.8594 Q813.1563,73.5781 812.5313,73.5781 Q811.1875,73.5781 810.5,74.6563 Q809.8125,75.7188 809.8125,77.8125 Q809.8125,79.9063 810.5,80.9844 Q811.1875,82.0469 812.5313,82.0469 Q813.1563,82.0469 813.75,81.7813 Q814.3438,81.5 814.9688,80.9219 L814.9688,83.6406 Z "/><text fill="#000000" font-family="sans-serif" font-size="12" lengthAdjust="spacingAndGlyphs" textLength="72" x="826" y="82.1543">HttpService</text><line style="stroke: #A80036; stroke-width: 1.5;" x1="798" x2="900" y1="94" y2="94"/><line style="stroke: #A80036; stroke-width: 1.5;" x1="798" x2="900" y1="102" y2="102"/><!--MD5=[d7bc476fd8ff6383717e0ca527eae4aa]
class HttpWeatherProvider--><rect fill="#FEFECE" filter="url(#f1quzuwdowqogb)" height="48" id="HttpWeatherProvider" style="stroke: #A80036; stroke-width: 1.5;" width="163" x="598.5" y="62"/><ellipse cx="613.5" cy="78" fill="#ADD1B2" rx="11" ry="11" style="stroke: #A80036; stroke-width: 1.0;"/><path d="M616.4688,83.6406 Q615.8906,83.9375 615.25,84.0781 Q614.6094,84.2344 613.9063,84.2344 Q611.4063,84.2344 610.0781,82.5938 Q608.7656,80.9375 608.7656,77.8125 Q608.7656,74.6875 610.0781,73.0313 Q611.4063,71.375 613.9063,71.375 Q614.6094,71.375 615.25,71.5313 Q615.9063,71.6875 616.4688,71.9844 L616.4688,74.7031 Q615.8438,74.125 615.25,73.8594 Q614.6563,73.5781 614.0313,73.5781 Q612.6875,73.5781 612,74.6563 Q611.3125,75.7188 611.3125,77.8125 Q611.3125,79.9063 612,80.9844 Q612.6875,82.0469 614.0313,82.0469 Q614.6563,82.0469 615.25,81.7813 Q615.8438,81.5 616.4688,80.9219 L616.4688,83.6406 Z "/><text fill="#000000" font-family="sans-serif" font-size="12" lengthAdjust="spacingAndGlyphs" textLength="131" x="627.5" y="82.1543">HttpWeatherProvider</text><line style="stroke: #A80036; stroke-width: 1.5;" x1="599.5" x2="760.5" y1="94" y2="94"/><line style="stroke: #A80036; stroke-width: 1.5;" x1="599.5" x2="760.5" y1="102" y2="102"/><!--MD5=[b93a9bb8faf0d3731d7ca39758d5b28d]
class SecondHttpWeatherProvider--><rect fill="#FEFECE" filter="url(#f1quzuwdowqogb)" height="48" id="SecondHttpWeatherProvider" style="stroke: #A80036; stroke-width: 1.5;" width="210" x="353" y="62"/><ellipse cx="368" cy="78" fill="#ADD1B2" rx="11" ry="11" style="stroke: #A80036; stroke-width: 1.0;"/><path d="M370.9688,83.6406 Q370.3906,83.9375 369.75,84.0781 Q369.1094,84.2344 368.4063,84.2344 Q365.9063,84.2344 364.5781,82.5938 Q363.2656,80.9375 363.2656,77.8125 Q363.2656,74.6875 364.5781,73.0313 Q365.9063,71.375 368.4063,71.375 Q369.1094,71.375 369.75,71.5313 Q370.4063,71.6875 370.9688,71.9844 L370.9688,74.7031 Q370.3438,74.125 369.75,73.8594 Q369.1563,73.5781 368.5313,73.5781 Q367.1875,73.5781 366.5,74.6563 Q365.8125,75.7188 365.8125,77.8125 Q365.8125,79.9063 366.5,80.9844 Q367.1875,82.0469 368.5313,82.0469 Q369.1563,82.0469 369.75,81.7813 Q370.3438,81.5 370.9688,80.9219 L370.9688,83.6406 Z "/><text fill="#000000" font-family="sans-serif" font-size="12" lengthAdjust="spacingAndGlyphs" textLength="178" x="382" y="82.1543">SecondHttpWeatherProvider</text><line style="stroke: #A80036; stroke-width: 1.5;" x1="354" x2="562" y1="94" y2="94"/><line style="stroke: #A80036; stroke-width: 1.5;" x1="354" x2="562" y1="102" y2="102"/><!--MD5=[82795cd91918ac2f409e376c19150cb2]
class WeatherCli--><rect fill="#FEFECE" filter="url(#f1quzuwdowqogb)" height="48" id="WeatherCli" style="stroke: #A80036; stroke-width: 1.5;" width="99" x="38.5" y="62"/><ellipse cx="53.5" cy="78" fill="#ADD1B2" rx="11" ry="11" style="stroke: #A80036; stroke-width: 1.0;"/><path d="M56.4688,83.6406 Q55.8906,83.9375 55.25,84.0781 Q54.6094,84.2344 53.9063,84.2344 Q51.4063,84.2344 50.0781,82.5938 Q48.7656,80.9375 48.7656,77.8125 Q48.7656,74.6875 50.0781,73.0313 Q51.4063,71.375 53.9063,71.375 Q54.6094,71.375 55.25,71.5313 Q55.9063,71.6875 56.4688,71.9844 L56.4688,74.7031 Q55.8438,74.125 55.25,73.8594 Q54.6563,73.5781 54.0313,73.5781 Q52.6875,73.5781 52,74.6563 Q51.3125,75.7188 51.3125,77.8125 Q51.3125,79.9063 52,80.9844 Q52.6875,82.0469 54.0313,82.0469 Q54.6563,82.0469 55.25,81.7813 Q55.8438,81.5 56.4688,80.9219 L56.4688,83.6406 Z "/><text fill="#000000" font-family="sans-serif" font-size="12" lengthAdjust="spacingAndGlyphs" textLength="67" x="67.5" y="82.1543">WeatherCli</text><line style="stroke: #A80036; stroke-width: 1.5;" x1="39.5" x2="136.5" y1="94" y2="94"/><line style="stroke: #A80036; stroke-width: 1.5;" x1="39.5" x2="136.5" y1="102" y2="102"/><!--MD5=[1ac615f57ffa63f1f40899836be5d4bf]
class ServiceExtensions--><rect fill="#FEFECE" filter="url(#f1quzuwdowqogb)" height="53.9375" id="ServiceExtensions" style="stroke: #A80036; stroke-width: 1.5;" width="145" x="172.5" y="59"/><ellipse cx="187.5" cy="77.9688" fill="#ADD1B2" rx="11" ry="11" style="stroke: #A80036; stroke-width: 1.0;"/><path d="M190.4688,83.6094 Q189.8906,83.9063 189.25,84.0469 Q188.6094,84.2031 187.9063,84.2031 Q185.4063,84.2031 184.0781,82.5625 Q182.7656,80.9063 182.7656,77.7813 Q182.7656,74.6563 184.0781,73 Q185.4063,71.3438 187.9063,71.3438 Q188.6094,71.3438 189.25,71.5 Q189.9063,71.6563 190.4688,71.9531 L190.4688,74.6719 Q189.8438,74.0938 189.25,73.8281 Q188.6563,73.5469 188.0313,73.5469 Q186.6875,73.5469 186,74.625 Q185.3125,75.6875 185.3125,77.7813 Q185.3125,79.875 186,80.9531 Q186.6875,82.0156 188.0313,82.0156 Q188.6563,82.0156 189.25,81.75 Q189.8438,81.4688 190.4688,80.8906 L190.4688,83.6094 Z "/><text fill="#000000" font-family="sans-serif" font-size="12" font-style="italic" lengthAdjust="spacingAndGlyphs" textLength="48" x="234" y="75.1387">«static»</text><text fill="#000000" font-family="sans-serif" font-size="12" lengthAdjust="spacingAndGlyphs" textLength="113" x="201.5" y="89.1074">ServiceExtensions</text><line style="stroke: #A80036; stroke-width: 1.5;" x1="173.5" x2="316.5" y1="96.9375" y2="96.9375"/><line style="stroke: #A80036; stroke-width: 1.5;" x1="173.5" x2="316.5" y1="104.9375" y2="104.9375"/><!--MD5=[f8ed75971b0a6b6896f5b0ea32ec4e3d]
class Coordinates--><rect fill="#FEFECE" filter="url(#f1quzuwdowqogb)" height="48" id="Coordinates" style="stroke: #A80036; stroke-width: 1.5;" width="108" x="1346" y="62"/><ellipse cx="1361" cy="78" fill="#ADD1B2" rx="11" ry="11" style="stroke: #A80036; stroke-width: 1.0;"/><path d="M1363.9688,83.6406 Q1363.3906,83.9375 1362.75,84.0781 Q1362.1094,84.2344 1361.4063,84.2344 Q1358.9063,84.2344 1357.5781,82.5938 Q1356.2656,80.9375 1356.2656,77.8125 Q1356.2656,74.6875 1357.5781,73.0313 Q1358.9063,71.375 1361.4063,71.375 Q1362.1094,71.375 1362.75,71.5313 Q1363.4063,71.6875 1363.9688,71.9844 L1363.9688,74.7031 Q1363.3438,74.125 1362.75,73.8594 Q1362.1563,73.5781 1361.5313,73.5781 Q1360.1875,73.5781 1359.5,74.6563 Q1358.8125,75.7188 1358.8125,77.8125 Q1358.8125,79.9063 1359.5,80.9844 Q1360.1875,82.0469 1361.5313,82.0469 Q1362.1563,82.0469 1362.75,81.7813 Q1363.3438,81.5 1363.9688,80.9219 L1363.9688,83.6406 Z "/><text fill="#000000" font-family="sans-serif" font-size="12" lengthAdjust="spacingAndGlyphs" textLength="76" x="1375" y="82.1543">Coordinates</text><line style="stroke: #A80036; stroke-width: 1.5;" x1="1347" x2="1453" y1="94" y2="94"/><line style="stroke: #A80036; stroke-width: 1.5;" x1="1347" x2="1453" y1="102" y2="102"/><!--MD5=[1ba5bf58490810d0365cc6216db0cfcc]
class ForecastDto--><rect fill="#FEFECE" filter="url(#f1quzuwdowqogb)" height="48" id="ForecastDto" style="stroke: #A80036; stroke-width: 1.5;" width="109" x="1201.5" y="62"/><ellipse cx="1216.5" cy="78" fill="#ADD1B2" rx="11" ry="11" style="stroke: #A80036; stroke-width: 1.0;"/><path d="M1219.4688,83.6406 Q1218.8906,83.9375 1218.25,84.0781 Q1217.6094,84.2344 1216.9063,84.2344 Q1214.4063,84.2344 1213.0781,82.5938 Q1211.7656,80.9375 1211.7656,77.8125 Q1211.7656,74.6875 1213.0781,73.0313 Q1214.4063,71.375 1216.9063,71.375 Q1217.6094,71.375 1218.25,71.5313 Q1218.9063,71.6875 1219.4688,71.9844 L1219.4688,74.7031 Q1218.8438,74.125 1218.25,73.8594 Q1217.6563,73.5781 1217.0313,73.5781 Q1215.6875,73.5781 1215,74.6563 Q1214.3125,75.7188 1214.3125,77.8125 Q1214.3125,79.9063 1215,80.9844 Q1215.6875,82.0469 1217.0313,82.0469 Q1217.6563,82.0469 1218.25,81.7813 Q1218.8438,81.5 1219.4688,80.9219 L1219.4688,83.6406 Z "/><text fill="#000000" font-family="sans-serif" font-size="12" lengthAdjust="spacingAndGlyphs" textLength="77" x="1230.5" y="82.1543">ForecastDto</text><line style="stroke: #A80036; stroke-width: 1.5;" x1="1202.5" x2="1309.5" y1="94" y2="94"/><line style="stroke: #A80036; stroke-width: 1.5;" x1="1202.5" x2="1309.5" y1="102" y2="102"/><!--MD5=[01493f8ee0eff3a0f2b1ada0261aa3bb]
class CurrentDto--><rect fill="#FEFECE" filter="url(#f1quzuwdowqogb)" height="48" id="CurrentDto" style="stroke: #A80036; stroke-width: 1.5;" width="101" x="1205.5" y="173"/><ellipse cx="1220.5" cy="189" fill="#ADD1B2" rx="11" ry="11" style="stroke: #A80036; stroke-width: 1.0;"/><path d="M1223.4688,194.6406 Q1222.8906,194.9375 1222.25,195.0781 Q1221.6094,195.2344 1220.9063,195.2344 Q1218.4063,195.2344 1217.0781,193.5938 Q1215.7656,191.9375 1215.7656,188.8125 Q1215.7656,185.6875 1217.0781,184.0313 Q1218.4063,182.375 1220.9063,182.375 Q1221.6094,182.375 1222.25,182.5313 Q1222.9063,182.6875 1223.4688,182.9844 L1223.4688,185.7031 Q1222.8438,185.125 1222.25,184.8594 Q1221.6563,184.5781 1221.0313,184.5781 Q1219.6875,184.5781 1219,185.6563 Q1218.3125,186.7188 1218.3125,188.8125 Q1218.3125,190.9063 1219,191.9844 Q1219.6875,193.0469 1221.0313,193.0469 Q1221.6563,193.0469 1222.25,192.7813 Q1222.8438,192.5 1223.4688,191.9219 L1223.4688,194.6406 Z "/><text fill="#000000" font-family="sans-serif" font-size="12" lengthAdjust="spacingAndGlyphs" textLength="69" x="1234.5" y="193.1543">CurrentDto</text><line style="stroke: #A80036; stroke-width: 1.5;" x1="1206.5" x2="1305.5" y1="205" y2="205"/><line style="stroke: #A80036; stroke-width: 1.5;" x1="1206.5" x2="1305.5" y1="213" y2="213"/><!--MD5=[85e5684d2ae869b1cb59647298c3ee25]
class CurrentWeatherForecastDto--><rect fill="#FEFECE" filter="url(#f1quzuwdowqogb)" height="48" id="CurrentWeatherForecastDto" style="stroke: #A80036; stroke-width: 1.5;" width="209" x="957.5" y="62"/><ellipse cx="972.5" cy="78" fill="#ADD1B2" rx="11" ry="11" style="stroke: #A80036; stroke-width: 1.0;"/><path d="M975.4688,83.6406 Q974.8906,83.9375 974.25,84.0781 Q973.6094,84.2344 972.9063,84.2344 Q970.4063,84.2344 969.0781,82.5938 Q967.7656,80.9375 967.7656,77.8125 Q967.7656,74.6875 969.0781,73.0313 Q970.4063,71.375 972.9063,71.375 Q973.6094,71.375 974.25,71.5313 Q974.9063,71.6875 975.4688,71.9844 L975.4688,74.7031 Q974.8438,74.125 974.25,73.8594 Q973.6563,73.5781 973.0313,73.5781 Q971.6875,73.5781 971,74.6563 Q970.3125,75.7188 970.3125,77.8125 Q970.3125,79.9063 971,80.9844 Q971.6875,82.0469 973.0313,82.0469 Q973.6563,82.0469 974.25,81.7813 Q974.8438,81.5 975.4688,80.9219 L975.4688,83.6406 Z "/><text fill="#000000" font-family="sans-serif" font-size="12" lengthAdjust="spacingAndGlyphs" textLength="177" x="986.5" y="82.1543">CurrentWeatherForecastDto</text><line style="stroke: #A80036; stroke-width: 1.5;" x1="958.5" x2="1165.5" y1="94" y2="94"/><line style="stroke: #A80036; stroke-width: 1.5;" x1="958.5" x2="1165.5" y1="102" y2="102"/><!--MD5=[1c9cbbdf1a0936cbbd9527aa5f4d5572]
class CurrentWeatherDto--><rect fill="#FEFECE" filter="url(#f1quzuwdowqogb)" height="48" id="CurrentWeatherDto" style="stroke: #A80036; stroke-width: 1.5;" width="154" x="985" y="173"/><ellipse cx="1000" cy="189" fill="#ADD1B2" rx="11" ry="11" style="stroke: #A80036; stroke-width: 1.0;"/><path d="M1002.9688,194.6406 Q1002.3906,194.9375 1001.75,195.0781 Q1001.1094,195.2344 1000.4063,195.2344 Q997.9063,195.2344 996.5781,193.5938 Q995.2656,191.9375 995.2656,188.8125 Q995.2656,185.6875 996.5781,184.0313 Q997.9063,182.375 1000.4063,182.375 Q1001.1094,182.375 1001.75,182.5313 Q1002.4063,182.6875 1002.9688,182.9844 L1002.9688,185.7031 Q1002.3438,185.125 1001.75,184.8594 Q1001.1563,184.5781 1000.5313,184.5781 Q999.1875,184.5781 998.5,185.6563 Q997.8125,186.7188 997.8125,188.8125 Q997.8125,190.9063 998.5,191.9844 Q999.1875,193.0469 1000.5313,193.0469 Q1001.1563,193.0469 1001.75,192.7813 Q1002.3438,192.5 1002.9688,191.9219 L1002.9688,194.6406 Z "/><text fill="#000000" font-family="sans-serif" font-size="12" lengthAdjust="spacingAndGlyphs" textLength="122" x="1014" y="193.1543">CurrentWeatherDto</text><line style="stroke: #A80036; stroke-width: 1.5;" x1="986" x2="1138" y1="205" y2="205"/><line style="stroke: #A80036; stroke-width: 1.5;" x1="986" x2="1138" y1="213" y2="213"/><!--MD5=[eed1e794c8b7f21981a7782728ea8849]
class WeatherApiConstants--><rect fill="#FEFECE" filter="url(#f1quzuwdowqogb)" height="53.9375" id="WeatherApiConstants" style="stroke: #A80036; stroke-width: 1.5;" width="168" x="1510" y="59"/><ellipse cx="1525" cy="77.9688" fill="#ADD1B2" rx="11" ry="11" style="stroke: #A80036; stroke-width: 1.0;"/><path d="M1527.9688,83.6094 Q1527.3906,83.9063 1526.75,84.0469 Q1526.1094,84.2031 1525.4063,84.2031 Q1522.9063,84.2031 1521.5781,82.5625 Q1520.2656,80.9063 1520.2656,77.7813 Q1520.2656,74.6563 1521.5781,73 Q1522.9063,71.3438 1525.4063,71.3438 Q1526.1094,71.3438 1526.75,71.5 Q1527.4063,71.6563 1527.9688,71.9531 L1527.9688,74.6719 Q1527.3438,74.0938 1526.75,73.8281 Q1526.1563,73.5469 1525.5313,73.5469 Q1524.1875,73.5469 1523.5,74.625 Q1522.8125,75.6875 1522.8125,77.7813 Q1522.8125,79.875 1523.5,80.9531 Q1524.1875,82.0156 1525.5313,82.0156 Q1526.1563,82.0156 1526.75,81.75 Q1527.3438,81.4688 1527.9688,80.8906 L1527.9688,83.6094 Z "/><text fill="#000000" font-family="sans-serif" font-size="12" font-style="italic" lengthAdjust="spacingAndGlyphs" textLength="48" x="1583" y="75.1387">«static»</text><text fill="#000000" font-family="sans-serif" font-size="12" lengthAdjust="spacingAndGlyphs" textLength="136" x="1539" y="89.1074">WeatherApiConstants</text><line style="stroke: #A80036; stroke-width: 1.5;" x1="1511" x2="1677" y1="96.9375" y2="96.9375"/><line style="stroke: #A80036; stroke-width: 1.5;" x1="1511" x2="1677" y1="104.9375" y2="104.9375"/><!--MD5=[4e42313200f20f741cc0195e5a21de1e]
link HttpService to IHttpService--><path d="M821.46,110.05 C809.09,119.48 793.95,129.83 779,137 C735.81,157.71 684.04,172.35 642.71,181.87 " fill="none" id="HttpService-&gt;IHttpService" style="stroke: #A80036; stroke-width: 1.0; stroke-dasharray: 7.0,7.0;"/><polygon fill="none" points="644.09,188.74,623.05,186.2,641.08,175.07,644.09,188.74" style="stroke: #A80036; stroke-width: 1.0;"/><!--MD5=[4799521432c8a0b3a701fdf9a7c783f2]
link HttpWeatherProvider to IWeatherProvider--><path d="M639.56,110.19 C621.99,119.53 600.91,129.78 581,137 C527.91,156.26 466.25,170.76 416.97,180.56 " fill="none" id="HttpWeatherProvider-&gt;IWeatherProvider" style="stroke: #A80036; stroke-width: 1.0; stroke-dasharray: 7.0,7.0;"/><polygon fill="none" points="417.99,187.5,397.02,184.41,415.33,173.75,417.99,187.5" style="stroke: #A80036; stroke-width: 1.0;"/><!--MD5=[d54c645d5c6dbac9368098d4475a6865]
link SecondHttpWeatherProvider to IWeatherProvider--><path d="M430.22,110.12 C412.85,124.57 390.11,143.48 370.4,159.89 " fill="none" id="SecondHttpWeatherProvider-&gt;IWeatherProvider" style="stroke: #A80036; stroke-width: 1.0; stroke-dasharray: 7.0,7.0;"/><polygon fill="none" points="374.59,165.51,354.74,172.92,365.64,154.74,374.59,165.51" style="stroke: #A80036; stroke-width: 1.0;"/><!--MD5=[75c18762d05d0dfe7e5660eff9e1b645]
link HttpWeatherProvider to IHttpService--><path d="M656.46,110.12 C638.8,127.46 614.59,151.23 596.12,169.37 " fill="none" id="HttpWeatherProvider-&gt;IHttpService" style="stroke: #A80036; stroke-width: 1.0;"/><polygon fill="#A80036" points="592.51,172.92,601.7307,169.459,596.074,169.4132,596.1198,163.7565,592.51,172.92" style="stroke: #A80036; stroke-width: 1.0;"/><!--MD5=[b2b8395e3187831fa8a716e00b8af044]
link SecondHttpWeatherProvider to IHttpService--><path d="M481.54,110.12 C499.2,127.46 523.41,151.23 541.88,169.37 " fill="none" id="SecondHttpWeatherProvider-&gt;IHttpService" style="stroke: #A80036; stroke-width: 1.0;"/><polygon fill="#A80036" points="545.49,172.92,541.8802,163.7565,541.926,169.4132,536.2693,169.459,545.49,172.92" style="stroke: #A80036; stroke-width: 1.0;"/><!--MD5=[64a54b32a8335171c038fe0d00baf460]
link WeatherCli to IWeatherProvider--><path d="M115.07,110.22 C126.79,119.45 141.01,129.61 155,137 C185.34,153.02 220.92,166.07 251.82,175.79 " fill="none" id="WeatherCli-&gt;IWeatherProvider" style="stroke: #A80036; stroke-width: 1.0;"/><polygon fill="#A80036" points="256.74,177.32,249.3361,170.8252,251.9661,175.8335,246.9577,178.4635,256.74,177.32" style="stroke: #A80036; stroke-width: 1.0;"/><!--MD5=[73e1d4081e59977c24a89b8fca7a3962]
link ServiceExtensions to IHttpService--><path d="M287.42,113.23 C302.38,121.68 319.56,130.53 336,137 C393.13,159.5 461.56,175.63 509.42,185.27 " fill="none" id="ServiceExtensions-&gt;IHttpService" style="stroke: #A80036; stroke-width: 1.0; stroke-dasharray: 7.0,7.0;"/><polygon fill="#A80036" points="514.57,186.3,506.5197,180.6262,509.6655,185.3277,504.964,188.4734,514.57,186.3" style="stroke: #A80036; stroke-width: 1.0;"/><!--MD5=[5a4d18f8d809200e57426fd68209ce0b]
link ServiceExtensions to IWeatherProvider--><path d="M264.64,113.11 C277.22,129.83 293.52,151.5 306.3,168.49 " fill="none" id="ServiceExtensions-&gt;IWeatherProvider" style="stroke: #A80036; stroke-width: 1.0; stroke-dasharray: 7.0,7.0;"/><polygon fill="#A80036" points="309.47,172.7,307.2316,163.1089,306.454,168.712,300.8509,167.9345,309.47,172.7" style="stroke: #A80036; stroke-width: 1.0;"/><!--MD5=[d9e973bc38c47adf35e1d6cad5925efe]
reverse link ForecastDto to CurrentDto--><path d="M1256,123.15 C1256,139.56 1256,158.47 1256,172.92 " fill="none" id="ForecastDto&lt;-CurrentDto" style="stroke: #A80036; stroke-width: 1.0;"/><polygon fill="#A80036" points="1256,110.12,1252,116.12,1256,122.12,1260,116.12,1256,110.12" style="stroke: #A80036; stroke-width: 1.0;"/><!--MD5=[602d6c9a35fcfd9badd95f5c7372c397]
reverse link CurrentWeatherForecastDto to CurrentWeatherDto--><path d="M1062,123.15 C1062,139.56 1062,158.47 1062,172.92 " fill="none" id="CurrentWeatherForecastDto&lt;-CurrentWeatherDto" style="stroke: #A80036; stroke-width: 1.0;"/><polygon fill="#A80036" points="1062,110.12,1058,116.12,1062,122.12,1066,116.12,1062,110.12" style="stroke: #A80036; stroke-width: 1.0;"/><!--MD5=[3e3f74443bca8226227881649e6dda7e]
@startuml

package "WeatherApp" {
  interface IHttpService
  interface IWeatherProvider
  class HttpService
  class HttpWeatherProvider
  class SecondHttpWeatherProvider
  class WeatherCli
  class ServiceExtensions <<static>>
}

package "WeatherApp.Models" {
  class Coordinates
  class ForecastDto
  class CurrentDto
  class CurrentWeatherForecastDto
  class CurrentWeatherDto
}

package "WeatherApp.Utils" {
  class WeatherApiConstants <<static>>
}

HttpService ..|> IHttpService
HttpWeatherProvider ..|> IWeatherProvider
SecondHttpWeatherProvider ..|> IWeatherProvider

HttpWeatherProvider - -> IHttpService
SecondHttpWeatherProvider - -> IHttpService
WeatherCli - -> IWeatherProvider
ServiceExtensions ..> IHttpService
ServiceExtensions ..> IWeatherProvider

ForecastDto *- - CurrentDto
CurrentWeatherForecastDto *- - CurrentWeatherDto

@enduml

PlantUML version 1.2020.02(Sun Mar 01 06:22:07 AMT 2020)
(GPL source distribution)
Java Runtime: OpenJDK Runtime Environment
JVM: OpenJDK 64-Bit Server VM
Java Version: 21.0.7+6-LTS
Operating System: Linux
Default Encoding: UTF-8
Language: en
Country: null
--></g></svg>