<?xml version="1.0" encoding="UTF-8" standalone="no"?><svg xmlns="http://www.w3.org/2000/svg" xmlns:xlink="http://www.w3.org/1999/xlink" contentScriptType="application/ecmascript" contentStyleType="text/css" height="567px" preserveAspectRatio="none" style="width:1753px;height:567px;" version="1.1" viewBox="0 0 1753 567" width="1753px" zoomAndPan="magnify"><defs><filter height="300%" id="f1953ms2d1qp2y" width="300%" x="-1" y="-1"><feGaussianBlur result="blurOut" stdDeviation="2.0"/><feColorMatrix in="blurOut" result="blurOut2" type="matrix" values="0 0 0 0 0 0 0 0 0 0 0 0 0 0 0 0 0 0 .4 0"/><feOffset dx="4.0" dy="4.0" in="blurOut2" result="blurOut3"/><feBlend in="SourceGraphic" in2="blurOut3" mode="normal"/></filter></defs><g><!--MD5=[d19952850457911e66e383ccad33c350]
cluster AbstractFactory--><polygon fill="#FFFFFF" filter="url(#f1953ms2d1qp2y)" points="22,24,154,24,161,46.2969,1731,46.2969,1731,555,22,555,22,24" style="stroke: #000000; stroke-width: 1.5;"/><line style="stroke: #000000; stroke-width: 1.5;" x1="22" x2="161" y1="46.2969" y2="46.2969"/><text fill="#000000" font-family="sans-serif" font-size="14" font-weight="bold" lengthAdjust="spacingAndGlyphs" textLength="126" x="26" y="38.9951">AbstractFactory</text><!--MD5=[5e98e5fdf5788c3d53e00853896ffc69]
class IComponent--><rect fill="#FEFECE" filter="url(#f1953ms2d1qp2y)" height="48" id="IComponent" style="stroke: #A80036; stroke-width: 1.5;" width="108" x="905" y="491"/><ellipse cx="920" cy="507" fill="#B4A7E5" rx="11" ry="11" style="stroke: #A80036; stroke-width: 1.0;"/><path d="M915.9219,502.7656 L915.9219,500.6094 L923.3125,500.6094 L923.3125,502.7656 L920.8438,502.7656 L920.8438,510.8438 L923.3125,510.8438 L923.3125,513 L915.9219,513 L915.9219,510.8438 L918.3906,510.8438 L918.3906,502.7656 L915.9219,502.7656 Z "/><text fill="#000000" font-family="sans-serif" font-size="12" font-style="italic" lengthAdjust="spacingAndGlyphs" textLength="76" x="934" y="511.1543">IComponent</text><line style="stroke: #A80036; stroke-width: 1.5;" x1="906" x2="1012" y1="523" y2="523"/><line style="stroke: #A80036; stroke-width: 1.5;" x1="906" x2="1012" y1="531" y2="531"/><!--MD5=[75cba3fce8342a925971a726a192fa36]
class IButton--><rect fill="#FEFECE" filter="url(#f1953ms2d1qp2y)" height="48" id="IButton" style="stroke: #A80036; stroke-width: 1.5;" width="78" x="1314" y="383"/><ellipse cx="1329" cy="399" fill="#B4A7E5" rx="11" ry="11" style="stroke: #A80036; stroke-width: 1.0;"/><path d="M1324.9219,394.7656 L1324.9219,392.6094 L1332.3125,392.6094 L1332.3125,394.7656 L1329.8438,394.7656 L1329.8438,402.8438 L1332.3125,402.8438 L1332.3125,405 L1324.9219,405 L1324.9219,402.8438 L1327.3906,402.8438 L1327.3906,394.7656 L1324.9219,394.7656 Z "/><text fill="#000000" font-family="sans-serif" font-size="12" font-style="italic" lengthAdjust="spacingAndGlyphs" textLength="46" x="1343" y="403.1543">IButton</text><line style="stroke: #A80036; stroke-width: 1.5;" x1="1315" x2="1391" y1="415" y2="415"/><line style="stroke: #A80036; stroke-width: 1.5;" x1="1315" x2="1391" y1="423" y2="423"/><!--MD5=[69db8137fdda26947d3319f250f7894f]
class ITextBox--><rect fill="#FEFECE" filter="url(#f1953ms2d1qp2y)" height="48" id="ITextBox" style="stroke: #A80036; stroke-width: 1.5;" width="86" x="916" y="383"/><ellipse cx="931" cy="399" fill="#B4A7E5" rx="11" ry="11" style="stroke: #A80036; stroke-width: 1.0;"/><path d="M926.9219,394.7656 L926.9219,392.6094 L934.3125,392.6094 L934.3125,394.7656 L931.8438,394.7656 L931.8438,402.8438 L934.3125,402.8438 L934.3125,405 L926.9219,405 L926.9219,402.8438 L929.3906,402.8438 L929.3906,394.7656 L926.9219,394.7656 Z "/><text fill="#000000" font-family="sans-serif" font-size="12" font-style="italic" lengthAdjust="spacingAndGlyphs" textLength="54" x="945" y="403.1543">ITextBox</text><line style="stroke: #A80036; stroke-width: 1.5;" x1="917" x2="1001" y1="415" y2="415"/><line style="stroke: #A80036; stroke-width: 1.5;" x1="917" x2="1001" y1="423" y2="423"/><!--MD5=[fbb82775b11ce99f08d662e0e785bbff]
class ICheckBox--><rect fill="#FEFECE" filter="url(#f1953ms2d1qp2y)" height="48" id="ICheckBox" style="stroke: #A80036; stroke-width: 1.5;" width="97" x="390.5" y="383"/><ellipse cx="405.5" cy="399" fill="#B4A7E5" rx="11" ry="11" style="stroke: #A80036; stroke-width: 1.0;"/><path d="M401.4219,394.7656 L401.4219,392.6094 L408.8125,392.6094 L408.8125,394.7656 L406.3438,394.7656 L406.3438,402.8438 L408.8125,402.8438 L408.8125,405 L401.4219,405 L401.4219,402.8438 L403.8906,402.8438 L403.8906,394.7656 L401.4219,394.7656 Z "/><text fill="#000000" font-family="sans-serif" font-size="12" font-style="italic" lengthAdjust="spacingAndGlyphs" textLength="65" x="419.5" y="403.1543">ICheckBox</text><line style="stroke: #A80036; stroke-width: 1.5;" x1="391.5" x2="486.5" y1="415" y2="415"/><line style="stroke: #A80036; stroke-width: 1.5;" x1="391.5" x2="486.5" y1="423" y2="423"/><!--MD5=[8a4a892efbfb95d99706670fba88e550]
class IUserInterfaceComponentFactory--><rect fill="#FEFECE" filter="url(#f1953ms2d1qp2y)" height="48" id="IUserInterfaceComponentFactory" style="stroke: #A80036; stroke-width: 1.5;" width="240" x="547" y="275"/><ellipse cx="562" cy="291" fill="#B4A7E5" rx="11" ry="11" style="stroke: #A80036; stroke-width: 1.0;"/><path d="M557.9219,286.7656 L557.9219,284.6094 L565.3125,284.6094 L565.3125,286.7656 L562.8438,286.7656 L562.8438,294.8438 L565.3125,294.8438 L565.3125,297 L557.9219,297 L557.9219,294.8438 L560.3906,294.8438 L560.3906,286.7656 L557.9219,286.7656 Z "/><text fill="#000000" font-family="sans-serif" font-size="12" font-style="italic" lengthAdjust="spacingAndGlyphs" textLength="208" x="576" y="295.1543">IUserInterfaceComponentFactory</text><line style="stroke: #A80036; stroke-width: 1.5;" x1="548" x2="786" y1="307" y2="307"/><line style="stroke: #A80036; stroke-width: 1.5;" x1="548" x2="786" y1="315" y2="315"/><!--MD5=[4c48139c2514dc86f767ef24cb2e60f9]
class LinuxButton--><rect fill="#FEFECE" filter="url(#f1953ms2d1qp2y)" height="48" id="LinuxButton" style="stroke: #A80036; stroke-width: 1.5;" width="105" x="1446.5" y="275"/><ellipse cx="1461.5" cy="291" fill="#ADD1B2" rx="11" ry="11" style="stroke: #A80036; stroke-width: 1.0;"/><path d="M1464.4688,296.6406 Q1463.8906,296.9375 1463.25,297.0781 Q1462.6094,297.2344 1461.9063,297.2344 Q1459.4063,297.2344 1458.0781,295.5938 Q1456.7656,293.9375 1456.7656,290.8125 Q1456.7656,287.6875 1458.0781,286.0313 Q1459.4063,284.375 1461.9063,284.375 Q1462.6094,284.375 1463.25,284.5313 Q1463.9063,284.6875 1464.4688,284.9844 L1464.4688,287.7031 Q1463.8438,287.125 1463.25,286.8594 Q1462.6563,286.5781 1462.0313,286.5781 Q1460.6875,286.5781 1460,287.6563 Q1459.3125,288.7188 1459.3125,290.8125 Q1459.3125,292.9063 1460,293.9844 Q1460.6875,295.0469 1462.0313,295.0469 Q1462.6563,295.0469 1463.25,294.7813 Q1463.8438,294.5 1464.4688,293.9219 L1464.4688,296.6406 Z "/><text fill="#000000" font-family="sans-serif" font-size="12" lengthAdjust="spacingAndGlyphs" textLength="73" x="1475.5" y="295.1543">LinuxButton</text><line style="stroke: #A80036; stroke-width: 1.5;" x1="1447.5" x2="1550.5" y1="307" y2="307"/><line style="stroke: #A80036; stroke-width: 1.5;" x1="1447.5" x2="1550.5" y1="315" y2="315"/><!--MD5=[95a85f44ac29dedf51dc19cad66ee57c]
class MacOSButton--><rect fill="#FEFECE" filter="url(#f1953ms2d1qp2y)" height="48" id="MacOSButton" style="stroke: #A80036; stroke-width: 1.5;" width="116" x="1295" y="275"/><ellipse cx="1310" cy="291" fill="#ADD1B2" rx="11" ry="11" style="stroke: #A80036; stroke-width: 1.0;"/><path d="M1312.9688,296.6406 Q1312.3906,296.9375 1311.75,297.0781 Q1311.1094,297.2344 1310.4063,297.2344 Q1307.9063,297.2344 1306.5781,295.5938 Q1305.2656,293.9375 1305.2656,290.8125 Q1305.2656,287.6875 1306.5781,286.0313 Q1307.9063,284.375 1310.4063,284.375 Q1311.1094,284.375 1311.75,284.5313 Q1312.4063,284.6875 1312.9688,284.9844 L1312.9688,287.7031 Q1312.3438,287.125 1311.75,286.8594 Q1311.1563,286.5781 1310.5313,286.5781 Q1309.1875,286.5781 1308.5,287.6563 Q1307.8125,288.7188 1307.8125,290.8125 Q1307.8125,292.9063 1308.5,293.9844 Q1309.1875,295.0469 1310.5313,295.0469 Q1311.1563,295.0469 1311.75,294.7813 Q1312.3438,294.5 1312.9688,293.9219 L1312.9688,296.6406 Z "/><text fill="#000000" font-family="sans-serif" font-size="12" lengthAdjust="spacingAndGlyphs" textLength="84" x="1324" y="295.1543">MacOSButton</text><line style="stroke: #A80036; stroke-width: 1.5;" x1="1296" x2="1410" y1="307" y2="307"/><line style="stroke: #A80036; stroke-width: 1.5;" x1="1296" x2="1410" y1="315" y2="315"/><!--MD5=[e7ead23f5f29037e681f7eee9e8c75aa]
class WindowsButton--><rect fill="#FEFECE" filter="url(#f1953ms2d1qp2y)" height="48" id="WindowsButton" style="stroke: #A80036; stroke-width: 1.5;" width="128" x="1587" y="275"/><ellipse cx="1602" cy="291" fill="#ADD1B2" rx="11" ry="11" style="stroke: #A80036; stroke-width: 1.0;"/><path d="M1604.9688,296.6406 Q1604.3906,296.9375 1603.75,297.0781 Q1603.1094,297.2344 1602.4063,297.2344 Q1599.9063,297.2344 1598.5781,295.5938 Q1597.2656,293.9375 1597.2656,290.8125 Q1597.2656,287.6875 1598.5781,286.0313 Q1599.9063,284.375 1602.4063,284.375 Q1603.1094,284.375 1603.75,284.5313 Q1604.4063,284.6875 1604.9688,284.9844 L1604.9688,287.7031 Q1604.3438,287.125 1603.75,286.8594 Q1603.1563,286.5781 1602.5313,286.5781 Q1601.1875,286.5781 1600.5,287.6563 Q1599.8125,288.7188 1599.8125,290.8125 Q1599.8125,292.9063 1600.5,293.9844 Q1601.1875,295.0469 1602.5313,295.0469 Q1603.1563,295.0469 1603.75,294.7813 Q1604.3438,294.5 1604.9688,293.9219 L1604.9688,296.6406 Z "/><text fill="#000000" font-family="sans-serif" font-size="12" lengthAdjust="spacingAndGlyphs" textLength="96" x="1616" y="295.1543">WindowsButton</text><line style="stroke: #A80036; stroke-width: 1.5;" x1="1588" x2="1714" y1="307" y2="307"/><line style="stroke: #A80036; stroke-width: 1.5;" x1="1588" x2="1714" y1="315" y2="315"/><!--MD5=[70828c5f426aefda5bc805623193c8c5]
class LinuxTextBox--><rect fill="#FEFECE" filter="url(#f1953ms2d1qp2y)" height="48" id="LinuxTextBox" style="stroke: #A80036; stroke-width: 1.5;" width="111" x="979.5" y="275"/><ellipse cx="994.5" cy="291" fill="#ADD1B2" rx="11" ry="11" style="stroke: #A80036; stroke-width: 1.0;"/><path d="M997.4688,296.6406 Q996.8906,296.9375 996.25,297.0781 Q995.6094,297.2344 994.9063,297.2344 Q992.4063,297.2344 991.0781,295.5938 Q989.7656,293.9375 989.7656,290.8125 Q989.7656,287.6875 991.0781,286.0313 Q992.4063,284.375 994.9063,284.375 Q995.6094,284.375 996.25,284.5313 Q996.9063,284.6875 997.4688,284.9844 L997.4688,287.7031 Q996.8438,287.125 996.25,286.8594 Q995.6563,286.5781 995.0313,286.5781 Q993.6875,286.5781 993,287.6563 Q992.3125,288.7188 992.3125,290.8125 Q992.3125,292.9063 993,293.9844 Q993.6875,295.0469 995.0313,295.0469 Q995.6563,295.0469 996.25,294.7813 Q996.8438,294.5 997.4688,293.9219 L997.4688,296.6406 Z "/><text fill="#000000" font-family="sans-serif" font-size="12" lengthAdjust="spacingAndGlyphs" textLength="79" x="1008.5" y="295.1543">LinuxTextBox</text><line style="stroke: #A80036; stroke-width: 1.5;" x1="980.5" x2="1089.5" y1="307" y2="307"/><line style="stroke: #A80036; stroke-width: 1.5;" x1="980.5" x2="1089.5" y1="315" y2="315"/><!--MD5=[a9fc94410fd6909542fb0ba603de5c5e]
class MacOSTextBox--><rect fill="#FEFECE" filter="url(#f1953ms2d1qp2y)" height="48" id="MacOSTextBox" style="stroke: #A80036; stroke-width: 1.5;" width="122" x="822" y="275"/><ellipse cx="837" cy="291" fill="#ADD1B2" rx="11" ry="11" style="stroke: #A80036; stroke-width: 1.0;"/><path d="M839.9688,296.6406 Q839.3906,296.9375 838.75,297.0781 Q838.1094,297.2344 837.4063,297.2344 Q834.9063,297.2344 833.5781,295.5938 Q832.2656,293.9375 832.2656,290.8125 Q832.2656,287.6875 833.5781,286.0313 Q834.9063,284.375 837.4063,284.375 Q838.1094,284.375 838.75,284.5313 Q839.4063,284.6875 839.9688,284.9844 L839.9688,287.7031 Q839.3438,287.125 838.75,286.8594 Q838.1563,286.5781 837.5313,286.5781 Q836.1875,286.5781 835.5,287.6563 Q834.8125,288.7188 834.8125,290.8125 Q834.8125,292.9063 835.5,293.9844 Q836.1875,295.0469 837.5313,295.0469 Q838.1563,295.0469 838.75,294.7813 Q839.3438,294.5 839.9688,293.9219 L839.9688,296.6406 Z "/><text fill="#000000" font-family="sans-serif" font-size="12" lengthAdjust="spacingAndGlyphs" textLength="90" x="851" y="295.1543">MacOSTextBox</text><line style="stroke: #A80036; stroke-width: 1.5;" x1="823" x2="943" y1="307" y2="307"/><line style="stroke: #A80036; stroke-width: 1.5;" x1="823" x2="943" y1="315" y2="315"/><!--MD5=[699d7674727410f550115e0d0ac06ce8]
class WindowsTextBox--><rect fill="#FEFECE" filter="url(#f1953ms2d1qp2y)" height="48" id="WindowsTextBox" style="stroke: #A80036; stroke-width: 1.5;" width="134" x="1126" y="275"/><ellipse cx="1141" cy="291" fill="#ADD1B2" rx="11" ry="11" style="stroke: #A80036; stroke-width: 1.0;"/><path d="M1143.9688,296.6406 Q1143.3906,296.9375 1142.75,297.0781 Q1142.1094,297.2344 1141.4063,297.2344 Q1138.9063,297.2344 1137.5781,295.5938 Q1136.2656,293.9375 1136.2656,290.8125 Q1136.2656,287.6875 1137.5781,286.0313 Q1138.9063,284.375 1141.4063,284.375 Q1142.1094,284.375 1142.75,284.5313 Q1143.4063,284.6875 1143.9688,284.9844 L1143.9688,287.7031 Q1143.3438,287.125 1142.75,286.8594 Q1142.1563,286.5781 1141.5313,286.5781 Q1140.1875,286.5781 1139.5,287.6563 Q1138.8125,288.7188 1138.8125,290.8125 Q1138.8125,292.9063 1139.5,293.9844 Q1140.1875,295.0469 1141.5313,295.0469 Q1142.1563,295.0469 1142.75,294.7813 Q1143.3438,294.5 1143.9688,293.9219 L1143.9688,296.6406 Z "/><text fill="#000000" font-family="sans-serif" font-size="12" lengthAdjust="spacingAndGlyphs" textLength="102" x="1155" y="295.1543">WindowsTextBox</text><line style="stroke: #A80036; stroke-width: 1.5;" x1="1127" x2="1259" y1="307" y2="307"/><line style="stroke: #A80036; stroke-width: 1.5;" x1="1127" x2="1259" y1="315" y2="315"/><!--MD5=[bd741da4346f86842d9c5a9d52136d7f]
class LinuxCheckBox--><rect fill="#FEFECE" filter="url(#f1953ms2d1qp2y)" height="48" id="LinuxCheckBox" style="stroke: #A80036; stroke-width: 1.5;" width="123" x="207.5" y="275"/><ellipse cx="222.5" cy="291" fill="#ADD1B2" rx="11" ry="11" style="stroke: #A80036; stroke-width: 1.0;"/><path d="M225.4688,296.6406 Q224.8906,296.9375 224.25,297.0781 Q223.6094,297.2344 222.9063,297.2344 Q220.4063,297.2344 219.0781,295.5938 Q217.7656,293.9375 217.7656,290.8125 Q217.7656,287.6875 219.0781,286.0313 Q220.4063,284.375 222.9063,284.375 Q223.6094,284.375 224.25,284.5313 Q224.9063,284.6875 225.4688,284.9844 L225.4688,287.7031 Q224.8438,287.125 224.25,286.8594 Q223.6563,286.5781 223.0313,286.5781 Q221.6875,286.5781 221,287.6563 Q220.3125,288.7188 220.3125,290.8125 Q220.3125,292.9063 221,293.9844 Q221.6875,295.0469 223.0313,295.0469 Q223.6563,295.0469 224.25,294.7813 Q224.8438,294.5 225.4688,293.9219 L225.4688,296.6406 Z "/><text fill="#000000" font-family="sans-serif" font-size="12" lengthAdjust="spacingAndGlyphs" textLength="91" x="236.5" y="295.1543">LinuxCheckBox</text><line style="stroke: #A80036; stroke-width: 1.5;" x1="208.5" x2="329.5" y1="307" y2="307"/><line style="stroke: #A80036; stroke-width: 1.5;" x1="208.5" x2="329.5" y1="315" y2="315"/><!--MD5=[bf13e8708c55f180f9fe4efb36a93416]
class MacOSCheckBox--><rect fill="#FEFECE" filter="url(#f1953ms2d1qp2y)" height="48" id="MacOSCheckBox" style="stroke: #A80036; stroke-width: 1.5;" width="134" x="38" y="275"/><ellipse cx="53" cy="291" fill="#ADD1B2" rx="11" ry="11" style="stroke: #A80036; stroke-width: 1.0;"/><path d="M55.9688,296.6406 Q55.3906,296.9375 54.75,297.0781 Q54.1094,297.2344 53.4063,297.2344 Q50.9063,297.2344 49.5781,295.5938 Q48.2656,293.9375 48.2656,290.8125 Q48.2656,287.6875 49.5781,286.0313 Q50.9063,284.375 53.4063,284.375 Q54.1094,284.375 54.75,284.5313 Q55.4063,284.6875 55.9688,284.9844 L55.9688,287.7031 Q55.3438,287.125 54.75,286.8594 Q54.1563,286.5781 53.5313,286.5781 Q52.1875,286.5781 51.5,287.6563 Q50.8125,288.7188 50.8125,290.8125 Q50.8125,292.9063 51.5,293.9844 Q52.1875,295.0469 53.5313,295.0469 Q54.1563,295.0469 54.75,294.7813 Q55.3438,294.5 55.9688,293.9219 L55.9688,296.6406 Z "/><text fill="#000000" font-family="sans-serif" font-size="12" lengthAdjust="spacingAndGlyphs" textLength="102" x="67" y="295.1543">MacOSCheckBox</text><line style="stroke: #A80036; stroke-width: 1.5;" x1="39" x2="171" y1="307" y2="307"/><line style="stroke: #A80036; stroke-width: 1.5;" x1="39" x2="171" y1="315" y2="315"/><!--MD5=[8a988009db9182b5e98adf4e4a1b39eb]
class WindowsCheckBox--><rect fill="#FEFECE" filter="url(#f1953ms2d1qp2y)" height="48" id="WindowsCheckBox" style="stroke: #A80036; stroke-width: 1.5;" width="146" x="366" y="275"/><ellipse cx="381" cy="291" fill="#ADD1B2" rx="11" ry="11" style="stroke: #A80036; stroke-width: 1.0;"/><path d="M383.9688,296.6406 Q383.3906,296.9375 382.75,297.0781 Q382.1094,297.2344 381.4063,297.2344 Q378.9063,297.2344 377.5781,295.5938 Q376.2656,293.9375 376.2656,290.8125 Q376.2656,287.6875 377.5781,286.0313 Q378.9063,284.375 381.4063,284.375 Q382.1094,284.375 382.75,284.5313 Q383.4063,284.6875 383.9688,284.9844 L383.9688,287.7031 Q383.3438,287.125 382.75,286.8594 Q382.1563,286.5781 381.5313,286.5781 Q380.1875,286.5781 379.5,287.6563 Q378.8125,288.7188 378.8125,290.8125 Q378.8125,292.9063 379.5,293.9844 Q380.1875,295.0469 381.5313,295.0469 Q382.1563,295.0469 382.75,294.7813 Q383.3438,294.5 383.9688,293.9219 L383.9688,296.6406 Z "/><text fill="#000000" font-family="sans-serif" font-size="12" lengthAdjust="spacingAndGlyphs" textLength="114" x="395" y="295.1543">WindowsCheckBox</text><line style="stroke: #A80036; stroke-width: 1.5;" x1="367" x2="511" y1="307" y2="307"/><line style="stroke: #A80036; stroke-width: 1.5;" x1="367" x2="511" y1="315" y2="315"/><!--MD5=[78e8b7a26312904bbb4bcc5c9c217feb]
class LinuxUserInterfaceFactory--><rect fill="#FEFECE" filter="url(#f1953ms2d1qp2y)" height="48" id="LinuxUserInterfaceFactory" style="stroke: #A80036; stroke-width: 1.5;" width="194" x="1051" y="167"/><ellipse cx="1066" cy="183" fill="#ADD1B2" rx="11" ry="11" style="stroke: #A80036; stroke-width: 1.0;"/><path d="M1068.9688,188.6406 Q1068.3906,188.9375 1067.75,189.0781 Q1067.1094,189.2344 1066.4063,189.2344 Q1063.9063,189.2344 1062.5781,187.5938 Q1061.2656,185.9375 1061.2656,182.8125 Q1061.2656,179.6875 1062.5781,178.0313 Q1063.9063,176.375 1066.4063,176.375 Q1067.1094,176.375 1067.75,176.5313 Q1068.4063,176.6875 1068.9688,176.9844 L1068.9688,179.7031 Q1068.3438,179.125 1067.75,178.8594 Q1067.1563,178.5781 1066.5313,178.5781 Q1065.1875,178.5781 1064.5,179.6563 Q1063.8125,180.7188 1063.8125,182.8125 Q1063.8125,184.9063 1064.5,185.9844 Q1065.1875,187.0469 1066.5313,187.0469 Q1067.1563,187.0469 1067.75,186.7813 Q1068.3438,186.5 1068.9688,185.9219 L1068.9688,188.6406 Z "/><text fill="#000000" font-family="sans-serif" font-size="12" lengthAdjust="spacingAndGlyphs" textLength="162" x="1080" y="187.1543">LinuxUserInterfaceFactory</text><line style="stroke: #A80036; stroke-width: 1.5;" x1="1052" x2="1244" y1="199" y2="199"/><line style="stroke: #A80036; stroke-width: 1.5;" x1="1052" x2="1244" y1="207" y2="207"/><!--MD5=[3710f78e66d54d7c03095797a7e5d45b]
class MacOSUserInterfaceFactory--><rect fill="#FEFECE" filter="url(#f1953ms2d1qp2y)" height="48" id="MacOSUserInterfaceFactory" style="stroke: #A80036; stroke-width: 1.5;" width="205" x="810.5" y="167"/><ellipse cx="825.5" cy="183" fill="#ADD1B2" rx="11" ry="11" style="stroke: #A80036; stroke-width: 1.0;"/><path d="M828.4688,188.6406 Q827.8906,188.9375 827.25,189.0781 Q826.6094,189.2344 825.9063,189.2344 Q823.4063,189.2344 822.0781,187.5938 Q820.7656,185.9375 820.7656,182.8125 Q820.7656,179.6875 822.0781,178.0313 Q823.4063,176.375 825.9063,176.375 Q826.6094,176.375 827.25,176.5313 Q827.9063,176.6875 828.4688,176.9844 L828.4688,179.7031 Q827.8438,179.125 827.25,178.8594 Q826.6563,178.5781 826.0313,178.5781 Q824.6875,178.5781 824,179.6563 Q823.3125,180.7188 823.3125,182.8125 Q823.3125,184.9063 824,185.9844 Q824.6875,187.0469 826.0313,187.0469 Q826.6563,187.0469 827.25,186.7813 Q827.8438,186.5 828.4688,185.9219 L828.4688,188.6406 Z "/><text fill="#000000" font-family="sans-serif" font-size="12" lengthAdjust="spacingAndGlyphs" textLength="173" x="839.5" y="187.1543">MacOSUserInterfaceFactory</text><line style="stroke: #A80036; stroke-width: 1.5;" x1="811.5" x2="1014.5" y1="199" y2="199"/><line style="stroke: #A80036; stroke-width: 1.5;" x1="811.5" x2="1014.5" y1="207" y2="207"/><!--MD5=[086863f907767eee9d9dfee72b242892]
class WindowsUserInterfaceFactory--><rect fill="#FEFECE" filter="url(#f1953ms2d1qp2y)" height="48" id="WindowsUserInterfaceFactory" style="stroke: #A80036; stroke-width: 1.5;" width="217" x="558.5" y="167"/><ellipse cx="573.5" cy="183" fill="#ADD1B2" rx="11" ry="11" style="stroke: #A80036; stroke-width: 1.0;"/><path d="M576.4688,188.6406 Q575.8906,188.9375 575.25,189.0781 Q574.6094,189.2344 573.9063,189.2344 Q571.4063,189.2344 570.0781,187.5938 Q568.7656,185.9375 568.7656,182.8125 Q568.7656,179.6875 570.0781,178.0313 Q571.4063,176.375 573.9063,176.375 Q574.6094,176.375 575.25,176.5313 Q575.9063,176.6875 576.4688,176.9844 L576.4688,179.7031 Q575.8438,179.125 575.25,178.8594 Q574.6563,178.5781 574.0313,178.5781 Q572.6875,178.5781 572,179.6563 Q571.3125,180.7188 571.3125,182.8125 Q571.3125,184.9063 572,185.9844 Q572.6875,187.0469 574.0313,187.0469 Q574.6563,187.0469 575.25,186.7813 Q575.8438,186.5 576.4688,185.9219 L576.4688,188.6406 Z "/><text fill="#000000" font-family="sans-serif" font-size="12" lengthAdjust="spacingAndGlyphs" textLength="185" x="587.5" y="187.1543">WindowsUserInterfaceFactory</text><line style="stroke: #A80036; stroke-width: 1.5;" x1="559.5" x2="774.5" y1="199" y2="199"/><line style="stroke: #A80036; stroke-width: 1.5;" x1="559.5" x2="774.5" y1="207" y2="207"/><!--MD5=[c969adfe38f0aeaf4175a199d5dcbce7]
class UserInterfaceService--><rect fill="#FEFECE" filter="url(#f1953ms2d1qp2y)" height="48" id="UserInterfaceService" style="stroke: #A80036; stroke-width: 1.5;" width="162" x="361" y="167"/><ellipse cx="376" cy="183" fill="#ADD1B2" rx="11" ry="11" style="stroke: #A80036; stroke-width: 1.0;"/><path d="M378.9688,188.6406 Q378.3906,188.9375 377.75,189.0781 Q377.1094,189.2344 376.4063,189.2344 Q373.9063,189.2344 372.5781,187.5938 Q371.2656,185.9375 371.2656,182.8125 Q371.2656,179.6875 372.5781,178.0313 Q373.9063,176.375 376.4063,176.375 Q377.1094,176.375 377.75,176.5313 Q378.4063,176.6875 378.9688,176.9844 L378.9688,179.7031 Q378.3438,179.125 377.75,178.8594 Q377.1563,178.5781 376.5313,178.5781 Q375.1875,178.5781 374.5,179.6563 Q373.8125,180.7188 373.8125,182.8125 Q373.8125,184.9063 374.5,185.9844 Q375.1875,187.0469 376.5313,187.0469 Q377.1563,187.0469 377.75,186.7813 Q378.3438,186.5 378.9688,185.9219 L378.9688,188.6406 Z "/><text fill="#000000" font-family="sans-serif" font-size="12" lengthAdjust="spacingAndGlyphs" textLength="130" x="390" y="187.1543">UserInterfaceService</text><line style="stroke: #A80036; stroke-width: 1.5;" x1="362" x2="522" y1="199" y2="199"/><line style="stroke: #A80036; stroke-width: 1.5;" x1="362" x2="522" y1="207" y2="207"/><!--MD5=[9c67387e52c11173284c08917d35a9a0]
class UserInterfaceCli--><rect fill="#FEFECE" filter="url(#f1953ms2d1qp2y)" height="48" id="UserInterfaceCli" style="stroke: #A80036; stroke-width: 1.5;" width="131" x="376.5" y="59"/><ellipse cx="391.5" cy="75" fill="#ADD1B2" rx="11" ry="11" style="stroke: #A80036; stroke-width: 1.0;"/><path d="M394.4688,80.6406 Q393.8906,80.9375 393.25,81.0781 Q392.6094,81.2344 391.9063,81.2344 Q389.4063,81.2344 388.0781,79.5938 Q386.7656,77.9375 386.7656,74.8125 Q386.7656,71.6875 388.0781,70.0313 Q389.4063,68.375 391.9063,68.375 Q392.6094,68.375 393.25,68.5313 Q393.9063,68.6875 394.4688,68.9844 L394.4688,71.7031 Q393.8438,71.125 393.25,70.8594 Q392.6563,70.5781 392.0313,70.5781 Q390.6875,70.5781 390,71.6563 Q389.3125,72.7188 389.3125,74.8125 Q389.3125,76.9063 390,77.9844 Q390.6875,79.0469 392.0313,79.0469 Q392.6563,79.0469 393.25,78.7813 Q393.8438,78.5 394.4688,77.9219 L394.4688,80.6406 Z "/><text fill="#000000" font-family="sans-serif" font-size="12" lengthAdjust="spacingAndGlyphs" textLength="99" x="405.5" y="79.1543">UserInterfaceCli</text><line style="stroke: #A80036; stroke-width: 1.5;" x1="377.5" x2="506.5" y1="91" y2="91"/><line style="stroke: #A80036; stroke-width: 1.5;" x1="377.5" x2="506.5" y1="99" y2="99"/><!--MD5=[63fcb8a3a9d7548929611a3c48eba60e]
class UserInterfaceApplication--><rect fill="#FEFECE" filter="url(#f1953ms2d1qp2y)" height="48" id="UserInterfaceApplication" style="stroke: #A80036; stroke-width: 1.5;" width="186" x="140" y="167"/><ellipse cx="155" cy="183" fill="#ADD1B2" rx="11" ry="11" style="stroke: #A80036; stroke-width: 1.0;"/><path d="M157.9688,188.6406 Q157.3906,188.9375 156.75,189.0781 Q156.1094,189.2344 155.4063,189.2344 Q152.9063,189.2344 151.5781,187.5938 Q150.2656,185.9375 150.2656,182.8125 Q150.2656,179.6875 151.5781,178.0313 Q152.9063,176.375 155.4063,176.375 Q156.1094,176.375 156.75,176.5313 Q157.4063,176.6875 157.9688,176.9844 L157.9688,179.7031 Q157.3438,179.125 156.75,178.8594 Q156.1563,178.5781 155.5313,178.5781 Q154.1875,178.5781 153.5,179.6563 Q152.8125,180.7188 152.8125,182.8125 Q152.8125,184.9063 153.5,185.9844 Q154.1875,187.0469 155.5313,187.0469 Q156.1563,187.0469 156.75,186.7813 Q157.3438,186.5 157.9688,185.9219 L157.9688,188.6406 Z "/><text fill="#000000" font-family="sans-serif" font-size="12" lengthAdjust="spacingAndGlyphs" textLength="154" x="169" y="187.1543">UserInterfaceApplication</text><line style="stroke: #A80036; stroke-width: 1.5;" x1="141" x2="325" y1="199" y2="199"/><line style="stroke: #A80036; stroke-width: 1.5;" x1="141" x2="325" y1="207" y2="207"/><!--MD5=[c7dfede0e3c564f76ed885e525bd0451]
link IButton to IComponent--><path d="M1313.78,418.55 C1248.33,436.16 1115.81,471.81 1032.56,494.21 " fill="none" id="IButton-&gt;IComponent" style="stroke: #A80036; stroke-width: 1.0; stroke-dasharray: 7.0,7.0;"/><polygon fill="none" points="1034.17,501.03,1013.04,499.46,1030.53,487.51,1034.17,501.03" style="stroke: #A80036; stroke-width: 1.0;"/><!--MD5=[7bcd31fe5b81573cefa99bf145c56e19]
link ITextBox to IComponent--><path d="M959,431 C959,442.59 959,457.03 959,470.6 " fill="none" id="ITextBox-&gt;IComponent" style="stroke: #A80036; stroke-width: 1.0; stroke-dasharray: 7.0,7.0;"/><polygon fill="none" points="966,470.68,959,490.68,952,470.68,966,470.68" style="stroke: #A80036; stroke-width: 1.0;"/><!--MD5=[148556e016e6285c64e1110b19eabf34]
link ICheckBox to IComponent--><path d="M487.92,417.97 C579.48,436.64 777.21,476.94 885.1,498.94 " fill="none" id="ICheckBox-&gt;IComponent" style="stroke: #A80036; stroke-width: 1.0; stroke-dasharray: 7.0,7.0;"/><polygon fill="none" points="886.59,492.1,904.79,502.95,883.79,505.81,886.59,492.1" style="stroke: #A80036; stroke-width: 1.0;"/><!--MD5=[7e5814928f030bdd274c31a92f50d420]
link LinuxButton to IButton--><path d="M1467.32,323 C1447.97,337.05 1422.84,355.3 1401.07,371.1 " fill="none" id="LinuxButton-&gt;IButton" style="stroke: #A80036; stroke-width: 1.0; stroke-dasharray: 7.0,7.0;"/><polygon fill="none" points="1405.17,376.78,1384.87,382.86,1396.94,365.45,1405.17,376.78" style="stroke: #A80036; stroke-width: 1.0;"/><!--MD5=[407966d4cea8a39b2b2764abec680e85]
link MacOSButton to IButton--><path d="M1353,323 C1353,334.59 1353,349.03 1353,362.6 " fill="none" id="MacOSButton-&gt;IButton" style="stroke: #A80036; stroke-width: 1.0; stroke-dasharray: 7.0,7.0;"/><polygon fill="none" points="1360,362.68,1353,382.68,1346,362.68,1360,362.68" style="stroke: #A80036; stroke-width: 1.0;"/><!--MD5=[1c4023fe3a95634fd889662e8fb6ac9b]
link WindowsButton to IButton--><path d="M1586.71,322.87 C1534.56,341.42 1461.68,367.34 1411.23,385.29 " fill="none" id="WindowsButton-&gt;IButton" style="stroke: #A80036; stroke-width: 1.0; stroke-dasharray: 7.0,7.0;"/><polygon fill="none" points="1413.29,391.98,1392.1,392.09,1408.6,378.79,1413.29,391.98" style="stroke: #A80036; stroke-width: 1.0;"/><!--MD5=[d915e3e461521c2ff0774fb14562b658]
link LinuxTextBox to ITextBox--><path d="M1018.51,323 C1009.51,335.55 998.11,351.46 987.7,365.97 " fill="none" id="LinuxTextBox-&gt;ITextBox" style="stroke: #A80036; stroke-width: 1.0; stroke-dasharray: 7.0,7.0;"/><polygon fill="none" points="993.06,370.5,975.72,382.68,981.69,362.35,993.06,370.5" style="stroke: #A80036; stroke-width: 1.0;"/><!--MD5=[ed0ac89334b7e982dcb1a54a1e36f5f6]
link MacOSTextBox to ITextBox--><path d="M899.49,323 C908.49,335.55 919.89,351.46 930.3,365.97 " fill="none" id="MacOSTextBox-&gt;ITextBox" style="stroke: #A80036; stroke-width: 1.0; stroke-dasharray: 7.0,7.0;"/><polygon fill="none" points="936.31,362.35,942.28,382.68,924.94,370.5,936.31,362.35" style="stroke: #A80036; stroke-width: 1.0;"/><!--MD5=[28edfa870a0db6adb2105642ef167c3d]
link WindowsTextBox to ITextBox--><path d="M1142.23,323 C1106.46,339.2 1058.39,360.98 1020.46,378.16 " fill="none" id="WindowsTextBox-&gt;ITextBox" style="stroke: #A80036; stroke-width: 1.0; stroke-dasharray: 7.0,7.0;"/><polygon fill="none" points="1023.32,384.55,1002.22,386.42,1017.54,371.79,1023.32,384.55" style="stroke: #A80036; stroke-width: 1.0;"/><!--MD5=[43d623c0a79c02bb58c46a236295c924]
link LinuxCheckBox to ICheckBox--><path d="M305.89,323 C328.98,337.4 359.13,356.2 384.89,372.26 " fill="none" id="LinuxCheckBox-&gt;ICheckBox" style="stroke: #A80036; stroke-width: 1.0; stroke-dasharray: 7.0,7.0;"/><polygon fill="none" points="388.62,366.34,401.89,382.86,381.22,378.22,388.62,366.34" style="stroke: #A80036; stroke-width: 1.0;"/><!--MD5=[4bfa95403a4c1168039fe76fb9395506]
link MacOSCheckBox to ICheckBox--><path d="M172.19,321.32 C229.95,339.66 312.89,365.98 370.91,384.39 " fill="none" id="MacOSCheckBox-&gt;ICheckBox" style="stroke: #A80036; stroke-width: 1.0; stroke-dasharray: 7.0,7.0;"/><polygon fill="none" points="373.37,377.83,390.32,390.55,369.14,391.17,373.37,377.83" style="stroke: #A80036; stroke-width: 1.0;"/><!--MD5=[b438e5b57a37b65565dda2d9a8ec1710]
link WindowsCheckBox to ICheckBox--><path d="M439,323 C439,334.59 439,349.03 439,362.6 " fill="none" id="WindowsCheckBox-&gt;ICheckBox" style="stroke: #A80036; stroke-width: 1.0; stroke-dasharray: 7.0,7.0;"/><polygon fill="none" points="446,362.68,439,382.68,432,362.68,446,362.68" style="stroke: #A80036; stroke-width: 1.0;"/><!--MD5=[ff539c6d70d96b1be25281a4bcde60fd]
link LinuxUserInterfaceFactory to IUserInterfaceComponentFactory--><path d="M1050.95,213.39 C976.12,229.88 872.08,252.81 791.17,270.64 " fill="none" id="LinuxUserInterfaceFactory-&gt;IUserInterfaceComponentFactory" style="stroke: #A80036; stroke-width: 1.0; stroke-dasharray: 7.0,7.0;"/><polygon fill="none" points="792.44,277.53,771.4,274.99,789.42,263.85,792.44,277.53" style="stroke: #A80036; stroke-width: 1.0;"/><!--MD5=[93eaed16efa36bbdd1ba19f2b16fd53e]
link MacOSUserInterfaceFactory to IUserInterfaceComponentFactory--><path d="M859.62,215 C824.36,230.19 777.72,250.29 739.17,266.9 " fill="none" id="MacOSUserInterfaceFactory-&gt;IUserInterfaceComponentFactory" style="stroke: #A80036; stroke-width: 1.0; stroke-dasharray: 7.0,7.0;"/><polygon fill="none" points="741.84,273.38,720.7,274.86,736.3,260.52,741.84,273.38" style="stroke: #A80036; stroke-width: 1.0;"/><!--MD5=[24fee1c2ca4ce3b30a9d97da0593e371]
link WindowsUserInterfaceFactory to IUserInterfaceComponentFactory--><path d="M667,215 C667,226.59 667,241.03 667,254.6 " fill="none" id="WindowsUserInterfaceFactory-&gt;IUserInterfaceComponentFactory" style="stroke: #A80036; stroke-width: 1.0; stroke-dasharray: 7.0,7.0;"/><polygon fill="none" points="674,254.68,667,274.68,660,254.68,674,254.68" style="stroke: #A80036; stroke-width: 1.0;"/><!--MD5=[1b83d05ccb831946610c8e7c4414f376]
link IUserInterfaceComponentFactory to IButton--><path d="M787.03,320.12 C793.11,321.1 799.12,322.07 805,323 C992,352.74 1215.31,385.8 1308.61,399.51 " fill="none" id="IUserInterfaceComponentFactory-&gt;IButton" style="stroke: #A80036; stroke-width: 1.0;"/><polygon fill="#A80036" points="1313.76,400.26,1305.4373,394.9938,1308.8131,399.5329,1304.274,402.9088,1313.76,400.26" style="stroke: #A80036; stroke-width: 1.0;"/><!--MD5=[01f7356f6af4a909432055984d728653]
link IUserInterfaceComponentFactory to ITextBox--><path d="M730.36,323 C784.52,342.66 861.31,370.54 910.64,388.45 " fill="none" id="IUserInterfaceComponentFactory-&gt;ITextBox" style="stroke: #A80036; stroke-width: 1.0;"/><polygon fill="#A80036" points="915.62,390.25,908.5172,383.4273,910.9181,388.5493,905.7961,390.9503,915.62,390.25" style="stroke: #A80036; stroke-width: 1.0;"/><!--MD5=[14bb5adf82c2ab6d78f791a5e9ba0be4]
link IUserInterfaceComponentFactory to ICheckBox--><path d="M617.53,323 C580.53,340.2 530,363.69 492.14,381.29 " fill="none" id="IUserInterfaceComponentFactory-&gt;ICheckBox" style="stroke: #A80036; stroke-width: 1.0;"/><polygon fill="#A80036" points="487.59,383.41,497.4378,383.2644,492.1285,381.312,494.081,376.0028,487.59,383.41" style="stroke: #A80036; stroke-width: 1.0;"/><!--MD5=[c86bf1c0a9303e443309af2a3b4433e1]
link UserInterfaceService to IUserInterfaceComponentFactory--><path d="M490.82,215 C526.82,231.96 575.78,255.02 612.95,272.54 " fill="none" id="UserInterfaceService-&gt;IUserInterfaceComponentFactory" style="stroke: #A80036; stroke-width: 1.0;"/><polygon fill="#A80036" points="617.89,274.86,611.4555,267.4036,613.3675,272.7276,608.0436,274.6396,617.89,274.86" style="stroke: #A80036; stroke-width: 1.0;"/><!--MD5=[81e5cd40e5389d205f3132440f16ba00]
link UserInterfaceCli to UserInterfaceService--><path d="M442,107 C442,123 442,144.45 442,161.53 " fill="none" id="UserInterfaceCli-&gt;UserInterfaceService" style="stroke: #A80036; stroke-width: 1.0;"/><polygon fill="#A80036" points="442,166.68,446,157.68,442,161.68,438,157.68,442,166.68" style="stroke: #A80036; stroke-width: 1.0;"/><!--MD5=[606597bed3318db1fa5ea4525ca6f555]
link UserInterfaceApplication to IUserInterfaceComponentFactory--><path d="M326.1,214.74 C397.13,232.09 494.78,255.94 567.37,273.67 " fill="none" id="UserInterfaceApplication-&gt;IUserInterfaceComponentFactory" style="stroke: #A80036; stroke-width: 1.0;"/><polygon fill="#A80036" points="572.55,274.93,564.7554,268.9097,567.6926,273.7442,562.8581,276.6815,572.55,274.93" style="stroke: #A80036; stroke-width: 1.0;"/><!--MD5=[b6f643e437c3db16dca237b6c9215752]
@startuml

package AbstractFactory {
  interface IComponent
  interface IButton
  interface ITextBox
  interface ICheckBox
  interface IUserInterfaceComponentFactory
  class LinuxButton
  class MacOSButton
  class WindowsButton
  class LinuxTextBox
  class MacOSTextBox
  class WindowsTextBox
  class LinuxCheckBox
  class MacOSCheckBox
  class WindowsCheckBox
  class LinuxUserInterfaceFactory
  class MacOSUserInterfaceFactory
  class WindowsUserInterfaceFactory
  class UserInterfaceService
  class UserInterfaceCli
  class UserInterfaceApplication
}

IButton ..|> IComponent
ITextBox ..|> IComponent
ICheckBox ..|> IComponent

LinuxButton ..|> IButton
MacOSButton ..|> IButton
WindowsButton ..|> IButton

LinuxTextBox ..|> ITextBox
MacOSTextBox ..|> ITextBox
WindowsTextBox ..|> ITextBox

LinuxCheckBox ..|> ICheckBox
MacOSCheckBox ..|> ICheckBox
WindowsCheckBox ..|> ICheckBox

LinuxUserInterfaceFactory ..|> IUserInterfaceComponentFactory
MacOSUserInterfaceFactory ..|> IUserInterfaceComponentFactory
WindowsUserInterfaceFactory ..|> IUserInterfaceComponentFactory

IUserInterfaceComponentFactory - -> IButton
IUserInterfaceComponentFactory - -> ITextBox
IUserInterfaceComponentFactory - -> ICheckBox
UserInterfaceService - -> IUserInterfaceComponentFactory
UserInterfaceCli - -> UserInterfaceService
UserInterfaceApplication - -> IUserInterfaceComponentFactory
@enduml

PlantUML version 1.2020.02(Sun Mar 01 06:22:07 AMT 2020)
(GPL source distribution)
Java Runtime: OpenJDK Runtime Environment
JVM: OpenJDK 64-Bit Server VM
Java Version: 21.0.7+6-LTS
Operating System: Linux
Default Encoding: UTF-8
Language: en
Country: null
--></g></svg>